<?xml version="1.0" encoding="utf-8"?>
<!-- Generator: Adobe Illustrator 21.0.2, SVG Export Plug-In . SVG Version: 6.00 Build 0)  -->
<svg version="1.1" id="Layer_1" xmlns="http://www.w3.org/2000/svg" xmlns:xlink="http://www.w3.org/1999/xlink" x="0px" y="0px"
	 viewBox="0 0 314 117" style="enable-background:new 0 0 314 117;" xml:space="preserve">
<style type="text/css">
	.st0{fill:#FFFFFF;}
</style>
<g>
	<path class="st0" d="M26.8,86.7c0.1-0.1,0.2-0.2,0.3-0.3c0,0,0-0.1,0.1-0.1c0-0.1,0.1-0.2,0.1-0.2c0-0.1,0-0.1,0.1-0.1
		c0-0.1,0-0.1,0.1-0.2c0-0.1,0-0.1,0-0.2c0-0.1,0-0.1,0-0.2c0-0.1,0-0.1,0-0.2c0-0.1,0-0.1,0-0.2c0-0.1,0-0.1,0-0.2
		c0-0.1,0-0.1-0.1-0.2c0-0.1,0-0.1-0.1-0.2c0-0.1-0.1-0.1-0.1-0.2c0-0.1-0.1-0.1-0.1-0.2c0,0,0,0,0-0.1c-1.7-2.2-3.1-4.5-4.3-6.9
		c0,0,0-0.1,0-0.1c-0.5-1-1.7-1.4-2.8-0.9l-4.3,2.1c-1,0.5-1.4,1.7-0.9,2.8c0.5,1,1.7,1.4,2.8,0.9l2.4-1.2c0.8,1.5,1.7,3,2.7,4.4
		l-5.4,5.4C11.5,82.6,8,73.5,7,64.1l7.5-0.5c0.2,1.7,0.5,3.4,0.9,5.2c0.3,1.1,1.4,1.8,2.5,1.6c0.4-0.1,0.7-0.3,1-0.5
		c0.5-0.5,0.7-1.2,0.6-1.9c-0.5-2.4-0.9-4.8-1-7.3l7.6,0c0.4,6,2.3,12,6,17.3c0,0,0,0,0,0c0,0,0,0,0,0c0,0,0.1,0.1,0.1,0.1
		c0,0.1,0.1,0.1,0.1,0.2c0,0,0,0,0,0c0.1,0.1,0.1,0.1,0.2,0.2c0,0,0.1,0.1,0.1,0.1c0.1,0,0.1,0.1,0.2,0.1c0.1,0,0.1,0.1,0.2,0.1
		c0.1,0,0.1,0,0.2,0.1c0.1,0,0.1,0,0.2,0.1c0.1,0,0.1,0,0.2,0c0.1,0,0.1,0,0.2,0c0.1,0,0.1,0,0.2,0c0.1,0,0.1,0,0.2,0
		c0.1,0,0.1,0,0.2,0c0.1,0,0.1,0,0.2-0.1c0,0,0.1,0,0.1-0.1c0.1,0,0.2-0.1,0.2-0.1c0,0,0,0,0,0c0.1-0.1,0.2-0.2,0.3-0.2c0,0,0,0,0,0
		l8.6-8.6l0,0c0.1-0.1,0.2-0.2,0.2-0.3c0,0,0-0.1,0.1-0.1c0-0.1,0.1-0.1,0.1-0.2c0,0,0-0.1,0.1-0.1c0-0.1,0-0.2,0.1-0.2
		c0,0,0-0.1,0-0.1c0-0.1,0-0.2,0-0.3c0,0,0,0,0,0c0-0.1,0-0.2,0-0.4c0,0,0-0.1,0-0.1c0-0.1,0-0.2-0.1-0.2c0,0,0-0.1-0.1-0.1
		c0,0,0-0.1-0.1-0.1c-2.6-4.8-2.9-10.5-0.9-15.7c0.4-1.1-0.1-2.3-1.1-2.7c-1.1-0.4-2.3,0.1-2.7,1.1c-2.3,5.8-2.2,12.2,0.4,17.8
		l-5.7,5.7c-2.7-4.7-4-9.8-4-14.9c0,0,0-0.1,0-0.1c0,0,0-0.1,0-0.1c0-1.3,0.1-2.6,0.3-3.8l0.8-4c1.7-6.2,5.3-11.8,10.8-16
		c2.1-1.6,4.5-3,7-4l2.4,7.3c-1.2,0.5-2.4,1.2-3.6,1.9c0,0,0,0,0,0c0,0,0,0,0,0c-0.9,0.6-1.2,1.9-0.6,2.9l3.1,4.6
		c0.6,0.9,1.9,1.2,2.9,0.6c0.1-0.1,0.2-0.2,0.3-0.3c0.7-0.7,0.8-1.8,0.3-2.6l-1.9-2.8c0.9-0.5,1.8-0.8,2.7-1.2c0,0,0.1,0,0.1,0
		c0,0,0.1,0,0.1,0c3.8-1.2,7.9-1.2,11.7,0.2l-6.6,6.6c-2.7,0.1-5.3,1.2-7.2,3.1C50.6,53,49.5,56,49.6,59c0.1,1.1,1,2,2.2,2
		c1.1-0.1,2-1,2-2.2c-0.1-1.9,0.6-3.7,1.9-5c1.3-1.3,3.1-2,5-1.9c0,0,0,0,0,0c0.1,0,0.2,0,0.3,0c0,0,0.1,0,0.2,0
		c0.1,0,0.2,0,0.3-0.1c0,0,0.1,0,0.1,0c0.2-0.1,0.5-0.3,0.7-0.5l9.3-9.3c0,0,0,0,0,0c0.1-0.1,0.2-0.2,0.2-0.3c0,0,0-0.1,0.1-0.1
		c0,0,0-0.1,0.1-0.1c0,0,0-0.1,0-0.1c0-0.1,0.1-0.1,0.1-0.2c0-0.1,0-0.1,0.1-0.2c0-0.1,0-0.1,0-0.2c0-0.1,0-0.1,0-0.2
		c0-0.1,0-0.1,0-0.2c0-0.1,0-0.1,0-0.2c0-0.1,0-0.1,0-0.2c0-0.1,0-0.1-0.1-0.2c0-0.1,0-0.1-0.1-0.2c0-0.1-0.1-0.1-0.1-0.2
		c0-0.1-0.1-0.1-0.1-0.2c0-0.1-0.1-0.1-0.1-0.2c0,0,0-0.1-0.1-0.1c0,0,0,0-0.1-0.1c-0.1,0-0.1-0.1-0.2-0.1c-0.1,0-0.1-0.1-0.2-0.1
		c0,0,0,0-0.1,0c-4.9-2.7-10.5-3.3-15.7-2.1L53,29.3c3-0.8,6-1.1,9.1-0.9c1.1,0.1,2.1-0.8,2.2-1.9c0.1-1.1-0.8-2.1-1.9-2.2
		c-0.5,0-1.1,0-1.6-0.1l-0.4-7.6c8.2,0,16.4,2.4,23.6,7.2l-5.5,5.5c-2.1-1.3-4.2-2.3-6.5-3.1c-1.1-0.4-2.3,0.2-2.6,1.3
		c-0.4,1.1,0.2,2.3,1.3,2.6c2.5,0.9,4.8,2.1,7,3.6c0,0,0,0,0,0c0,0,0.1,0,0.1,0.1c0.1,0,0.1,0.1,0.2,0.1c0,0,0.1,0,0.1,0
		c0.1,0,0.1,0,0.2,0.1c0,0,0.1,0,0.1,0c0.1,0,0.2,0,0.2,0c0.1,0,0.1,0,0.2,0c0.1,0,0.1,0,0.2,0c0.1,0,0.1,0,0.2,0
		c0.1,0,0.1,0,0.2-0.1c0,0,0.1,0,0.1-0.1c0.1,0,0.2-0.1,0.2-0.1c0,0,0.1,0,0.1-0.1c0.1-0.1,0.2-0.2,0.3-0.3l0,0l8.4-8.4l0,0
		c0.1-0.1,0.1-0.1,0.2-0.2c0,0,0,0,0-0.1c0-0.1,0.1-0.1,0.1-0.2c0-0.1,0.1-0.1,0.1-0.2c0-0.1,0.1-0.1,0.1-0.2c0-0.1,0-0.1,0.1-0.2
		c0-0.1,0-0.1,0-0.2c0-0.1,0-0.1,0-0.2c0-0.1,0-0.1,0-0.2c0-0.1,0-0.1,0-0.2c0-0.1,0-0.1,0-0.2c0-0.1,0-0.1-0.1-0.2
		c0-0.1-0.1-0.1-0.1-0.2c0-0.1-0.1-0.1-0.1-0.2c0-0.1-0.1-0.1-0.1-0.2c0-0.1-0.1-0.1-0.1-0.2c0,0,0,0,0-0.1c0,0-0.1-0.1-0.1-0.1
		c0,0-0.1-0.1-0.1-0.1c-4.1-3.2-8.6-5.5-13.4-7.1L77,7.5c2.5,0.8,4.9,1.8,7.3,3c3.4,1.7,6.7,3.8,9.7,6.3c0.8,0.7,2,0.6,2.8-0.1
		c0.1,0,0.1-0.1,0.1-0.2c0.7-0.9,0.6-2.2-0.3-2.9c-3.2-2.6-6.7-4.9-10.5-6.7C72.4,0,56.8-1.1,42.1,3.7C27.5,8.6,15.6,18.8,8.7,32.6
		c-1.6,3.3-2.9,6.6-3.9,10c0,0,0,0.1,0,0.1c0,0,0,0.1,0,0.1C3,49.1,2.3,55.6,2.7,62c0,0.1,0,0.2,0,0.3c0,0.1,0,0.2,0,0.3
		c0.8,11.6,5.1,22.9,12.7,32.3c0,0,0.1,0,0.1,0.1c0,0,0,0.1,0.1,0.1c0,0,0.1,0,0.1,0.1c0.1,0,0.1,0.1,0.2,0.1c0.1,0,0.1,0.1,0.2,0.1
		c0.1,0,0.1,0.1,0.2,0.1c0.1,0,0.1,0.1,0.2,0.1c0.1,0,0.1,0,0.2,0.1c0.1,0,0.1,0,0.2,0c0.1,0,0.1,0,0.2,0c0.1,0,0.1,0,0.2,0
		c0.1,0,0.1,0,0.2,0c0.1,0,0.1,0,0.2,0c0.1,0,0.1,0,0.2-0.1c0.1,0,0.1,0,0.2-0.1c0.1,0,0.1-0.1,0.2-0.1c0.1,0,0.1-0.1,0.2-0.1
		c0,0,0.1,0,0.1-0.1c0,0,0-0.1,0.1-0.1c0,0,0.1,0,0.1-0.1L26.8,86.7C26.8,86.7,26.8,86.7,26.8,86.7z M43.4,7.6
		c0.7-0.2,1.4-0.4,2.1-0.6l4-1c7.8-1.6,15.9-1.5,23.6,0.4L71,13.7C56.5,10.3,40.7,14,29.3,24.5l-5.4-5.4C29.4,14,36.1,10.1,43.4,7.6
		z M8.2,45.9l1.1-4c0.8-2.5,1.8-5,3-7.4c2.3-4.6,5.2-8.8,8.6-12.4l5.4,5.4c-3.1,3.4-5.6,7.1-7.6,11.2c-0.5,1-0.1,2.3,1,2.8
		c0,0,0.1,0,0.1,0l4.9,2.3c0.8,0.4,1.7,0.2,2.4-0.4c0.2-0.2,0.3-0.4,0.4-0.6c0.5-1,0.1-2.3-1-2.8l-3.1-1.5c1.9-3.6,4.3-6.8,7.2-9.7
		c7.1-7.1,16.1-11.1,25.5-12l0.4,7.6c-5.1,0.6-10,2.2-14.3,4.9l-3.4,2.4C31.1,38,26.7,47.1,26.1,56.5h-7.6c0.1-1.8,0.3-3.6,0.6-5.3
		c0.2-1.1-0.5-2.2-1.7-2.4c-1.1-0.2-2.2,0.6-2.4,1.7c-0.5,3-0.8,6.1-0.7,9.1L6.8,60C6.6,55.3,7.1,50.5,8.2,45.9z"/>
	<path class="st0" d="M116.4,44.9c0-0.1,0-0.2,0-0.3c0-0.1,0-0.1-0.1-0.2c-2-8-5.7-15.6-11.1-22.2c0,0-0.1,0-0.1-0.1
		c0,0,0-0.1-0.1-0.1c0,0,0,0-0.1-0.1c-0.1,0-0.1-0.1-0.2-0.1c-0.1,0-0.1-0.1-0.2-0.1c-0.1,0-0.1-0.1-0.2-0.1c-0.1,0-0.1-0.1-0.2-0.1
		c-0.1,0-0.1,0-0.2-0.1c-0.1,0-0.1,0-0.2,0c-0.1,0-0.1,0-0.2,0c-0.1,0-0.1,0-0.2,0c-0.1,0-0.1,0-0.2,0c-0.1,0-0.1,0-0.2,0
		c-0.1,0-0.1,0-0.2,0.1c-0.1,0-0.1,0-0.2,0.1c-0.1,0-0.1,0.1-0.2,0.1c-0.1,0-0.1,0.1-0.2,0.1c0,0-0.1,0-0.1,0.1c0,0-0.1,0.1-0.1,0.1
		c0,0-0.1,0-0.1,0.1l-8.3,8.3c0,0,0,0,0,0.1c0,0.1-0.1,0.1-0.1,0.2c0,0.1-0.1,0.1-0.1,0.2c0,0.1-0.1,0.1-0.1,0.2
		c0,0.1-0.1,0.1-0.1,0.2c0,0.1,0,0.1-0.1,0.2c0,0.1,0,0.1,0,0.2c0,0.1,0,0.1,0,0.2c0,0.1,0,0.1,0,0.2c0,0.1,0,0.1,0,0.2
		c0,0.1,0,0.1,0,0.2c0,0.1,0,0.1,0.1,0.2c0,0.1,0,0.1,0.1,0.2c0,0.1,0.1,0.1,0.1,0.2c0,0.1,0.1,0.1,0.1,0.2c0,0,0,0,0,0.1
		c1.6,2.1,3,4.3,4.2,6.7c0.5,1,1.8,1.4,2.8,0.9c0.2-0.1,0.4-0.2,0.5-0.4c0.6-0.6,0.8-1.6,0.4-2.4c-1-2-2.2-4-3.5-5.9l5.4-5.4
		c3.8,5.2,6.6,10.9,8.4,17l-9.3,2.3c-1.1,0.3-1.8,1.4-1.5,2.5c0,0,0,0,0,0.1c0.7,2.7,1,5.3,1.2,8h-7.7c-0.4-6.2-2.4-12.2-6-17.3
		c0,0,0,0,0,0c0,0,0,0,0,0c0,0-0.1-0.1-0.1-0.1c0-0.1-0.1-0.1-0.1-0.2c0,0,0,0,0,0c-0.1-0.1-0.1-0.1-0.2-0.2c0,0-0.1-0.1-0.1-0.1
		c-0.1,0-0.1-0.1-0.2-0.1c-0.1,0-0.1-0.1-0.2-0.1c-0.1,0-0.1,0-0.2-0.1c-0.1,0-0.1,0-0.2-0.1c-0.1,0-0.1,0-0.2,0c-0.1,0-0.1,0-0.2,0
		c-0.1,0-0.1,0-0.2,0c-0.1,0-0.1,0-0.2,0c-0.1,0-0.1,0-0.2,0.1c-0.1,0-0.1,0-0.2,0.1c-0.1,0-0.1,0.1-0.1,0.1c-0.1,0-0.2,0.1-0.2,0.1
		c0,0,0,0,0,0c-0.1,0-0.1,0.1-0.1,0.1c-0.1,0-0.1,0.1-0.1,0.1l0,0c0,0,0,0,0,0l-8.5,8.5c0,0,0,0.1-0.1,0.1c-0.1,0.1-0.1,0.1-0.1,0.2
		c0,0.1-0.1,0.1-0.1,0.2c0,0.1-0.1,0.1-0.1,0.2c0,0.1-0.1,0.1-0.1,0.2c0,0.1,0,0.1-0.1,0.2c0,0.1,0,0.1,0,0.2c0,0.1,0,0.1,0,0.2
		c0,0.1,0,0.1,0,0.2c0,0.1,0,0.1,0,0.2c0,0.1,0,0.1,0,0.2c0,0.1,0,0.1,0.1,0.2c0,0.1,0.1,0.1,0.1,0.2c0,0,0,0.1,0,0.1
		c3.8,7.1,2.5,16-3.2,21.7c-5,5-12.6,6.6-19.1,4.3l6.6-6.6c2.7-0.1,5.3-1.2,7.2-3.1c2.1-2.1,3.3-5.1,3.1-8.1c-0.1-1.1-1-2-2.2-2
		c-1.1,0.1-2,1-2,2.2c0.1,1.9-0.6,3.7-1.9,5c-1.3,1.3-3.1,2-5,1.9c0,0,0,0,0,0c-0.1,0-0.2,0-0.2,0c-0.1,0-0.1,0-0.2,0
		c-0.1,0-0.1,0-0.2,0.1c-0.1,0-0.1,0-0.2,0.1c-0.1,0-0.1,0.1-0.2,0.1c-0.1,0-0.1,0.1-0.2,0.1c-0.1,0-0.1,0.1-0.2,0.1
		c-0.1,0-0.1,0.1-0.2,0.1c0,0,0,0,0,0L49.2,75c0,0,0,0-0.1,0.1c0,0.1-0.1,0.1-0.1,0.2c0,0.1-0.1,0.1-0.1,0.2c0,0,0,0,0,0.1
		c0,0,0,0.1,0,0.1c0,0.1-0.1,0.1-0.1,0.2c0,0.1,0,0.1-0.1,0.2c0,0.1,0,0.1,0,0.2c0,0.1,0,0.1,0,0.2c0,0.1,0,0.1,0,0.2
		c0,0.1,0,0.1,0,0.2c0,0.1,0,0.1,0,0.2c0,0.1,0,0.1,0.1,0.2c0,0.1,0,0.1,0.1,0.2c0,0.1,0.1,0.1,0.1,0.2c0,0.1,0.1,0.1,0.1,0.2
		c0,0.1,0.1,0.1,0.1,0.2c0,0,0,0.1,0.1,0.1c0,0,0,0,0.1,0.1c0.1,0,0.1,0.1,0.2,0.1c0.1,0,0.1,0.1,0.2,0.1c0,0,0,0,0.1,0
		c2,1.1,4,1.8,6.1,2.2l-0.9,7.7c-4.2-0.8-8.1-2.4-11.7-4.8c0,0,0,0,0,0c-0.1-0.1-0.2-0.1-0.2-0.1c0,0-0.1-0.1-0.1-0.1
		c-0.1,0-0.2-0.1-0.2-0.1c-0.1,0-0.1,0-0.2,0c-0.1,0-0.2,0-0.2,0c-0.1,0-0.1,0-0.2,0c-0.1,0-0.2,0-0.2,0c0,0-0.1,0-0.1,0
		c-0.1,0-0.1,0-0.2,0.1c-0.1,0-0.1,0-0.2,0c0,0-0.1,0-0.1,0.1c-0.1,0-0.1,0.1-0.2,0.1c0,0-0.1,0.1-0.1,0.1c-0.1,0.1-0.2,0.1-0.2,0.2
		c0,0,0,0,0,0L32.2,92c0,0-0.1,0.1-0.1,0.1c0,0-0.1,0.1-0.1,0.1c0,0,0,0,0,0.1c0,0.1-0.1,0.1-0.1,0.2c0,0.1-0.1,0.1-0.1,0.2
		c0,0.1-0.1,0.1-0.1,0.2c0,0.1,0,0.1-0.1,0.2c0,0.1,0,0.1,0,0.2c0,0.1,0,0.1,0,0.2c0,0.1,0,0.1,0,0.2c0,0.1,0,0.1,0,0.2
		c0,0.1,0,0.1,0,0.2c0,0.1,0,0.1,0.1,0.2c0,0.1,0.1,0.1,0.1,0.2c0,0.1,0.1,0.1,0.1,0.2c0,0.1,0.1,0.1,0.1,0.2c0,0.1,0.1,0.1,0.1,0.2
		c0,0,0,0,0,0.1c0,0,0.1,0.1,0.1,0.1c0,0,0.1,0.1,0.1,0.1c2.3,1.7,4.7,3.2,7.2,4.5l-3.1,6.9c-0.1,0-0.1-0.1-0.2-0.1
		c-3.4-1.7-6.7-3.8-9.7-6.2c-0.9-0.7-2.2-0.6-2.9,0.3c-0.7,0.9-0.6,2.2,0.3,2.9c3.2,2.6,6.7,4.9,10.5,6.7c13.9,7,29.4,7.8,43.2,3.4
		c0,0,0.1,0,0.1,0c0,0,0.1,0,0.1-0.1c8.7-2.8,16.7-7.6,23.3-14.2c4.3-4.3,7.9-9.3,10.8-14.9C118.2,72,119.6,57.9,116.4,44.9z
		 M40.3,108.2l3.1-6.9c1,0.4,2,0.8,3,1.1c0.8,0.2,1.6,0,2.1-0.5c0.2-0.2,0.4-0.5,0.5-0.8c0.3-1.1-0.3-2.2-1.3-2.6
		c-1.5-0.5-3-1.1-4.5-1.7c0,0,0,0,0,0c0,0,0,0,0,0c-2.2-1-4.3-2.2-6.3-3.5l5.5-5.5c4.9,3,10.3,4.7,15.9,5v7.6
		c-0.9,0-1.8-0.1-2.7-0.2c0,0,0,0,0,0c0,0,0,0,0,0c0,0,0,0,0,0c-1.1-0.1-2.2,0.7-2.3,1.8c0,0.1,0,0.2,0,0.3l-0.6,5.2
		c-0.1,1.1,0.7,2.2,1.8,2.3c0.7,0.1,1.3-0.2,1.7-0.6c0.3-0.3,0.5-0.7,0.6-1.2l0.4-3.5c5.1,0.4,10.2-0.2,15.1-1.5l2.3,7.2
		C63.5,113.2,51.5,112.8,40.3,108.2z M78.5,109l-2.3-7.2c3.3-1.2,6.5-2.8,9.4-4.7c0.1-0.1,0.2-0.2,0.3-0.3c0.7-0.7,0.8-1.8,0.3-2.6
		c-0.6-1-1.9-1.2-2.9-0.6c-6.3,4.1-13.5,6.4-20.9,6.8v-7.6c2.1-0.1,4.2-0.4,6.3-1c0.4-0.1,0.7-0.3,1-0.5c0.5-0.5,0.7-1.2,0.5-2
		c-0.3-1.1-1.4-1.8-2.5-1.5c-2.9,0.7-5.8,1-8.7,0.9l0.9-7.7c6,0.1,12-2.2,16.4-6.6c1.7-1.7,3-3.6,4.1-5.6l7.2,2.9
		c-2.1,4.2-5.1,7.9-8.9,10.8c-0.9,0.7-1.8,1.3-2.7,1.8c-1,0.6-1.3,1.9-0.7,2.8c0,0,0,0,0,0l2.4,4c0.6,1,1.9,1.3,2.8,0.7
		c0.1-0.1,0.3-0.2,0.4-0.3c0.7-0.7,0.8-1.7,0.3-2.5l-1.4-2.3c0.4-0.3,0.9-0.6,1.3-0.9c1.2-0.9,2.4-1.9,3.5-3
		c3.3-3.3,5.8-7.1,7.5-11.4c0.4-1.1-0.1-2.3-1.1-2.7c0,0,0,0-0.1,0c0,0,0,0-0.1,0l-9-3.6c1.5-5.1,1.2-10.7-1-15.8l5.7-5.7
		c1.1,1.9,2,3.9,2.6,6l1,4c0.3,1.6,0.4,3.3,0.4,5c0,0,0,0,0,0s0,0,0,0c0,0.7,0,1.5-0.1,2.2l-3-0.4c-1.1-0.2-2.2,0.6-2.3,1.7
		c-0.2,1.1,0.6,2.2,1.7,2.3l5,0.7c0,0,0.1,0,0.1,0c0.7,0.1,1.3-0.1,1.8-0.6c0.3-0.3,0.5-0.7,0.6-1.2c0.1-0.9,0.2-1.9,0.3-2.8h7.7
		c-0.3,6.5-2.1,12.8-5.3,18.5c0,0,0,0,0,0c0,0,0,0,0,0c-1.1,1.9-2.3,3.7-3.7,5.5l-2.2-2c-0.9-0.8-2.2-0.7-2.9,0.2
		c-0.8,0.8-0.7,2.2,0.2,2.9l3.8,3.4c0.8,0.7,2.1,0.7,2.8-0.1c0,0,0.1-0.1,0.1-0.1c1.7-1.9,3.1-3.9,4.5-6l6.6,3.7
		C99.5,97.3,89.6,105,78.5,109z M113.7,64.2c-0.7,6.3-2.4,12.5-5.4,18.3c-0.1,0.2-0.2,0.3-0.2,0.5l-6.6-3.7c4.6-9.1,6.1-19.7,4-29.9
		l7.3-1.8c0.9,4.1,1.2,8.3,1.1,12.5L113.7,64.2z"/>
</g>
<g>
	<g>
		<g>
			<path class="st0" d="M194.1,58.5c0,6.5-2.3,12.2-6.9,16.7c-4.6,4.6-10.2,6.9-16.7,6.9c-6.5,0-12.1-2.3-16.7-6.9
				c-4.6-4.6-6.9-10.2-6.9-16.7c0-6.5,2.3-12.1,6.9-16.7c4.6-4.6,10.2-6.9,16.7-6.9c5.2,0,9.8,1.5,13.8,4.4c0.8,0.6,1,1.8,0.4,2.6
				c-0.6,0.8-1.8,1-2.6,0.4c-3.3-2.5-7.2-3.7-11.6-3.7c-5.4,0-10.2,2-14,5.8c-3.9,3.9-5.8,8.6-5.8,14c0,5.5,2,10.2,5.8,14.1
				c3.9,3.9,8.6,5.8,14,5.8c5.5,0,10.2-2,14-5.8c3.9-3.8,5.8-8.6,5.8-14.1c0-3.9-1-7.4-2.9-10.4c-0.5-0.9-0.3-2,0.6-2.6
				c0.9-0.6,2-0.3,2.6,0.6C192.9,49.7,194.1,53.9,194.1,58.5z"/>
		</g>
		<g>
			<path class="st0" d="M200.1,82.1c-1.1,0-1.9-0.9-1.9-1.9V37.7c0-1.6,1.3-2.8,2.8-2.8h13.4c4.8,0,9,1.7,12.4,5.1
				c3.4,3.4,5.1,7.6,5.1,12.4c0,4.8-1.7,9-5.1,12.4c-3.4,3.4-7.6,5.1-12.4,5.1h-0.9c-1.1,0-1.9-0.9-1.9-1.9c0-1.1,0.9-1.9,1.9-1.9
				h0.9c3.7,0,7-1.3,9.7-4c2.7-2.6,4-5.9,4-9.6c0-3.7-1.3-7-4-9.7c-2.7-2.7-5.9-4-9.7-4h-12.4V66h2.8c1.1,0,1.9,0.9,1.9,1.9
				c0,1.1-0.9,1.9-1.9,1.9h-2.8v10.3C202.1,81.2,201.2,82.1,200.1,82.1z"/>
		</g>
		<g>
			<path class="st0" d="M237.2,82.1c-1.1,0-1.9-0.9-1.9-1.9V37.7c0-1.6,1.3-2.8,2.8-2.8h13.4c3,0,5.8,0.7,8.3,2.1
				c0.9,0.5,1.3,1.7,0.8,2.6c-0.5,0.9-1.7,1.3-2.6,0.8c-1.9-1.1-4.1-1.6-6.5-1.6h-12.4V66h12.4c3.7,0,7-1.3,9.7-4
				c2.7-2.7,4-5.9,4-9.6c0-2.5-0.6-4.7-1.7-6.7c-0.5-0.9-0.2-2.1,0.7-2.6c0.9-0.5,2.1-0.2,2.6,0.7c1.5,2.6,2.2,5.5,2.2,8.6
				c0,4.8-1.7,9-5.1,12.4c-3.4,3.4-7.6,5.1-12.4,5.1h-12.4v10.3C239.1,81.2,238.3,82.1,237.2,82.1z"/>
		</g>
		<g>
			<path class="st0" d="M266.1,82.1c-0.3,0-0.5-0.1-0.8-0.2c-1-0.5-1.4-1.6-0.9-2.6l3.5-7.5c0.1-0.2,0.2-0.4,0.3-0.6l16.2-34.7
				c0.5-1,1.5-1.6,2.6-1.6h1.6c1.1,0,2.1,0.7,2.6,1.7l16.2,34.7c0.1,0.2,0.2,0.4,0.3,0.6l3.5,7.5c0.5,1,0,2.1-0.9,2.6
				c-1,0.4-2.1,0-2.6-0.9l-3.1-6.7h-7c-1.1,0-1.9-0.9-1.9-1.9c0-1.1,0.9-1.9,1.9-1.9h5.2l-14.8-31.7h-0.3l-14.8,31.7h16
				c1.1,0,1.9,0.9,1.9,1.9c0,1.1-0.9,1.9-1.9,1.9H271l-3.1,6.7C267.6,81.7,266.9,82.1,266.1,82.1z"/>
		</g>
	</g>
	<g>
		<g>
			<polygon class="st0" points="156.8,95.1 158.2,95.1 158.2,106.1 159.1,106.1 159.1,95.1 160.5,95.1 160.5,94.2 156.8,94.2 			"/>
			<polygon class="st0" points="166.9,99.5 165,99.5 165,94.2 164.1,94.2 164.1,106.1 165,106.1 165,100.4 166.4,100.4 166.9,100.4 
				166.8,106.1 167.8,106.1 167.8,94.2 166.9,94.2 			"/>
			<polygon class="st0" points="175,105.2 172.2,105.2 172.2,100.4 174.7,100.4 174.7,99.5 172.2,99.5 172.2,95.1 174.9,95.1 
				174.9,94.2 171.3,94.2 171.3,106.1 175.1,106.1 			"/>
		</g>
		<polygon class="st0" points="187.4,105.2 184.6,105.2 184.6,100.4 187.1,100.4 187.1,99.5 184.6,99.5 184.6,95.1 187.4,95.1 
			187.4,94.2 183.7,94.2 183.7,106.1 187.5,106.1 		"/>
		<g>
			<polygon class="st0" points="191.9,105.1 191.9,94.2 191,94.2 191,106.1 194.7,106.1 194.7,105.1 			"/>
			<polygon class="st0" points="199.1,105.2 199.1,100.4 201.6,100.4 201.6,99.5 199.1,99.5 199.1,95.1 201.8,95.1 201.8,94.2 
				198.2,94.2 198.2,106.1 201.9,106.1 201.9,105.2 			"/>
			<path class="st0" d="M208,94.2h-1.4c-0.4,0-0.7,0.2-0.9,0.5c-0.2,0.3-0.3,0.6-0.3,0.9v9.1c0,0.3,0.1,0.6,0.2,0.9
				c0.2,0.3,0.5,0.5,0.9,0.5h1.5h0c0.4,0,0.6-0.2,0.8-0.4c0.2-0.3,0.3-0.6,0.3-0.9v-2.7h-0.8v2.3c0,0.3,0,0.5-0.1,0.7
				c0,0-0.1,0.2-0.4,0.2H207c-0.3,0-0.5-0.1-0.5-0.2c-0.1-0.2-0.1-0.4-0.1-0.7l0-8.5c0-0.3,0-0.5,0.1-0.6c0.1-0.1,0.2-0.2,0.3-0.2h1
				c0.3,0,0.4,0.1,0.4,0.2c0.1,0.1,0.1,0.4,0.1,0.7v2.3h0.8v-2.7c0-0.3-0.1-0.6-0.3-0.9C208.6,94.4,208.3,94.2,208,94.2z"/>
			<polygon class="st0" points="212.6,95.1 214,95.1 214,106.1 214.9,106.1 214.9,95.1 216.4,95.1 216.4,94.2 212.6,94.2 			"/>
			<path class="st0" d="M222.7,101.2c-0.1-0.2-0.1-0.3-0.2-0.5c0.4-0.2,0.6-0.6,0.8-1.1c0.2-0.6,0.3-1.3,0.3-2.1
				c0-0.6-0.1-1.2-0.2-1.8c-0.1-0.6-0.3-0.9-0.5-1.2c-0.2-0.2-0.5-0.4-1-0.4h-2v11.9h0.9v-5.1h0.5c0.2,0,0.2,0,0.2,0h0
				c0,0,0.1,0.1,0.2,0.3c0.1,0.1,0.2,0.4,0.3,0.7c0.1,0.4,0.2,0.9,0.4,1.6l0.6,2.5h1l-0.8-3.3C223,102.1,222.9,101.6,222.7,101.2z
				 M220.8,94.9h0.8c0.5,0.1,0.8,0.3,0.9,0.7c0.1,0.5,0.2,1.1,0.2,1.9c0,0.6-0.1,1.1-0.2,1.5c-0.1,0.4-0.2,0.7-0.3,0.9
				c-0.1,0.2-0.3,0.3-0.6,0.4h-0.9V94.9z"/>
			<path class="st0" d="M229.9,94.2h-1.5c-0.4,0-0.7,0.2-0.9,0.5c-0.2,0.3-0.3,0.6-0.3,0.9v9.1c0,0.3,0.1,0.6,0.2,0.9
				c0.2,0.3,0.5,0.5,0.9,0.5h1.3h0c0.4,0,0.7-0.2,0.9-0.4c0.2-0.3,0.4-0.6,0.4-1l0-9.2c0-0.3-0.1-0.6-0.2-0.9
				C230.6,94.4,230.3,94.2,229.9,94.2z M230.1,95.9v8.5c0,0.3-0.1,0.5-0.1,0.7c0,0.1-0.2,0.2-0.4,0.2h-0.7c-0.3,0-0.5-0.1-0.6-0.2
				c-0.1-0.2-0.1-0.4-0.1-0.7l0-8.5c0-0.3,0-0.5,0.1-0.6c0.1-0.2,0.2-0.2,0.3-0.2h1c0.3,0,0.4,0.1,0.4,0.2
				C230.1,95.4,230.1,95.6,230.1,95.9z"/>
			<polygon class="st0" points="237.3,101.8 235.4,94.2 234.5,94.2 234.5,106.1 235.4,106.1 235.4,98 237.4,105.9 237.4,106.1 
				238.2,106.1 238.2,94.2 237.3,94.2 			"/>
			<polygon class="st0" points="241.7,106.1 242.6,106.1 242.6,94.2 241.7,94.2 			"/>
			<path class="st0" d="M249.9,98.2v-2.7c0-0.3-0.1-0.6-0.3-0.9c-0.2-0.3-0.5-0.4-0.9-0.4h-1.4c-0.4,0-0.7,0.2-0.9,0.5
				c-0.2,0.3-0.3,0.6-0.3,0.9v9.1c0,0.3,0.1,0.6,0.2,0.9c0.2,0.3,0.5,0.5,0.9,0.5h1.5h0c0.3,0,0.6-0.2,0.8-0.4
				c0.2-0.3,0.3-0.5,0.3-0.9v-2.7H249v2.3c0,0.3,0,0.5-0.1,0.7c0,0-0.1,0.2-0.4,0.2h-0.7c-0.3,0-0.5-0.1-0.6-0.2
				c-0.1-0.2-0.1-0.4-0.1-0.7l0-8.5c0-0.3,0-0.5,0.1-0.6c0.1-0.1,0.2-0.2,0.3-0.2h1c0.3,0,0.4,0.1,0.4,0.2c0.1,0.1,0.1,0.4,0.1,0.7
				v2.3L249.9,98.2L249.9,98.2z"/>
		</g>
		<g>
			<polygon class="st0" points="263.9,97.8 263.1,103.5 262.3,97.8 261.8,94.2 260.9,94.2 260.3,97.8 259.6,103.6 258.8,97.9 
				258.3,94.2 257.3,94.2 259.1,105.9 259.1,106.1 260,106.1 261.3,96.7 262.6,105.9 262.6,106.1 263.5,106.1 265.4,94.4 
				265.4,94.2 264.4,94.2 			"/>
			<polygon class="st0" points="270.8,94.2 269.9,94.2 268.1,105.9 268.1,106.1 269.1,106.1 270.3,96.7 271.7,105.9 271.7,106.1 
				272.8,106.1 270.8,94.3 			"/>
			<polygon class="st0" points="277.1,105.1 277.1,94.2 276.1,94.2 276.2,106.1 279.9,106.1 279.9,105.1 			"/>
			<polygon class="st0" points="284.3,105.1 284.3,94.2 283.3,94.2 283.3,106.1 287.1,106.1 287,105.1 			"/>
			<polygon class="st0" points="291.4,105.2 291.4,100.4 293.9,100.4 293.9,99.5 291.4,99.5 291.4,95.1 294.1,95.1 294.2,94.2 
				290.5,94.2 290.5,106.1 294.3,106.1 294.2,105.2 			"/>
			<polygon class="st0" points="297.7,94.2 297.7,95.1 299.1,95.1 299.1,106.1 300,106.1 300,95.1 301.4,95.1 301.4,94.2 			"/>
		</g>
	</g>
</g>
</svg>
