<?xml version="1.0" encoding="utf-8"?>
<!-- Generator: Adobe Illustrator 21.0.2, SVG Export Plug-In . SVG Version: 6.00 Build 0)  -->
<svg version="1.1" id="Layer_1" xmlns="http://www.w3.org/2000/svg" xmlns:xlink="http://www.w3.org/1999/xlink" x="0px" y="0px"
	 viewBox="0 0 1014.3 381" style="enable-background:new 0 0 1014.3 381;" xml:space="preserve">
<style type="text/css">
	.st0{fill:#FFFFFF;}
</style>
<g>
	<g>
		<g>
			<path class="st0" d="M543.5,308.6h-3.9c-2.3,0-4.2,1.9-4.2,4.2v2.5h2.9v-2.5c0-0.7,0.6-1.3,1.3-1.3h3.9c0.7,0,1.3,0.6,1.3,1.3
				v30.6c0,0.7-0.6,1.3-1.3,1.3h-3.9c-0.7,0-1.3-0.6-1.3-1.3v-15.3h-2.9v15.3c0,2.3,1.9,4.2,4.2,4.2h3.9c2.3,0,4.2-1.9,4.2-4.2
				v-30.6C547.7,310.5,545.8,308.6,543.5,308.6z"/>
			<path class="st0" d="M715.9,326.6h-3.9c-0.4,0-0.9,0.1-1.3,0.2v-14c0-0.7,0.6-1.3,1.3-1.3h8v-2.9h-8c-2.3,0-4.2,1.9-4.2,4.2v18
				v8.8v3.8c0,2.3,1.9,4.2,4.2,4.2h3.9c2.3,0,4.2-1.9,4.2-4.2v-3.8v-0.9v-7.9C720.1,328.5,718.2,326.6,715.9,326.6z M717.2,338.7
				v0.9v3.8c0,0.7-0.6,1.3-1.3,1.3h-3.9c-0.7,0-1.3-0.6-1.3-1.3v-3.8v-8.8c0-0.7,0.6-1.3,1.3-1.3h3.9c0.7,0,1.3,0.6,1.3,1.3V338.7z"
				/>
			<path class="st0" d="M691.8,308.6h-5.6c-2.3,0-4.2,1.9-4.2,4.2v34.5h2.9v-34.5c0-0.7,0.6-1.3,1.3-1.3h1.4v10.4h2.9v-10.4h1.4
				c0.7,0,1.3,0.6,1.3,1.3v34.5h2.9v-34.5C696,310.5,694.1,308.6,691.8,308.6z"/>
			<path class="st0" d="M788.3,308.6h-3.9c-2.3,0-4.2,1.9-4.2,4.2v34.5h2.9v-34.5c0-0.7,0.6-1.3,1.3-1.3h3.9c0.7,0,1.3,0.6,1.3,1.3
				v34.5h2.9v-34.5C792.4,310.5,790.6,308.6,788.3,308.6z"/>
			<path class="st0" d="M662.1,311.5h3.8c0.7,0,1.3,0.6,1.3,1.3h2.9c0-2.3-1.9-4.2-4.2-4.2h-3.8c-2.3,0-4.2,1.9-4.2,4.2v18v12.6v4
				h2.9v-4v-12.6c0-0.7,0.6-1.3,1.3-1.3h3.8c0.7,0,1.3,0.6,1.3,1.3v16.5h2.9v-16.5c0-2.3-1.9-4.2-4.2-4.2h-3.8
				c-0.4,0-0.9,0.1-1.3,0.2v-14C660.8,312.1,661.4,311.5,662.1,311.5z"/>
			<path class="st0" d="M641.8,311.5h-1.4v-2.9h-2.9v2.9h-1.3c-2.3,0-4.2,1.9-4.2,4.2v27.7c0,2.3,1.9,4.2,4.2,4.2h5.6
				c2.3,0,4.2-1.9,4.2-4.2v-27.7C646,313.4,644.1,311.5,641.8,311.5z M643.1,343.4c0,0.7-0.6,1.3-1.3,1.3h-5.6
				c-0.7,0-1.3-0.6-1.3-1.3v-27.7c0-0.7,0.6-1.2,1.3-1.2h1.3v7.5h2.9v-7.5h1.4c0.7,0,1.3,0.6,1.3,1.2L643.1,343.4L643.1,343.4z"/>
			<path class="st0" d="M567.7,308.6h-3.9c-2.3,0-4.2,1.9-4.2,4.2v7.9v13.2v9.4c0,2.3,1.9,4.2,4.2,4.2h6.6v-2.9h-6.6
				c-0.7,0-1.3-0.6-1.3-1.3v-9.4v-13.2v-7.9c0-0.7,0.6-1.3,1.3-1.3h3.9c0.7,0,1.3,0.6,1.3,1.3v12.6h2.9v-12.6
				C571.8,310.5,570,308.6,567.7,308.6z"/>
			<path class="st0" d="M764.2,308.6h-3.8c-2.3,0-4.2,1.9-4.2,4.2v7.9v13.2v9.4c0,2.3,1.9,4.2,4.2,4.2h6.6v-2.9h-6.6
				c-0.7,0-1.3-0.6-1.3-1.3v-9.4v-13.2v-7.9c0-0.7,0.6-1.3,1.3-1.3h3.8c0.7,0,1.3,0.6,1.3,1.3v12.6h2.9v-12.6
				C768.3,310.5,766.5,308.6,764.2,308.6z"/>
			<path class="st0" d="M591.8,308.6h-3.9c-2.3,0-4.2,1.9-4.2,4.2v2.5h2.9v-2.5c0-0.7,0.6-1.3,1.3-1.3h3.9c0.7,0,1.3,0.6,1.3,1.3
				v30.6c0,0.7-0.6,1.3-1.3,1.3h-3.9c-0.7,0-1.3-0.6-1.3-1.3v-15.3h-2.9v15.3c0,2.3,1.9,4.2,4.2,4.2h3.9c2.3,0,4.2-1.9,4.2-4.2
				v-30.6C595.9,310.5,594.1,308.6,591.8,308.6z"/>
			<path class="st0" d="M740,308.6h-3.9c-2.3,0-4.2,1.9-4.2,4.2h2.9c0-0.7,0.6-1.3,1.3-1.3h0.5v10.4h2.9v-10.4h0.5
				c0.7,0,1.3,0.6,1.3,1.3v30.6c0,0.7-0.6,1.3-1.3,1.3h-3.9c-0.7,0-1.3-0.6-1.3-1.3v-15.3H732v15.3c0,2.3,1.9,4.2,4.2,4.2h3.9
				c2.3,0,4.2-1.9,4.2-4.2v-30.6C744.2,310.5,742.3,308.6,740,308.6z"/>
			<path class="st0" d="M615.9,308.6v2.9c0.7,0,1.3,0.6,1.3,1.3v11.1H612c-2.3,0-4.2,1.9-4.2,4.2h2.9c0-0.7,0.6-1.3,1.3-1.3h5.1
				v16.5c0,0.7-0.6,1.3-1.3,1.3H612c-0.7,0-1.3-0.6-1.3-1.3v-4.7h-2.9v4.7c0,2.3,1.9,4.2,4.2,4.2h3.8c2.3,0,4.2-1.9,4.2-4.2v-30.6
				C620.1,310.5,618.2,308.6,615.9,308.6z"/>
		</g>
		<g>
			<path class="st0" d="M878.9,308.6h-5.3l0,0h-0.3c-2.3,0-4.2,1.9-4.2,4.2v12.6c0,2.3,1.9,4.2,4.2,4.2h0.3c2.3,0,4.2-1.9,4.2-4.2
				v-12.6c0-0.4-0.1-0.9-0.2-1.3h1.3c0.7,0,1.3,0.6,1.3,1.3v12.6c0,0.7-0.6,1.3-1.3,1.3l0,0h-0.2l0,0v2.9l0,0h0.2l0,0
				c0.7,0,1.3,0.6,1.3,1.3v12.6c0,0.7-0.6,1.3-1.3,1.3h-5.6c-0.7,0-1.3-0.6-1.3-1.3v-4.7h-2.9v4.7c0,2.3,1.9,4.2,4.2,4.2h5.6
				c2.3,0,4.2-1.9,4.2-4.2v-12.6c0-1-0.4-2-1-2.7c0.6-0.7,1-1.7,1-2.7v-12.6C883.1,310.5,881.2,308.6,878.9,308.6z M874.9,325.3
				c0,0.7-0.6,1.3-1.3,1.3h-0.3c-0.7,0-1.3-0.6-1.3-1.3v-12.6c0-0.7,0.6-1.3,1.3-1.3h0.3c0.7,0,1.3,0.6,1.3,1.3V325.3z"/>
			<path class="st0" d="M927.2,308.6h-3.9c-2.3,0-4.2,1.9-4.2,4.2v7.9v13.2v9.4c0,2.3,1.9,4.2,4.2,4.2h6.6v-2.9h-6.6
				c-0.7,0-1.3-0.6-1.3-1.3v-9.4v-13.2v-7.9c0-0.7,0.6-1.3,1.3-1.3h3.9c0.7,0,1.3,0.6,1.3,1.3v12.6h2.9v-12.6
				C931.3,310.5,929.5,308.6,927.2,308.6z"/>
			<path class="st0" d="M951.3,308.6h-3.8c-2.3,0-4.2,1.9-4.2,4.2v2.5h2.9v-2.5c0-0.7,0.6-1.3,1.3-1.3h3.8c0.7,0,1.3,0.6,1.3,1.3
				v30.6c0,0.7-0.6,1.3-1.3,1.3h-3.8c-0.7,0-1.3-0.6-1.3-1.3v-15.3h-2.9v15.3c0,2.3,1.9,4.2,4.2,4.2h3.8c2.3,0,4.2-1.9,4.2-4.2
				v-30.6C955.4,310.5,953.6,308.6,951.3,308.6z"/>
			<path class="st0" d="M853,308.6h-3.9v2.9h3.9c0.7,0,1.3,0.6,1.3,1.3v30.6c0,0.7-0.6,1.3-1.3,1.3h-3.9c-0.7,0-1.3-0.6-1.3-1.3
				v-4.7H845v4.7c0,2.3,1.9,4.2,4.2,4.2h3.9c2.3,0,4.2-1.9,4.2-4.2v-30.6C857.2,310.5,855.3,308.6,853,308.6z"/>
			<path class="st0" d="M830.2,343.4c0,0.7-0.6,1.3-1.3,1.3h-3.8c-0.7,0-1.3-0.6-1.3-1.3v-34.7h-2.9v34.7c0,2.3,1.9,4.2,4.2,4.2h3.8
				c2.3,0,4.2-1.9,4.2-4.2v-4.7h-2.9L830.2,343.4L830.2,343.4z"/>
			<path class="st0" d="M903,308.6h-3.8c-2.3,0-4.2,1.9-4.2,4.2h2.9c0-0.7,0.6-1.3,1.3-1.3h0.5v10.4h2.9v-10.4h0.5
				c0.7,0,1.3,0.6,1.3,1.3v30.6c0,0.7-0.6,1.3-1.3,1.3h-3.8c-0.7,0-1.3-0.6-1.3-1.3H895c0,2.3,1.9,4.2,4.2,4.2h3.8
				c2.3,0,4.2-1.9,4.2-4.2v-30.6C907.2,310.5,905.3,308.6,903,308.6z"/>
		</g>
	</g>
	<g>
		<g>
			<path class="st0" d="M721.3,247.6c-6,5.6-13.8,8.7-22,8.7h-60.9c-3.5,0-6.3,2.8-6.3,6.3c0,3.5,2.8,6.3,6.3,6.3h60.9
				c11.4,0,22.3-4.3,30.6-12.1c2.5-2.4,2.7-6.4,0.3-8.9C727.8,245.4,723.8,245.2,721.3,247.6z"/>
			<path class="st0" d="M727.9,189.5c5.1-6.6,7.8-14.7,7.8-23.2c0-21.2-17.3-38.5-38.5-38.5h-44.4v-7.1c0-3.5-2.8-6.3-6.3-6.3
				c-3.5,0-6.3,2.8-6.3,6.3v13.4c0,3.5,2.8,6.3,6.3,6.3h50.6c14.3,0,25.9,11.6,25.9,25.9c0,6.2-2.1,11.9-6,16.6
				c-5.5-2.4-11.6-3.8-18-3.8H677c-3.5,0-6.3,2.8-6.3,6.3c0,3.5,2.8,6.3,6.3,6.3h22.3c17.8,0,32.3,14.5,32.3,32.3
				c0,0.9,0,1.8-0.1,2.7c-0.3,3.5,2.3,6.5,5.8,6.8c0.2,0,0.3,0,0.5,0c3.3,0,6-2.5,6.3-5.8c0.1-1.2,0.1-2.4,0.1-3.7
				C744.1,210.2,737.8,197.8,727.9,189.5z"/>
		</g>
		<g>
			<path class="st0" d="M849,189.5c5.1-6.7,7.8-14.7,7.8-23.2c0-1.9-0.1-3.9-0.4-5.8c-0.5-3.4-3.7-5.8-7.2-5.3
				c-3.4,0.5-5.8,3.7-5.3,7.2c0.2,1.3,0.3,2.6,0.3,3.9c0,6.1-2.1,11.9-6,16.6c-5.5-2.4-11.6-3.8-18-3.8H798c-3.5,0-6.3,2.8-6.3,6.3
				c0,3.5,2.8,6.3,6.3,6.3h22.3c17.8,0,32.3,14.5,32.3,32.3c0,17.8-14.5,32.3-32.3,32.3h-60.9c-3.5,0-6.3,2.8-6.3,6.3
				c0,3.5,2.8,6.3,6.3,6.3h60.9c24.8,0,44.9-20.1,44.9-44.9C865.1,210.2,858.8,197.8,849,189.5z"/>
			<path class="st0" d="M767.7,140.4h50.6c4.7,0,9.3,1.3,13.4,3.7c1,0.6,2.1,0.9,3.3,0.9c2.1,0,4.2-1.1,5.4-3c1.8-3,0.8-6.8-2.1-8.6
				c-6-3.6-12.9-5.5-19.9-5.5H774v-7.1c0-3.5-2.8-6.3-6.3-6.3c-3.5,0-6.3,2.8-6.3,6.3v13.4C761.4,137.6,764.2,140.4,767.7,140.4z"/>
		</g>
		<g>
			<path class="st0" d="M588.8,144.5c2.8,2,6.6,1.3,8.6-1.4c2-2.8,1.3-6.6-1.4-8.6c-12.8-9.2-28-14.1-43.8-14.1c0,0-0.1,0-0.1,0
				c0,0,0,0,0,0c0,0-0.1,0-0.1,0c-41.8,0-75.8,34-75.8,75.8c0,33.6,21.6,62.7,53.7,72.5c0.6,0.2,1.2,0.3,1.8,0.3
				c2.6,0,5.1-1.7,5.9-4.4c1-3.3-0.8-6.7-4.1-7.7c-26.9-8.2-45-32.6-45-60.7c0-33,25.3-60.1,57.5-63.2v63.3c0,3.4,2.8,6.2,6.2,6.2
				c3.4,0,6.2-2.8,6.2-6.2V133C569.2,134.1,579.7,138,588.8,144.5z"/>
			<path class="st0" d="M616.3,156.2c-1.8-2.9-5.6-3.8-8.5-2c-2.9,1.8-3.8,5.6-2,8.5c6.2,10,9.5,21.6,9.5,33.5
				c0,28.1-18.1,52.5-45,60.7c-3.3,1-5.1,4.4-4.1,7.7c0.8,2.7,3.2,4.4,5.9,4.4c0.6,0,1.2-0.1,1.8-0.3c32.1-9.8,53.7-38.9,53.7-72.5
				C627.7,182,623.7,168.1,616.3,156.2z"/>
		</g>
		<g>
			<path class="st0" d="M1014.3,201.3c0-38.3-26.2-79.7-68.6-79.7h-52.8c-3.5,0-6.3,2.8-6.3,6.3c0,3.5,2.8,6.3,6.3,6.3h52.8
				c34.6,0,56,34.9,56,67.1c0,1.7-0.1,3.4-0.3,5c0,0.1-0.1,0.2-0.1,0.4c-1.2,12.3-6.6,23.9-15.1,32.9c-2.4,2.5-2.3,6.5,0.2,8.9
				c1.2,1.2,2.8,1.7,4.3,1.7c1.7,0,3.3-0.7,4.6-2c7.2-7.6,12.5-16.8,15.6-26.7c0.1-0.3,0.3-0.5,0.4-0.8
				C1013.3,214.5,1014.3,207.9,1014.3,201.3z"/>
			<path class="st0" d="M965.6,253.3c-6.3,2.4-13,3.6-19.8,3.6c-28.6,0-52.3-21.7-55.4-49.5h14.4c3.5,0,6.3-2.8,6.3-6.3
				s-2.8-6.3-6.3-6.3h-21.1c-3.5,0-6.3,2.8-6.3,6.3c0,37.7,30.7,68.4,68.4,68.4c8.4,0,16.6-1.5,24.3-4.4c3.3-1.2,4.9-4.9,3.6-8.1
				C972.5,253.7,968.9,252.1,965.6,253.3z"/>
		</g>
	</g>
</g>
<g>
	<path class="st0" d="M79.9,283.5c0.3-0.3,0.6-0.7,0.8-1c0.1-0.1,0.1-0.2,0.2-0.3c0.1-0.3,0.3-0.5,0.4-0.8c0.1-0.2,0.1-0.3,0.2-0.5
		c0.1-0.2,0.2-0.5,0.2-0.7c0-0.2,0.1-0.4,0.1-0.5c0-0.2,0.1-0.5,0.1-0.7c0-0.2,0-0.4,0-0.5c0-0.2,0-0.5-0.1-0.7
		c0-0.2-0.1-0.4-0.1-0.5c-0.1-0.2-0.1-0.5-0.2-0.7c-0.1-0.2-0.1-0.4-0.2-0.5c-0.1-0.2-0.2-0.4-0.3-0.6c-0.1-0.2-0.2-0.3-0.3-0.5
		c-0.1-0.1-0.1-0.2-0.1-0.2c-5.5-7.1-10.2-14.7-14.1-22.7c0-0.1-0.1-0.2-0.1-0.4c-1.7-3.4-5.7-4.8-9.1-3.1L43,255.3
		c-3.4,1.7-4.8,5.7-3.1,9.1c1.7,3.4,5.7,4.8,9.1,3.1l8.1-4c2.7,5,5.7,9.8,9,14.4l-17.9,17.9C29.1,270,17.8,240,14.6,209l24.9-1.6
		c0.6,5.7,1.6,11.4,2.8,17c0.8,3.6,4.5,5.9,8.1,5.1c1.3-0.3,2.4-0.9,3.3-1.8c1.6-1.6,2.4-4,1.8-6.3c-1.8-7.9-2.9-16-3.3-24l25.2,0
		c1.2,19.9,7.6,39.6,19.7,57.2c0,0,0,0,0,0.1c0,0,0,0.1,0.1,0.1c0.1,0.2,0.3,0.3,0.4,0.4c0.1,0.2,0.2,0.3,0.4,0.5c0,0,0,0,0.1,0
		c0.2,0.2,0.4,0.4,0.6,0.5c0.1,0.1,0.3,0.2,0.4,0.3c0.2,0.1,0.4,0.2,0.6,0.3c0.2,0.1,0.4,0.2,0.5,0.3c0.2,0.1,0.4,0.1,0.6,0.2
		c0.2,0.1,0.4,0.1,0.7,0.2c0.2,0,0.4,0,0.6,0.1c0.2,0,0.4,0.1,0.6,0.1c0.2,0,0.5-0.1,0.7-0.1c0.2,0,0.4,0,0.6-0.1
		c0.2,0,0.4-0.1,0.6-0.2c0.2-0.1,0.5-0.1,0.7-0.2c0.2-0.1,0.3-0.2,0.5-0.2c0.2-0.1,0.5-0.3,0.7-0.4c0,0,0,0,0.1,0
		c0.4-0.2,0.7-0.5,1-0.8c0,0,0,0,0,0l28.2-28.2l0,0c0.3-0.3,0.6-0.6,0.8-1c0.1-0.1,0.1-0.2,0.2-0.3c0.1-0.2,0.3-0.5,0.4-0.7
		c0.1-0.1,0.1-0.3,0.2-0.4c0.1-0.3,0.2-0.5,0.2-0.8c0-0.1,0.1-0.3,0.1-0.4c0.1-0.4,0.1-0.7,0.1-1.1c0,0,0-0.1,0-0.1
		c0-0.4,0-0.8-0.1-1.2c0-0.1-0.1-0.2-0.1-0.3c-0.1-0.3-0.1-0.6-0.2-0.8c-0.1-0.2-0.1-0.3-0.2-0.4c-0.1-0.1-0.1-0.3-0.2-0.4
		c-8.6-16-9.7-34.8-2.8-51.6c1.4-3.5-0.3-7.4-3.8-8.9c-3.5-1.4-7.4,0.3-8.9,3.8c-7.7,19-7.2,40.1,1.2,58.6L104.1,240
		c-8.8-15.4-13.2-32.3-13.2-49.1c0-0.1,0-0.2,0-0.3c0-0.1,0-0.2,0-0.4c0-4.2,0.3-8.4,0.9-12.6l2.7-13.3
		c5.6-20.3,17.6-39.1,35.7-52.8c7.1-5.4,14.8-9.8,23-13.1l7.9,24.1c-4.1,1.8-8,3.9-11.8,6.4c-0.1,0.1-0.1,0.1-0.1,0.1c0,0,0,0-0.1,0
		c-3.1,2.1-3.9,6.3-1.8,9.4l10.3,15.2c2.1,3.1,6.3,3.9,9.4,1.8c0.4-0.3,0.7-0.5,1-0.8c2.3-2.2,2.7-5.9,0.8-8.6l-6.2-9.2
		c2.9-1.5,5.8-2.8,8.9-3.8c0.1,0,0.2,0,0.3-0.1c0.1,0,0.3-0.1,0.4-0.2c12.5-4,26.1-3.8,38.7,0.6l-21.7,21.7
		c-8.9,0.4-17.3,4-23.6,10.3c-7,7-10.8,16.8-10.3,26.8c0.2,3.8,3.4,6.6,7.1,6.5c3.8-0.2,6.7-3.4,6.5-7.1c-0.3-6.3,2-12.1,6.4-16.5
		c4.4-4.4,10.2-6.6,16.5-6.4c0,0,0.1,0,0.2,0c0.3,0,0.6,0,0.9-0.1c0.2,0,0.3,0,0.5,0c0.3-0.1,0.6-0.2,0.9-0.3c0.1,0,0.2-0.1,0.4-0.1
		c0.8-0.3,1.6-0.8,2.3-1.5l30.7-30.7c0,0,0,0,0,0c0.3-0.3,0.5-0.6,0.8-1c0.1-0.1,0.1-0.2,0.2-0.3c0.1-0.1,0.1-0.2,0.2-0.3
		c0.1-0.1,0.1-0.2,0.1-0.3c0.1-0.2,0.2-0.4,0.3-0.7c0.1-0.2,0.1-0.4,0.2-0.6c0.1-0.2,0.1-0.4,0.1-0.7c0-0.2,0-0.4,0.1-0.7
		c0-0.2,0-0.4,0-0.6c0-0.2,0-0.4-0.1-0.7c0-0.2-0.1-0.4-0.1-0.6c-0.1-0.2-0.1-0.4-0.2-0.6c-0.1-0.2-0.2-0.4-0.2-0.6
		c-0.1-0.2-0.2-0.4-0.3-0.6c-0.1-0.2-0.2-0.3-0.3-0.5c-0.2-0.2-0.3-0.4-0.5-0.6c-0.1-0.1-0.1-0.2-0.2-0.3c-0.1-0.1-0.1-0.1-0.2-0.2
		c-0.2-0.2-0.3-0.3-0.5-0.4c-0.2-0.1-0.4-0.3-0.6-0.4c-0.1-0.1-0.2-0.1-0.2-0.2c-16.2-8.7-34.5-11-51.8-7.1L166,94.1
		c9.8-2.5,19.9-3.5,30.1-2.9c3.7,0.2,7-2.6,7.2-6.4c0.2-3.8-2.6-7-6.4-7.2c-1.8-0.1-3.6-0.2-5.4-0.2l-1.3-25.1
		c27.1,0,54.2,7.8,77.7,23.7l-18.2,18.2c-6.8-4.2-14-7.7-21.5-10.3c-3.5-1.3-7.4,0.6-8.7,4.1c-1.3,3.6,0.6,7.4,4.1,8.7
		c8.2,2.9,16,6.9,23.1,11.8c0,0,0,0,0.1,0c0.1,0.1,0.3,0.1,0.4,0.2c0.2,0.1,0.5,0.3,0.7,0.4c0.2,0.1,0.3,0.1,0.5,0.2
		c0.2,0.1,0.5,0.2,0.7,0.2c0.2,0,0.3,0.1,0.5,0.1c0.3,0,0.5,0.1,0.8,0.1c0.2,0,0.3,0,0.5,0c0.2,0,0.5,0,0.7-0.1
		c0.2,0,0.3-0.1,0.5-0.1c0.2-0.1,0.5-0.1,0.7-0.2c0.2-0.1,0.3-0.1,0.5-0.2c0.3-0.1,0.5-0.2,0.8-0.4c0.1-0.1,0.2-0.1,0.4-0.2
		c0.3-0.2,0.7-0.5,1-0.8l0,0l27.8-27.7l0,0c0.2-0.2,0.4-0.4,0.6-0.7c0-0.1,0.1-0.1,0.1-0.2c0.1-0.2,0.3-0.4,0.4-0.6
		c0.1-0.2,0.2-0.4,0.3-0.6c0.1-0.2,0.2-0.4,0.2-0.6c0.1-0.2,0.1-0.4,0.2-0.6c0-0.2,0.1-0.4,0.1-0.6c0-0.2,0-0.4,0.1-0.7
		c0-0.2,0-0.4,0-0.6c0-0.2,0-0.4-0.1-0.6c0-0.2-0.1-0.4-0.1-0.7c-0.1-0.2-0.1-0.4-0.2-0.6c-0.1-0.2-0.2-0.4-0.3-0.6
		c-0.1-0.2-0.2-0.4-0.3-0.6c-0.1-0.2-0.2-0.3-0.4-0.5c-0.1-0.2-0.3-0.4-0.5-0.6c-0.1-0.1-0.1-0.1-0.2-0.2c-0.1-0.1-0.2-0.2-0.3-0.3
		c-0.1-0.1-0.2-0.2-0.3-0.3c-13.6-10.4-28.5-18.1-44.1-23.3l6.9-24.1c8.2,2.7,16.3,6.1,24.2,10c11.4,5.7,22.1,12.6,32,20.6
		c2.7,2.2,6.7,1.9,9.1-0.5c0.2-0.2,0.3-0.3,0.5-0.5c2.4-2.9,1.9-7.2-1-9.6c-10.6-8.6-22.2-16-34.5-22.2
		C230.2-2.5,178.6-6.2,130.3,9.8C82,25.8,42.9,59.7,20.1,105.2c-5.4,10.7-9.6,21.8-12.9,33.1c0,0.1-0.1,0.2-0.1,0.3
		c0,0.1,0,0.3-0.1,0.4c-5.8,20.6-8,42-6.7,63c0,0.4-0.1,0.7,0,1.1c0,0.3,0.1,0.6,0.1,0.9c2.7,38.2,16.8,75.5,41.8,106.4
		c0.1,0.1,0.2,0.2,0.2,0.3c0.1,0.1,0.1,0.2,0.2,0.3c0.1,0.1,0.2,0.1,0.3,0.2c0.2,0.2,0.4,0.3,0.5,0.4c0.2,0.1,0.4,0.2,0.6,0.4
		c0.2,0.1,0.4,0.2,0.6,0.3c0.2,0.1,0.4,0.2,0.6,0.3c0.2,0.1,0.4,0.1,0.6,0.2c0.2,0.1,0.4,0.1,0.7,0.1c0.2,0,0.4,0.1,0.6,0.1
		c0.2,0,0.4,0,0.7,0c0.2,0,0.4,0,0.6-0.1c0.2,0,0.4-0.1,0.6-0.1c0.2,0,0.4-0.1,0.6-0.2c0.2-0.1,0.4-0.2,0.6-0.3
		c0.2-0.1,0.4-0.2,0.6-0.3c0.2-0.1,0.4-0.2,0.6-0.4c0.1-0.1,0.2-0.1,0.3-0.2c0.1-0.1,0.2-0.2,0.3-0.3c0.1-0.1,0.2-0.1,0.3-0.2
		L79.9,283.5C79.9,283.5,79.9,283.5,79.9,283.5z M134.6,22.7c2.3-0.7,4.6-1.4,6.8-2.1l13.2-3.3c25.8-5.4,52.3-4.9,77.7,1.4
		l-6.9,24.1c-47.8-11.2-99.7,1-137.6,35.6L70.2,60.7C88.4,43.8,110.3,30.8,134.6,22.7z M18.5,148.9l3.7-13.1c2.7-8.3,6-16.5,10-24.5
		c7.6-15.1,17.1-28.9,28.3-41l17.7,17.7c-10.1,11.1-18.5,23.5-25,36.9c-1.6,3.4-0.2,7.4,3.2,9.1c0.1,0.1,0.3,0.1,0.4,0.2l16.1,7.7
		c2.7,1.3,5.8,0.7,7.8-1.3c0.5-0.5,1-1.2,1.3-1.9c1.6-3.4,0.2-7.4-3.2-9.1l-10.2-4.9c6.3-11.7,14.3-22.5,23.9-32
		c23.3-23.3,53.2-36.6,84.1-39.7l1.2,25.1c-16.7,1.9-32.8,7.4-47.2,16.3l-11.1,7.9c-25.9,20.7-40.4,50.6-42.3,81.5H52.3
		c0.3-5.9,0.9-11.7,1.9-17.6c0.7-3.7-1.8-7.2-5.5-7.9c-3.7-0.7-7.2,1.8-7.9,5.5c-1.8,10-2.5,20-2.3,30l-24.8,1.6
		C13.2,179.9,14.8,164.2,18.5,148.9z"/>
	<path class="st0" d="M375.4,145.5c0-0.3-0.1-0.7-0.2-1c0-0.2-0.1-0.4-0.2-0.6c-6.6-26.3-18.8-51.3-36.5-73.2
		c-0.1-0.1-0.2-0.2-0.3-0.2c-0.1-0.1-0.1-0.2-0.2-0.3c-0.1-0.1-0.2-0.1-0.2-0.2c-0.2-0.2-0.4-0.3-0.5-0.4c-0.2-0.1-0.4-0.3-0.5-0.4
		c-0.2-0.1-0.4-0.2-0.6-0.3c-0.2-0.1-0.4-0.2-0.6-0.3c-0.2-0.1-0.4-0.1-0.6-0.2c-0.2-0.1-0.4-0.1-0.6-0.1c-0.2,0-0.4-0.1-0.7-0.1
		c-0.2,0-0.4,0-0.6,0c-0.2,0-0.4,0-0.7,0.1c-0.2,0-0.4,0.1-0.6,0.1c-0.2,0.1-0.4,0.1-0.6,0.2c-0.2,0.1-0.4,0.2-0.6,0.2
		c-0.2,0.1-0.4,0.2-0.6,0.3c-0.2,0.1-0.4,0.3-0.6,0.4c-0.1,0.1-0.2,0.1-0.3,0.2c-0.1,0.1-0.2,0.2-0.3,0.3c-0.1,0.1-0.2,0.1-0.3,0.2
		l-27.5,27.5c-0.1,0.1-0.1,0.1-0.2,0.2c-0.2,0.2-0.3,0.3-0.4,0.5c-0.1,0.2-0.3,0.4-0.4,0.6c-0.1,0.2-0.2,0.4-0.3,0.5
		c-0.1,0.2-0.2,0.4-0.3,0.7c-0.1,0.2-0.1,0.4-0.2,0.6c-0.1,0.2-0.1,0.5-0.2,0.7c0,0.2,0,0.4-0.1,0.6c0,0.2,0,0.4,0,0.7
		c0,0.2,0,0.4,0.1,0.6c0,0.2,0.1,0.4,0.1,0.6c0.1,0.2,0.1,0.4,0.2,0.6c0.1,0.2,0.1,0.4,0.2,0.6c0.1,0.2,0.2,0.4,0.3,0.6
		c0.1,0.2,0.2,0.4,0.4,0.6c0.1,0.1,0.1,0.1,0.1,0.2c5.3,6.9,9.9,14.3,13.8,22c1.7,3.4,5.8,4.7,9.1,3c0.7-0.3,1.3-0.8,1.8-1.3
		c2-2,2.6-5.2,1.3-7.9c-3.3-6.7-7.2-13.1-11.6-19.3l17.9-17.9c12.6,17.1,21.9,36.1,27.6,55.9l-30.6,7.6c-3.6,0.9-5.9,4.6-5,8.2
		c0,0.1,0.1,0.1,0.1,0.2c2.2,8.8,3.4,17.6,3.9,26.5h-25.2c-1.2-20.4-7.9-40.1-19.7-57.2c0,0,0,0,0-0.1c0,0,0-0.1-0.1-0.1
		c-0.1-0.2-0.3-0.3-0.4-0.5c-0.1-0.2-0.2-0.3-0.4-0.5c0,0,0,0,0,0c-0.2-0.2-0.4-0.4-0.6-0.5c-0.1-0.1-0.3-0.2-0.4-0.3
		c-0.2-0.1-0.4-0.2-0.6-0.3c-0.2-0.1-0.4-0.2-0.5-0.3c-0.2-0.1-0.4-0.1-0.6-0.2c-0.2-0.1-0.4-0.1-0.7-0.2c-0.2,0-0.4,0-0.6-0.1
		c-0.2,0-0.4-0.1-0.7-0.1c-0.2,0-0.4,0-0.7,0.1c-0.2,0-0.4,0-0.6,0.1c-0.2,0-0.4,0.1-0.6,0.2c-0.2,0.1-0.5,0.1-0.7,0.2
		c-0.2,0.1-0.3,0.2-0.5,0.2c-0.3,0.1-0.5,0.3-0.7,0.4c0,0,0,0-0.1,0c-0.2,0.1-0.3,0.3-0.5,0.4c-0.2,0.1-0.3,0.2-0.5,0.4l-0.1,0.1
		c0,0,0,0,0,0l-28.2,28.2c-0.1,0.1-0.1,0.2-0.2,0.3c-0.2,0.2-0.3,0.4-0.5,0.6c-0.1,0.2-0.2,0.3-0.3,0.5c-0.1,0.2-0.2,0.4-0.3,0.6
		c-0.1,0.2-0.2,0.4-0.2,0.6c-0.1,0.2-0.1,0.4-0.2,0.6c-0.1,0.2-0.1,0.4-0.1,0.6c0,0.2-0.1,0.5-0.1,0.7c0,0.2,0,0.4,0,0.6
		c0,0.2,0,0.4,0.1,0.7c0,0.2,0.1,0.4,0.1,0.6c0,0.2,0.1,0.4,0.2,0.6c0.1,0.2,0.2,0.4,0.3,0.7c0,0.1,0.1,0.2,0.1,0.3
		c12.6,23.4,8.3,52.9-10.5,71.7c-16.6,16.6-41.4,21.9-63.1,14.3l21.7-21.7c8.9-0.4,17.3-4,23.6-10.3c7-7,10.8-16.8,10.3-26.8
		c-0.2-3.7-3.4-6.7-7.1-6.5c-3.8,0.2-6.6,3.4-6.5,7.1c0.3,6.3-2,12.1-6.3,16.5c-4.4,4.4-10.2,6.6-16.5,6.3c-0.1,0-0.1,0-0.2,0
		c-0.2,0-0.5,0-0.7,0c-0.2,0-0.4,0-0.6,0.1c-0.2,0-0.4,0.1-0.7,0.2c-0.2,0.1-0.4,0.1-0.6,0.2c-0.2,0.1-0.4,0.2-0.6,0.3
		c-0.2,0.1-0.4,0.2-0.6,0.3c-0.2,0.1-0.3,0.2-0.5,0.4c-0.2,0.2-0.4,0.3-0.6,0.5c0,0-0.1,0.1-0.1,0.1l-30.7,30.7
		c-0.1,0.1-0.1,0.1-0.2,0.2c-0.2,0.2-0.3,0.4-0.4,0.6c-0.1,0.2-0.3,0.4-0.4,0.6c0,0.1-0.1,0.1-0.2,0.2c-0.1,0.1-0.1,0.2-0.1,0.3
		c-0.1,0.2-0.2,0.4-0.3,0.7c-0.1,0.2-0.1,0.4-0.2,0.6c0,0.2-0.1,0.4-0.1,0.7c0,0.2-0.1,0.4-0.1,0.7c0,0.2,0,0.4,0,0.6
		c0,0.2,0,0.4,0.1,0.7c0,0.2,0.1,0.4,0.1,0.7c0.1,0.2,0.1,0.4,0.2,0.6c0.1,0.2,0.2,0.4,0.3,0.6c0.1,0.2,0.2,0.4,0.3,0.6
		c0.1,0.2,0.2,0.4,0.3,0.5c0.1,0.2,0.3,0.4,0.5,0.6c0.1,0.1,0.1,0.2,0.2,0.3c0.1,0.1,0.1,0.1,0.2,0.2c0.2,0.2,0.4,0.3,0.6,0.4
		c0.2,0.1,0.4,0.3,0.6,0.4c0.1,0,0.1,0.1,0.2,0.2c6.4,3.5,13.3,5.9,20.2,7.3l-2.9,25.3c-13.7-2.5-26.9-7.9-38.6-15.9c0,0,0,0-0.1,0
		c-0.2-0.2-0.5-0.3-0.7-0.4c-0.2-0.1-0.3-0.2-0.5-0.2c-0.2-0.1-0.5-0.2-0.8-0.2c-0.2,0-0.3-0.1-0.5-0.1c-0.3-0.1-0.5-0.1-0.8-0.1
		c-0.2,0-0.3-0.1-0.5-0.1c-0.3,0-0.6,0-0.8,0.1c-0.2,0-0.3,0-0.5,0c-0.2,0-0.5,0.1-0.7,0.2c-0.2,0.1-0.4,0.1-0.6,0.2
		c-0.2,0.1-0.3,0.2-0.5,0.3c-0.2,0.1-0.5,0.2-0.7,0.4c-0.1,0.1-0.2,0.2-0.3,0.2c-0.3,0.2-0.5,0.4-0.7,0.6c0,0,0,0,0,0l-27.8,27.8
		c-0.1,0.1-0.2,0.2-0.3,0.4c-0.1,0.1-0.2,0.2-0.3,0.3c0,0.1-0.1,0.1-0.1,0.2c-0.1,0.2-0.3,0.4-0.4,0.6c-0.1,0.2-0.2,0.4-0.3,0.6
		c-0.1,0.2-0.2,0.4-0.2,0.6c-0.1,0.2-0.1,0.4-0.2,0.6c-0.1,0.2-0.1,0.4-0.1,0.6c0,0.2-0.1,0.4-0.1,0.7c0,0.2,0,0.4,0,0.7
		c0,0.2,0,0.4,0.1,0.6c0,0.2,0.1,0.4,0.1,0.6c0.1,0.2,0.1,0.4,0.2,0.6c0.1,0.2,0.2,0.4,0.3,0.6c0.1,0.2,0.2,0.4,0.3,0.6
		c0.1,0.2,0.2,0.3,0.4,0.5c0.2,0.2,0.3,0.4,0.5,0.6c0.1,0.1,0.1,0.1,0.1,0.2c0.1,0.1,0.2,0.2,0.4,0.3c0.1,0.1,0.2,0.2,0.3,0.3
		c7.5,5.7,15.4,10.7,23.7,14.9L111.7,349c-0.2-0.1-0.4-0.2-0.5-0.3c-11.4-5.7-22.1-12.6-32-20.6c-2.9-2.4-7.2-1.9-9.6,1
		c-2.4,2.9-1.9,7.2,1,9.6c10.6,8.6,22.2,16,34.5,22.2c46,23,96.9,25.6,142.5,11.3c0.1,0,0.2,0,0.3-0.1c0.1-0.1,0.3-0.1,0.4-0.2
		c28.7-9.2,55.2-25,76.9-46.7c14-14,26.1-30.5,35.5-49.3C381.2,234.9,385.8,188.6,375.4,145.5z M124.1,354.6l10.2-22.8
		c3.3,1.3,6.6,2.5,10,3.6c2.5,0.8,5.1,0.1,6.9-1.7c0.7-0.7,1.3-1.7,1.7-2.8c1.1-3.6-0.9-7.4-4.4-8.5c-5-1.6-9.9-3.5-14.7-5.7
		c0,0-0.1,0-0.1-0.1c0,0-0.1,0-0.1,0c-7.2-3.3-14.2-7.1-20.7-11.6l18.2-18.2c16,9.9,34.1,15.5,52.6,16.6v25.2c-3-0.2-6-0.4-9-0.7
		c0,0,0,0,0,0c0,0,0,0,0,0c0,0,0,0-0.1,0c-3.7-0.4-7.1,2.3-7.5,6c0,0.3,0,0.7,0,1.1l-2,17.1c-0.4,3.7,2.3,7.1,6,7.5
		c2.1,0.2,4.2-0.5,5.6-1.9c1.1-1,1.8-2.4,1.9-4l1.3-11.5c16.9,1.2,33.7-0.5,49.9-4.8l7.5,23.7C200.8,371.1,161.1,369.6,124.1,354.6z
		 M250.2,357l-7.5-23.7c10.8-4,21.3-9.1,31-15.6c0.4-0.3,0.8-0.5,1.1-0.9c2.2-2.2,2.7-5.8,0.9-8.5c-2.1-3.1-6.3-4-9.4-1.9
		c-20.6,13.5-44.5,21.2-69,22.4v-25.2c7-0.4,13.9-1.4,20.8-3.2c1.2-0.3,2.3-0.9,3.2-1.8c1.6-1.6,2.4-4.1,1.8-6.5
		c-0.9-3.6-4.6-5.9-8.3-5c-9.5,2.4-19.1,3.3-28.6,2.9l2.9-25.3c19.8,0.3,39.5-7.1,54-21.6c5.5-5.5,10-11.8,13.5-18.5l23.6,9.5
		c-6.8,13.9-16.8,26.2-29.2,35.7c-2.8,2.2-5.8,4.2-8.8,6c-3.2,2-4.2,6.1-2.3,9.3c0,0,0,0,0,0.1l8,13.2c1.9,3.2,6.1,4.3,9.3,2.3
		c0.5-0.3,0.9-0.6,1.3-1c2.2-2.2,2.7-5.6,1-8.3l-4.6-7.7c1.4-1,2.9-2,4.3-3.1c4.1-3.1,7.9-6.4,11.5-10
		c10.7-10.7,19.2-23.5,24.9-37.6c1.4-3.5-0.3-7.4-3.8-8.9c-0.1,0-0.1,0-0.2-0.1c0,0-0.1-0.1-0.2-0.1l-29.8-12
		c5-16.9,4.1-35.4-3.4-52l18.8-18.8c3.6,6.3,6.5,12.9,8.6,19.8l3.2,13.2c0.9,5.4,1.4,10.9,1.4,16.4c0,0,0,0,0,0s0,0,0,0.1
		c0,2.4-0.1,4.9-0.3,7.3l-9.8-1.4c-3.7-0.5-7.2,2-7.7,5.8c-0.5,3.7,2.1,7.2,5.8,7.7l16.4,2.3c0.1,0,0.3,0.1,0.4,0.1
		c2.2,0.3,4.3-0.5,5.8-1.9c1-1,1.7-2.3,1.9-3.8c0.4-3.1,0.7-6.2,0.9-9.4h25.2c-1,21.4-7,42.3-17.5,61c0,0-0.1,0.1-0.1,0.1
		c0,0,0,0.1,0,0.1c-3.5,6.3-7.6,12.3-12.1,18l-7.4-6.5c-2.8-2.5-7.1-2.2-9.6,0.6c-2.5,2.8-2.2,7.1,0.6,9.6l12.7,11.1
		c2.7,2.4,6.8,2.2,9.3-0.3c0.1-0.1,0.2-0.2,0.3-0.3c5.5-6.2,10.4-12.9,14.7-19.8l21.7,12.3C319.4,318.4,287,343.7,250.2,357z
		 M366.2,209.4c-2.2,20.7-8,41.2-17.7,60.5c-0.3,0.5-0.5,1-0.8,1.6L326,259.1c15.2-30.2,20.1-64.9,13.3-98.7l24.2-6
		c2.8,13.6,4.1,27.5,3.7,41.3L366.2,209.4z"/>
</g>
</svg>
