<?xml version="1.0" encoding="utf-8"?>
<!-- Generator: Adobe Illustrator 21.1.0, SVG Export Plug-In . SVG Version: 6.00 Build 0)  -->
<svg version="1.1" id="Capa_1" xmlns="http://www.w3.org/2000/svg" xmlns:xlink="http://www.w3.org/1999/xlink" x="0px" y="0px"
	 viewBox="0 0 804.7 451.8" style="enable-background:new 0 0 804.7 451.8;" xml:space="preserve">
<g>
	<path d="M795.3,248.3L601,442.6c-12.4,12.4-32.4,12.4-44.8,0c-12.4-12.4-12.4-32.4,0-44.7l171.9-171.9L556.3,54
		c-12.4-12.4-12.4-32.4,0-44.7c12.4-12.4,32.4-12.4,44.8,0l194.3,194.3c6.2,6.2,9.3,14.3,9.3,22.4
		C804.6,234,801.5,242.1,795.3,248.3z"/>
</g>
<path d="M573.6,264.6H242.2c-18.9,0-34.3-15.4-34.3-34.3v0c0-18.9,15.4-34.3,34.3-34.3h331.4c18.9,0,34.3,15.4,34.3,34.3v0
	C607.9,249.2,592.4,264.6,573.6,264.6z"/>
<path d="M112.6,264.6H35.2c-18.9,0-34.3-15.4-34.3-34.3v0c0-18.9,15.4-34.3,34.3-34.3h77.4c18.9,0,34.3,15.4,34.3,34.3v0
	C146.9,249.2,131.4,264.6,112.6,264.6z"/>
</svg>
