<?xml version="1.0" encoding="utf-8"?>
<!-- Generator: Adobe Illustrator 21.1.0, SVG Export Plug-In . SVG Version: 6.00 Build 0)  -->
<svg version="1.1" id="Capa_1" xmlns="http://www.w3.org/2000/svg" xmlns:xlink="http://www.w3.org/1999/xlink" x="0px" y="0px"
	 viewBox="0 0 90 90" style="enable-background:new 0 0 90 90;" xml:space="preserve">
<path d="M70,0H20C9,0,0,9,0,20v50c0,11,9,20,20,20h26.4c-0.9,0-1.6-0.7-1.6-1.6v-32H34.7c-0.9,0-1.6-0.7-1.6-1.6V42.2
	c0-0.9,0.7-1.6,1.6-1.6h10.1v-8.8c0-11.5,7.3-19,18.5-19l10,0c0.9,0,1.6,0.7,1.6,1.6v11.8c0,0.9-0.7,1.6-1.6,1.6l-6.7,0
	c-4.6,0-5.5,1.8-5.5,5.4v7.4h11.8c0.4,0,0.8,0.2,1.1,0.5c0.3,0.3,0.5,0.7,0.5,1.1l0,12.7c0,0.9-0.7,1.6-1.6,1.6H61.1v32
	c0,0.9-0.7,1.6-1.6,1.6H70c11,0,20-9,20-20V20C90,9,81,0,70,0z"/>
</svg>
