<?xml version="1.0" encoding="utf-8"?>
<!-- Generator: Adobe Illustrator 21.0.2, SVG Export Plug-In . SVG Version: 6.00 Build 0)  -->
<svg version="1.1" id="Layer_1" xmlns="http://www.w3.org/2000/svg" xmlns:xlink="http://www.w3.org/1999/xlink" x="0px" y="0px"
	 viewBox="0 0 64 64" style="enable-background:new 0 0 64 64;" xml:space="preserve">
<style type="text/css">
	.st0{fill:url(#SVGID_1_);}
	.st1{fill:url(#SVGID_2_);}
</style>
<g>
	
		<linearGradient id="SVGID_1_" gradientUnits="userSpaceOnUse" x1="26.2825" y1="12.4226" x2="26.2825" y2="65.017" gradientTransform="matrix(1 0 0 -1 0 64.9971)">
		<stop  offset="0" style="stop-color:#00AEEF"/>
		<stop  offset="0.2109" style="stop-color:#1BB7C1"/>
		<stop  offset="0.686" style="stop-color:#5DCC4F"/>
		<stop  offset="1" style="stop-color:#8BDB00"/>
	</linearGradient>
	<path class="st0" d="M13.4,47.6c0.1-0.1,0.1-0.1,0.1-0.2c0,0,0,0,0-0.1c0,0,0.1-0.1,0.1-0.1c0,0,0-0.1,0-0.1c0,0,0-0.1,0-0.1
		c0,0,0-0.1,0-0.1c0,0,0-0.1,0-0.1c0,0,0-0.1,0-0.1c0,0,0-0.1,0-0.1c0,0,0-0.1,0-0.1c0,0,0-0.1,0-0.1c0,0,0-0.1,0-0.1
		c0,0,0-0.1-0.1-0.1c0,0,0-0.1-0.1-0.1c0,0,0,0,0,0c-0.9-1.2-1.7-2.5-2.4-3.8c0,0,0,0,0-0.1c-0.3-0.6-1-0.8-1.5-0.5l-2.4,1.2
		c-0.6,0.3-0.8,1-0.5,1.5c0.3,0.6,1,0.8,1.5,0.5l1.4-0.7c0.5,0.8,1,1.6,1.5,2.4l-3,3C4.9,45.4,3,40.3,2.4,35.1l4.2-0.3
		c0.1,1,0.3,1.9,0.5,2.9c0.1,0.6,0.8,1,1.4,0.9c0.2,0,0.4-0.2,0.6-0.3c0.3-0.3,0.4-0.7,0.3-1.1c-0.3-1.3-0.5-2.7-0.5-4l4.2,0
		c0.2,3.3,1.3,6.7,3.3,9.6c0,0,0,0,0,0c0,0,0,0,0,0c0,0,0,0,0.1,0.1c0,0,0,0.1,0.1,0.1c0,0,0,0,0,0c0,0,0.1,0.1,0.1,0.1
		c0,0,0,0,0.1,0.1c0,0,0.1,0,0.1,0.1c0,0,0.1,0,0.1,0c0,0,0.1,0,0.1,0c0,0,0.1,0,0.1,0c0,0,0.1,0,0.1,0c0,0,0.1,0,0.1,0
		c0,0,0.1,0,0.1,0c0,0,0.1,0,0.1,0c0,0,0.1,0,0.1,0c0,0,0.1,0,0.1,0c0,0,0.1,0,0.1,0c0,0,0.1,0,0.1-0.1c0,0,0,0,0,0
		C18,43,18,43,18.1,43c0,0,0,0,0,0l4.7-4.7l0,0c0-0.1,0.1-0.1,0.1-0.2c0,0,0,0,0-0.1c0,0,0-0.1,0.1-0.1c0,0,0,0,0-0.1
		c0,0,0-0.1,0-0.1c0,0,0,0,0-0.1c0-0.1,0-0.1,0-0.2c0,0,0,0,0,0c0-0.1,0-0.1,0-0.2c0,0,0,0,0-0.1c0,0,0-0.1,0-0.1c0,0,0-0.1,0-0.1
		c0,0,0,0,0-0.1c-1.5-2.7-1.6-5.8-0.5-8.7c0.2-0.6,0-1.3-0.6-1.5c-0.6-0.2-1.3,0-1.5,0.6c-1.3,3.2-1.2,6.7,0.2,9.8l-3.2,3.2
		c-1.5-2.6-2.2-5.4-2.2-8.3c0,0,0,0,0-0.1c0,0,0,0,0-0.1c0-0.7,0.1-1.4,0.1-2.1l0.5-2.2c0.9-3.4,3-6.6,6-8.9
		c1.2-0.9,2.5-1.6,3.9-2.2l1.3,4.1c-0.7,0.3-1.4,0.7-2,1.1c0,0,0,0,0,0c0,0,0,0,0,0c-0.5,0.4-0.7,1.1-0.3,1.6l1.7,2.6
		c0.4,0.5,1.1,0.7,1.6,0.3c0.1,0,0.1-0.1,0.2-0.1c0.4-0.4,0.4-1,0.1-1.4l-1-1.6c0.5-0.3,1-0.5,1.5-0.6c0,0,0,0,0,0c0,0,0,0,0.1,0
		c2.1-0.7,4.4-0.6,6.5,0.1l-3.6,3.6c-1.5,0.1-2.9,0.7-4,1.7C26.6,29,26,30.6,26,32.3c0,0.6,0.6,1.1,1.2,1.1c0.6,0,1.1-0.6,1.1-1.2
		c0-1.1,0.3-2,1.1-2.8c0.7-0.7,1.7-1.1,2.8-1.1c0,0,0,0,0,0c0.1,0,0.1,0,0.2,0c0,0,0.1,0,0.1,0c0.1,0,0.1,0,0.2,0c0,0,0,0,0.1,0
		c0.1-0.1,0.3-0.1,0.4-0.3l5.2-5.2c0,0,0,0,0,0c0-0.1,0.1-0.1,0.1-0.2c0,0,0,0,0-0.1c0,0,0,0,0-0.1c0,0,0,0,0-0.1c0,0,0-0.1,0-0.1
		c0,0,0-0.1,0-0.1c0,0,0-0.1,0-0.1c0,0,0-0.1,0-0.1c0,0,0-0.1,0-0.1c0,0,0-0.1,0-0.1c0,0,0-0.1,0-0.1c0,0,0-0.1,0-0.1
		c0,0,0-0.1,0-0.1c0,0,0-0.1-0.1-0.1c0,0,0-0.1-0.1-0.1c0,0-0.1-0.1-0.1-0.1c0,0,0,0,0,0c0,0,0,0,0,0c0,0-0.1-0.1-0.1-0.1
		c0,0-0.1,0-0.1-0.1c0,0,0,0,0,0c-2.7-1.5-5.8-1.9-8.7-1.2l-1.3-4.1c1.6-0.4,3.4-0.6,5.1-0.5c0.6,0,1.2-0.4,1.2-1.1
		c0-0.6-0.4-1.2-1.1-1.2c-0.3,0-0.6,0-0.9,0L32,8.8c4.5,0,9.1,1.3,13.1,4L42,15.8c-1.1-0.7-2.4-1.3-3.6-1.7
		c-0.6-0.2-1.3,0.1-1.5,0.7c-0.2,0.6,0.1,1.2,0.7,1.5c1.4,0.5,2.7,1.2,3.9,2c0,0,0,0,0,0c0,0,0,0,0.1,0c0,0,0.1,0,0.1,0.1
		c0,0,0.1,0,0.1,0c0,0,0.1,0,0.1,0c0,0,0.1,0,0.1,0c0,0,0.1,0,0.1,0c0,0,0.1,0,0.1,0c0,0,0.1,0,0.1,0c0,0,0.1,0,0.1,0
		c0,0,0.1,0,0.1,0c0,0,0.1,0,0.1,0c0,0,0.1,0,0.1-0.1c0,0,0,0,0.1,0c0.1,0,0.1-0.1,0.2-0.1l0,0l4.7-4.7l0,0c0,0,0.1-0.1,0.1-0.1
		c0,0,0,0,0,0c0,0,0-0.1,0.1-0.1c0,0,0-0.1,0-0.1c0,0,0-0.1,0-0.1c0,0,0-0.1,0-0.1c0,0,0-0.1,0-0.1c0,0,0-0.1,0-0.1c0,0,0-0.1,0-0.1
		c0,0,0-0.1,0-0.1c0,0,0-0.1,0-0.1c0,0,0-0.1,0-0.1c0,0,0-0.1,0-0.1c0,0,0-0.1-0.1-0.1c0,0,0-0.1-0.1-0.1c0,0,0-0.1-0.1-0.1
		c0,0,0,0,0,0c0,0,0,0-0.1,0s0,0-0.1-0.1c-2.3-1.7-4.8-3-7.4-3.9l1.2-4c1.4,0.5,2.7,1,4.1,1.7c1.9,1,3.7,2.1,5.4,3.5
		c0.5,0.4,1.1,0.3,1.5-0.1c0,0,0.1-0.1,0.1-0.1c0.4-0.5,0.3-1.2-0.2-1.6c-1.8-1.4-3.7-2.7-5.8-3.7C38.7-0.4,30-1.1,21.9,1.6
		C13.8,4.3,7.2,10,3.4,17.7c-0.9,1.8-1.6,3.7-2.2,5.6c0,0,0,0,0,0c0,0,0,0,0,0.1c-1,3.5-1.3,7.1-1.1,10.6c0,0.1,0,0.1,0,0.2
		c0,0.1,0,0.1,0,0.1c0.5,6.4,2.8,12.7,7,17.9c0,0,0,0,0,0c0,0,0,0,0,0c0,0,0,0,0,0c0,0,0.1,0.1,0.1,0.1c0,0,0.1,0,0.1,0.1
		c0,0,0.1,0,0.1,0.1c0,0,0.1,0,0.1,0c0,0,0.1,0,0.1,0c0,0,0.1,0,0.1,0c0,0,0.1,0,0.1,0c0,0,0.1,0,0.1,0c0,0,0.1,0,0.1,0
		c0,0,0.1,0,0.1,0c0,0,0.1,0,0.1,0c0,0,0.1,0,0.1,0c0,0,0.1,0,0.1,0c0,0,0.1,0,0.1-0.1c0,0,0,0,0,0c0,0,0,0,0,0c0,0,0,0,0,0
		L13.4,47.6C13.4,47.6,13.4,47.6,13.4,47.6z M22.6,3.8c0.4-0.1,0.8-0.2,1.2-0.4L26,2.9c4.3-0.9,8.8-0.8,13.1,0.2l-1.2,4.1
		c-8-1.9-16.8,0.2-23.1,6l-3-3C14.9,7.3,18.5,5.2,22.6,3.8z M3.1,25l0.6-2.2c0.5-1.4,1-2.8,1.7-4.1c1.3-2.5,2.9-4.9,4.8-6.9l3,3
		C11.5,16.6,10,18.7,9,21c-0.3,0.6,0,1.3,0.5,1.5c0,0,0,0,0.1,0l2.7,1.3c0.5,0.2,1,0.1,1.3-0.2c0.1-0.1,0.2-0.2,0.2-0.3
		c0.3-0.6,0-1.3-0.5-1.5l-1.7-0.8c1.1-2,2.4-3.8,4-5.4c3.9-3.9,8.9-6.2,14.1-6.7l0.2,4.2c-2.8,0.3-5.5,1.2-7.9,2.7l-1.9,1.3
		c-4.3,3.5-6.8,8.5-7.1,13.7H8.8c0.1-1,0.2-2,0.3-3c0.1-0.6-0.3-1.2-0.9-1.3c-0.6-0.1-1.2,0.3-1.3,0.9c-0.3,1.7-0.4,3.4-0.4,5
		l-4.2,0.3C2.2,30.2,2.5,27.6,3.1,25z"/>
	
		<linearGradient id="SVGID_2_" gradientUnits="userSpaceOnUse" x1="37.7175" y1="0.9773" x2="37.7175" y2="53.5491" gradientTransform="matrix(1 0 0 -1 0 64.9971)">
		<stop  offset="0" style="stop-color:#00AEEF"/>
		<stop  offset="0.2109" style="stop-color:#1BB7C1"/>
		<stop  offset="0.686" style="stop-color:#5DCC4F"/>
		<stop  offset="1" style="stop-color:#8BDB00"/>
	</linearGradient>
	<path class="st1" d="M63.1,24.4c0-0.1,0-0.1,0-0.2c0,0,0-0.1,0-0.1c-1.1-4.4-3.2-8.6-6.1-12.3c0,0,0,0,0,0c0,0,0,0,0,0c0,0,0,0,0,0
		c0,0-0.1-0.1-0.1-0.1c0,0-0.1,0-0.1-0.1c0,0-0.1,0-0.1-0.1c0,0-0.1,0-0.1,0c0,0-0.1,0-0.1,0c0,0-0.1,0-0.1,0c0,0-0.1,0-0.1,0
		c0,0-0.1,0-0.1,0c0,0-0.1,0-0.1,0c0,0-0.1,0-0.1,0c0,0-0.1,0-0.1,0c0,0-0.1,0-0.1,0c0,0-0.1,0-0.1,0.1c0,0-0.1,0-0.1,0.1
		c0,0,0,0,0,0c0,0,0,0,0,0c0,0,0,0,0,0l-4.6,4.6c0,0,0,0,0,0c0,0,0,0.1-0.1,0.1c0,0,0,0.1-0.1,0.1c0,0,0,0.1,0,0.1
		c0,0,0,0.1-0.1,0.1c0,0,0,0.1,0,0.1c0,0,0,0.1,0,0.1c0,0,0,0.1,0,0.1c0,0,0,0.1,0,0.1c0,0,0,0.1,0,0.1c0,0,0,0.1,0,0.1
		c0,0,0,0.1,0,0.1c0,0,0,0.1,0,0.1c0,0,0,0.1,0.1,0.1c0,0,0,0.1,0.1,0.1c0,0,0,0,0,0c0.9,1.2,1.7,2.4,2.3,3.7c0.3,0.6,1,0.8,1.5,0.5
		c0.1-0.1,0.2-0.1,0.3-0.2c0.3-0.3,0.4-0.9,0.2-1.3c-0.6-1.1-1.2-2.2-2-3.2l3-3c2.1,2.9,3.7,6.1,4.6,9.4L55.4,25
		c-0.6,0.2-1,0.8-0.8,1.4c0,0,0,0,0,0c0.4,1.5,0.6,3,0.6,4.4H51c-0.2-3.4-1.3-6.7-3.3-9.6c0,0,0,0,0,0c0,0,0,0,0,0
		c0,0,0-0.1-0.1-0.1c0,0,0-0.1-0.1-0.1c0,0,0,0,0,0c0,0-0.1-0.1-0.1-0.1c0,0,0,0-0.1-0.1c0,0-0.1,0-0.1-0.1c0,0-0.1,0-0.1,0
		c0,0-0.1,0-0.1,0c0,0-0.1,0-0.1,0c0,0-0.1,0-0.1,0c0,0-0.1,0-0.1,0c0,0-0.1,0-0.1,0c0,0-0.1,0-0.1,0c0,0-0.1,0-0.1,0
		c0,0-0.1,0-0.1,0c0,0-0.1,0-0.1,0c0,0-0.1,0-0.1,0.1c0,0,0,0,0,0c0,0-0.1,0-0.1,0.1c0,0-0.1,0-0.1,0.1l0,0c0,0,0,0,0,0l-4.7,4.7
		c0,0,0,0,0,0c0,0-0.1,0.1-0.1,0.1c0,0,0,0.1-0.1,0.1c0,0,0,0.1-0.1,0.1c0,0,0,0.1,0,0.1c0,0,0,0.1,0,0.1c0,0,0,0.1,0,0.1
		c0,0,0,0.1,0,0.1c0,0,0,0.1,0,0.1c0,0,0,0.1,0,0.1c0,0,0,0.1,0,0.1c0,0,0,0.1,0,0.1c0,0,0,0.1,0,0.1c0,0,0,0,0,0.1
		c2.1,3.9,1.4,8.9-1.8,12c-2.8,2.8-7,3.7-10.6,2.4l3.6-3.6c1.5-0.1,2.9-0.7,4-1.7c1.2-1.2,1.8-2.8,1.7-4.5c0-0.6-0.6-1.1-1.2-1.1
		c-0.6,0-1.1,0.6-1.1,1.2c0,1.1-0.3,2-1.1,2.8c-0.7,0.7-1.7,1.1-2.8,1.1c0,0,0,0,0,0c0,0-0.1,0-0.1,0c0,0-0.1,0-0.1,0
		c0,0-0.1,0-0.1,0c0,0-0.1,0-0.1,0c0,0-0.1,0-0.1,0c0,0-0.1,0-0.1,0.1c0,0-0.1,0-0.1,0.1c0,0-0.1,0.1-0.1,0.1c0,0,0,0,0,0l-5.2,5.2
		c0,0,0,0,0,0c0,0-0.1,0.1-0.1,0.1c0,0,0,0.1-0.1,0.1c0,0,0,0,0,0c0,0,0,0,0,0.1c0,0,0,0.1,0,0.1c0,0,0,0.1,0,0.1c0,0,0,0.1,0,0.1
		c0,0,0,0.1,0,0.1c0,0,0,0.1,0,0.1c0,0,0,0.1,0,0.1c0,0,0,0.1,0,0.1c0,0,0,0.1,0,0.1c0,0,0,0.1,0,0.1c0,0,0,0.1,0.1,0.1
		c0,0,0,0.1,0.1,0.1c0,0,0.1,0.1,0.1,0.1c0,0,0,0,0,0c0,0,0,0,0,0c0,0,0.1,0,0.1,0.1c0,0,0.1,0,0.1,0.1c0,0,0,0,0,0
		c1.1,0.6,2.2,1,3.4,1.2L29,48.5c-2.3-0.4-4.5-1.3-6.5-2.7c0,0,0,0,0,0c0,0-0.1,0-0.1-0.1c0,0-0.1,0-0.1,0c0,0-0.1,0-0.1,0
		c0,0-0.1,0-0.1,0c0,0-0.1,0-0.1,0c0,0-0.1,0-0.1,0c0,0-0.1,0-0.1,0c0,0-0.1,0-0.1,0c0,0-0.1,0-0.1,0c0,0-0.1,0-0.1,0
		c0,0-0.1,0-0.1,0c0,0-0.1,0-0.1,0.1c0,0,0,0-0.1,0c0,0-0.1,0.1-0.1,0.1c0,0,0,0,0,0l-4.7,4.7c0,0,0,0,0,0.1c0,0,0,0-0.1,0.1
		c0,0,0,0,0,0c0,0,0,0.1-0.1,0.1c0,0,0,0.1-0.1,0.1c0,0,0,0.1,0,0.1c0,0,0,0.1,0,0.1c0,0,0,0.1,0,0.1c0,0,0,0.1,0,0.1
		c0,0,0,0.1,0,0.1c0,0,0,0.1,0,0.1c0,0,0,0.1,0,0.1c0,0,0,0.1,0,0.1c0,0,0,0.1,0,0.1c0,0,0,0.1,0.1,0.1c0,0,0,0.1,0.1,0.1
		c0,0,0,0.1,0.1,0.1c0,0,0,0,0,0c0,0,0,0,0.1,0c0,0,0,0,0.1,0.1c1.3,1,2.6,1.8,4,2.5l-1.7,3.8c0,0-0.1,0-0.1,0
		c-1.9-1-3.7-2.1-5.4-3.5c-0.5-0.4-1.2-0.3-1.6,0.2c-0.4,0.5-0.3,1.2,0.2,1.6c1.8,1.4,3.7,2.7,5.8,3.7c7.7,3.9,16.3,4.3,23.9,1.9
		c0,0,0,0,0.1,0c0,0,0,0,0.1,0c4.8-1.5,9.3-4.2,12.9-7.9c2.4-2.4,4.4-5.1,6-8.3C64.1,39.5,64.8,31.7,63.1,24.4z M20.9,59.6l1.7-3.8
		c0.6,0.2,1.1,0.4,1.7,0.6c0.4,0.1,0.9,0,1.2-0.3c0.1-0.1,0.2-0.3,0.3-0.5c0.2-0.6-0.1-1.2-0.7-1.4c-0.8-0.3-1.7-0.6-2.5-1
		c0,0,0,0,0,0c0,0,0,0,0,0c-1.2-0.5-2.4-1.2-3.5-2l3.1-3.1c2.7,1.7,5.7,2.6,8.8,2.8v4.2c-0.5,0-1-0.1-1.5-0.1c0,0,0,0,0,0
		c0,0,0,0,0,0c0,0,0,0,0,0c-0.6-0.1-1.2,0.4-1.3,1c0,0.1,0,0.1,0,0.2l-0.3,2.9c-0.1,0.6,0.4,1.2,1,1.3c0.4,0,0.7-0.1,0.9-0.3
		c0.2-0.2,0.3-0.4,0.3-0.7l0.2-1.9c2.8,0.2,5.7-0.1,8.4-0.8l1.3,4C33.7,62.3,27.1,62.1,20.9,59.6z M42,60l-1.3-4
		c1.8-0.7,3.6-1.5,5.2-2.6c0.1,0,0.1-0.1,0.2-0.1c0.4-0.4,0.4-1,0.1-1.4c-0.3-0.5-1.1-0.7-1.6-0.3c-3.5,2.3-7.5,3.6-11.6,3.8V51
		c1.2-0.1,2.3-0.2,3.5-0.5c0.2-0.1,0.4-0.2,0.5-0.3c0.3-0.3,0.4-0.7,0.3-1.1c-0.2-0.6-0.8-1-1.4-0.8c-1.6,0.4-3.2,0.6-4.8,0.5
		l0.5-4.3c3.3,0.1,6.6-1.2,9.1-3.6c0.9-0.9,1.7-2,2.3-3.1l4,1.6c-1.1,2.3-2.8,4.4-4.9,6c-0.5,0.4-1,0.7-1.5,1
		c-0.5,0.3-0.7,1-0.4,1.6c0,0,0,0,0,0l1.3,2.2c0.3,0.5,1,0.7,1.6,0.4c0.1,0,0.2-0.1,0.2-0.2c0.4-0.4,0.4-0.9,0.2-1.4l-0.8-1.3
		c0.2-0.2,0.5-0.3,0.7-0.5c0.7-0.5,1.3-1.1,1.9-1.7c1.8-1.8,3.2-4,4.2-6.3c0.2-0.6,0-1.3-0.6-1.5c0,0,0,0,0,0c0,0,0,0,0,0l-5-2
		c0.8-2.8,0.7-6-0.6-8.7l3.2-3.2c0.6,1.1,1.1,2.2,1.5,3.3l0.5,2.2c0.2,0.9,0.2,1.8,0.2,2.8c0,0,0,0,0,0s0,0,0,0c0,0.4,0,0.8-0.1,1.2
		L47,33c-0.6-0.1-1.2,0.3-1.3,1c-0.1,0.6,0.3,1.2,1,1.3l2.7,0.4c0,0,0,0,0.1,0c0.4,0.1,0.7-0.1,1-0.3c0.2-0.2,0.3-0.4,0.3-0.6
		c0.1-0.5,0.1-1,0.2-1.6h4.2c-0.2,3.6-1.2,7.1-2.9,10.2c0,0,0,0,0,0c0,0,0,0,0,0c-0.6,1.1-1.3,2.1-2,3L49,45.4
		c-0.5-0.4-1.2-0.4-1.6,0.1c-0.4,0.5-0.4,1.2,0.1,1.6l2.1,1.9c0.5,0.4,1.1,0.4,1.6-0.1c0,0,0,0,0.1-0.1c0.9-1,1.7-2.2,2.5-3.3
		l3.7,2.1C53.7,53.5,48.2,57.8,42,60z M61.5,35.2c-0.4,3.5-1.4,6.9-3,10.2c0,0.1-0.1,0.2-0.1,0.3l-3.7-2.1
		c2.6-5.1,3.4-10.9,2.2-16.6l4.1-1c0.5,2.3,0.7,4.6,0.6,6.9L61.5,35.2z"/>
</g>
</svg>
