<?xml version="1.0" encoding="utf-8"?>
<!-- Generator: Adobe Illustrator 21.1.0, SVG Export Plug-In . SVG Version: 6.00 Build 0)  -->
<svg version="1.1" id="Layer_1" xmlns="http://www.w3.org/2000/svg" xmlns:xlink="http://www.w3.org/1999/xlink" x="0px" y="0px"
	 viewBox="0 0 24 18.3" style="enable-background:new 0 0 24 18.3;" xml:space="preserve">
<style type="text/css">
	.st0{fill:url(#SVGID_1_);}
	.st1{fill:url(#SVGID_2_);}
	.st2{fill:url(#SVGID_3_);}
	.st3{fill:url(#SVGID_4_);}
</style>
<g>
	<g>
		<g>
			<g>
				<linearGradient id="SVGID_1_" gradientUnits="userSpaceOnUse" x1="7.0741" y1="8.076397e-05" x2="7.0741" y2="17.4348">
					<stop  offset="0" style="stop-color:#E94F13"/>
					<stop  offset="1" style="stop-color:#FF7C20"/>
				</linearGradient>
				<path class="st0" d="M3.7,0C3.7,0,3.7,0,3.7,0C3.4,0,3.2,0.1,3.1,0.2C2.9,0.4,2.8,0.6,2.8,0.9v12.9c0,0.5,0.4,0.9,0.9,0.9
					c2,0,5.3,0.4,7.7,2.8V4c0-0.2,0-0.3-0.1-0.4C9.3,0.5,5.7,0,3.7,0z"/>
				<linearGradient id="SVGID_2_" gradientUnits="userSpaceOnUse" x1="16.926" y1="0" x2="16.926" y2="17.4347">
					<stop  offset="0" style="stop-color:#E94F13"/>
					<stop  offset="1" style="stop-color:#FF7C20"/>
				</linearGradient>
				<path class="st1" d="M21.2,13.7V0.9c0-0.2-0.1-0.4-0.3-0.6C20.8,0.1,20.6,0,20.3,0c0,0,0,0,0,0c-2,0-5.6,0.5-7.5,3.5
					c-0.1,0.1-0.1,0.3-0.1,0.4v13.5c2.3-2.4,5.7-2.8,7.7-2.8C20.8,14.6,21.2,14.2,21.2,13.7z"/>
				<linearGradient id="SVGID_3_" gradientUnits="userSpaceOnUse" x1="18.9286" y1="2.9699" x2="18.9286" y2="18.3357">
					<stop  offset="0" style="stop-color:#E94F13"/>
					<stop  offset="1" style="stop-color:#FF7C20"/>
				</linearGradient>
				<path class="st2" d="M23.1,3h-0.6v10.8c0,1.2-1,2.2-2.2,2.2c-1.7,0-4.5,0.3-6.5,2.2c3.4-0.8,7-0.3,9.1,0.2
					c0.3,0.1,0.5,0,0.7-0.2c0.2-0.2,0.3-0.4,0.3-0.7V3.8C24,3.4,23.6,3,23.1,3z"/>
				<linearGradient id="SVGID_4_" gradientUnits="userSpaceOnUse" x1="5.0714" y1="2.9699" x2="5.0714" y2="18.3356">
					<stop  offset="0" style="stop-color:#E94F13"/>
					<stop  offset="1" style="stop-color:#FF7C20"/>
				</linearGradient>
				<path class="st3" d="M1.5,13.7V3H0.9C0.4,3,0,3.4,0,3.8v13.6c0,0.3,0.1,0.5,0.3,0.7c0.2,0.2,0.5,0.2,0.7,0.2
					c2.1-0.5,5.7-1,9.1-0.2c-2-1.9-4.8-2.2-6.5-2.2C2.5,15.9,1.5,14.9,1.5,13.7z"/>
			</g>
		</g>
	</g>
</g>
</svg>
