<?xml version="1.0" encoding="utf-8"?>
<!-- Generator: Adobe Illustrator 21.1.0, SVG Export Plug-In . SVG Version: 6.00 Build 0)  -->
<svg version="1.1" id="Layer_1" xmlns="http://www.w3.org/2000/svg" xmlns:xlink="http://www.w3.org/1999/xlink" x="0px" y="0px"
	 viewBox="0 0 62.5 62.5" style="enable-background:new 0 0 62.5 62.5;" xml:space="preserve">
<style type="text/css">
	.st0{fill:#ffffff;}
</style>
<g>
	<path class="st0" d="M22,30.6v2.2h2.9v2.9c-0.3,0.2-0.7,0.3-1,0.4c-0.5,0.1-1,0.2-1.6,0.2c-1.5,0-2.6-0.4-3.3-1.2
		c-0.7-0.8-1.1-2.1-1.1-3.7c0-1.7,0.4-2.9,1.1-3.8c0.7-0.8,1.9-1.2,3.3-1.2c0.8,0,1.5,0.1,2.2,0.4c0.7,0.3,1.4,0.7,2,1.2l0.6,0.5
		v-2.9l-0.2-0.1c-0.7-0.4-1.4-0.8-2.2-1c-0.8-0.2-1.7-0.3-2.5-0.3c-2.1,0-3.9,0.6-5.1,1.9c-1.2,1.3-1.8,3-1.8,5.3
		c0,2.2,0.6,4,1.8,5.3c1.2,1.3,2.9,1.9,5.1,1.9c1,0,1.9-0.1,2.8-0.4c0.9-0.3,1.7-0.6,2.4-1.2l0.2-0.1v-6.2H22z"/>
	<rect x="30.8" y="24.3" class="st0" width="2.5" height="13.9"/>
	<polygon class="st0" points="45.3,26.6 45.3,24.3 37,24.3 37,38.2 39.5,38.2 39.5,31.9 44.7,31.9 44.7,29.7 39.5,29.7 39.5,26.6 	
		"/>
</g>
<g>
	<circle class="st0" cx="60.7" cy="31.3" r="1.7"/>
	<circle class="st0" cx="60.3" cy="36.5" r="1.7"/>
	<circle class="st0" cx="58.8" cy="41.6" r="1.7"/>
	<circle class="st0" cx="56.5" cy="46.4" r="1.7"/>
	<circle class="st0" cx="53.4" cy="50.7" r="1.7"/>
	<circle class="st0" cx="49.6" cy="54.4" r="1.7"/>
	<circle class="st0" cx="45.2" cy="57.3" r="1.7"/>
	<circle class="st0" cx="40.3" cy="59.4" r="1.7"/>
	<circle class="st0" cx="35.1" cy="60.6" r="1.7"/>
	<circle class="st0" cx="29.8" cy="60.8" r="1.7"/>
	<circle class="st0" cx="24.6" cy="60.1" r="1.7"/>
	<circle class="st0" cx="19.5" cy="58.4" r="1.7"/>
	<circle class="st0" cx="14.9" cy="55.9" r="1.7"/>
	<circle class="st0" cx="10.7" cy="52.6" r="1.7"/>
	<circle class="st0" cx="7.2" cy="48.6" r="1.7"/>
	<circle class="st0" cx="4.5" cy="44.1" r="1.7"/>
	<circle class="st0" cx="2.7" cy="39.1" r="1.7"/>
	<circle class="st0" cx="1.7" cy="33.9" r="1.7"/>
	<circle class="st0" cx="1.7" cy="28.6" r="1.7"/>
	<circle class="st0" cx="2.7" cy="23.4" r="1.7"/>
	<circle class="st0" cx="4.5" cy="18.4" r="1.7"/>
	<circle class="st0" cx="7.2" cy="13.9" r="1.7"/>
	<circle class="st0" cx="10.7" cy="9.9" r="1.7"/>
	<circle class="st0" cx="14.9" cy="6.6" r="1.7"/>
	<circle class="st0" cx="19.5" cy="4.1" r="1.7"/>
	<circle class="st0" cx="24.6" cy="2.4" r="1.7"/>
	<circle class="st0" cx="29.8" cy="1.7" r="1.7"/>
	<circle class="st0" cx="35.1" cy="2" r="1.7"/>
	<circle class="st0" cx="40.3" cy="3.1" r="1.7"/>
	<circle class="st0" cx="45.2" cy="5.2" r="1.7"/>
	<circle class="st0" cx="49.6" cy="8.1" r="1.7"/>
	<circle class="st0" cx="53.4" cy="11.8" r="1.7"/>
	<circle class="st0" cx="56.5" cy="16.1" r="1.7"/>
	<circle class="st0" cx="58.8" cy="20.9" r="1.7"/>
	<circle class="st0" cx="60.3" cy="26" r="1.7"/>
</g>
</svg>
