<?xml version="1.0" encoding="utf-8"?>
<!-- Generator: Adobe Illustrator 21.1.0, SVG Export Plug-In . SVG Version: 6.00 Build 0)  -->
<svg version="1.1" id="Capa_1" xmlns="http://www.w3.org/2000/svg" xmlns:xlink="http://www.w3.org/1999/xlink" x="0px" y="0px"
	 viewBox="0 0 90 90" style="enable-background:new 0 0 90 90;" xml:space="preserve">
<g>
	<path d="M49.3,39.7v-0.1c0,0-0.1,0.1-0.1,0.1H49.3z"/>
	<path d="M70,0H20C9,0,0,9,0,20v50c0,11,9,20,20,20h50c11,0,20-9,20-20V20C90,9,81,0,70,0z M25.4,79.3H10V33h15.4V79.3z M17.7,26.7
		h-0.1c-5.2,0-8.5-3.6-8.5-8c0-4.5,3.4-8,8.7-8c5.3,0,8.5,3.5,8.6,8C26.4,23.1,23.1,26.7,17.7,26.7z M80.9,79.3H65.5V54.5
		c0-6.2-2.2-10.5-7.8-10.5c-4.3,0-6.8,2.9-7.9,5.6c-0.4,1-0.5,2.4-0.5,3.8v25.8H33.9c0,0,0.2-41.9,0-46.3h15.4v6.6
		c2-3.1,5.7-7.6,13.9-7.6c10.1,0,17.7,6.6,17.7,20.8V79.3z"/>
</g>
</svg>
