<?xml version="1.0" encoding="utf-8"?>
<!-- Generator: Adobe Illustrator 17.0.0, SVG Export Plug-In . SVG Version: 6.00 Build 0)  -->
<!DOCTYPE svg PUBLIC "-//W3C//DTD SVG 1.1//EN" "http://www.w3.org/Graphics/SVG/1.1/DTD/svg11.dtd">
<svg version="1.1" id="Layer_1" xmlns="http://www.w3.org/2000/svg" xmlns:xlink="http://www.w3.org/1999/xlink" x="0px" y="0px"
	 width="1014.28px" height="381.014px" viewBox="0 0 1014.28 381.014" enable-background="new 0 0 1014.28 381.014"
	 xml:space="preserve">
<g>
	<g>
		<g>
			<g>
				<path fill="#00AEEF" d="M543.546,308.6h-3.852c-2.299,0-4.168,1.873-4.168,4.172v2.48h2.918v-2.48c0-0.69,0.561-1.25,1.25-1.25
					h3.852c0.689,0,1.25,0.559,1.25,1.25v30.578c0,0.688-0.561,1.252-1.25,1.252h-3.852c-0.689,0-1.25-0.564-1.25-1.252v-15.288
					h-2.918v15.288c0,2.301,1.869,4.17,4.168,4.17h3.852c2.299,0,4.172-1.869,4.172-4.17v-30.578
					C547.718,310.473,545.845,308.6,543.546,308.6z"/>
				<path fill="#8BDB00" d="M715.926,326.601h-3.852c-0.434,0-0.852,0.068-1.25,0.195v-14.024c0-0.69,0.561-1.25,1.25-1.25h8.024
					V308.6h-8.024c-2.299,0-4.168,1.873-4.168,4.172v18.001v8.79v3.787c0,2.301,1.869,4.17,4.168,4.17h3.852
					c2.299,0,4.172-1.869,4.172-4.17v-3.787v-0.875v-7.915C720.098,328.47,718.225,326.601,715.926,326.601z M717.176,338.688v0.875
					v3.787c0,0.688-0.562,1.252-1.25,1.252h-3.852c-0.689,0-1.25-0.564-1.25-1.252v-3.787v-8.79c0-0.691,0.561-1.254,1.25-1.254
					h3.852c0.688,0,1.25,0.563,1.25,1.254V338.688z"/>
				<path fill="#8BDB00" d="M691.813,308.6h-5.627c-2.299,0-4.168,1.873-4.168,4.172v34.536h2.918v-34.536
					c0-0.69,0.561-1.25,1.25-1.25h1.352v10.38h2.922v-10.38h1.353c0.688,0,1.25,0.559,1.25,1.25v34.536h2.918v-34.536
					C695.981,310.473,694.112,308.6,691.813,308.6z"/>
				<path fill="#8BDB00" d="M788.273,308.6h-3.852c-2.299,0-4.172,1.873-4.172,4.172v34.536h2.922v-34.536
					c0-0.69,0.561-1.25,1.25-1.25h3.852c0.689,0,1.25,0.559,1.25,1.25v34.536h2.918v-34.536
					C792.441,310.473,790.572,308.6,788.273,308.6z"/>
				<path fill="#8BDB00" d="M662.074,311.522h3.848c0.692,0,1.254,0.559,1.254,1.25h2.918c0-2.299-1.869-4.172-4.172-4.172h-3.848
					c-2.303,0-4.172,1.873-4.172,4.172v18.001v12.577v3.958h2.918v-3.958v-12.577c0-0.691,0.562-1.254,1.254-1.254h3.848
					c0.692,0,1.254,0.563,1.254,1.254v16.535h2.918v-16.535c0-2.303-1.869-4.172-4.172-4.172h-3.848
					c-0.435,0-0.857,0.068-1.254,0.195v-14.024C660.819,312.082,661.381,311.522,662.074,311.522z"/>
				<path fill="#8BDB00" d="M641.809,311.524h-1.352v-2.918h-2.922v2.918h-1.348c-2.303,0-4.172,1.873-4.172,4.17v27.656
					c0,2.301,1.869,4.17,4.172,4.17h5.623c2.299,0,4.172-1.869,4.172-4.17v-27.656C645.981,313.397,644.108,311.524,641.809,311.524
					z M643.059,343.35c0,0.688-0.561,1.252-1.25,1.252h-5.623c-0.692,0-1.254-0.564-1.254-1.252v-27.656
					c0-0.69,0.562-1.248,1.254-1.248h1.348v7.456h2.922v-7.456h1.352c0.688,0,1.25,0.557,1.25,1.248V343.35z"/>
				<path fill="#00AEEF" d="M567.663,308.6h-3.852c-2.299,0-4.172,1.873-4.172,4.172v7.944v13.21v9.423
					c0,2.301,1.873,4.17,4.172,4.17h6.561v-2.918h-6.561c-0.688,0-1.25-0.564-1.25-1.252v-9.423v-13.21v-7.944
					c0-0.69,0.562-1.25,1.25-1.25h3.852c0.689,0,1.25,0.559,1.25,1.25v12.577h2.918v-12.577
					C571.831,310.473,569.962,308.6,567.663,308.6z"/>
				<path fill="#8BDB00" d="M764.156,308.6h-3.848c-2.303,0-4.172,1.873-4.172,4.172v7.944v13.21v9.423
					c0,2.301,1.869,4.17,4.172,4.17h6.561v-2.918h-6.561c-0.692,0-1.254-0.564-1.254-1.252v-9.423v-13.21v-7.944
					c0-0.69,0.561-1.25,1.254-1.25h3.848c0.689,0,1.25,0.559,1.25,1.25v12.577h2.922v-12.577
					C768.328,310.473,766.455,308.6,764.156,308.6z"/>
				<path fill="#8BDB00" d="M591.776,308.6h-3.852c-2.299,0-4.167,1.873-4.167,4.172v2.48h2.918v-2.48c0-0.69,0.562-1.25,1.25-1.25
					h3.852c0.689,0,1.25,0.559,1.25,1.25v30.578c0,0.688-0.561,1.252-1.25,1.252h-3.852c-0.688,0-1.25-0.564-1.25-1.252v-15.288
					h-2.918v15.288c0,2.301,1.869,4.17,4.167,4.17h3.852c2.299,0,4.172-1.869,4.172-4.17v-30.578
					C595.948,310.473,594.075,308.6,591.776,308.6z"/>
				<path fill="#8BDB00" d="M740.043,308.6h-3.852c-2.299,0-4.172,1.873-4.172,4.172h2.922c0-0.69,0.561-1.25,1.25-1.25h0.467v10.38
					h2.918v-10.38h0.467c0.689,0,1.25,0.559,1.25,1.25v30.578c0,0.688-0.561,1.252-1.25,1.252h-3.852
					c-0.689,0-1.25-0.564-1.25-1.252v-15.288h-2.922v15.288c0,2.301,1.873,4.17,4.172,4.17h3.852c2.299,0,4.168-1.869,4.168-4.17
					v-30.578C744.211,310.473,742.342,308.6,740.043,308.6z"/>
				<path fill="#8BDB00" d="M615.889,308.6v2.922c0.692,0,1.254,0.559,1.254,1.25v11.118h-5.102c-2.299,0-4.172,1.871-4.172,4.17
					h2.918c0-0.689,0.561-1.25,1.254-1.25h5.102v16.54c0,0.688-0.562,1.252-1.254,1.252h-3.848c-0.692,0-1.254-0.564-1.254-1.252
					v-4.662h-2.918v4.662c0,2.301,1.873,4.17,4.172,4.17h3.848c2.303,0,4.172-1.869,4.172-4.17v-30.578
					C620.06,310.473,618.192,308.6,615.889,308.6z"/>
			</g>
			<g>
				<path fill="#00AEEF" d="M878.922,308.6h-5.295l0,0h-0.328c-2.303,0-4.172,1.873-4.172,4.172v12.577
					c0,2.301,1.869,4.17,4.172,4.17h0.328c2.299,0,4.172-1.869,4.172-4.17v-12.577c0-0.436-0.07-0.856-0.193-1.25h1.316
					c0.688,0,1.25,0.559,1.25,1.25v12.577c0,0.691-0.561,1.252-1.25,1.252l0,0h-0.185l0,0v2.918l0,0h0.185l0,0
					c0.688,0,1.25,0.563,1.25,1.254v12.577c0,0.688-0.561,1.252-1.25,1.252h-5.623c-0.692,0-1.254-0.564-1.254-1.252v-4.662h-2.918
					v4.662c0,2.301,1.869,4.17,4.172,4.17h5.623c2.299,0,4.167-1.869,4.167-4.17v-12.577c0-1.035-0.377-1.982-1.004-2.711
					c0.627-0.727,1.004-1.676,1.004-2.713v-12.577C883.089,310.473,881.22,308.6,878.922,308.6z M874.877,325.349
					c0,0.691-0.561,1.252-1.25,1.252h-0.328c-0.692,0-1.254-0.561-1.254-1.252v-12.577c0-0.69,0.561-1.25,1.254-1.25h0.328
					c0.693,0,1.25,0.564,1.25,1.25V325.349z"/>
				<path fill="#00AEEF" d="M927.151,308.6h-3.852c-2.299,0-4.172,1.873-4.172,4.172v7.944v13.21v9.423
					c0,2.301,1.873,4.17,4.172,4.17h6.561v-2.918h-6.561c-0.689,0-1.25-0.564-1.25-1.252v-9.423v-13.21v-7.944
					c0-0.69,0.561-1.25,1.25-1.25h3.852c0.689,0,1.25,0.559,1.25,1.25v12.577h2.922v-12.577
					C931.323,310.473,929.45,308.6,927.151,308.6z"/>
				<path fill="#00AEEF" d="M951.264,308.6h-3.848c-2.299,0-4.172,1.873-4.172,4.172v2.48h2.918v-2.48c0-0.69,0.561-1.25,1.254-1.25
					h3.848c0.693,0,1.254,0.559,1.254,1.25v30.578c0,0.688-0.561,1.252-1.254,1.252h-3.848c-0.692,0-1.254-0.564-1.254-1.252
					v-15.288h-2.918v15.288c0,2.301,1.873,4.17,4.172,4.17h3.848c2.299,0,4.172-1.869,4.172-4.17v-30.578
					C955.436,310.473,953.563,308.6,951.264,308.6z"/>
				<path fill="#00AEEF" d="M853.034,308.6h-3.852v2.922h3.852c0.689,0,1.25,0.559,1.25,1.25v30.578c0,0.688-0.561,1.252-1.25,1.252
					h-3.852c-0.689,0-1.25-0.564-1.25-1.252v-4.662h-2.922v4.662c0,2.301,1.873,4.17,4.172,4.17h3.852
					c2.299,0,4.168-1.869,4.168-4.17v-30.578C857.202,310.473,855.333,308.6,853.034,308.6z"/>
				<path fill="#00AEEF" d="M830.167,343.35c0,0.688-0.561,1.252-1.254,1.252h-3.848c-0.693,0-1.254-0.564-1.254-1.252v-34.743
					h-2.918v34.743c0,2.301,1.873,4.17,4.172,4.17h3.848c2.303,0,4.172-1.869,4.172-4.17v-4.662h-2.918V343.35z"/>
				<path fill="#00AEEF" d="M903.035,308.6h-3.848c-2.303,0-4.172,1.873-4.172,4.172h2.918c0-0.69,0.561-1.25,1.254-1.25h0.463
					v10.38h2.922v-10.38h0.463c0.692,0,1.254,0.559,1.254,1.25v30.578c0,0.688-0.561,1.252-1.254,1.252h-3.848
					c-0.693,0-1.254-0.564-1.254-1.252h-2.918c0,2.301,1.869,4.17,4.172,4.17h3.848c2.299,0,4.172-1.869,4.172-4.17v-30.578
					C907.206,310.473,905.333,308.6,903.035,308.6z"/>
			</g>
		</g>
		<g>
			<g>
				<path fill="#8BDB00" d="M721.258,247.613c-6.004,5.602-13.831,8.688-22.047,8.688h-60.893c-3.475,0-6.295,2.817-6.295,6.295
					c0,3.475,2.82,6.295,6.295,6.295h60.893c11.417,0,22.297-4.289,30.637-12.073c2.536-2.373,2.676-6.356,0.307-8.897
					C727.782,245.38,723.798,245.244,721.258,247.613z"/>
				<path fill="#8BDB00" d="M727.929,189.523c5.065-6.641,7.844-14.681,7.844-23.217c0-21.209-17.257-38.466-38.473-38.466h-44.353
					v-7.145c0-3.477-2.815-6.295-6.295-6.295c-3.475,0-6.295,2.817-6.295,6.295v13.439c0,3.479,2.819,6.295,6.295,6.295H697.3
					c14.269,0,25.883,11.606,25.883,25.877c0,6.151-2.119,11.932-6.008,16.57c-5.504-2.415-11.577-3.78-17.966-3.78H676.95
					c-3.475,0-6.295,2.817-6.295,6.295c0,3.477,2.82,6.295,6.295,6.295h22.261c17.814,0,32.305,14.493,32.305,32.307
					c0,0.901-0.037,1.793-0.107,2.676c-0.279,3.465,2.307,6.499,5.77,6.776c0.172,0.014,0.34,0.021,0.508,0.021
					c3.25,0,6.004-2.498,6.27-5.793c0.098-1.215,0.147-2.436,0.147-3.68C744.104,210.153,737.801,197.765,727.929,189.523z"/>
			</g>
			<g>
				<path fill="#8BDB00" d="M848.969,189.53c5.061-6.661,7.836-14.739,7.836-23.224c0-1.936-0.143-3.891-0.435-5.805
					c-0.52-3.436-3.737-5.799-7.163-5.285c-3.438,0.521-5.807,3.727-5.287,7.167c0.197,1.291,0.295,2.611,0.295,3.922
					c0,6.116-2.135,11.917-6.016,16.562c-5.504-2.407-11.573-3.772-17.958-3.772h-22.256c-3.475,0-6.295,2.817-6.295,6.295
					c0,3.477,2.819,6.295,6.295,6.295h22.256c17.814,0,32.309,14.493,32.309,32.307c0,17.816-14.495,32.309-32.309,32.309h-60.889
					c-3.475,0-6.295,2.817-6.295,6.295c0,3.475,2.82,6.295,6.295,6.295h60.889c24.756,0,44.898-20.144,44.898-44.898
					C865.14,210.159,858.841,197.771,848.969,189.53z"/>
				<path fill="#8BDB00" d="M767.688,140.429h50.648c4.725,0,9.343,1.283,13.36,3.713c1.02,0.615,2.143,0.908,3.254,0.908
					c2.131,0,4.209-1.082,5.393-3.035c1.799-2.977,0.844-6.848-2.131-8.645c-5.983-3.619-12.856-5.53-19.875-5.53h-44.353v-7.145
					c0-3.477-2.819-6.295-6.295-6.295c-3.479,0-6.295,2.817-6.295,6.295v13.439C761.394,137.613,764.209,140.429,767.688,140.429z"
					/>
			</g>
			<g>
				<path fill="#8BDB00" d="M588.78,144.478c2.766,1.984,6.61,1.345,8.59-1.42c1.979-2.76,1.348-6.608-1.418-8.587
					c-12.827-9.192-27.969-14.067-43.796-14.122c-0.041-0.002-0.074-0.012-0.111-0.012c-0.016,0-0.033,0.004-0.049,0.004
					c-0.041,0-0.082-0.004-0.127-0.004c-41.788,0-75.781,33.998-75.781,75.785c0,33.6,21.593,62.735,53.729,72.5
					c0.598,0.185,1.201,0.269,1.791,0.269c2.639,0,5.078-1.709,5.889-4.368c0.992-3.252-0.844-6.688-4.098-7.674
					c-26.916-8.186-44.997-32.586-44.997-60.727c0-32.981,25.285-60.141,57.487-63.167v63.337c0,3.405,2.758,6.164,6.155,6.164
					c3.402,0,6.155-2.758,6.155-6.164v-63.294C569.232,134.085,579.703,137.976,588.78,144.478z"/>
				<path fill="#8BDB00" d="M616.27,156.155c-1.799-2.896-5.594-3.778-8.479-1.984c-2.889,1.797-3.774,5.594-1.979,8.481
					c6.237,10.026,9.532,21.601,9.532,33.469c0,28.141-18.084,52.541-44.996,60.727c-3.254,0.985-5.09,4.422-4.102,7.674
					c0.807,2.66,3.246,4.368,5.889,4.368c0.594,0,1.193-0.084,1.791-0.269c32.141-9.765,53.729-38.901,53.729-72.5
					C627.654,181.952,623.72,168.13,616.27,156.155z"/>
			</g>
			<g>
				<path fill="#8BDB00" d="M1014.28,201.277c0-38.345-26.235-79.732-68.617-79.732H892.9c-3.475,0-6.295,2.822-6.295,6.295
					c0,3.479,2.82,6.295,6.295,6.295h52.763c34.608,0,56.028,34.852,56.028,67.142c0,1.684-0.102,3.36-0.254,5.03
					c-0.021,0.121-0.062,0.232-0.074,0.353c-1.205,12.257-6.557,23.943-15.073,32.911c-2.393,2.518-2.291,6.501,0.234,8.897
					c1.217,1.158,2.774,1.727,4.332,1.727c1.664,0,3.328-0.653,4.565-1.959c7.196-7.577,12.495-16.765,15.609-26.658
					c0.127-0.269,0.303-0.502,0.389-0.797C1013.317,214.474,1014.28,207.913,1014.28,201.277z"/>
				<path fill="#8BDB00" d="M965.649,253.326c-6.324,2.404-12.999,3.625-19.839,3.625c-28.649,0-52.303-21.705-55.442-49.529h14.392
					c3.479,0,6.295-2.817,6.295-6.295c0-3.478-2.815-6.295-6.295-6.295h-21.068c-3.475,0-6.295,2.817-6.295,6.295
					c0,37.722,30.69,68.413,68.413,68.413c8.376,0,16.556-1.498,24.314-4.447c3.25-1.235,4.881-4.872,3.643-8.124
					C972.533,253.725,968.91,252.08,965.649,253.326z"/>
			</g>
		</g>
	</g>
	<g>
		<linearGradient id="SVGID_1_" gradientUnits="userSpaceOnUse" x1="156.3741" y1="312.9269" x2="156.3741" y2="-1.532499e-009">
			<stop  offset="0" style="stop-color:#00AEEF"/>
			<stop  offset="0.2109" style="stop-color:#1BB7C1"/>
			<stop  offset="0.686" style="stop-color:#5DCC4F"/>
			<stop  offset="1" style="stop-color:#8BDB00"/>
		</linearGradient>
		<path fill="url(#SVGID_1_)" d="M79.87,283.458c0.309-0.308,0.592-0.652,0.825-1.012c0.081-0.111,0.126-0.233,0.203-0.349
			c0.141-0.253,0.299-0.506,0.405-0.769c0.068-0.167,0.106-0.334,0.167-0.491c0.076-0.238,0.157-0.471,0.207-0.704
			c0.041-0.187,0.061-0.359,0.091-0.542c0.033-0.238,0.051-0.48,0.063-0.714c0-0.172,0-0.364-0.012-0.541
			c0-0.243-0.033-0.481-0.068-0.719c-0.025-0.172-0.061-0.354-0.104-0.536c-0.051-0.223-0.119-0.456-0.205-0.678
			c-0.063-0.182-0.129-0.354-0.205-0.536c-0.096-0.218-0.208-0.42-0.329-0.613c-0.101-0.177-0.212-0.349-0.321-0.511
			c-0.051-0.076-0.074-0.152-0.129-0.218c-5.463-7.126-10.198-14.742-14.11-22.658c-0.046-0.126-0.081-0.248-0.149-0.37
			c-1.657-3.375-5.726-4.772-9.096-3.117L43.04,255.27c-3.378,1.655-4.765,5.734-3.105,9.109c1.657,3.376,5.729,4.767,9.094,3.112
			l8.065-3.953c2.725,4.95,5.741,9.777,9.021,14.423l-17.89,17.89c-19.08-25.805-30.428-55.897-33.673-86.844l24.851-1.635
			c0.645,5.683,1.564,11.367,2.849,17.03c0.835,3.649,4.474,5.947,8.14,5.116c1.303-0.293,2.427-0.941,3.302-1.812
			c1.589-1.599,2.361-3.957,1.822-6.331c-1.802-7.945-2.864-15.961-3.259-24.003l25.167,0.01
			c1.195,19.859,7.635,39.641,19.71,57.207c0.01,0.016,0.025,0.04,0.043,0.061c0.015,0.031,0.03,0.061,0.055,0.096
			c0.117,0.157,0.258,0.293,0.385,0.45c0.137,0.172,0.243,0.339,0.4,0.496c0.015,0.02,0.03,0.031,0.061,0.046
			c0.192,0.182,0.417,0.359,0.628,0.511c0.147,0.111,0.288,0.238,0.425,0.339c0.203,0.126,0.42,0.222,0.638,0.334
			c0.182,0.081,0.354,0.197,0.544,0.278c0.19,0.066,0.397,0.111,0.592,0.177c0.215,0.056,0.435,0.132,0.658,0.177
			c0.218,0.046,0.431,0.046,0.648,0.061c0.225,0.025,0.428,0.066,0.648,0.066c0.238,0,0.458-0.051,0.676-0.076
			c0.212-0.016,0.425-0.021,0.633-0.066c0.192-0.031,0.377-0.106,0.577-0.162c0.233-0.071,0.473-0.126,0.693-0.223
			c0.162-0.061,0.309-0.157,0.456-0.233c0.243-0.126,0.496-0.253,0.744-0.41c0.025-0.015,0.041-0.015,0.051-0.035
			c0.354-0.238,0.673-0.506,0.962-0.8c0,0,0.01,0,0.01-0.01l28.219-28.219l0.018-0.015c0.291-0.299,0.555-0.628,0.792-0.977
			c0.073-0.106,0.141-0.227,0.207-0.339c0.142-0.228,0.274-0.476,0.39-0.724c0.061-0.136,0.124-0.283,0.172-0.43
			c0.091-0.253,0.162-0.501,0.223-0.759c0.03-0.131,0.066-0.268,0.096-0.405c0.061-0.354,0.094-0.703,0.096-1.073
			c0-0.035,0.012-0.071,0.012-0.111c0-0.405-0.04-0.809-0.113-1.215c-0.025-0.121-0.061-0.238-0.091-0.344
			c-0.071-0.278-0.142-0.551-0.243-0.815c-0.055-0.162-0.126-0.304-0.195-0.45c-0.058-0.137-0.106-0.268-0.175-0.4
			c-8.634-15.967-9.671-34.783-2.844-51.626c1.414-3.482-0.271-7.45-3.75-8.861c-3.482-1.402-7.447,0.268-8.857,3.75
			c-7.718,19.019-7.214,40.097,1.212,58.594l-18.779,18.781c-8.846-15.385-13.163-32.303-13.214-49.111
			c0-0.121,0.036-0.228,0.036-0.349c0-0.126-0.036-0.243-0.036-0.37c0.018-4.226,0.304-8.447,0.86-12.637l2.688-13.33
			c5.582-20.345,17.632-39.06,35.679-52.815c7.087-5.41,14.833-9.793,22.991-13.102l7.895,24.145
			c-4.079,1.767-8.049,3.877-11.827,6.412c-0.053,0.051-0.091,0.086-0.142,0.117c-0.027,0.02-0.045,0.025-0.065,0.046
			c-3.108,2.095-3.938,6.331-1.847,9.439l10.264,15.207c2.095,3.108,6.326,3.943,9.433,1.842c0.375-0.253,0.714-0.526,1.027-0.845
			c2.252-2.247,2.662-5.86,0.825-8.608l-6.23-9.226c2.877-1.513,5.845-2.804,8.889-3.816c0.089-0.02,0.18-0.02,0.271-0.051
			c0.137-0.046,0.263-0.106,0.4-0.162c12.541-4.018,26.119-3.831,38.672,0.648l-21.703,21.696
			c-8.862,0.379-17.328,4.033-23.609,10.319c-7.029,7.03-10.79,16.787-10.319,26.772c0.172,3.75,3.358,6.645,7.111,6.473
			c3.75-0.173,6.66-3.361,6.478-7.116c-0.291-6.25,1.964-12.111,6.351-16.498c4.388-4.393,10.248-6.64,16.496-6.351
			c0.048,0,0.109-0.015,0.154-0.005c0.299,0.005,0.597-0.025,0.893-0.055c0.16-0.02,0.332-0.02,0.499-0.046
			c0.314-0.066,0.622-0.162,0.936-0.263c0.111-0.046,0.248-0.061,0.375-0.111c0.815-0.334,1.604-0.835,2.272-1.509l30.681-30.679
			c0.008,0,0.008,0,0.008,0c0.289-0.299,0.536-0.613,0.779-0.957c0.066-0.101,0.137-0.207,0.197-0.324
			c0.061-0.106,0.137-0.197,0.202-0.304c0.061-0.106,0.076-0.217,0.132-0.324c0.102-0.222,0.2-0.445,0.281-0.678
			c0.068-0.197,0.119-0.405,0.185-0.602c0.055-0.223,0.096-0.446,0.132-0.658c0.02-0.222,0.046-0.44,0.055-0.663
			c0.008-0.212,0.008-0.425,0-0.638c-0.015-0.217-0.035-0.435-0.055-0.652c-0.036-0.218-0.076-0.44-0.126-0.648
			c-0.059-0.218-0.117-0.405-0.19-0.607c-0.073-0.218-0.154-0.415-0.245-0.618c-0.091-0.202-0.197-0.4-0.314-0.597
			c-0.106-0.167-0.228-0.344-0.339-0.527c-0.152-0.192-0.304-0.389-0.471-0.557c-0.081-0.096-0.132-0.192-0.212-0.278
			c-0.076-0.076-0.149-0.121-0.223-0.177c-0.167-0.157-0.349-0.304-0.547-0.45c-0.187-0.141-0.385-0.268-0.579-0.395
			c-0.081-0.05-0.16-0.106-0.24-0.151c-16.159-8.745-34.535-11.028-51.787-7.07l-7.89-24.115c9.768-2.48,19.935-3.482,30.137-2.89
			c3.748,0.222,6.979-2.647,7.189-6.397c0.22-3.755-2.649-6.974-6.404-7.191c-1.784-0.106-3.571-0.152-5.354-0.177L190.3,52.37
			c27.073-0.05,54.224,7.753,77.701,23.705l-18.219,18.219c-6.797-4.201-14.013-7.682-21.524-10.339
			c-3.543-1.255-7.439,0.607-8.684,4.134c-1.255,3.553,0.602,7.435,4.145,8.69c8.168,2.895,15.954,6.868,23.128,11.822
			c0.02,0.016,0.038,0.016,0.056,0.036c0.139,0.091,0.288,0.147,0.43,0.233c0.228,0.141,0.468,0.278,0.708,0.379
			c0.152,0.056,0.311,0.106,0.471,0.162c0.238,0.086,0.491,0.162,0.734,0.218c0.157,0.03,0.324,0.061,0.481,0.07
			c0.253,0.046,0.501,0.081,0.754,0.081c0.169,0.005,0.344,0,0.504,0c0.245-0.01,0.483-0.036,0.726-0.081
			c0.172-0.02,0.344-0.055,0.516-0.086c0.243-0.066,0.478-0.136,0.699-0.202c0.162-0.061,0.324-0.122,0.48-0.188
			c0.253-0.111,0.506-0.238,0.754-0.394c0.114-0.066,0.233-0.117,0.354-0.192c0.344-0.248,0.683-0.511,0.992-0.825l0.01-0.005
			l27.753-27.749l0.005-0.01c0.218-0.218,0.415-0.44,0.607-0.689c0.046-0.061,0.076-0.131,0.124-0.202
			c0.139-0.192,0.263-0.4,0.382-0.618c0.101-0.172,0.207-0.369,0.293-0.557c0.083-0.207,0.164-0.425,0.233-0.637
			c0.076-0.208,0.132-0.405,0.182-0.622c0.046-0.218,0.07-0.425,0.106-0.638c0.02-0.223,0.05-0.44,0.066-0.658
			c0-0.213-0.01-0.435-0.025-0.648c-0.02-0.213-0.031-0.435-0.066-0.638c-0.046-0.223-0.091-0.435-0.147-0.653
			c-0.059-0.207-0.109-0.42-0.185-0.622c-0.073-0.197-0.172-0.39-0.265-0.587c-0.094-0.207-0.192-0.41-0.319-0.602
			c-0.106-0.182-0.233-0.349-0.367-0.521c-0.144-0.182-0.296-0.379-0.458-0.557c-0.059-0.061-0.091-0.121-0.152-0.187
			c-0.106-0.106-0.228-0.182-0.344-0.278c-0.117-0.096-0.208-0.218-0.322-0.319c-13.606-10.406-28.523-18.143-44.07-23.305
			l6.875-24.07c8.234,2.713,16.326,6.053,24.218,10.011c11.375,5.698,22.139,12.632,32.022,20.613
			c2.728,2.201,6.655,1.949,9.079-0.491c0.167-0.162,0.334-0.339,0.491-0.536c2.361-2.93,1.908-7.212-1.022-9.57
			c-10.633-8.578-22.23-16.048-34.47-22.171C230.248-2.504,178.623-6.229,130.335,9.804C82.046,25.842,42.906,59.724,20.099,105.21
			c-5.372,10.729-9.648,21.833-12.857,33.134c-0.038,0.091-0.086,0.182-0.117,0.283c-0.035,0.121-0.04,0.258-0.071,0.385
			c-5.782,20.643-7.986,41.964-6.7,63.043c-0.031,0.36-0.066,0.704-0.041,1.068c0.025,0.304,0.091,0.572,0.137,0.85
			c2.71,38.21,16.842,75.523,41.828,106.45c0.074,0.091,0.167,0.162,0.248,0.258c0.078,0.086,0.136,0.182,0.233,0.268
			c0.081,0.086,0.172,0.137,0.253,0.218c0.177,0.157,0.354,0.304,0.536,0.446c0.182,0.126,0.362,0.248,0.552,0.359
			c0.192,0.121,0.385,0.212,0.587,0.304c0.203,0.101,0.405,0.187,0.613,0.258c0.208,0.091,0.405,0.132,0.618,0.187
			c0.217,0.061,0.43,0.091,0.655,0.126c0.205,0.036,0.418,0.056,0.633,0.071c0.225,0.005,0.43,0.015,0.656,0.005
			c0.212-0.005,0.425-0.031,0.648-0.066c0.217-0.035,0.425-0.061,0.645-0.121c0.207-0.046,0.413-0.111,0.62-0.182
			c0.215-0.076,0.425-0.162,0.633-0.258c0.19-0.086,0.379-0.182,0.572-0.289c0.208-0.126,0.405-0.248,0.597-0.394
			c0.087-0.066,0.182-0.111,0.274-0.172c0.091-0.076,0.162-0.182,0.253-0.259c0.091-0.081,0.19-0.147,0.283-0.222l27.476-27.481
			C79.861,283.478,79.861,283.474,79.87,283.458z M134.619,22.709c2.277-0.744,4.55-1.442,6.849-2.11l13.199-3.275
			c25.843-5.379,52.281-4.899,77.676,1.367l-6.888,24.115c-47.797-11.225-99.744,1.048-137.574,35.639L70.164,60.721
			C88.436,43.787,110.276,30.801,134.619,22.709z M18.523,148.926l3.7-13.093c2.707-8.335,6.04-16.539,10.043-24.52
			c7.579-15.127,17.118-28.862,28.29-40.958L78.259,88.07c-10.129,11.058-18.513,23.452-24.96,36.924
			c-1.622,3.391-0.19,7.45,3.201,9.079c0.142,0.055,0.283,0.091,0.423,0.152l16.06,7.692c2.677,1.271,5.764,0.653,7.753-1.326
			c0.529-0.536,0.982-1.164,1.326-1.883c1.614-3.386,0.192-7.444-3.204-9.069l-10.157-4.873
			c6.342-11.711,14.345-22.465,23.887-32.005c23.272-23.28,53.22-36.636,84.119-39.707l1.248,25.092
			c-16.691,1.852-32.825,7.394-47.167,16.301l-11.101,7.865c-25.866,20.699-40.403,50.572-42.281,81.459H52.264
			c0.299-5.855,0.911-11.721,1.948-17.566c0.661-3.694-1.796-7.242-5.496-7.895c-3.707-0.658-7.237,1.817-7.9,5.517
			c-1.761,9.965-2.541,19.975-2.333,29.965l-24.824,1.64C13.229,179.873,14.844,164.235,18.523,148.926z"/>
		<linearGradient id="SVGID_2_" gradientUnits="userSpaceOnUse" x1="224.4148" y1="381.0144" x2="224.4148" y2="68.2291">
			<stop  offset="0" style="stop-color:#00AEEF"/>
			<stop  offset="0.2109" style="stop-color:#1BB7C1"/>
			<stop  offset="0.686" style="stop-color:#5DCC4F"/>
			<stop  offset="1" style="stop-color:#8BDB00"/>
		</linearGradient>
		<path fill="url(#SVGID_2_)" d="M375.388,145.53c-0.035-0.334-0.081-0.678-0.162-1.022c-0.048-0.202-0.142-0.394-0.218-0.597
			c-6.62-26.296-18.844-51.337-36.499-73.185c-0.086-0.091-0.177-0.157-0.258-0.248c-0.071-0.091-0.139-0.188-0.233-0.283
			c-0.071-0.071-0.162-0.126-0.243-0.203c-0.177-0.157-0.359-0.304-0.547-0.445c-0.182-0.126-0.354-0.253-0.541-0.359
			c-0.195-0.117-0.4-0.218-0.603-0.314c-0.207-0.096-0.4-0.172-0.6-0.258c-0.215-0.066-0.422-0.126-0.625-0.177
			c-0.215-0.061-0.43-0.091-0.637-0.141c-0.223-0.031-0.435-0.051-0.653-0.056c-0.212-0.015-0.425-0.015-0.643-0.005
			c-0.223,0.005-0.446,0.03-0.658,0.061c-0.22,0.03-0.425,0.066-0.633,0.116c-0.22,0.061-0.415,0.122-0.632,0.182
			c-0.218,0.081-0.423,0.162-0.628,0.248c-0.197,0.101-0.387,0.197-0.567,0.308c-0.207,0.122-0.41,0.253-0.605,0.395
			c-0.083,0.071-0.182,0.106-0.261,0.172c-0.106,0.081-0.175,0.182-0.266,0.258c-0.081,0.081-0.19,0.132-0.271,0.218L300.918,97.69
			c-0.066,0.066-0.101,0.126-0.157,0.187c-0.156,0.172-0.288,0.344-0.425,0.521c-0.141,0.187-0.286,0.369-0.4,0.567
			c-0.107,0.172-0.188,0.354-0.279,0.536c-0.111,0.222-0.228,0.435-0.301,0.663c-0.068,0.187-0.113,0.369-0.164,0.562
			c-0.061,0.233-0.126,0.461-0.162,0.688c-0.035,0.212-0.045,0.405-0.055,0.613c-0.018,0.222-0.035,0.445-0.031,0.673
			c0.013,0.217,0.036,0.43,0.061,0.648c0.033,0.217,0.061,0.43,0.093,0.643c0.063,0.218,0.126,0.42,0.195,0.628
			c0.063,0.212,0.137,0.425,0.228,0.632c0.093,0.197,0.197,0.38,0.298,0.572c0.117,0.203,0.243,0.415,0.379,0.613
			c0.053,0.055,0.076,0.126,0.137,0.197c5.304,6.944,9.94,14.327,13.766,21.98c1.685,3.35,5.772,4.711,9.13,3.031
			c0.678-0.339,1.265-0.769,1.774-1.27c2.011-2.02,2.609-5.177,1.273-7.859c-3.345-6.65-7.247-13.118-11.625-19.322l17.895-17.895
			c12.645,17.105,21.904,36.094,27.648,55.948l-30.628,7.631c-3.646,0.916-5.865,4.6-4.959,8.239
			c0.018,0.065,0.058,0.121,0.076,0.197c2.156,8.765,3.421,17.617,3.854,26.463h-25.231c-1.214-20.375-7.91-40.122-19.656-57.213
			c-0.02-0.015-0.023-0.035-0.04-0.061c-0.018-0.025-0.04-0.061-0.059-0.091c-0.113-0.162-0.25-0.308-0.39-0.455
			c-0.132-0.167-0.245-0.339-0.402-0.496c-0.015-0.016-0.035-0.021-0.046-0.041c-0.207-0.192-0.428-0.359-0.648-0.526
			c-0.141-0.102-0.263-0.233-0.41-0.319c-0.207-0.137-0.422-0.233-0.637-0.344c-0.182-0.087-0.37-0.197-0.544-0.279
			c-0.19-0.076-0.397-0.116-0.595-0.172c-0.228-0.066-0.445-0.141-0.668-0.192c-0.218-0.03-0.43-0.035-0.637-0.05
			c-0.223-0.031-0.435-0.061-0.658-0.061c-0.222-0.005-0.445,0.036-0.683,0.066c-0.205,0.016-0.41,0.025-0.613,0.061
			c-0.202,0.035-0.385,0.116-0.577,0.177c-0.235,0.061-0.473,0.111-0.693,0.213c-0.167,0.07-0.309,0.167-0.458,0.238
			c-0.255,0.131-0.514,0.258-0.741,0.415c-0.025,0.005-0.04,0.016-0.059,0.02c-0.184,0.126-0.321,0.289-0.483,0.42
			c-0.165,0.132-0.324,0.233-0.468,0.375l-0.093,0.096c-0.003,0.005-0.01,0.01-0.01,0.01l-28.153,28.153
			c-0.086,0.086-0.137,0.177-0.212,0.258c-0.172,0.197-0.324,0.379-0.476,0.587c-0.121,0.167-0.228,0.339-0.342,0.511
			c-0.109,0.197-0.22,0.405-0.317,0.613c-0.086,0.197-0.172,0.394-0.243,0.597c-0.071,0.207-0.137,0.425-0.188,0.633
			c-0.05,0.202-0.091,0.41-0.121,0.617c-0.035,0.228-0.051,0.456-0.061,0.688c-0.02,0.212-0.02,0.405,0,0.613
			c0,0.233,0.025,0.45,0.061,0.678c0.031,0.218,0.081,0.441,0.126,0.648c0.046,0.197,0.111,0.415,0.182,0.618
			c0.081,0.228,0.172,0.445,0.283,0.668c0.048,0.101,0.081,0.207,0.131,0.324c12.642,23.376,8.335,52.855-10.466,71.656
			c-16.574,16.575-41.408,21.878-63.083,14.262l21.708-21.706c8.854-0.364,17.321-4.039,23.612-10.324
			c7.024-7.029,10.78-16.766,10.316-26.757c-0.18-3.745-3.36-6.655-7.118-6.468c-3.753,0.172-6.643,3.356-6.478,7.115
			c0.299,6.25-1.964,12.106-6.344,16.498c-4.385,4.388-10.245,6.64-16.493,6.342c-0.058,0.005-0.104,0.015-0.159,0.015
			c-0.243-0.01-0.496,0.02-0.734,0.04c-0.208,0.01-0.415,0.01-0.602,0.056c-0.236,0.045-0.44,0.106-0.663,0.167
			c-0.207,0.061-0.415,0.111-0.617,0.182c-0.19,0.086-0.39,0.192-0.6,0.289c-0.19,0.101-0.397,0.187-0.572,0.309
			c-0.175,0.111-0.332,0.243-0.501,0.37c-0.195,0.157-0.377,0.298-0.562,0.46c-0.038,0.031-0.078,0.056-0.121,0.102l-30.696,30.694
			c-0.071,0.066-0.107,0.147-0.172,0.207c-0.162,0.177-0.309,0.365-0.446,0.562c-0.141,0.182-0.281,0.375-0.397,0.577
			c-0.041,0.076-0.109,0.136-0.157,0.233c-0.056,0.096-0.083,0.212-0.134,0.309c-0.106,0.222-0.203,0.45-0.289,0.688
			c-0.063,0.197-0.121,0.405-0.172,0.602c-0.046,0.218-0.096,0.43-0.132,0.658c-0.033,0.218-0.05,0.44-0.055,0.653
			c-0.01,0.218-0.01,0.43,0,0.648c0.005,0.218,0.023,0.435,0.055,0.653c0.036,0.212,0.074,0.425,0.132,0.653
			c0.051,0.202,0.109,0.4,0.172,0.597c0.076,0.212,0.162,0.425,0.258,0.617c0.091,0.208,0.197,0.4,0.304,0.587
			c0.109,0.192,0.223,0.364,0.344,0.542c0.147,0.203,0.309,0.375,0.476,0.567c0.074,0.086,0.129,0.182,0.213,0.268
			c0.073,0.07,0.147,0.116,0.217,0.177c0.172,0.157,0.354,0.294,0.552,0.45c0.182,0.142,0.377,0.268,0.582,0.395
			c0.078,0.046,0.147,0.102,0.225,0.152c6.445,3.487,13.272,5.911,20.241,7.333l-2.857,25.279
			c-13.687-2.5-26.85-7.865-38.556-15.931c-0.015-0.01-0.046-0.02-0.055-0.025c-0.243-0.167-0.496-0.278-0.744-0.405
			c-0.157-0.086-0.298-0.188-0.453-0.243c-0.24-0.106-0.504-0.177-0.759-0.243c-0.177-0.046-0.342-0.117-0.506-0.147
			c-0.266-0.061-0.519-0.066-0.782-0.081c-0.175-0.016-0.349-0.051-0.521-0.056c-0.283,0-0.551,0.046-0.817,0.076
			c-0.165,0.025-0.326,0.025-0.478,0.046c-0.238,0.04-0.484,0.132-0.719,0.207c-0.179,0.051-0.369,0.091-0.551,0.157
			c-0.157,0.061-0.314,0.162-0.486,0.253c-0.248,0.121-0.476,0.218-0.693,0.364c-0.116,0.076-0.217,0.177-0.324,0.248
			c-0.263,0.192-0.514,0.379-0.736,0.612c-0.018,0.005-0.033,0.016-0.041,0.025l-27.781,27.774
			c-0.101,0.106-0.184,0.233-0.283,0.354c-0.094,0.111-0.212,0.203-0.304,0.329c-0.046,0.051-0.076,0.122-0.116,0.188
			c-0.147,0.212-0.263,0.41-0.377,0.617c-0.109,0.192-0.215,0.364-0.299,0.567c-0.099,0.212-0.169,0.42-0.24,0.637
			c-0.066,0.208-0.132,0.415-0.182,0.628c-0.055,0.208-0.073,0.42-0.106,0.633c-0.03,0.223-0.05,0.44-0.055,0.653
			c0,0.222,0.005,0.43,0.015,0.652c0.023,0.213,0.036,0.425,0.066,0.643c0.038,0.218,0.096,0.43,0.147,0.643
			c0.059,0.212,0.117,0.41,0.188,0.617c0.076,0.208,0.169,0.405,0.265,0.598c0.099,0.197,0.203,0.405,0.317,0.602
			c0.106,0.182,0.233,0.349,0.359,0.521c0.152,0.187,0.294,0.379,0.466,0.562c0.058,0.061,0.096,0.126,0.141,0.172
			c0.121,0.116,0.246,0.187,0.352,0.288c0.119,0.102,0.205,0.212,0.331,0.309c7.478,5.724,15.42,10.683,23.733,14.879
			l-10.236,22.764c-0.184-0.081-0.364-0.172-0.546-0.263c-11.375-5.704-22.147-12.637-32.01-20.603
			c-2.93-2.358-7.197-1.923-9.565,1.017c-2.364,2.93-1.908,7.212,1.012,9.575c10.623,8.578,22.222,16.048,34.47,22.172
			c45.988,23.042,96.928,25.633,142.493,11.291c0.101-0.025,0.207-0.025,0.319-0.066c0.149-0.051,0.289-0.117,0.438-0.167
			c28.652-9.16,55.16-24.99,76.912-46.747c14.044-14.038,26.104-30.537,35.482-49.252
			C381.248,234.894,385.831,188.603,375.388,145.53z M124.077,354.553l10.243-22.774c3.29,1.326,6.625,2.535,10.028,3.618
			c2.513,0.794,5.129,0.066,6.87-1.675c0.746-0.749,1.339-1.675,1.675-2.759c1.129-3.583-0.852-7.404-4.438-8.537
			c-5.03-1.599-9.94-3.502-14.732-5.653c-0.035-0.015-0.051-0.03-0.086-0.055c-0.04-0.01-0.076-0.015-0.106-0.031
			c-7.237-3.264-14.155-7.141-20.744-11.624l18.209-18.209c16.005,9.879,34.095,15.512,52.598,16.635v25.213
			c-2.991-0.152-5.982-0.354-8.963-0.688c-0.01-0.01-0.01-0.01-0.031-0.01c-0.015,0-0.025,0-0.04,0c-0.02,0-0.04,0-0.066-0.01
			c-3.73-0.425-7.105,2.252-7.525,5.987c-0.041,0.349-0.036,0.703-0.031,1.053l-1.958,17.08c-0.425,3.735,2.252,7.105,5.982,7.525
			c2.145,0.248,4.17-0.516,5.587-1.943c1.053-1.042,1.766-2.439,1.949-4.033l1.316-11.523c16.878,1.169,33.738-0.516,49.882-4.828
			l7.513,23.73C200.794,371.061,161.112,369.559,124.077,354.553z M250.18,356.952l-7.503-23.73
			c10.846-3.958,21.281-9.15,31.025-15.562c0.397-0.253,0.762-0.546,1.083-0.875c2.227-2.232,2.665-5.795,0.868-8.542
			c-2.06-3.138-6.275-4.009-9.418-1.949c-20.613,13.533-44.515,21.205-69.047,22.414v-25.228c6.959-0.425,13.91-1.437,20.777-3.158
			c1.24-0.308,2.308-0.941,3.153-1.776c1.634-1.645,2.389-4.069,1.789-6.478c-0.914-3.644-4.618-5.861-8.252-4.95
			c-9.451,2.373-19.09,3.29-28.639,2.864l2.865-25.304c19.758,0.344,39.464-7.105,53.986-21.63
			c5.519-5.517,10.003-11.792,13.45-18.543l23.624,9.545c-6.767,13.942-16.777,26.185-29.209,35.673
			c-2.836,2.161-5.8,4.17-8.816,6.007c-3.206,1.954-4.239,6.144-2.29,9.347c0.015,0.02,0.03,0.025,0.035,0.051l8.026,13.224
			c1.938,3.223,6.127,4.251,9.343,2.297c0.48-0.288,0.906-0.633,1.285-1.012c2.164-2.161,2.66-5.592,0.997-8.33l-4.633-7.662
			c1.447-1.012,2.888-2.035,4.289-3.103c4.059-3.087,7.885-6.432,11.455-10.01c10.737-10.729,19.224-23.523,24.899-37.627
			c1.402-3.492-0.296-7.45-3.773-8.857c-0.056-0.02-0.117-0.031-0.18-0.051c-0.05-0.025-0.104-0.061-0.175-0.086l-29.824-12.035
			c5.026-16.913,4.069-35.446-3.426-51.985l18.781-18.776c3.624,6.296,6.511,12.936,8.649,19.773l3.163,13.239
			c0.906,5.405,1.377,10.891,1.377,16.422c-0.008,0.01-0.008,0.015-0.008,0.015s0.008,0.04,0.008,0.056
			c-0.008,2.449-0.117,4.899-0.304,7.348l-9.798-1.397c-3.715-0.527-7.166,2.035-7.705,5.769c-0.534,3.71,2.052,7.156,5.764,7.702
			l16.359,2.348c0.149,0.031,0.278,0.071,0.417,0.107c2.214,0.314,4.33-0.471,5.792-1.923c1.007-1.013,1.706-2.333,1.923-3.842
			c0.443-3.117,0.742-6.23,0.931-9.352h25.241c-1.05,21.361-7.037,42.263-17.541,60.953c-0.023,0.05-0.066,0.081-0.089,0.141
			c-0.015,0.031-0.025,0.066-0.05,0.102c-3.543,6.27-7.586,12.287-12.126,17.991l-7.419-6.523c-2.824-2.484-7.12-2.232-9.6,0.628
			c-2.485,2.804-2.204,7.116,0.622,9.581l12.667,11.149c2.708,2.374,6.776,2.217,9.294-0.304c0.098-0.091,0.202-0.202,0.304-0.314
			c5.483-6.235,10.377-12.859,14.694-19.788l21.741,12.253C319.425,318.444,286.955,343.748,250.18,356.952z M366.21,209.378
			c-2.189,20.724-8.049,41.221-17.695,60.457c-0.258,0.527-0.542,1.032-0.805,1.554l-21.731-12.242
			c15.244-30.157,20.137-64.905,13.33-98.671l24.151-6.022c2.832,13.583,4.063,27.475,3.664,41.347L366.21,209.378z"/>
	</g>
</g>
</svg>
