<?xml version="1.0" encoding="utf-8"?>
<!-- Generator: Adobe Illustrator 17.0.0, SVG Export Plug-In . SVG Version: 6.00 Build 0)  -->
<!DOCTYPE svg PUBLIC "-//W3C//DTD SVG 1.1//EN" "http://www.w3.org/Graphics/SVG/1.1/DTD/svg11.dtd">
<svg version="1.1" id="Layer_1" xmlns="http://www.w3.org/2000/svg" xmlns:xlink="http://www.w3.org/1999/xlink" x="0px" y="0px"
	 width="314px" height="117px" viewBox="0 0 314 117" enable-background="new 0 0 314 117" xml:space="preserve">
<g>
	<g>
		<linearGradient id="SVGID_1_" gradientUnits="userSpaceOnUse" x1="50.0421" y1="95.6172" x2="50.0421" y2="0.7389">
			<stop  offset="0" style="stop-color:#00AEEF"/>
			<stop  offset="0.2109" style="stop-color:#1BB7C1"/>
			<stop  offset="0.686" style="stop-color:#5DCC4F"/>
			<stop  offset="1" style="stop-color:#8BDB00"/>
		</linearGradient>
		<path fill="url(#SVGID_1_)" d="M26.846,86.682c0.094-0.093,0.18-0.198,0.25-0.307c0.025-0.034,0.038-0.071,0.061-0.106
			c0.043-0.077,0.091-0.153,0.123-0.233c0.021-0.051,0.032-0.101,0.051-0.149c0.023-0.072,0.048-0.143,0.063-0.213
			c0.012-0.057,0.019-0.109,0.028-0.164c0.01-0.072,0.015-0.146,0.019-0.216c0-0.052,0-0.11-0.004-0.164
			c0-0.074-0.01-0.146-0.021-0.218c-0.008-0.052-0.018-0.107-0.031-0.163c-0.015-0.068-0.036-0.138-0.062-0.206
			c-0.019-0.055-0.039-0.107-0.062-0.163c-0.029-0.066-0.063-0.127-0.1-0.186c-0.031-0.054-0.064-0.106-0.097-0.155
			c-0.015-0.023-0.022-0.046-0.039-0.066c-1.656-2.16-3.092-4.47-4.278-6.87c-0.014-0.038-0.025-0.075-0.045-0.112
			c-0.502-1.023-1.736-1.447-2.758-0.945l-4.263,2.088c-1.024,0.502-1.445,1.738-0.941,2.762c0.502,1.024,1.737,1.445,2.757,0.944
			l2.445-1.198c0.826,1.501,1.741,2.964,2.735,4.373l-5.424,5.424c-5.785-7.824-9.226-16.948-10.209-26.331l7.535-0.496
			c0.196,1.723,0.474,3.446,0.864,5.163c0.253,1.106,1.356,1.803,2.468,1.551c0.395-0.089,0.736-0.285,1.001-0.549
			c0.482-0.485,0.716-1.2,0.552-1.92c-0.546-2.409-0.868-4.839-0.988-7.278l7.631,0.003c0.362,6.021,2.315,12.019,5.976,17.345
			c0.003,0.005,0.008,0.012,0.013,0.018c0.005,0.009,0.009,0.019,0.017,0.029c0.035,0.048,0.078,0.089,0.117,0.137
			c0.041,0.052,0.074,0.103,0.121,0.15c0.005,0.006,0.009,0.009,0.018,0.014c0.058,0.055,0.126,0.109,0.19,0.155
			c0.044,0.034,0.087,0.072,0.129,0.103c0.061,0.038,0.127,0.067,0.193,0.101c0.055,0.025,0.107,0.06,0.165,0.084
			c0.058,0.02,0.121,0.034,0.18,0.054c0.065,0.017,0.132,0.04,0.199,0.054c0.066,0.014,0.131,0.014,0.196,0.018
			c0.068,0.008,0.13,0.02,0.196,0.02c0.072,0,0.139-0.015,0.205-0.023c0.064-0.005,0.129-0.006,0.192-0.02
			c0.058-0.009,0.114-0.032,0.175-0.049c0.071-0.022,0.143-0.038,0.21-0.068c0.049-0.018,0.094-0.047,0.138-0.071
			c0.074-0.038,0.15-0.077,0.225-0.124c0.008-0.005,0.012-0.005,0.015-0.011c0.107-0.072,0.204-0.154,0.292-0.242
			c0,0,0.003,0,0.003-0.003l8.556-8.556l0.005-0.005c0.088-0.091,0.168-0.19,0.24-0.296c0.022-0.032,0.043-0.069,0.063-0.103
			c0.043-0.069,0.083-0.144,0.118-0.22c0.018-0.041,0.038-0.086,0.052-0.13c0.028-0.077,0.049-0.152,0.068-0.23
			c0.009-0.04,0.02-0.081,0.029-0.123c0.019-0.107,0.028-0.213,0.029-0.325c0-0.011,0.004-0.022,0.004-0.034
			c0-0.123-0.012-0.245-0.034-0.368c-0.008-0.037-0.019-0.072-0.028-0.104c-0.022-0.084-0.043-0.167-0.074-0.247
			c-0.017-0.049-0.038-0.092-0.059-0.137c-0.018-0.041-0.032-0.081-0.053-0.121c-2.618-4.841-2.932-10.546-0.862-15.653
			c0.429-1.056-0.082-2.259-1.137-2.687c-1.056-0.425-2.258,0.081-2.685,1.137c-2.34,5.766-2.187,12.157,0.368,17.766l-5.694,5.694
			c-2.682-4.665-3.991-9.794-4.006-14.89c0-0.037,0.011-0.069,0.011-0.106c0-0.038-0.011-0.074-0.011-0.112
			c0.005-1.281,0.092-2.561,0.261-3.832l0.815-4.042c1.692-6.168,5.346-11.843,10.818-16.013c2.149-1.64,4.497-2.969,6.971-3.973
			l2.394,7.321c-1.237,0.536-2.44,1.175-3.586,1.944c-0.016,0.015-0.028,0.026-0.043,0.035c-0.008,0.006-0.014,0.008-0.02,0.014
			c-0.942,0.635-1.194,1.92-0.56,2.862l3.112,4.611c0.635,0.942,1.918,1.195,2.86,0.559c0.114-0.077,0.216-0.159,0.311-0.256
			c0.683-0.681,0.807-1.777,0.25-2.61l-1.889-2.797c0.872-0.459,1.772-0.85,2.695-1.157c0.027-0.006,0.055-0.006,0.082-0.015
			c0.041-0.014,0.08-0.032,0.121-0.049c3.802-1.218,7.919-1.162,11.725,0.196l-6.58,6.578c-2.687,0.115-5.254,1.223-7.158,3.129
			c-2.131,2.131-3.271,5.09-3.129,8.117c0.052,1.137,1.018,2.015,2.156,1.963c1.137-0.052,2.019-1.019,1.964-2.157
			c-0.088-1.895,0.595-3.672,1.926-5.002c1.33-1.332,3.107-2.013,5.001-1.926c0.015,0,0.033-0.005,0.047-0.002
			c0.091,0.002,0.181-0.008,0.271-0.017c0.048-0.006,0.101-0.006,0.151-0.014c0.095-0.02,0.189-0.049,0.284-0.08
			c0.034-0.014,0.075-0.018,0.114-0.034c0.247-0.101,0.486-0.253,0.689-0.457l9.302-9.302c0.002,0,0.002,0,0.002,0
			c0.088-0.091,0.163-0.186,0.236-0.29c0.02-0.031,0.041-0.063,0.06-0.098c0.018-0.032,0.041-0.06,0.061-0.092
			c0.019-0.032,0.023-0.066,0.04-0.098c0.031-0.067,0.061-0.135,0.085-0.206c0.021-0.06,0.036-0.123,0.056-0.183
			c0.017-0.068,0.029-0.135,0.04-0.2c0.006-0.067,0.014-0.133,0.017-0.201c0.002-0.064,0.002-0.129,0-0.193
			c-0.005-0.066-0.011-0.132-0.017-0.198c-0.011-0.066-0.023-0.134-0.038-0.196c-0.018-0.066-0.035-0.123-0.058-0.184
			c-0.022-0.066-0.047-0.126-0.074-0.187c-0.028-0.061-0.06-0.121-0.095-0.181c-0.032-0.051-0.069-0.104-0.103-0.16
			c-0.046-0.058-0.092-0.118-0.143-0.169c-0.025-0.029-0.04-0.058-0.064-0.084c-0.023-0.023-0.045-0.037-0.068-0.054
			c-0.051-0.047-0.106-0.092-0.166-0.137c-0.057-0.043-0.117-0.081-0.176-0.12c-0.025-0.015-0.048-0.032-0.073-0.046
			c-4.899-2.651-10.471-3.344-15.702-2.144l-2.392-7.312c2.962-0.752,6.044-1.056,9.137-0.876c1.136,0.067,2.116-0.803,2.18-1.94
			c0.067-1.139-0.803-2.114-1.942-2.18c-0.541-0.032-1.083-0.046-1.623-0.054l-0.38-7.603c8.208-0.015,16.441,2.351,23.559,7.187
			l-5.524,5.524c-2.061-1.274-4.249-2.329-6.526-3.135c-1.074-0.381-2.256,0.184-2.633,1.254c-0.381,1.077,0.183,2.254,1.257,2.635
			c2.477,0.878,4.837,2.082,7.012,3.584c0.006,0.005,0.011,0.005,0.017,0.011c0.042,0.028,0.087,0.044,0.13,0.071
			c0.069,0.043,0.142,0.084,0.215,0.115c0.046,0.017,0.094,0.032,0.143,0.049c0.072,0.026,0.149,0.049,0.222,0.066
			c0.048,0.009,0.098,0.018,0.146,0.021c0.077,0.014,0.152,0.025,0.229,0.025c0.051,0.001,0.104,0,0.153,0
			c0.074-0.003,0.146-0.011,0.22-0.025c0.052-0.006,0.104-0.017,0.157-0.026c0.074-0.02,0.145-0.041,0.212-0.061
			c0.049-0.018,0.098-0.037,0.146-0.057c0.077-0.034,0.154-0.072,0.229-0.12c0.035-0.02,0.071-0.035,0.107-0.058
			c0.104-0.075,0.207-0.155,0.301-0.25l0.003-0.002l8.415-8.413l0.002-0.003c0.066-0.066,0.126-0.134,0.184-0.209
			c0.014-0.018,0.023-0.04,0.038-0.061c0.042-0.058,0.08-0.121,0.116-0.187c0.031-0.052,0.063-0.112,0.089-0.169
			c0.025-0.063,0.05-0.129,0.071-0.193c0.023-0.063,0.04-0.123,0.055-0.189c0.014-0.066,0.021-0.129,0.032-0.193
			c0.006-0.068,0.015-0.133,0.02-0.199c0-0.065-0.003-0.132-0.008-0.196c-0.006-0.065-0.009-0.132-0.02-0.193
			c-0.014-0.068-0.028-0.132-0.044-0.198c-0.018-0.063-0.033-0.127-0.056-0.189c-0.022-0.06-0.052-0.118-0.08-0.178
			c-0.028-0.063-0.058-0.124-0.097-0.183c-0.032-0.055-0.071-0.106-0.111-0.158c-0.044-0.055-0.09-0.115-0.139-0.169
			c-0.018-0.018-0.028-0.037-0.046-0.057c-0.032-0.032-0.069-0.055-0.104-0.084c-0.035-0.029-0.063-0.066-0.098-0.097
			c-4.125-3.155-8.648-5.501-13.362-7.066l2.085-7.298c2.497,0.823,4.95,1.835,7.343,3.035c3.449,1.728,6.712,3.83,9.709,6.25
			c0.827,0.667,2.018,0.591,2.753-0.149c0.051-0.049,0.101-0.103,0.149-0.163c0.716-0.888,0.579-2.187-0.31-2.902
			c-3.224-2.601-6.74-4.866-10.451-6.722C72.441-0.02,56.788-1.15,42.147,3.711C27.506,8.574,15.639,18.847,8.724,32.638
			c-1.629,3.253-2.925,6.62-3.898,10.046C4.814,42.712,4.8,42.739,4.791,42.77c-0.011,0.037-0.012,0.078-0.022,0.117
			C3.016,49.146,2.348,55.61,2.738,62.001c-0.009,0.109-0.02,0.213-0.012,0.324c0.008,0.092,0.028,0.173,0.041,0.258
			c0.822,11.585,5.107,22.898,12.682,32.275c0.022,0.027,0.051,0.049,0.075,0.078c0.024,0.026,0.041,0.055,0.071,0.081
			c0.025,0.026,0.052,0.041,0.077,0.066c0.054,0.048,0.107,0.092,0.163,0.135c0.055,0.038,0.11,0.075,0.167,0.109
			c0.058,0.037,0.117,0.064,0.178,0.092c0.061,0.031,0.123,0.057,0.186,0.078c0.063,0.028,0.123,0.04,0.187,0.057
			c0.066,0.018,0.13,0.028,0.199,0.038c0.062,0.011,0.127,0.017,0.192,0.022c0.068,0.002,0.13,0.005,0.199,0.002
			c0.064-0.002,0.129-0.009,0.196-0.02c0.066-0.011,0.129-0.018,0.196-0.037c0.063-0.014,0.125-0.034,0.188-0.055
			c0.065-0.023,0.129-0.049,0.192-0.078c0.058-0.026,0.115-0.055,0.173-0.088c0.063-0.038,0.123-0.075,0.181-0.12
			c0.026-0.02,0.055-0.034,0.083-0.052c0.028-0.023,0.049-0.055,0.077-0.078c0.028-0.025,0.058-0.044,0.086-0.067l8.33-8.332
			C26.843,86.689,26.843,86.687,26.846,86.682z M43.446,7.624c0.69-0.225,1.379-0.437,2.077-0.64l4.002-0.993
			C57.36,4.36,65.376,4.506,73.076,6.406l-2.088,7.312c-14.492-3.403-30.242,0.318-41.712,10.806l-5.372-5.374
			C29.443,14.015,36.065,10.078,43.446,7.624z M8.246,45.893l1.122-3.97c0.821-2.527,1.831-5.015,3.045-7.434
			c2.298-4.586,5.19-8.751,8.577-12.418l5.367,5.371c-3.071,3.353-5.613,7.111-7.568,11.195c-0.492,1.028-0.058,2.259,0.97,2.753
			c0.043,0.017,0.086,0.027,0.128,0.046l4.869,2.332c0.812,0.385,1.748,0.198,2.351-0.402c0.16-0.163,0.298-0.353,0.402-0.571
			c0.489-1.027,0.058-2.257-0.971-2.75l-3.08-1.478c1.923-3.551,4.349-6.811,7.243-9.704c7.056-7.058,16.136-11.108,25.504-12.039
			l0.378,7.608c-5.061,0.562-9.952,2.242-14.301,4.942l-3.366,2.385c-7.842,6.276-12.25,15.333-12.819,24.698h-7.623
			c0.091-1.775,0.276-3.554,0.591-5.326c0.2-1.12-0.545-2.196-1.666-2.394c-1.124-0.199-2.194,0.551-2.395,1.673
			c-0.534,3.021-0.77,6.056-0.707,9.085l-7.526,0.497C6.641,55.276,7.131,50.534,8.246,45.893z"/>
		<linearGradient id="SVGID_2_" gradientUnits="userSpaceOnUse" x1="70.6718" y1="116.2611" x2="70.6718" y2="21.4257">
			<stop  offset="0" style="stop-color:#00AEEF"/>
			<stop  offset="0.2109" style="stop-color:#1BB7C1"/>
			<stop  offset="0.686" style="stop-color:#5DCC4F"/>
			<stop  offset="1" style="stop-color:#8BDB00"/>
		</linearGradient>
		<path fill="url(#SVGID_2_)" d="M116.446,44.863c-0.011-0.101-0.025-0.206-0.049-0.31c-0.015-0.061-0.043-0.12-0.066-0.181
			c-2.007-7.973-5.713-15.565-11.066-22.189c-0.026-0.027-0.054-0.047-0.078-0.075c-0.022-0.028-0.042-0.057-0.071-0.086
			c-0.022-0.022-0.049-0.038-0.074-0.061c-0.054-0.047-0.109-0.092-0.166-0.135c-0.055-0.038-0.107-0.077-0.164-0.109
			c-0.059-0.035-0.121-0.066-0.183-0.095c-0.063-0.029-0.121-0.052-0.182-0.078c-0.065-0.02-0.128-0.038-0.189-0.054
			c-0.065-0.018-0.13-0.028-0.193-0.043c-0.068-0.009-0.132-0.015-0.198-0.017c-0.064-0.005-0.129-0.005-0.195-0.001
			c-0.068,0.001-0.135,0.009-0.2,0.018c-0.067,0.009-0.129,0.02-0.192,0.035c-0.067,0.019-0.126,0.037-0.192,0.055
			c-0.066,0.025-0.128,0.049-0.19,0.075c-0.06,0.031-0.117,0.06-0.172,0.093c-0.063,0.037-0.124,0.077-0.183,0.12
			c-0.025,0.022-0.055,0.032-0.079,0.052c-0.032,0.025-0.053,0.055-0.081,0.078c-0.025,0.025-0.058,0.04-0.082,0.066l-8.335,8.337
			c-0.02,0.02-0.031,0.038-0.048,0.057c-0.047,0.052-0.087,0.104-0.129,0.158c-0.043,0.057-0.087,0.112-0.121,0.172
			c-0.032,0.052-0.057,0.107-0.085,0.163c-0.034,0.067-0.069,0.132-0.091,0.201c-0.021,0.057-0.034,0.112-0.05,0.17
			c-0.018,0.071-0.038,0.14-0.049,0.209c-0.011,0.064-0.014,0.123-0.017,0.186c-0.005,0.067-0.011,0.135-0.009,0.204
			c0.004,0.066,0.011,0.13,0.019,0.196c0.01,0.066,0.018,0.13,0.028,0.195c0.019,0.066,0.038,0.127,0.059,0.19
			c0.019,0.064,0.041,0.129,0.069,0.192c0.028,0.06,0.06,0.115,0.091,0.173c0.035,0.061,0.074,0.126,0.115,0.186
			c0.016,0.017,0.023,0.038,0.041,0.06c1.608,2.105,3.014,4.344,4.174,6.664c0.511,1.016,1.75,1.428,2.768,0.919
			c0.206-0.103,0.384-0.233,0.538-0.385c0.61-0.612,0.791-1.57,0.386-2.383c-1.014-2.016-2.197-3.977-3.525-5.858l5.426-5.426
			c3.834,5.186,6.641,10.943,8.383,16.963l-9.286,2.314c-1.106,0.278-1.778,1.395-1.504,2.498c0.005,0.02,0.018,0.037,0.023,0.06
			c0.654,2.658,1.037,5.341,1.169,8.024h-7.65c-0.368-6.178-2.398-12.165-5.96-17.347c-0.006-0.005-0.007-0.011-0.012-0.018
			c-0.006-0.008-0.012-0.018-0.018-0.028c-0.034-0.049-0.076-0.093-0.118-0.138c-0.04-0.051-0.074-0.103-0.122-0.15
			c-0.005-0.005-0.011-0.006-0.014-0.012c-0.063-0.058-0.13-0.109-0.196-0.159c-0.043-0.031-0.08-0.071-0.124-0.097
			c-0.063-0.041-0.128-0.071-0.193-0.104c-0.055-0.026-0.112-0.06-0.165-0.085c-0.058-0.023-0.121-0.035-0.18-0.052
			c-0.069-0.02-0.135-0.043-0.203-0.058c-0.066-0.009-0.13-0.011-0.193-0.015c-0.068-0.009-0.132-0.019-0.2-0.019
			c-0.067-0.001-0.135,0.011-0.207,0.02c-0.062,0.005-0.124,0.008-0.186,0.019c-0.061,0.011-0.117,0.035-0.175,0.054
			c-0.071,0.019-0.143,0.034-0.21,0.065c-0.051,0.021-0.094,0.051-0.139,0.072c-0.077,0.04-0.156,0.078-0.225,0.126
			c-0.008,0.002-0.012,0.005-0.018,0.006c-0.056,0.038-0.097,0.088-0.146,0.127c-0.05,0.04-0.098,0.071-0.142,0.114l-0.028,0.029
			c-0.001,0.002-0.003,0.003-0.003,0.003l-8.536,8.536c-0.026,0.026-0.041,0.054-0.064,0.078c-0.052,0.06-0.098,0.115-0.144,0.178
			c-0.037,0.051-0.069,0.103-0.104,0.155c-0.033,0.06-0.067,0.123-0.096,0.186c-0.026,0.06-0.052,0.12-0.074,0.181
			c-0.022,0.063-0.041,0.129-0.057,0.192c-0.015,0.061-0.027,0.124-0.037,0.187c-0.011,0.069-0.015,0.138-0.018,0.209
			c-0.006,0.064-0.006,0.123,0,0.186c0,0.071,0.008,0.137,0.018,0.206c0.009,0.066,0.025,0.134,0.038,0.196
			c0.014,0.06,0.034,0.126,0.055,0.187c0.025,0.069,0.052,0.135,0.086,0.203c0.014,0.031,0.025,0.063,0.04,0.098
			c3.833,7.087,2.527,16.026-3.173,21.726c-5.025,5.025-12.555,6.633-19.127,4.324l6.582-6.581c2.684-0.11,5.252-1.224,7.159-3.13
			c2.13-2.131,3.268-5.083,3.128-8.113c-0.055-1.135-1.019-2.018-2.158-1.961c-1.138,0.052-2.014,1.017-1.964,2.157
			c0.09,1.895-0.595,3.67-1.924,5.002c-1.329,1.33-3.106,2.013-5.001,1.923c-0.018,0.001-0.031,0.005-0.048,0.005
			c-0.074-0.003-0.15,0.006-0.222,0.012c-0.063,0.003-0.126,0.003-0.183,0.017c-0.071,0.014-0.134,0.032-0.201,0.051
			c-0.063,0.018-0.126,0.034-0.187,0.055c-0.058,0.026-0.118,0.058-0.182,0.088c-0.058,0.031-0.121,0.057-0.173,0.094
			c-0.053,0.034-0.101,0.074-0.152,0.112c-0.059,0.047-0.114,0.091-0.17,0.14c-0.011,0.009-0.024,0.017-0.037,0.031l-9.307,9.306
			c-0.022,0.02-0.032,0.044-0.052,0.063c-0.049,0.054-0.094,0.111-0.135,0.17c-0.043,0.055-0.085,0.114-0.12,0.175
			c-0.012,0.023-0.033,0.041-0.048,0.071c-0.017,0.029-0.025,0.064-0.041,0.094c-0.032,0.067-0.061,0.137-0.088,0.209
			c-0.019,0.06-0.037,0.123-0.052,0.183c-0.014,0.066-0.029,0.13-0.04,0.199c-0.01,0.066-0.015,0.134-0.017,0.198
			c-0.003,0.066-0.003,0.13,0,0.196c0.002,0.066,0.007,0.132,0.017,0.198c0.011,0.064,0.022,0.129,0.04,0.198
			c0.015,0.061,0.033,0.121,0.052,0.181c0.023,0.064,0.049,0.129,0.078,0.187c0.028,0.063,0.06,0.121,0.092,0.178
			c0.033,0.058,0.068,0.11,0.104,0.164c0.045,0.061,0.094,0.114,0.144,0.172c0.022,0.026,0.039,0.055,0.065,0.081
			c0.022,0.021,0.044,0.035,0.066,0.054c0.052,0.048,0.107,0.089,0.167,0.137c0.055,0.043,0.114,0.081,0.176,0.12
			c0.024,0.014,0.044,0.031,0.068,0.046c1.954,1.057,4.024,1.792,6.137,2.223l-0.866,7.664c-4.15-0.758-8.141-2.385-11.69-4.83
			c-0.005-0.003-0.014-0.006-0.017-0.008c-0.074-0.051-0.15-0.084-0.226-0.123c-0.048-0.026-0.091-0.057-0.137-0.074
			c-0.073-0.032-0.153-0.054-0.23-0.074c-0.054-0.014-0.104-0.035-0.153-0.044c-0.081-0.018-0.157-0.02-0.237-0.025
			c-0.053-0.005-0.106-0.015-0.158-0.017c-0.086,0-0.167,0.014-0.248,0.023c-0.05,0.008-0.099,0.008-0.145,0.014
			c-0.072,0.012-0.147,0.04-0.218,0.063c-0.054,0.015-0.112,0.028-0.167,0.048c-0.048,0.018-0.095,0.049-0.147,0.077
			c-0.075,0.037-0.144,0.066-0.21,0.11c-0.035,0.023-0.066,0.054-0.098,0.075c-0.08,0.058-0.156,0.115-0.223,0.186
			c-0.005,0.002-0.01,0.005-0.012,0.008l-8.423,8.421c-0.031,0.032-0.056,0.071-0.086,0.107c-0.028,0.034-0.064,0.061-0.092,0.1
			c-0.014,0.015-0.023,0.037-0.035,0.057c-0.045,0.064-0.08,0.124-0.114,0.187c-0.033,0.058-0.065,0.11-0.091,0.172
			c-0.03,0.064-0.051,0.127-0.073,0.193c-0.02,0.063-0.04,0.126-0.055,0.19c-0.017,0.063-0.022,0.127-0.032,0.192
			c-0.009,0.068-0.015,0.133-0.017,0.198c0,0.067,0.002,0.13,0.005,0.198c0.007,0.065,0.011,0.129,0.02,0.195
			c0.011,0.066,0.029,0.13,0.044,0.195c0.018,0.064,0.035,0.124,0.057,0.187c0.023,0.063,0.051,0.123,0.08,0.181
			c0.03,0.06,0.061,0.123,0.096,0.183c0.032,0.055,0.071,0.106,0.109,0.158c0.046,0.057,0.089,0.115,0.141,0.17
			c0.018,0.018,0.029,0.038,0.043,0.052c0.037,0.035,0.074,0.057,0.107,0.087c0.036,0.031,0.062,0.064,0.1,0.094
			c2.267,1.735,4.675,3.239,7.196,4.511l-3.103,6.902c-0.056-0.025-0.11-0.052-0.166-0.08c-3.449-1.729-6.715-3.832-9.705-6.247
			c-0.888-0.715-2.182-0.583-2.9,0.308c-0.717,0.888-0.579,2.187,0.307,2.903c3.221,2.601,6.738,4.866,10.451,6.722
			c13.943,6.986,29.388,7.772,43.203,3.423c0.031-0.008,0.063-0.008,0.097-0.02c0.045-0.015,0.088-0.035,0.133-0.051
			c8.687-2.777,16.724-7.577,23.319-14.174c4.258-4.256,7.915-9.259,10.758-14.933C118.223,71.958,119.613,57.923,116.446,44.863z
			 M40.25,108.238l3.106-6.905c0.997,0.402,2.009,0.769,3.041,1.097c0.762,0.241,1.555,0.02,2.083-0.508
			c0.226-0.227,0.406-0.508,0.508-0.836c0.342-1.086-0.258-2.245-1.346-2.588c-1.525-0.485-3.014-1.062-4.467-1.714
			c-0.011-0.005-0.015-0.009-0.026-0.017c-0.012-0.003-0.023-0.005-0.032-0.009c-2.194-0.99-4.292-2.165-6.29-3.524l5.521-5.521
			c4.853,2.995,10.337,4.703,15.947,5.044v7.644c-0.907-0.046-1.814-0.107-2.717-0.209c-0.003-0.003-0.003-0.003-0.009-0.003
			c-0.005,0-0.008,0-0.012,0c-0.006,0-0.012,0-0.02-0.003c-1.131-0.129-2.154,0.683-2.282,1.815
			c-0.012,0.106-0.011,0.213-0.009,0.319l-0.594,5.179c-0.129,1.132,0.683,2.154,1.814,2.282c0.651,0.075,1.264-0.157,1.694-0.589
			c0.319-0.316,0.535-0.74,0.591-1.223l0.399-3.494c5.117,0.354,10.229-0.156,15.124-1.464l2.278,7.195
			C63.51,113.243,51.479,112.788,40.25,108.238z M78.484,108.966l-2.275-7.195c3.288-1.2,6.452-2.774,9.407-4.718
			c0.121-0.077,0.231-0.166,0.328-0.265c0.675-0.677,0.808-1.757,0.263-2.59c-0.625-0.951-1.903-1.215-2.856-0.591
			c-6.25,4.103-13.497,6.429-20.935,6.796v-7.649c2.11-0.129,4.217-0.436,6.3-0.958c0.376-0.093,0.7-0.285,0.956-0.538
			c0.496-0.499,0.724-1.234,0.542-1.964c-0.277-1.105-1.4-1.777-2.502-1.501c-2.866,0.72-5.788,0.997-8.683,0.868l0.869-7.672
			c5.99,0.104,11.965-2.154,16.368-6.558c1.673-1.673,3.033-3.575,4.078-5.622l7.163,2.894c-2.052,4.227-5.087,7.939-8.856,10.816
			c-0.86,0.655-1.758,1.264-2.673,1.821c-0.972,0.592-1.285,1.863-0.694,2.834c0.005,0.006,0.009,0.008,0.011,0.015l2.434,4.01
			c0.588,0.977,1.858,1.289,2.833,0.697c0.146-0.087,0.275-0.192,0.39-0.307c0.656-0.655,0.806-1.696,0.302-2.526l-1.405-2.323
			c0.439-0.307,0.876-0.617,1.301-0.941c1.231-0.936,2.391-1.95,3.473-3.035c3.255-3.253,5.829-7.132,7.549-11.408
			c0.425-1.059-0.09-2.259-1.144-2.685c-0.017-0.006-0.035-0.009-0.055-0.015c-0.015-0.008-0.031-0.018-0.053-0.026l-9.042-3.649
			c1.524-5.128,1.234-10.747-1.039-15.762l5.694-5.693c1.099,1.909,1.974,3.922,2.622,5.995l0.959,4.014
			c0.275,1.639,0.417,3.302,0.417,4.979c-0.002,0.003-0.002,0.005-0.002,0.005s0.002,0.012,0.002,0.017
			c-0.002,0.743-0.035,1.485-0.092,2.228l-2.971-0.423c-1.126-0.16-2.173,0.617-2.336,1.749c-0.162,1.125,0.622,2.17,1.748,2.335
			l4.96,0.712c0.045,0.009,0.084,0.022,0.126,0.032c0.671,0.095,1.313-0.143,1.756-0.583c0.305-0.307,0.517-0.707,0.583-1.165
			c0.134-0.945,0.225-1.889,0.282-2.835h7.653c-0.318,6.477-2.134,12.814-5.318,18.481c-0.007,0.015-0.02,0.025-0.027,0.043
			c-0.005,0.009-0.008,0.02-0.015,0.031c-1.074,1.901-2.3,3.725-3.677,5.455l-2.249-1.978c-0.856-0.753-2.159-0.677-2.911,0.19
			c-0.753,0.85-0.668,2.157,0.189,2.905l3.841,3.38c0.821,0.72,2.055,0.672,2.818-0.092c0.03-0.027,0.061-0.061,0.092-0.095
			c1.663-1.89,3.146-3.899,4.455-6l6.592,3.715C99.479,97.29,89.634,104.962,78.484,108.966z M113.664,64.221
			c-0.664,6.283-2.44,12.498-5.365,18.33c-0.078,0.16-0.164,0.313-0.244,0.471l-6.589-3.712c4.622-9.144,6.106-19.679,4.042-29.917
			l7.322-1.826c0.859,4.118,1.232,8.33,1.111,12.536L113.664,64.221z"/>
	</g>
	<g>
		<g>
			<g>
				<path fill="#8BDB00" d="M194.061,58.497c0.002,6.526-2.327,12.151-6.914,16.715c-4.57,4.577-10.19,6.899-16.688,6.899
					c-6.471,0-12.079-2.322-16.661-6.902c-4.581-4.58-6.902-10.202-6.9-16.711c-0.002-6.468,2.319-12.073,6.9-16.659
					c4.588-4.585,10.192-6.905,16.661-6.908c5.165,0.003,9.807,1.487,13.801,4.415c0.835,0.614,1.009,1.788,0.401,2.616
					c-0.612,0.833-1.781,1.013-2.615,0.405c-3.337-2.451-7.235-3.689-11.586-3.692c-5.441,0-10.155,1.952-14.015,5.811
					c-3.851,3.856-5.805,8.574-5.805,14.012c-0.002,5.479,1.953,10.212,5.806,14.063c3.854,3.854,8.571,5.809,14.014,5.809
					c5.47,0,10.197-1.955,14.045-5.806c3.859-3.839,5.816-8.571,5.816-14.066c0-3.855-0.98-7.361-2.908-10.414
					c-0.548-0.868-0.293-2.027,0.585-2.579c0.871-0.552,2.028-0.288,2.581,0.58C192.887,49.747,194.062,53.924,194.061,58.497z"/>
			</g>
			<g>
				<path fill="#8BDB00" d="M200.134,82.082c-1.06,0-1.921-0.861-1.921-1.921V37.725c0-1.564,1.273-2.837,2.84-2.837h13.443
					c4.804,0,8.969,1.723,12.371,5.125c3.409,3.419,5.135,7.577,5.135,12.372c0,4.81-1.729,8.969-5.136,12.365
					c-3.406,3.403-7.568,5.131-12.37,5.131h-0.932c-1.059,0-1.92-0.861-1.92-1.923c0-1.06,0.861-1.921,1.92-1.921h0.932
					c3.746,0,6.994-1.349,9.655-4.01c2.661-2.648,4.01-5.894,4.01-9.642c0-3.739-1.349-6.988-4.01-9.655
					c-2.658-2.653-5.906-3.999-9.655-3.999h-12.44v27.305h2.79c1.062,0,1.922,0.861,1.922,1.921c0,1.062-0.86,1.923-1.922,1.923
					h-2.79v10.281C202.057,81.222,201.196,82.082,200.134,82.082z"/>
			</g>
			<g>
				<path fill="#8BDB00" d="M237.226,82.082c-1.063,0-1.923-0.861-1.923-1.921V37.725c0-1.564,1.277-2.837,2.843-2.837h13.443
					c3.021,0,5.822,0.695,8.329,2.068c0.931,0.511,1.272,1.68,0.761,2.61c-0.514,0.931-1.681,1.267-2.612,0.761
					c-1.929-1.06-4.111-1.596-6.478-1.596h-12.443v27.305h12.443c3.749,0,6.997-1.349,9.655-4.006
					c2.658-2.653,4.005-5.9,4.005-9.645c0-2.451-0.578-4.697-1.714-6.682c-0.526-0.921-0.209-2.094,0.712-2.622
					c0.918-0.528,2.096-0.21,2.624,0.714c1.473,2.573,2.222,5.463,2.222,8.591c0,4.804-1.727,8.964-5.13,12.363
					c-3.407,3.405-7.568,5.133-12.374,5.133h-12.443v10.281C239.146,81.222,238.286,82.082,237.226,82.082z"/>
			</g>
			<g>
				<path fill="#8BDB00" d="M266.145,82.082c-0.27,0-0.548-0.057-0.813-0.18c-0.96-0.451-1.376-1.594-0.925-2.555l3.502-7.479
					c0.057-0.23,0.159-0.442,0.291-0.631l16.247-34.716c0.453-0.99,1.464-1.634,2.569-1.634h1.567c1.115,0,2.127,0.65,2.583,1.659
					l16.242,34.72c0.118,0.173,0.207,0.365,0.265,0.571l3.514,7.511c0.45,0.961,0.035,2.104-0.927,2.555
					c-0.965,0.45-2.107,0.035-2.555-0.927l-3.135-6.699h-6.991c-1.06,0-1.922-0.861-1.922-1.921c0-1.062,0.862-1.923,1.922-1.923
					h5.194l-14.83-31.701h-0.286l-14.836,31.701h16.039c1.061,0,1.923,0.861,1.923,1.923c0,1.06-0.862,1.921-1.923,1.921h-17.838
					l-3.138,6.699C267.562,81.674,266.871,82.082,266.145,82.082z"/>
			</g>
		</g>
		<g>
			<g>
				<polygon fill="#8BDB00" points="156.817,95.076 158.199,95.076 158.199,106.067 159.059,106.067 159.059,95.076 160.53,95.076 
					160.53,94.217 156.817,94.217 				"/>
				<polygon fill="#8BDB00" points="166.94,99.5 164.977,99.5 164.977,94.217 164.087,94.217 164.087,106.067 165.003,106.067 
					165.003,100.422 166.371,100.422 166.865,100.434 166.846,106.067 167.77,106.067 167.77,94.217 166.94,94.217 				"/>
				<polygon fill="#8BDB00" points="175.022,105.175 172.235,105.175 172.235,100.436 174.725,100.436 174.725,99.523 
					172.235,99.523 172.235,95.076 174.936,95.076 174.943,94.23 171.328,94.23 171.328,106.067 175.057,106.067 				"/>
			</g>
			<polygon fill="#00AEEF" points="187.435,105.175 184.65,105.175 184.65,100.436 187.142,100.436 187.142,99.523 184.65,99.523 
				184.65,95.076 187.35,95.076 187.361,94.23 183.743,94.23 183.743,106.067 187.471,106.067 			"/>
			<g>
				<polygon fill="#8BDB00" points="191.913,105.146 191.913,94.184 190.99,94.184 191.006,106.067 194.734,106.067 
					194.698,105.146 				"/>
				<polygon fill="#8BDB00" points="199.098,105.175 199.098,100.436 201.59,100.436 201.59,99.523 199.098,99.523 199.098,95.076 
					201.801,95.076 201.811,94.23 198.192,94.23 198.192,106.067 201.922,106.067 201.886,105.175 				"/>
				<path fill="#8BDB00" d="M207.955,94.184h-1.389c-0.407,0.023-0.706,0.181-0.892,0.466c-0.166,0.267-0.252,0.58-0.252,0.925
					v9.099c0,0.328,0.08,0.634,0.236,0.905c0.17,0.301,0.466,0.463,0.884,0.486h1.476h0.006c0.351-0.023,0.624-0.173,0.811-0.444
					c0.181-0.259,0.266-0.551,0.254-0.861v-2.681h-0.845v2.279c0,0.299-0.036,0.535-0.107,0.683
					c-0.018,0.04-0.074,0.159-0.409,0.159h-0.736c-0.296,0-0.48-0.063-0.549-0.184c-0.088-0.157-0.13-0.384-0.13-0.674l0.007-8.467
					c0-0.27,0.041-0.488,0.128-0.645c0.069-0.129,0.154-0.186,0.276-0.186h1.035c0.335,0,0.392,0.123,0.412,0.163
					c0.069,0.146,0.104,0.376,0.104,0.681v2.277h0.847v-2.673c0.011-0.321-0.093-0.615-0.308-0.879
					C208.595,94.355,208.309,94.21,207.955,94.184z"/>
				<polygon fill="#8BDB00" points="212.64,95.076 214.022,95.076 214.022,106.067 214.882,106.067 214.882,95.076 216.355,95.076 
					216.355,94.217 212.64,94.217 				"/>
				<path fill="#8BDB00" d="M222.709,101.164c-0.06-0.15-0.138-0.302-0.238-0.456c0.351-0.198,0.62-0.56,0.799-1.079
					c0.199-0.572,0.299-1.289,0.299-2.125c0-0.637-0.059-1.235-0.181-1.775c-0.124-0.558-0.29-0.944-0.505-1.172
					c-0.222-0.242-0.549-0.365-0.97-0.365h-2.015v11.875h0.871v-5.136h0.485c0.157,0,0.213,0.023,0.216,0.023h-0.001
					c0.047,0.035,0.121,0.104,0.206,0.258c0.075,0.132,0.166,0.381,0.265,0.733c0.105,0.361,0.236,0.881,0.404,1.587l0.585,2.535
					h1.028l-0.783-3.348C223.029,102.11,222.873,101.588,222.709,101.164z M220.775,94.866h0.792
					c0.493,0.055,0.798,0.285,0.922,0.703c0.14,0.473,0.211,1.111,0.211,1.884c-0.028,0.575-0.088,1.063-0.177,1.452
					c-0.086,0.384-0.191,0.689-0.315,0.904c-0.104,0.187-0.298,0.302-0.563,0.353h-0.87V94.866z"/>
				<path fill="#8BDB00" d="M229.861,94.184h-1.478c-0.407,0.023-0.706,0.181-0.889,0.466c-0.166,0.264-0.252,0.577-0.252,0.925
					v9.099c0,0.328,0.079,0.634,0.236,0.905c0.169,0.299,0.461,0.463,0.881,0.486h1.297h0.005c0.359-0.023,0.664-0.166,0.908-0.428
					c0.234-0.261,0.353-0.583,0.353-0.964l0.016-9.179c0.012-0.313-0.055-0.598-0.199-0.853
					C230.577,94.362,230.287,94.21,229.861,94.184z M230.095,95.892v8.47c-0.022,0.31-0.066,0.534-0.137,0.683
					c-0.049,0.106-0.188,0.158-0.411,0.158h-0.733c-0.299,0-0.483-0.063-0.551-0.183c-0.088-0.158-0.13-0.385-0.13-0.675
					l0.008-8.467c0-0.275,0.041-0.493,0.124-0.645c0.089-0.163,0.194-0.186,0.275-0.186h1.04c0.333,0,0.393,0.123,0.412,0.159
					C230.059,95.358,230.095,95.593,230.095,95.892z"/>
				<polygon fill="#8BDB00" points="237.295,101.818 235.388,94.215 234.487,94.235 234.487,106.067 235.391,106.067 
					235.391,98.011 237.391,105.947 237.418,106.067 238.185,106.067 238.185,94.217 237.295,94.217 				"/>
				<polygon fill="#8BDB00" points="241.679,106.067 242.584,106.067 242.584,94.184 241.663,94.184 				"/>
				<path fill="#8BDB00" d="M249.87,98.169v-2.673c0.011-0.321-0.093-0.615-0.305-0.879c-0.219-0.262-0.505-0.406-0.861-0.433
					h-1.392c-0.408,0.026-0.706,0.181-0.886,0.466c-0.167,0.262-0.254,0.575-0.254,0.925v9.099c0,0.325,0.08,0.631,0.235,0.905
					c0.172,0.301,0.467,0.463,0.884,0.486h1.478h0.008c0.348-0.023,0.621-0.173,0.809-0.444c0.181-0.258,0.266-0.548,0.255-0.861
					v-2.681h-0.845v2.279c0,0.299-0.038,0.537-0.104,0.683c-0.02,0.04-0.075,0.159-0.411,0.159h-0.735
					c-0.298,0-0.483-0.063-0.551-0.184c-0.088-0.157-0.13-0.381-0.13-0.674l0.006-8.467c0-0.27,0.046-0.488,0.131-0.645
					c0.067-0.13,0.151-0.186,0.273-0.186h1.036c0.335,0,0.39,0.12,0.41,0.163c0.071,0.147,0.107,0.376,0.107,0.681v2.277H249.87z"/>
			</g>
			<g>
				<polygon fill="#00AEEF" points="263.866,97.809 263.089,103.547 262.3,97.824 261.841,94.183 260.878,94.203 260.34,97.838 
					259.559,103.577 258.773,97.852 258.258,94.2 257.309,94.2 259.055,105.932 259.075,106.067 259.992,106.067 261.339,96.715 
					262.562,105.929 262.579,106.067 263.514,106.067 265.355,94.37 265.385,94.184 264.399,94.184 				"/>
				<polygon fill="#00AEEF" points="270.818,94.2 269.892,94.2 268.12,105.884 268.092,106.067 269.059,106.067 270.33,96.655 
					271.711,105.932 271.732,106.067 272.756,106.067 270.841,94.335 				"/>
				<polygon fill="#00AEEF" points="277.067,105.146 277.067,94.184 276.147,94.184 276.161,106.067 279.891,106.067 
					279.852,105.146 				"/>
				<polygon fill="#00AEEF" points="284.254,105.146 284.254,94.184 283.334,94.184 283.349,106.067 287.075,106.067 
					287.042,105.146 				"/>
				<polygon fill="#00AEEF" points="291.442,105.175 291.442,100.436 293.934,100.436 293.934,99.523 291.442,99.523 
					291.442,95.076 294.141,95.076 294.153,94.23 290.535,94.23 290.535,106.067 294.265,106.067 294.227,105.175 				"/>
				<polygon fill="#00AEEF" points="297.733,94.217 297.733,95.076 299.117,95.076 299.117,106.067 299.979,106.067 299.979,95.076 
					301.449,95.076 301.449,94.217 				"/>
			</g>
		</g>
	</g>
</g>
</svg>
