<?xml version="1.0" encoding="utf-8"?>
<!-- Generator: Adobe Illustrator 21.1.0, SVG Export Plug-In . SVG Version: 6.00 Build 0)  -->
<svg version="1.1" id="Layer_1" xmlns="http://www.w3.org/2000/svg" xmlns:xlink="http://www.w3.org/1999/xlink" x="0px" y="0px"
	 viewBox="0 0 1920 960" style="enable-background:new 0 0 1920 960;" xml:space="preserve">
<style type="text/css">
	.st0{fill:#FFFFFF;}
</style>
<g>
	<g>
		<g>
			<path class="st0" d="M1897.2,35.6c0,1.2-0.9,2.1-2.1,2.1h-31.4v31.4c0,1.2-0.9,2.1-2.1,2.1h-16.8c-1.1,0-2.1-0.9-2.1-2.1V18.8
				c0-1.1,0.9-2.1,2.1-2.1c1.2,0,2.1,0.9,2.1,2.1v48.2h12.6V35.6c0-1.2,0.9-2.1,2.1-2.1h33.5C1896.3,33.5,1897.2,34.5,1897.2,35.6z"
				/>
		</g>
		<g>
			<path class="st0" d="M1897.2,18.8c0,1.1-0.9,2.1-2.1,2.1h-33.5c-1.2,0-2.1-0.9-2.1-2.1c0-1.1,0.9-2.1,2.1-2.1h33.5
				C1896.3,16.8,1897.2,17.7,1897.2,18.8z"/>
		</g>
		<g>
			<path class="st0" d="M1897.2,85.9v117.4c0,1.2-0.9,2.1-2.1,2.1h-16.8c-1.1,0-2.1-0.9-2.1-2.1v-98.5h-46.1l0,98.5
				c0,1.2-0.9,2.1-2.1,2.1h-16.8c-1.2,0-2.1-0.9-2.1-2.1V18.8c0-1.1,0.9-2.1,2.1-2.1s2.1,0.9,2.1,2.1v182.4h12.6l0-98.6
				c0-1.2,0.9-2.1,2.1-2.1h50.3c1.2,0,2.1,0.9,2.1,2.1v98.6h12.6V88h-65c-1.1,0-2.1-0.9-2.1-2.1V18.8c0-1.1,0.9-2.1,2.1-2.1
				c1.2,0,2.1,0.9,2.1,2.1v65h65C1896.3,83.9,1897.2,84.8,1897.2,85.9z"/>
		</g>
		<g>
			<path class="st0" d="M1662.4,18.8v50.3c0,1.2-0.9,2.1-2.1,2.1H1610c-1.2,0-2.1-0.9-2.1-2.1V18.8c0-1.1,0.9-2.1,2.1-2.1
				c1.1,0,2.1,0.9,2.1,2.1v48.2h46.1V21l-12.6,0v31.4c0,1.1-0.9,2.1-2.1,2.1h-16.8c-1.2,0-2.1-0.9-2.1-2.1V18.8
				c0-1.1,0.9-2.1,2.1-2.1c1.1,0,2.1,0.9,2.1,2.1v31.4h12.6V18.9c0-1.1,0.9-2.1,2-2.1l16.8-0.1c0.6,0,1.1,0.2,1.5,0.6
				C1662.1,17.7,1662.4,18.3,1662.4,18.8z"/>
		</g>
		<g>
			<path class="st0" d="M1427.5,18.8v16.8c0,1.2-0.9,2.1-2.1,2.1h-16.8c-1.1,0-2.1-0.9-2.1-2.1V18.8c0-1.1,0.9-2.1,2.1-2.1
				c1.2,0,2.1,0.9,2.1,2.1v14.7h12.6V18.8c0-1.1,0.9-2.1,2.1-2.1S1427.5,17.7,1427.5,18.8z"/>
		</g>
		<g>
			<path class="st0" d="M1326.9,18.8v50.3c0,1.2-0.9,2.1-2.1,2.1H1308c-1.2,0-2.1-0.9-2.1-2.1V37.7h-14.7c-1.2,0-2.1-0.9-2.1-2.1
				V18.8c0-1.1,0.9-2.1,2.1-2.1h16.8c1.2,0,2.1,0.9,2.1,2.1c0,1.1-0.9,2.1-2.1,2.1h-14.7v12.6h14.7c1.2,0,2.1,0.9,2.1,2.1v31.4h12.6
				V18.8c0-1.1,0.9-2.1,2.1-2.1C1326,16.8,1326.9,17.7,1326.9,18.8z"/>
		</g>
		<g>
			<path class="st0" d="M1276.6,18.8v16.8c0,1.2-0.9,2.1-2.1,2.1h-33.6c-1.1,0-2.1-0.9-2.1-2.1V18.8c0-1.1,0.9-2.1,2.1-2.1
				c1.2,0,2.1,0.9,2.1,2.1v14.7h29.4V20.9h-14.7c-1.1,0-2.1-0.9-2.1-2.1c0-1.1,0.9-2.1,2.1-2.1h16.8
				C1275.6,16.8,1276.6,17.7,1276.6,18.8z"/>
		</g>
		<g>
			<path class="st0" d="M1410.8,69.2v50.3c0,1.2-0.9,2.1-2.1,2.1h-50.3c-1.2,0-2.1-0.9-2.1-2.1v-65h-12.6v31.5
				c0,1.1-0.9,2.1-2.1,2.1h-50.3c-1.2,0-2.1-0.9-2.1-2.1V54.5h-65c-1.1,0-2.1-0.9-2.1-2.1V18.8c0-1.1,0.9-2.1,2.1-2.1
				c1.2,0,2.1,0.9,2.1,2.1v31.4h65c1.2,0,2.1,0.9,2.1,2.1v31.4h46.1V52.4c0-1.2,0.9-2.1,2.1-2.1h16.8c1.2,0,2.1,0.9,2.1,2.1v65h46.1
				V71.3H1394v31.4c0,1.2-0.9,2.1-2.1,2.1h-16.8c-1.2,0-2.1-0.9-2.1-2.1v-65h-31.4c-1.2,0-2.1-0.9-2.1-2.1V18.8
				c0-1.1,0.9-2.1,2.1-2.1c1.2,0,2.1,0.9,2.1,2.1v14.7h31.4c1.2,0,2.1,0.9,2.1,2.1v65h12.6V69.2c0-1.1,0.9-2.1,2.1-2.1h16.8
				C1409.8,67.1,1410.8,68,1410.8,69.2z"/>
		</g>
		<g>
			<path class="st0" d="M1578.5,18.8c0,1.1-0.9,2.1-2.1,2.1h-132.1v12.6h65c1.2,0,2.1,0.9,2.1,2.1v16.8c0,1.1-0.9,2.1-2.1,2.1
				h-117.4c-1.1,0-2.1-0.9-2.1-2.1V20.9h-31.5c-1.2,0-2.1-0.9-2.1-2.1c0-1.1,0.9-2.1,2.1-2.1h33.5c1.2,0,2.1,0.9,2.1,2.1v31.4h113.2
				V37.7h-65c-1.2,0-2.1-0.9-2.1-2.1V18.8c0-1.1,0.9-2.1,2.1-2.1h134.2C1577.6,16.8,1578.5,17.7,1578.5,18.8z"/>
		</g>
		<path class="st0" d="M1863.6,354.3v50.3c0,1.1-0.9,2.1-2.1,2.1h-50.3c-1.2,0-2.1-0.9-2.1-2.1v-16.8c0-1.1,0.9-2.1,2.1-2.1h31.4
			v-12.6h-113.2v12.6h65c1.2,0,2.1,0.9,2.1,2.1v16.8c0,1.1-0.9,2.1-2.1,2.1h-83.9c-0.6,0-1.1-0.2-1.5-0.6c-0.4-0.4-0.6-0.9-0.6-1.5
			V272.5h-12.6v146.8h165.6c1.2,0,2.1,0.9,2.1,2.1v16.8c0,1.1-0.9,2.1-2.1,2.1h-165.6V587h79.7l0-12.6h-65c-1.2,0-2.1-0.9-2.1-2.1
			V455c0-1.2,0.9-2.1,2.1-2.1h151c1.2,0,2.1,0.9,2.1,2.1v16.8c0,1.2-0.9,2.1-2.1,2.1h-132.1v79.7h65c1.2,0,2.1,0.9,2.1,2.1v50.3
			c0,1.2-0.9,2.1-2.1,2.1h-98.5l0,31.5c0,1.1-0.9,2.1-2.1,2.1h-50.3c-1.2,0-2.1-0.9-2.1-2.1V608h-98.5c-1.2,0-2.1-0.9-2.1-2.1v-16.8
			c0-1.1,0.9-2.1,2.1-2.1h65v-12.6h-79.7V673c0,1.2-0.9,2.1-2.1,2.1h-16.8c-1.2,0-2.1-0.9-2.1-2.1v-98.5h-31.4
			c-1.2,0-2.1-0.9-2.1-2.1V406.7h-12.6v199.2c0,1.2-0.9,2.1-2.1,2.1h-31.5v12.6h46.1v-31.5c0-1.1,0.9-2.1,2.1-2.1h16.8
			c1.2,0,2.1,0.9,2.1,2.1v98.5h46.1v-65c0-1.1,0.9-2.1,2.1-2.1h83.9c1.1,0,2.1,0.9,2.1,2.1v31.5H1828c1.2,0,2.1,0.9,2.1,2.1V673
			c0,1.2-0.9,2.1-2.1,2.1h-165.6v46.1h146.8l0-12.6H1677c-1.2,0-2.1-0.9-2.1-2.1v-16.8c0-1.1,0.9-2.1,2.1-2.1h151
			c1.2,0,2.1,0.9,2.1,2.1v151c0,1.2-0.9,2.1-2.1,2.1h-31.4v12.6h31.4c1.2,0,2.1,0.9,2.1,2.1v16.8c0,1.2-0.9,2.1-2.1,2.1h-218
			c-1.2,0-2.1-0.9-2.1-2.1v-16.8c0-1.2,0.9-2.1,2.1-2.1h165.6l0-31.5c0-0.6,0.2-1.1,0.6-1.5c0.4-0.4,0.9-0.6,1.5-0.6h31.5l0-79.7
			h-165.6c-1.2,0-2.1-0.9-2.1-2.1v-65H1610c-1.2,0-2.1-0.9-2.1-2.1v-31.5h-46.2v65c0,1.2-0.9,2.1-2.1,2.1h-83.9
			c-1.2,0-2.1-0.9-2.1-2.1v-65h-65c-1.1,0-2.1-0.9-2.1-2.1v-50.3c0-1.1,0.9-2.1,2.1-2.1h31.5V387.9c0-1.1,0.9-2.1,2.1-2.1h50.3
			c1.2,0,2.1,0.9,2.1,2.1v165.6h165.6c1.2,0,2.1,0.9,2.1,2.1v16.8c0,1.2-0.9,2.1-2.1,2.1h-31.5V587h31.5c1.2,0,2.1,0.9,2.1,2.1
			l0,31.5h12.6l0-348h-132.1c-1.2,0-2.1-0.9-2.1-2.1v-16.8c0-1.2,0.9-2.1,2.1-2.1h31.4V239h-79.7v12.6h31.4c1.2,0,2.1,0.9,2.1,2.1
			v16.8c0,1.2-0.9,2.1-2.1,2.1h-31.4V304c0,1.1-0.9,2.1-2.1,2.1h-16.8c-1.2,0-2.1-0.9-2.1-2.1v-83.9c0-1.2,0.9-2.1,2.1-2.1h98.5
			V37.7h-46.1v31.4c0,1.2-0.9,2.1-2.1,2.1h-98.5v65c0,1.1-0.9,2.1-2.1,2.1h-199.2v12.6h14.7c1.2,0,2.1,0.9,2.1,2.1v16.8
			c0,1.1-0.9,2.1-2.1,2.1h-14.7v12.6h65c1.2,0,2.1,0.9,2.1,2.1v16.8c0,1.2-0.9,2.1-2.1,2.1h-83.9c-1.2,0-2.1-0.9-2.1-2.1v-31.4
			h-12.6V218h98.5c1.2,0,2.1,0.9,2.1,2.1v98.6h12.6V171.9h-48.2c-1.1,0-2.1-0.9-2.1-2.1V153c0-1.2,0.9-2.1,2.1-2.1h67.1
			c1.2,0,2.1,0.9,2.1,2.1v184.5c0,1.2-0.9,2.1-2.1,2.1h-31.4v12.6h31.4c1.2,0,2.1,0.9,2.1,2.1v16.8c0,1.1-0.9,2.1-2.1,2.1h-50.3
			c-1.2,0-2.1-0.9-2.1-2.1V239h-98.5c-1.1,0-2.1-0.9-2.1-2.1V153c0-1.2,0.9-2.1,2.1-2.1h31.5v-12.6h-31.5c-1.1,0-2.1-0.9-2.1-2.1
			V18.8c0-1.1,0.9-2.1,2.1-2.1h16.8c1.2,0,2.1,0.9,2.1,2.1v65h31.5c1.2,0,2.1,0.9,2.1,2.1v16.8c0,1.2-0.9,2.1-2.1,2.1h-31.5v12.6
			h46.1V85.9c0-1.2,0.9-2.1,2.1-2.1h16.8c1.2,0,2.1,0.9,2.1,2.1v31.5h79.7v-12.6h-65c-1.2,0-2.1-0.9-2.1-2.1V71.3h-65
			c-1.2,0-2.1-0.9-2.1-2.1V18.8c0-1.1,0.9-2.1,2.1-2.1c1.1,0,2.1,0.9,2.1,2.1v48.2h65c1.2,0,2.1,0.9,2.1,2.1v31.5h65
			c1.2,0,2.1,0.9,2.1,2.1v16.8c0,1.2-0.9,2.1-2.1,2.1h-83.9c-1.1,0-2.1-0.9-2.1-2.1V88H1243v31.4c0,1.2-0.9,2.1-2.1,2.1h-50.3
			c-1.1,0-2.1-0.9-2.1-2.1v-16.8c0-1.1,0.9-2.1,2.1-2.1h31.5V88h-31.5c-1.1,0-2.1-0.9-2.1-2.1v-65h-12.6v113.2h31.5
			c1.1,0,2.1,0.9,2.1,2.1V153c0,1.1-0.9,2.1-2.1,2.1h-31.5v79.7h98.5c1.2,0,2.1,0.9,2.1,2.1V369h46.1v-12.6h-31.4
			c-1.2,0-2.1-0.9-2.1-2.1v-16.8c0-1.1,0.9-2.1,2.1-2.1h31.4V155.1h-62.9v12.6h48.2c1.2,0,2.1,0.9,2.1,2.1v151
			c0,1.2-0.9,2.1-2.1,2.1h-16.8c-1.2,0-2.1-0.9-2.1-2.1v-98.5h-98.6c-1.1,0-2.1-0.9-2.1-2.1v-50.3c0-1.1,0.9-2.1,2.1-2.1h16.8
			c1.1,0,2.1,0.9,2.1,2.1v31.5h79.7v-12.6h-65c-1.1,0-2.1-0.9-2.1-2.1v-16.8c0-1.1,0.9-2.1,2.1-2.1h14.7v-12.6h-14.7
			c-1.1,0-2.1-0.9-2.1-2.1v-16.8c0-1.2,0.9-2.1,2.1-2.1h199.2v-65c0-1.1,0.9-2.1,2.1-2.1h98.5V35.6c0-1.2,0.9-2.1,2.1-2.1h50.3
			c1.1,0,2.1,0.9,2.1,2.1v184.5c0,1.2-0.9,2.1-2.1,2.1h-98.5v79.7h12.6v-31.5c0-1.1,0.9-2.1,2.1-2.1h31.4v-12.6h-31.4
			c-1.2,0-2.1-0.9-2.1-2.1v-16.8c0-1.2,0.9-2.1,2.1-2.1h83.9c1.1,0,2.1,0.9,2.1,2.1v16.8c0,1.2-0.9,2.1-2.1,2.1h-31.5v12.6H1677
			c1.2,0,2.1,0.9,2.1,2.1l0,352.2c0,0.6-0.2,1.1-0.6,1.5c-0.4,0.4-0.9,0.6-1.5,0.6h-16.8c-1.2,0-2.1-0.9-2.1-2.1l0-31.4h-31.4
			c-1.2,0-2.1-0.9-2.1-2.1v-16.8c0-1.2,0.9-2.1,2.1-2.1h31.4v-12.6h-165.6c-1.2,0-2.1-0.9-2.1-2.1V390h-46.1v199.2
			c0,1.2-0.9,2.1-2.1,2.1h-31.4v46.1h65c1.1,0,2.1,0.9,2.1,2.1v65h79.7v-65c0-1.2,0.9-2.1,2.1-2.1h50.3c1.1,0,2.1,0.9,2.1,2.1v31.5
			h31.4c1.1,0,2.1,0.9,2.1,2.1v65h165.6c1.2,0,2.1,0.9,2.1,2.1l0,83.9c0,0.6-0.2,1.1-0.6,1.5c-0.4,0.4-0.9,0.6-1.5,0.6h-31.5l0,31.5
			l0,0c0,0.6-0.2,1.1-0.6,1.5c-0.4,0.4-0.9,0.6-1.5,0.6h-165.6v12.6h213.8v-12.6h-31.4c-1.2,0-2.1-0.9-2.1-2.1v-16.8
			c0-1.2,0.9-2.1,2.1-2.1h31.4V691.9h-146.8v12.6h132.1c1.2,0,2.1,0.9,2.1,2.1l0,16.8l0,0c0,0.6-0.2,1.1-0.6,1.5
			c-0.4,0.4-0.9,0.6-1.5,0.6h-151c-1.2,0-2.1-0.9-2.1-2.1V673c0-1.2,0.9-2.1,2.1-2.1h165.6v-12.6h-199.2c-1.2,0-2.1-0.9-2.1-2.1
			v-31.5h-79.7v65c0,1.2-0.9,2.1-2.1,2.1h-50.3c-1.2,0-2.1-0.9-2.1-2.1v-98.5h-12.6v31.4c0,1.2-0.9,2.1-2.1,2.1h-50.3
			c-1.2,0-2.1-0.9-2.1-2.1v-16.8c0-1.2,0.9-2.1,2.1-2.1h31.4V404.6c0-1.2,0.9-2.1,2.1-2.1h16.8c1.1,0,2.1,0.9,2.1,2.1v165.6h31.4
			c1.2,0,2.1,0.9,2.1,2.1v98.5h12.6v-98.5c0-1.2,0.9-2.1,2.1-2.1h83.9c1.1,0,2.1,0.9,2.1,2.1v16.8c0,1.2-0.9,2.1-2.1,2.1h-65v12.6
			h98.5c1.1,0,2.1,0.9,2.1,2.1v31.5h46.1l0-31.5c0-1.2,0.9-2.1,2.1-2.1h98.5v-46.1h-65c-1.2,0-2.1-0.9-2.1-2.1v-83.9
			c0-1.1,0.9-2.1,2.1-2.1h132.1V457h-146.8v113.2h65c1.2,0,2.1,0.9,2.1,2.1l0,16.8l0,0c0,0.6-0.2,1.1-0.6,1.5
			c-0.4,0.4-0.9,0.6-1.5,0.6h-83.9c-1.2,0-2.1-0.9-2.1-2.1v-151c0-1.1,0.9-2.1,2.1-2.1h165.6v-12.6h-165.6c-1.2,0-2.1-0.9-2.1-2.1
			v-151c0-1.1,0.9-2.1,2.1-2.1h16.8c0.6,0,1.1,0.2,1.5,0.6c0.4,0.4,0.6,0.9,0.6,1.5v132.1h79.7V390h-65c-1.2,0-2.1-0.9-2.1-2.1
			v-16.8c0-1.2,0.9-2.1,2.1-2.1h117.4c1.2,0,2.1,0.9,2.1,2.1v16.8c0,1.1-0.9,2.1-2.1,2.1h-31.5v12.6h46.2v-46.1h-132.1
			c-1.2,0-2.1-0.9-2.1-2.1v-98.6h-132.1c-1.1,0-2.1-0.9-2.1-2.1v-151c0-1.1,0.9-2.1,2.1-2.1h117.4c1.1,0,2.1,0.9,2.1,2.1l0,16.8l0,0
			c0,0.6-0.2,1.1-0.6,1.5c-0.4,0.4-0.9,0.6-1.5,0.6h-98.6v113.2h113.2v-46.1h-29.3v12.6h14.7c1.2,0,2.1,0.9,2.1,2.1v16.8
			c0,1.2-0.9,2.1-2.1,2.1h-83.9c-1.2,0-2.1-0.9-2.1-2.1v-16.8c0-1.1,0.9-2.1,2.1-2.1h48.2v-12.6h-48.2c-1.2,0-2.1-0.9-2.1-2.1v-50.3
			c0-1.2,0.9-2.1,2.1-2.1h98.5V88h-132.1c-1.1,0-2.1-0.9-2.1-2.1V18.8c0-1.1,0.9-2.1,2.1-2.1c1.2,0,2.1,0.9,2.1,2.1v65h132.1
			c1.1,0,2.1,0.9,2.1,2.1v50.3c0,1.1-0.9,2.1-2.1,2.1h-98.6v46.1h48.2c1.2,0,2.1,0.9,2.1,2.1v16.8c0,1.2-0.9,2.1-2.1,2.1h-48.2V218
			h79.7v-12.6h-14.7c-1.2,0-2.1-0.9-2.1-2.1v-16.8c0-1.1,0.9-2.1,2.1-2.1h33.5c1.1,0,2.1,0.9,2.1,2.1v50.3c0,1.1-0.9,2.1-2.1,2.1
			H1610c-1.2,0-2.1-0.9-2.1-2.1V119.5c0-1.1,0.9-2.1,2.1-2.1h98.6l0-12.6h-113.2v146.8h132.1c1.2,0,2.1,0.9,2.1,2.1v98.6h132.1
			C1862.7,352.2,1863.6,353.2,1863.6,354.3z"/>
		<g>
			<path class="st0" d="M1159.2,18.8v16.8c0,1.2-0.9,2.1-2.1,2.1h-50.3c-1.2,0-2.1-0.9-2.1-2.1V18.8c0-1.1,0.9-2.1,2.1-2.1h33.5
				c1.2,0,2.1,0.9,2.1,2.1c0,1.1-0.9,2.1-2.1,2.1h-31.5v12.6h46.1V18.8c0-1.1,0.9-2.1,2.1-2.1C1158.2,16.8,1159.2,17.7,1159.2,18.8z
				"/>
		</g>
		<g>
			<path class="st0" d="M1159.2,52.4v184.5c0,1.1-0.9,2.1-2.1,2.1h-16.8c-1.2,0-2.1-0.9-2.1-2.1V104.8h-65c-1.2,0-2.1-0.9-2.1-2.1
				V85.9c0-1.2,0.9-2.1,2.1-2.1h65V71.3h-79.7v46.1h65c1.1,0,2.1,0.9,2.1,2.1v117.4c0,1.1-0.9,2.1-2.1,2.1h-50.3
				c-1.2,0-2.1-0.9-2.1-2.1V153c0-1.2,0.9-2.1,2.1-2.1h16.8c1.1,0,2.1,0.9,2.1,2.1v65h12.6v-79.7h-46.1v98.5c0,1.1-0.9,2.1-2.1,2.1
				h-65v65c0,1.1-0.9,2.1-2.1,2.1h-16.8c-1.2,0-2.1-0.9-2.1-2.1v-67.1c0-1.2,0.9-2.1,2.1-2.1c1.2,0,2.1,0.9,2.1,2.1v65h12.6v-65
				c0-1.2,0.9-2.1,2.1-2.1h65v-98.5c0-1.2,0.9-2.1,2.1-2.1h50.3c1.2,0,2.1,0.9,2.1,2.1v83.9c0,1.2-0.9,2.1-2.1,2.1H1090
				c-1.2,0-2.1-0.9-2.1-2.1v-65h-12.6v79.7h46.1V121.6h-65c-1.2,0-2.1-0.9-2.1-2.1V69.2c0-1.1,0.9-2.1,2.1-2.1h83.9
				c1.2,0,2.1,0.9,2.1,2.1v16.8c0,1.1-0.9,2.1-2.1,2.1h-65v12.6h65c1.2,0,2.1,0.9,2.1,2.1v132.1h12.6V54.5h-65
				c-1.2,0-2.1-0.9-2.1-2.1V18.8c0-1.1,0.9-2.1,2.1-2.1c1.1,0,2.1,0.9,2.1,2.1v31.4h65C1158.2,50.3,1159.2,51.2,1159.2,52.4z"/>
		</g>
		<g>
			<path class="st0" d="M974.7,69.2v151c0,1.2-0.9,2.1-2.1,2.1c-1.2,0-2.1-0.9-2.1-2.1v-151c0-1.1,0.9-2.1,2.1-2.1
				C973.7,67.1,974.7,68,974.7,69.2z"/>
		</g>
		<g>
			<path class="st0" d="M1075.3,18.8v33.6c0,1.1-0.9,2.1-2.1,2.1h-31.5v165.6c0,1.2-0.9,2.1-2.1,2.1h-50.3c-1.2,0-2.1-0.9-2.1-2.1
				V54.5h-14.7c-1.2,0-2.1-0.9-2.1-2.1c0-1.2,0.9-2.1,2.1-2.1h16.8c1.1,0,2.1,0.9,2.1,2.1V218h46.1V52.4c0-1.2,0.9-2.1,2.1-2.1h31.5
				V18.8c0-1.1,0.9-2.1,2.1-2.1C1074.4,16.8,1075.3,17.7,1075.3,18.8z"/>
		</g>
		<g>
			<path class="st0" d="M1041.8,18.8c0,1.1-0.9,2.1-2.1,2.1h-67.1c-1.2,0-2.1-0.9-2.1-2.1c0-1.1,0.9-2.1,2.1-2.1h67.1
				C1040.8,16.8,1041.8,17.7,1041.8,18.8z"/>
		</g>
		<g>
			<path class="st0" d="M1058.5,18.8v16.8c0,1.2-0.9,2.1-2.1,2.1H1025v165.6c0,1.2-0.9,2.1-2.1,2.1h-16.8c-1.2,0-2.1-0.9-2.1-2.1
				V37.7h-31.5c-1.2,0-2.1-0.9-2.1-2.1c0-1.2,0.9-2.1,2.1-2.1h33.5c1.2,0,2.1,0.9,2.1,2.1v165.6h12.6V35.6c0-1.2,0.9-2.1,2.1-2.1
				h31.4V18.8c0-1.1,0.9-2.1,2.1-2.1S1058.5,17.7,1058.5,18.8z"/>
		</g>
		<g>
			<path class="st0" d="M991.4,320.8v16.8c0,1.2-0.9,2.1-2.1,2.1h-16.8c-1.1,0-2.1-0.9-2.1-2.1c0-1.1,0.9-2.1,2.1-2.1h14.7v-12.6
				h-14.7c-1.1,0-2.1-0.9-2.1-2.1c0-1.1,0.9-2.1,2.1-2.1h16.8C990.5,318.7,991.4,319.6,991.4,320.8z"/>
		</g>
		<g>
			<path class="st0" d="M991.4,354.3v151c0,1.1-0.9,2.1-2.1,2.1h-16.8c-1.1,0-2.1-0.9-2.1-2.1c0-1.2,0.9-2.1,2.1-2.1h14.7V356.4
				h-12.6v132.1c0,1.2-0.9,2.1-2.1,2.1c-1.2,0-2.1-0.9-2.1-2.1V354.3c0-1.2,0.9-2.1,2.1-2.1h16.8
				C990.5,352.2,991.4,353.2,991.4,354.3z"/>
		</g>
		<g>
			<path class="st0" d="M1125.6,824v50.3c0,1.2-0.9,2.1-2.1,2.1h-151c-1.2,0-2.1-0.9-2.1-2.1c0-1.2,0.9-2.1,2.1-2.1h148.9v-46.1
				h-79.7v12.6h65c1.2,0,2.1,0.9,2.1,2.1v16.8c0,1.2-0.9,2.1-2.1,2.1h-83.9c-1.2,0-2.1-0.9-2.1-2.1v-50.3c0-1.2,0.9-2.1,2.1-2.1
				h31.4V759h-46.1v12.6h31.4c1.2,0,2.1,0.9,2.1,2.1v16.8c0,1.1-0.9,2.1-2.1,2.1h-50.3c-1.2,0-2.1-0.9-2.1-2.1v-50.3
				c0-1.2,0.9-2.1,2.1-2.1h65v-12.6h-79.7v113.2h12.6v-31.4c0-1.2,0.9-2.1,2.1-2.1h16.8c1.2,0,2.1,0.9,2.1,2.1v50.3
				c0,1.2-0.9,2.1-2.1,2.1h-33.5c-1.2,0-2.1-0.9-2.1-2.1s0.9-2.1,2.1-2.1h31.5v-46.1h-12.6v31.4c0,1.2-0.9,2.1-2.1,2.1h-16.8
				c-1.2,0-2.1-0.9-2.1-2.1V723.3c0-1.2,0.9-2.1,2.1-2.1h83.9c1.2,0,2.1,0.9,2.1,2.1v16.8c0,1.2-0.9,2.1-2.1,2.1h-65v46.1h46.1
				v-12.6h-31.5c-1.2,0-2.1-0.9-2.1-2.1v-16.8c0-1.2,0.9-2.1,2.1-2.1h50.3c1.2,0,2.1,0.9,2.1,2.1v50.3c0,1.1-0.9,2.1-2.1,2.1H1025
				v46.1h79.7v-12.6h-65c-1.2,0-2.1-0.9-2.1-2.1V824c0-1.1,0.9-2.1,2.1-2.1h83.9C1124.7,821.9,1125.6,822.8,1125.6,824z"/>
		</g>
		<g>
			<path class="st0" d="M1008.2,907.8v33.5c0,1.1-0.9,2.1-2.1,2.1c-1.2,0-2.1-0.9-2.1-2.1v-31.5h-12.6v31.5c0,1.1-0.9,2.1-2.1,2.1
				h-16.8c-1.2,0-2.1-0.9-2.1-2.1c0-1.2,0.9-2.1,2.1-2.1h14.7v-31.5c0-1.2,0.9-2.1,2.1-2.1h16.8
				C1007.3,905.7,1008.2,906.7,1008.2,907.8z"/>
		</g>
		<g>
			<path class="st0" d="M1025,891.1v50.3c0,1.1-0.9,2.1-2.1,2.1c-1.2,0-2.1-0.9-2.1-2.1v-48.2h-46.1v31.5c0,1.1-0.9,2.1-2.1,2.1
				c-1.2,0-2.1-0.9-2.1-2.1v-33.6c0-1.1,0.9-2.1,2.1-2.1h50.3C1024,889,1025,889.9,1025,891.1z"/>
		</g>
		<g>
			<path class="st0" d="M1058.5,891.1v50.3c0,1.1-0.9,2.1-2.1,2.1s-2.1-0.9-2.1-2.1v-48.2h-12.6v48.2c0,1.1-0.9,2.1-2.1,2.1
				c-1.2,0-2.1-0.9-2.1-2.1v-50.3c0-1.1,0.9-2.1,2.1-2.1h16.8C1057.6,889,1058.5,889.9,1058.5,891.1z"/>
		</g>
		<g>
			<path class="st0" d="M1410.8,740.1V824c0,1.2-0.9,2.1-2.1,2.1h-65v12.6h31.4c1.2,0,2.1,0.9,2.1,2.1v83.9c0,1.1-0.9,2.1-2.1,2.1
				h-16.8c-1.2,0-2.1-0.9-2.1-2.1v-31.5h-46.1v12.6h31.5c1.2,0,2.1,0.9,2.1,2.1v33.5c0,1.1-0.9,2.1-2.1,2.1c-1.2,0-2.1-0.9-2.1-2.1
				v-31.5H1308c-1.2,0-2.1-0.9-2.1-2.1v-16.8c0-1.1,0.9-2.1,2.1-2.1h50.3c1.2,0,2.1,0.9,2.1,2.1v31.5h12.6v-79.7h-31.4
				c-1.2,0-2.1-0.9-2.1-2.1V824c0-1.1,0.9-2.1,2.1-2.1h65v-79.7H1308c-1.2,0-2.1-0.9-2.1-2.1v-16.8c0-1.2,0.9-2.1,2.1-2.1h65v-46.1
				h-146.8v79.7h46.1v-46.1h-12.6v31.4c0,1.2-0.9,2.1-2.1,2.1h-16.8c-1.1,0-2.1-0.9-2.1-2.1v-50.3c0-1.1,0.9-2.1,2.1-2.1h117.4
				c1.2,0,2.1,0.9,2.1,2.1v16.8c0,1.2-0.9,2.1-2.1,2.1h-65v46.1h31.4c1.2,0,2.1,0.9,2.1,2.1v16.8c0,1.1-0.9,2.1-2.1,2.1h-31.4v65
				c0,1.2-0.9,2.1-2.1,2.1h-65v12.6h31.4c1.2,0,2.1,0.9,2.1,2.1v50.3c0,1.2-0.9,2.1-2.1,2.1h-165.6v12.6h31.5c1.1,0,2.1,0.9,2.1,2.1
				v16.8c0,1.1-0.9,2.1-2.1,2.1H1090c-1.2,0-2.1-0.9-2.1-2.1c0-1.2,0.9-2.1,2.1-2.1h31.5v-12.6H1090c-1.2,0-2.1-0.9-2.1-2.1v-16.8
				c0-1.2,0.9-2.1,2.1-2.1h165.6v-46.1h-31.4c-1.1,0-2.1-0.9-2.1-2.1v-16.8c0-1.2,0.9-2.1,2.1-2.1h65v-65c0-1.2,0.9-2.1,2.1-2.1
				h31.4V759h-31.4c-1.2,0-2.1-0.9-2.1-2.1v-50.3c0-1.2,0.9-2.1,2.1-2.1h65v-12.6H1243V738h12.6v-31.5c0-1.2,0.9-2.1,2.1-2.1h16.8
				c1.2,0,2.1,0.9,2.1,2.1v50.3c0,1.1-0.9,2.1-2.1,2.1h-50.3c-1.1,0-2.1-0.9-2.1-2.1V673c0-1.2,0.9-2.1,2.1-2.1h151
				c1.2,0,2.1,0.9,2.1,2.1v50.3c0,1.2-0.9,2.1-2.1,2.1h-65V738h98.5C1409.8,738,1410.8,738.9,1410.8,740.1z"/>
		</g>
		<g>
			<path class="st0" d="M1662.4,287.2v251.6c0,1.2-0.9,2.1-2.1,2.1h-16.8c-1.2,0-2.1-0.9-2.1-2.1V373.2H1610c-1.2,0-2.1-0.9-2.1-2.1
				v-50.3c0-1.1,0.9-2.1,2.1-2.1h16.8c1.1,0,2.1,0.9,2.1,2.1v31.5h12.6v-46.1h-46.1v79.7h31.5c1.1,0,2.1,0.9,2.1,2.1v151
				c0,1.2-0.9,2.1-2.1,2.1h-117.4c-1.2,0-2.1-0.9-2.1-2.1V373.2h-79.7v199.2c0,1.2-0.9,2.1-2.1,2.1H1394v79.7h65
				c1.2,0,2.1,0.9,2.1,2.1v65h113.2v-65c0-1.2,0.9-2.1,2.1-2.1h16.8c1.2,0,2.1,0.9,2.1,2.1v83.9c0,1.2-0.9,2.1-2.1,2.1h-132.1v46.1
				h65c1.2,0,2.1,0.9,2.1,2.1v16.8c0,1.1-0.9,2.1-2.1,2.1h-83.9c-1.2,0-2.1-0.9-2.1-2.1V675.1H1394v46.1h12.6v-31.5
				c0-1.1,0.9-2.1,2.1-2.1h16.8c1.2,0,2.1,0.9,2.1,2.1v132.1h113.2v-31.5c0-1.2,0.9-2.1,2.1-2.1h31.4v-12.6h-98.5
				c-1.2,0-2.1-0.9-2.1-2.1v-16.8c0-1.2,0.9-2.1,2.1-2.1h117.4c1.2,0,2.1,0.9,2.1,2.1v50.3c0,1.1-0.9,2.1-2.1,2.1h-31.5v31.4
				c0,1.2-0.9,2.1-2.1,2.1H1394v98.5c0,1.1-0.9,2.1-2.1,2.1h-33.5c-1.2,0-2.1-0.9-2.1-2.1c0-1.2,0.9-2.1,2.1-2.1h31.5v-98.6
				c0-1.2,0.9-2.1,2.1-2.1h165.6v-31.4c0-1.2,0.9-2.1,2.1-2.1h31.5V759h-113.2v12.6h98.5c1.1,0,2.1,0.9,2.1,2.1v16.8
				c0,1.1-0.9,2.1-2.1,2.1h-31.5V824c0,1.2-0.9,2.1-2.1,2.1h-117.4c-1.2,0-2.1-0.9-2.1-2.1V691.9h-12.6v31.5c0,1.2-0.9,2.1-2.1,2.1
				h-16.8c-1.1,0-2.1-0.9-2.1-2.1V673c0-1.2,0.9-2.1,2.1-2.1h50.3c1.2,0,2.1,0.9,2.1,2.1v132.1h79.7v-12.6h-65
				c-1.2,0-2.1-0.9-2.1-2.1v-50.3c0-1.2,0.9-2.1,2.1-2.1h132.1v-79.7h-12.6v65c0,1.2-0.9,2.1-2.1,2.1H1459c-1.2,0-2.1-0.9-2.1-2.1
				v-65h-65c-1.1,0-2.1-0.9-2.1-2.1v-83.9c0-1.2,0.9-2.1,2.1-2.1h31.5V371.1c0-1.2,0.9-2.1,2.1-2.1h83.9c1.2,0,2.1,0.9,2.1,2.1
				v165.6h113.2V390h-31.5c-1.1,0-2.1-0.9-2.1-2.1V304c0-1.2,0.9-2.1,2.1-2.1h50.3c1.1,0,2.1,0.9,2.1,2.1v50.3
				c0,1.1-0.9,2.1-2.1,2.1h-16.8c-1.2,0-2.1-0.9-2.1-2.1v-31.5h-12.6V369h31.4c1.1,0,2.1,0.9,2.1,2.1v165.6h12.6V289.3h-79.7v180.3
				h12.6v-65c0-1.2,0.9-2.1,2.1-2.1h16.8c1.1,0,2.1,0.9,2.1,2.1v83.9c0,1.2-0.9,2.1-2.1,2.1h-50.3c-1.2,0-2.1-0.9-2.1-2.1V289.3
				h-46.1v31.4c0,1.2-0.9,2.1-2.1,2.1H1459c-1.2,0-2.1-0.9-2.1-2.1v-98.5h-12.6v31.4c0,1.2-0.9,2.1-2.1,2.1h-16.8
				c-1.2,0-2.1-0.9-2.1-2.1v-50.3c0-1.1,0.9-2.1,2.1-2.1h132.1v-79.7h-79.7v46.1h46.1v-12.6h-31.4c-1.2,0-2.1-0.9-2.1-2.1v-16.8
				c0-1.2,0.9-2.1,2.1-2.1h50.3c1.1,0,2.1,0.9,2.1,2.1v50.3c0,1.2-0.9,2.1-2.1,2.1H1459c-1.2,0-2.1-0.9-2.1-2.1v-83.9
				c0-1.1,0.9-2.1,2.1-2.1h98.5V54.5h-12.6v31.5c0,1.1-0.9,2.1-2.1,2.1h-98.6v98.5c0,1.2-0.9,2.1-2.1,2.1h-65v12.6h31.5
				c1.2,0,2.1,0.9,2.1,2.1v65h31.4c1.2,0,2.1,0.9,2.1,2.1v65h79.7V304c0-1.2,0.9-2.1,2.1-2.1h16.8c1.1,0,2.1,0.9,2.1,2.1v199.2h65
				c1.1,0,2.1,0.9,2.1,2.1V522c0,1.1-0.9,2.1-2.1,2.1h-83.9c-1.2,0-2.1-0.9-2.1-2.1V356.4h-98.5c-1.2,0-2.1-0.9-2.1-2.1v-65h-31.5
				c-1.1,0-2.1-0.9-2.1-2.1v-65h-31.5c-1.2,0-2.1-0.9-2.1-2.1v-50.3c0-1.1,0.9-2.1,2.1-2.1h65v-12.6h-79.7v232.7
				c0,1.1-0.9,2.1-2.1,2.1h-83.9c-1.1,0-2.1-0.9-2.1-2.1V255.8h-79.7v46.1h46.1v-12.6h-31.5c-1.1,0-2.1-0.9-2.1-2.1v-16.8
				c0-1.1,0.9-2.1,2.1-2.1h50.3c1.2,0,2.1,0.9,2.1,2.1v50.3c0,1.2-0.9,2.1-2.1,2.1h-83.9c-1.2,0-2.1-0.9-2.1-2.1v-65h-79.7v12.6
				h31.5c1.2,0,2.1,0.9,2.1,2.1v65h12.6v-65c0-1.1,0.9-2.1,2.1-2.1h16.8c1.2,0,2.1,0.9,2.1,2.1v83.9c0,1.1-0.9,2.1-2.1,2.1H1090
				c-1.2,0-2.1-0.9-2.1-2.1v-65h-65c-1.2,0-2.1-0.9-2.1-2.1v-16.8c0-1.1,0.9-2.1,2.1-2.1h31.4v-12.6h-46.1v46.1h65
				c1.1,0,2.1,0.9,2.1,2.1v65h146.8v-12.6h-65c-1.2,0-2.1-0.9-2.1-2.1v-16.8c0-1.1,0.9-2.1,2.1-2.1h83.9c1.2,0,2.1,0.9,2.1,2.1v50.3
				c0,1.1-0.9,2.1-2.1,2.1h-65v31.4c0,1.2-0.9,2.1-2.1,2.1h-65V522c0,1.1-0.9,2.1-2.1,2.1h-50.3c-1.2,0-2.1-0.9-2.1-2.1v-31.4h-46.1
				v12.6h31.4c1.2,0,2.1,0.9,2.1,2.1v31.4h31.5c1.1,0,2.1,0.9,2.1,2.1v65h113.2v-65c0-1.1,0.9-2.1,2.1-2.1h31.5v-12.6h-31.5
				c-1.1,0-2.1-0.9-2.1-2.1v-16.8c0-1.2,0.9-2.1,2.1-2.1h98.6v-12.6h-113.2v98.5c0,1.2-0.9,2.1-2.1,2.1H1090c-1.2,0-2.1-0.9-2.1-2.1
				v-50.3c0-1.1,0.9-2.1,2.1-2.1h16.8c1.2,0,2.1,0.9,2.1,2.1v31.5h46.1v-12.6h-31.5c-1.2,0-2.1-0.9-2.1-2.1V438.2
				c0-1.1,0.9-2.1,2.1-2.1h65v-31.4c0-1.2,0.9-2.1,2.1-2.1h165.6v-65c0-1.1,0.9-2.1,2.1-2.1h31.5v-12.6h-31.5
				c-1.2,0-2.1-0.9-2.1-2.1v-83.9c0-1.2,0.9-2.1,2.1-2.1h16.8c1.2,0,2.1,0.9,2.1,2.1v65h31.5c1.2,0,2.1,0.9,2.1,2.1v50.3
				c0,1.1-0.9,2.1-2.1,2.1h-31.5v65c0,1.2-0.9,2.1-2.1,2.1h-165.6v12.6h180.3v-65c0-1.2,0.9-2.1,2.1-2.1h16.8c1.2,0,2.1,0.9,2.1,2.1
				V455c0,1.2-0.9,2.1-2.1,2.1h-65v165.6c0,1.2-0.9,2.1-2.1,2.1h-50.3c-1.2,0-2.1-0.9-2.1-2.1v-50.3c0-1.2,0.9-2.1,2.1-2.1h16.8
				c1.2,0,2.1,0.9,2.1,2.1v31.4h12.6v-46.1h-46.1v79.7h79.7V471.7c0-1.1,0.9-2.1,2.1-2.1h50.3c1.2,0,2.1,0.9,2.1,2.1v83.9
				c0,1.1-0.9,2.1-2.1,2.1h-16.8c-1.1,0-2.1-0.9-2.1-2.1v-65h-12.6v165.6c0,1.1-0.9,2.1-2.1,2.1h-165.6v113.2h65
				c1.2,0,2.1,0.9,2.1,2.1V824c0,1.2-0.9,2.1-2.1,2.1h-65v31.5c0,1.2-0.9,2.1-2.1,2.1h-31.5v12.6h65c1.2,0,2.1,0.9,2.1,2.1v16.8
				c0,1.2-0.9,2.1-2.1,2.1h-83.9c-1.2,0-2.1-0.9-2.1-2.1v-83.9c0-1.2,0.9-2.1,2.1-2.1h16.8c1.2,0,2.1,0.9,2.1,2.1v31.4h12.6v-31.4
				c0-1.2,0.9-2.1,2.1-2.1h65v-12.6H1090c-1.2,0-2.1-0.9-2.1-2.1v-50.3c0-1.2,0.9-2.1,2.1-2.1h16.8c1.2,0,2.1,0.9,2.1,2.1v31.4h12.6
				v-46.1h-46.1v79.7h65c1.2,0,2.1,0.9,2.1,2.1v83.9c0,1.2-0.9,2.1-2.1,2.1h-65v48.2c0,1.1-0.9,2.1-2.1,2.1c-1.2,0-2.1-0.9-2.1-2.1
				v-50.3c0-1.1,0.9-2.1,2.1-2.1h65v-79.7h-65c-1.2,0-2.1-0.9-2.1-2.1v-83.9c0-1.2,0.9-2.1,2.1-2.1h50.3c1.1,0,2.1,0.9,2.1,2.1v50.3
				c0,1.1-0.9,2.1-2.1,2.1h-16.8c-1.2,0-2.1-0.9-2.1-2.1v-31.5h-12.6v46.1h165.6c1.2,0,2.1,0.9,2.1,2.1v16.8c0,1.1-0.9,2.1-2.1,2.1
				h-65v31.4c0,1.2-0.9,2.1-2.1,2.1h-16.8c-1.1,0-2.1-0.9-2.1-2.1v-31.4h-12.6V889h79.7v-12.6h-65c-1.1,0-2.1-0.9-2.1-2.1v-16.8
				c0-1.2,0.9-2.1,2.1-2.1h31.5V824c0-1.1,0.9-2.1,2.1-2.1h65v-46.1h-65c-1.2,0-2.1-0.9-2.1-2.1V656.2c0-1.2,0.9-2.1,2.1-2.1H1373
				V488.5c0-1.1,0.9-2.1,2.1-2.1h16.8c1.2,0,2.1,0.9,2.1,2.1v65h12.6v-79.7h-46.1v165.6c0,1.2-0.9,2.1-2.1,2.1h-83.9
				c-1.2,0-2.1-0.9-2.1-2.1v-83.9c0-1.2,0.9-2.1,2.1-2.1h50.3c1.2,0,2.1,0.9,2.1,2.1v50.3c0,1.2-0.9,2.1-2.1,2.1H1308
				c-1.2,0-2.1-0.9-2.1-2.1v-31.4h-12.6v46.1h46.1V455c0-1.2,0.9-2.1,2.1-2.1h65v-79.7H1394v65c0,1.1-0.9,2.1-2.1,2.1h-184.5
				c-1.2,0-2.1-0.9-2.1-2.1v-16.8c0-1.1,0.9-2.1,2.1-2.1H1373v-65c0-1.2,0.9-2.1,2.1-2.1h31.4v-46.1h-31.4c-1.2,0-2.1-0.9-2.1-2.1
				v-65h-12.6v79.7h31.5c1.2,0,2.1,0.9,2.1,2.1v16.8c0,1.2-0.9,2.1-2.1,2.1h-31.5v65c0,1.1-0.9,2.1-2.1,2.1h-165.6v31.5
				c0,1.1-0.9,2.1-2.1,2.1h-65v113.2h31.5c1.1,0,2.1,0.9,2.1,2.1v16.8c0,1.2-0.9,2.1-2.1,2.1h-50.3c-1.2,0-2.1-0.9-2.1-2.1v-31.5
				h-12.6V587h79.7v-98.6c0-1.1,0.9-2.1,2.1-2.1h117.4c1.2,0,2.1,0.9,2.1,2.1v16.8c0,1.1-0.9,2.1-2.1,2.1h-98.5V520h31.5
				c1.2,0,2.1,0.9,2.1,2.1v16.8c0,1.2-0.9,2.1-2.1,2.1h-31.5v65c0,1.2-0.9,2.1-2.1,2.1h-117.4c-1.2,0-2.1-0.9-2.1-2.1v-65h-31.5
				c-1.2,0-2.1-0.9-2.1-2.1v-31.4h-31.5c-1.2,0-2.1-0.9-2.1-2.1v-16.8c0-1.1,0.9-2.1,2.1-2.1h50.3c1.2,0,2.1,0.9,2.1,2.1V520h46.1
				v-98.6c0-1.1,0.9-2.1,2.1-2.1h65v-31.4c0-1.1,0.9-2.1,2.1-2.1h65v-46.1h-79.7v12.6h65c1.2,0,2.1,0.9,2.1,2.1v16.8
				c0,1.1-0.9,2.1-2.1,2.1h-151c-1.2,0-2.1-0.9-2.1-2.1v-65h-65c-1.2,0-2.1-0.9-2.1-2.1v-50.3c0-1.2,0.9-2.1,2.1-2.1h50.3
				c1.2,0,2.1,0.9,2.1,2.1v16.8c0,1.2-0.9,2.1-2.1,2.1H1025v12.6h65c1.1,0,2.1,0.9,2.1,2.1v65h46.1v-79.7h-12.6v65
				c0,1.2-0.9,2.1-2.1,2.1h-16.8c-1.2,0-2.1-0.9-2.1-2.1v-65h-31.4c-1.2,0-2.1-0.9-2.1-2.1v-16.8c0-1.2,0.9-2.1,2.1-2.1h83.9
				c1.1,0,2.1,0.9,2.1,2.1v65h79.7v-46.1h-46.1v12.6h31.5c1.2,0,2.1,0.9,2.1,2.1V304c0,1.1-0.9,2.1-2.1,2.1h-50.3
				c-1.1,0-2.1-0.9-2.1-2.1v-50.3c0-1.2,0.9-2.1,2.1-2.1h83.9c1.2,0,2.1,0.9,2.1,2.1v132.1h79.7V153c0-1.2,0.9-2.1,2.1-2.1h83.9
				c1.2,0,2.1,0.9,2.1,2.1v16.8c0,1.1-0.9,2.1-2.1,2.1h-65V218h31.5c1.2,0,2.1,0.9,2.1,2.1v65h31.4c1.2,0,2.1,0.9,2.1,2.1v65h98.5
				c1.2,0,2.1,0.9,2.1,2.1V520h79.7v-12.6h-65c-1.2,0-2.1-0.9-2.1-2.1V306.1h-12.6v31.4c0,1.2-0.9,2.1-2.1,2.1h-83.9
				c-1.2,0-2.1-0.9-2.1-2.1v-65h-31.5c-1.1,0-2.1-0.9-2.1-2.1v-65h-31.4c-1.2,0-2.1-0.9-2.1-2.1v-16.8c0-1.1,0.9-2.1,2.1-2.1h65
				V85.9c0-1.2,0.9-2.1,2.1-2.1h98.5V52.4c0-1.2,0.9-2.1,2.1-2.1h16.8c1.2,0,2.1,0.9,2.1,2.1v50.3c0,1.2-0.9,2.1-2.1,2.1h-98.5v79.7
				h79.7v-46.1h-46.1v12.6h31.4c1.2,0,2.1,0.9,2.1,2.1v16.8c0,1.1-0.9,2.1-2.1,2.1h-50.3c-1.2,0-2.1-0.9-2.1-2.1v-50.3
				c0-1.1,0.9-2.1,2.1-2.1h83.9c1.2,0,2.1,0.9,2.1,2.1v83.9c0,1.2-0.9,2.1-2.1,2.1h-132.1v46.1h12.6v-31.4c0-1.2,0.9-2.1,2.1-2.1
				h16.8c1.2,0,2.1,0.9,2.1,2.1v98.6h46.1v-31.5c0-1.1,0.9-2.1,2.1-2.1h50.3c1.2,0,2.1,0.9,2.1,2.1v199.2h46.2v-79.7h-12.6v65
				c0,1.2-0.9,2.1-2.1,2.1h-16.8c-1.2,0-2.1-0.9-2.1-2.1V287.2c0-1.1,0.9-2.1,2.1-2.1h83.9C1661.4,285.1,1662.4,286.1,1662.4,287.2z
				"/>
		</g>
		<g>
			<path class="st0" d="M1796.5,756.9v16.8c0,1.1-0.9,2.1-2.1,2.1h-165.6v46.1H1742v-12.6h-98.5c-1.2,0-2.1-0.9-2.1-2.1v-16.8
				c0-1.2,0.9-2.1,2.1-2.1h151c1.2,0,2.1,0.9,2.1,2.1v16.8c0,1.1-0.9,2.1-2.1,2.1H1763l0,31.4c0,1.2-0.9,2.1-2.1,2.1h-165.6v31.5
				c0,1.2-0.9,2.1-2.1,2.1h-165.6v65c0,1.1-0.9,2.1-2.1,2.1s-2.1-0.9-2.1-2.1v-67.1c0-1.2,0.9-2.1,2.1-2.1h165.6v-31.5
				c0-1.2,0.9-2.1,2.1-2.1h165.6l0-31.4c0-1.2,0.9-2.1,2.1-2.1h31.4v-12.6h-146.8v12.6h98.5c1.2,0,2.1,0.9,2.1,2.1V824
				c0,1.2-0.9,2.1-2.1,2.1h-117.4c-1.2,0-2.1-0.9-2.1-2.1v-50.3c0-1.2,0.9-2.1,2.1-2.1h165.6V759h-165.6c-1.2,0-2.1-0.9-2.1-2.1v-65
				h-12.6V824c0,1.2-0.9,2.1-2.1,2.1h-31.5v31.5c0,1.2-0.9,2.1-2.1,2.1h-165.6v81.8c0,1.1-0.9,2.1-2.1,2.1c-1.1,0-2.1-0.9-2.1-2.1
				v-83.9c0-1.2,0.9-2.1,2.1-2.1h165.6V824c0-1.1,0.9-2.1,2.1-2.1h31.5V689.8c0-1.1,0.9-2.1,2.1-2.1h16.8c1.1,0,2.1,0.9,2.1,2.1v65
				h165.6C1795.6,754.8,1796.5,755.7,1796.5,756.9z"/>
		</g>
		<g>
			<path class="st0" d="M1830.1,924.6v16.8c0,1.1-0.9,2.1-2.1,2.1c-1.2,0-2.1-0.9-2.1-2.1v-14.7h-165.6c-1.2,0-2.1-0.9-2.1-2.1
				l0-31.5h-213.9v46.1h113.2v-12.6H1459c-1.2,0-2.1-0.9-2.1-2.1v-16.8c0-1.2,0.9-2.1,2.1-2.1h117.4c1.1,0,2.1,0.9,2.1,2.1v33.5
				c0,1.1-0.9,2.1-2.1,2.1c-1.2,0-2.1-0.9-2.1-2.1v-31.5h-113.2v12.6h98.5c1.2,0,2.1,0.9,2.1,2.1v16.8c0,1.1-0.9,2.1-2.1,2.1h-117.4
				c-1.2,0-2.1-0.9-2.1-2.1v-50.3c0-1.1,0.9-2.1,2.1-2.1h218.1c1.2,0,2.1,0.9,2.1,2.1l0,31.5H1828
				C1829.1,922.5,1830.1,923.4,1830.1,924.6z"/>
		</g>
		<g>
			<path class="st0" d="M1813.3,941.4c0,1.1-0.9,2.1-2.1,2.1h-184.5c-1.2,0-2.1-0.9-2.1-2.1c0-1.2,0.9-2.1,2.1-2.1h184.5
				C1812.4,939.3,1813.3,940.2,1813.3,941.4z"/>
		</g>
		<g>
			<path class="st0" d="M1645.6,907.8v16.8c0,1.1-0.9,2.1-2.1,2.1h-31.4v14.7c0,1.1-0.9,2.1-2.1,2.1c-1.2,0-2.1-0.9-2.1-2.1v-16.8
				c0-1.2,0.9-2.1,2.1-2.1h31.4v-12.6h-46.1v31.5c0,1.1-0.9,2.1-2.1,2.1c-1.1,0-2.1-0.9-2.1-2.1v-33.5c0-1.2,0.9-2.1,2.1-2.1h50.3
				C1644.6,905.7,1645.6,906.7,1645.6,907.8z"/>
		</g>
		<g>
			<path class="st0" d="M1897.2,622.7v218.1c0,1.2-0.9,2.1-2.1,2.1h-31.4V889h31.4c1.2,0,2.1,0.9,2.1,2.1v16.8
				c0,1.2-0.9,2.1-2.1,2.1h-31.4v32.5c0,1.1-0.9,2.1-2.1,2.1c-1.2,0-2.1-0.9-2.1-2.1v-34.6c0-1.2,0.9-2.1,2.1-2.1h31.4v-12.6h-31.4
				c-1.2,0-2.1-0.9-2.1-2.1v-50.3c0-1.2,0.9-2.1,2.1-2.1h31.4V624.8h-12.6V824c0,1.2-0.9,2.1-2.1,2.1h-31.5v65
				c0,1.2-0.9,2.1-2.1,2.1h-165.6v12.6h165.6c1.2,0,2.1,0.9,2.1,2.1v34.6c0,1.1-0.9,2.1-2.1,2.1c-1.1,0-2.1-0.9-2.1-2.1v-32.5H1677
				c-1.2,0-2.1-0.9-2.1-2.1v-16.8c0-1.1,0.9-2.1,2.1-2.1h165.6v-65c0-1.1,0.9-2.1,2.1-2.1h31.5V622.7c0-1.1,0.9-2.1,2.1-2.1h16.8
				C1896.3,620.6,1897.2,621.5,1897.2,622.7z"/>
		</g>
		<g>
			<path class="st0" d="M1897.2,924.6c0,1.1-0.9,2.1-2.1,2.1h-14.7v12.6h14.7c1.2,0,2.1,0.9,2.1,2.1c0,1.1-0.9,2.1-2.1,2.1h-16.8
				c-1.1,0-2.1-0.9-2.1-2.1v-16.8c0-1.2,0.9-2.1,2.1-2.1h16.8C1896.3,922.5,1897.2,923.4,1897.2,924.6z"/>
		</g>
		<g>
			<path class="st0" d="M1897.2,857.5c0,1.2-0.9,2.1-2.1,2.1h-14.7v12.6h14.7c1.2,0,2.1,0.9,2.1,2.1c0,1.2-0.9,2.1-2.1,2.1h-16.8
				c-1.1,0-2.1-0.9-2.1-2.1v-16.8c0-1.2,0.9-2.1,2.1-2.1h16.8C1896.3,855.4,1897.2,856.4,1897.2,857.5z"/>
		</g>
		<g>
			<path class="st0" d="M1897.2,320.8c0,1.2-0.9,2.1-2.1,2.1h-148.9v12.6h132.1c1.2,0,2.1,0.9,2.1,2.1v151c0,1.2-0.9,2.1-2.1,2.1
				h-132.1v46.1h65c1.2,0,2.1,0.9,2.1,2.1l0,83.9c0,0.6-0.2,1.1-0.6,1.5c-0.4,0.4-0.9,0.6-1.5,0.6h-98.6v12.6h132.1
				c1.2,0,2.1,0.9,2.1,2.1v165.6h12.6V624.8H1828c-1.1,0-2.1-0.9-2.1-2.1v-16.8c0-1.2,0.9-2.1,2.1-2.1h67.1c1.2,0,2.1,0.9,2.1,2.1
				c0,1.2-0.9,2.1-2.1,2.1h-65v12.6h31.4c1.2,0,2.1,0.9,2.1,2.1v184.5c0,1.1-0.9,2.1-2.1,2.1h-16.8c-1.1,0-2.1-0.9-2.1-2.1V641.5
				h-132.1c-1.2,0-2.1-0.9-2.1-2.1v-16.8c0-1.1,0.9-2.1,2.1-2.1h98.6l0-79.7h-65c-1.2,0-2.1-0.9-2.1-2.1v-50.3
				c0-1.1,0.9-2.1,2.1-2.1h132.1V339.6h-132.1c-1.2,0-2.1-0.9-2.1-2.1v-16.8c0-1.1,0.9-2.1,2.1-2.1h151
				C1896.3,318.7,1897.2,319.6,1897.2,320.8z"/>
		</g>
		<g>
			<path class="st0" d="M1897.2,337.5v151c0,1.2-0.9,2.1-2.1,2.1c-1.1,0-2.1-0.9-2.1-2.1v-151c0-1.1,0.9-2.1,2.1-2.1
				C1896.3,335.4,1897.2,336.4,1897.2,337.5z"/>
		</g>
		<g>
			<path class="st0" d="M1897.2,505.3v67.1c0,1.2-0.9,2.1-2.1,2.1h-50.3c-1.1,0-2.1-0.9-2.1-2.1V522c0-1.2,0.9-2.1,2.1-2.1h16.8
				c1.2,0,2.1,0.9,2.1,2.1v31.4h12.6v-46.1H1763V520h65c1.2,0,2.1,0.9,2.1,2.1l0,65h65c1.2,0,2.1,0.9,2.1,2.1c0,1.2-0.9,2.1-2.1,2.1
				H1828c-1.1,0-2.1-0.9-2.1-2.1l0-65h-65c-1.1,0-2.1-0.9-2.1-2.1v-16.8c0-1.2,0.9-2.1,2.1-2.1h117.4c1.2,0,2.1,0.9,2.1,2.1v50.3
				c0,1.1-0.9,2.1-2.1,2.1h-16.8c-1.2,0-2.1-0.9-2.1-2.1v-31.5h-12.6v46.1h46.1v-65c0-1.2,0.9-2.1,2.1-2.1
				C1896.3,503.2,1897.2,504.1,1897.2,505.3z"/>
		</g>
		<g>
			<path class="st0" d="M1897.2,220.1c0,1.2-0.9,2.1-2.1,2.1h-33.5c-1.2,0-2.1-0.9-2.1-2.1v-98.5h-12.6v132.1c0,1.2-0.9,2.1-2.1,2.1
				h-83.8c-1.1,0-2.1-0.9-2.1-2.1l0-199.2h-65c-1.2,0-2.1-0.9-2.1-2.1V35.6c0-1.2,0.9-2.1,2.1-2.1h83.8c1.2,0,2.1,0.9,2.1,2.1v199.2
				h46.1v-12.6h-31.4c-1.2,0-2.1-0.9-2.1-2.1l0-199.2h-113.2v46.1h65c1.2,0,2.1,0.9,2.1,2.1l0,83.9c0,0.6-0.2,1.1-0.6,1.5
				c-0.4,0.4-0.9,0.6-1.5,0.6h-98.6v12.6h98.5c1.2,0,2.1,0.9,2.1,2.1v132.1H1893v-46.1h-12.6v31.5c0,1.1-0.9,2.1-2.1,2.1h-117.4
				c-1.1,0-2.1-0.9-2.1-2.1v-16.8c0-1.1,0.9-2.1,2.1-2.1h98.5v-31.4c0-1.2,0.9-2.1,2.1-2.1h33.5c1.2,0,2.1,0.9,2.1,2.1
				c0,1.1-0.9,2.1-2.1,2.1h-31.4v31.4c0,1.2-0.9,2.1-2.1,2.1H1763v12.6h113.2v-31.5c0-1.2,0.9-2.1,2.1-2.1h16.8
				c1.2,0,2.1,0.9,2.1,2.1V304c0,1.1-0.9,2.1-2.1,2.1h-151c-1.2,0-2.1-0.9-2.1-2.1V171.9h-98.5c-1.2,0-2.1-0.9-2.1-2.1V153
				c0-1.2,0.9-2.1,2.1-2.1h98.6l0-79.7h-65c-1.2,0-2.1-0.9-2.1-2.1V18.8c0-1.1,0.9-2.1,2.1-2.1h117.4c1.2,0,2.1,0.9,2.1,2.1l0,199.2
				h31.4c1.2,0,2.1,0.9,2.1,2.1v16.8c0,1.1-0.9,2.1-2.1,2.1h-50.3c-1.2,0-2.1-0.9-2.1-2.1V37.7h-79.7v12.6h65c1.2,0,2.1,0.9,2.1,2.1
				l0,199.2h79.7V119.5c0-1.1,0.9-2.1,2.1-2.1h16.8c1.2,0,2.1,0.9,2.1,2.1V218h31.4C1896.3,218,1897.2,219,1897.2,220.1z"/>
		</g>
		<g>
			<path class="st0" d="M1897.2,52.4c0,1.1-0.9,2.1-2.1,2.1h-14.7v12.6h14.7c1.2,0,2.1,0.9,2.1,2.1c0,1.2-0.9,2.1-2.1,2.1h-16.8
				c-1.1,0-2.1-0.9-2.1-2.1V52.4c0-1.2,0.9-2.1,2.1-2.1h16.8C1896.3,50.3,1897.2,51.2,1897.2,52.4z"/>
		</g>
		<g>
			<path class="st0" d="M1159.2,387.9v16.8c0,1.1-0.9,2.1-2.1,2.1h-65v98.6c0,1.1-0.9,2.1-2.1,2.1h-16.8c-1.2,0-2.1-0.9-2.1-2.1
				v-31.5h-65c-1.2,0-2.1-0.9-2.1-2.1V354.3c0-1.2,0.9-2.1,2.1-2.1h16.8c1.2,0,2.1,0.9,2.1,2.1v98.5h46.1v-46.1h-12.6v31.5
				c0,1.1-0.9,2.1-2.1,2.1h-16.8c-1.2,0-2.1-0.9-2.1-2.1v-98.5h-31.5c-1.2,0-2.1-0.9-2.1-2.1v-16.8c0-1.1,0.9-2.1,2.1-2.1h50.3
				c1.2,0,2.1,0.9,2.1,2.1v65h98.6C1158.2,385.8,1159.2,386.7,1159.2,387.9z M1155,402.5V390h-98.6c-1.2,0-2.1-0.9-2.1-2.1v-65
				h-46.1v12.6h31.4c1.2,0,2.1,0.9,2.1,2.1v98.6h12.6v-31.4c0-1.2,0.9-2.1,2.1-2.1h16.8c1.1,0,2.1,0.9,2.1,2.1V455
				c0,1.2-0.9,2.1-2.1,2.1h-50.3c-1.2,0-2.1-0.9-2.1-2.1v-98.5h-12.6v113.2h65c1.1,0,2.1,0.9,2.1,2.1v31.5h12.6v-98.5
				c0-1.2,0.9-2.1,2.1-2.1H1155z"/>
		</g>
		<g>
			<path class="st0" d="M1326.9,924.6v16.8c0,1.1-0.9,2.1-2.1,2.1c-1.1,0-2.1-0.9-2.1-2.1v-14.7h-31.4c-1.2,0-2.1-0.9-2.1-2.1v-31.5
				h-12.6v31.5c0,1.1-0.9,2.1-2.1,2.1h-132.1v14.7c0,1.1-0.9,2.1-2.1,2.1c-1.2,0-2.1-0.9-2.1-2.1v-16.8c0-1.2,0.9-2.1,2.1-2.1h132.1
				v-31.5c0-1.1,0.9-2.1,2.1-2.1h16.8c1.2,0,2.1,0.9,2.1,2.1v31.5h31.4C1326,922.5,1326.9,923.4,1326.9,924.6z"/>
		</g>
		<g>
			<path class="st0" d="M1310.1,941.4c0,1.1-0.9,2.1-2.1,2.1h-50.3c-1.2,0-2.1-0.9-2.1-2.1c0-1.2,0.9-2.1,2.1-2.1h50.3
				C1309.2,939.3,1310.1,940.2,1310.1,941.4z"/>
		</g>
		<g>
			<path class="st0" d="M1243,941.4c0,1.1-0.9,2.1-2.1,2.1h-83.9c-1.2,0-2.1-0.9-2.1-2.1c0-1.2,0.9-2.1,2.1-2.1h83.9
				C1242.1,939.3,1243,940.2,1243,941.4z"/>
		</g>
		<g>
			<path class="st0" d="M1394,756.9v50.3c0,1.1-0.9,2.1-2.1,2.1h-65v46.1h31.5c1.2,0,2.1,0.9,2.1,2.1v16.8c0,1.2-0.9,2.1-2.1,2.1
				h-83.9c-1.2,0-2.1-0.9-2.1-2.1v-16.8c0-1.2,0.9-2.1,2.1-2.1h31.4v-65c0-1.2,0.9-2.1,2.1-2.1h65v-12.6h-31.4
				c-1.2,0-2.1-0.9-2.1-2.1v-16.8c0-1.2,0.9-2.1,2.1-2.1h50.3C1393.1,754.8,1394,755.7,1394,756.9z M1389.8,805.1V759h-46.1v12.6
				h31.4c1.2,0,2.1,0.9,2.1,2.1v16.8c0,1.1-0.9,2.1-2.1,2.1h-65v65c0,1.2-0.9,2.1-2.1,2.1h-31.5v12.6h79.7v-12.6h-31.5
				c-1.1,0-2.1-0.9-2.1-2.1v-50.3c0-1.2,0.9-2.1,2.1-2.1H1389.8z"/>
		</g>
	</g>
	<g>
		<g>
			<path class="st0" d="M1025,941.4c0,1.1-0.9,2.1-2.1,2.1h-16.8c-1.2,0-2.1-0.9-2.1-2.1c0-1.2,0.9-2.1,2.1-2.1h16.8
				C1024,939.3,1025,940.2,1025,941.4z"/>
		</g>
		<g>
			<path class="st0" d="M1041.8,941.4v16.8c0,1.2-0.9,2.1-2.1,2.1c-1.2,0-2.1-0.9-2.1-2.1v-16.8c0-1.2,0.9-2.1,2.1-2.1
				C1040.8,939.3,1041.8,940.2,1041.8,941.4z"/>
		</g>
		<g>
			<path class="st0" d="M1058.5,941.4v16.8c0,1.2-0.9,2.1-2.1,2.1s-2.1-0.9-2.1-2.1v-16.8c0-1.2,0.9-2.1,2.1-2.1
				S1058.5,940.2,1058.5,941.4z"/>
		</g>
		<g>
			<path class="st0" d="M1075.3,941.4v16.8c0,1.2-0.9,2.1-2.1,2.1c-1.2,0-2.1-0.9-2.1-2.1v-16.8c0-1.2,0.9-2.1,2.1-2.1
				C1074.4,939.3,1075.3,940.2,1075.3,941.4z"/>
		</g>
		<g>
			<path class="st0" d="M1092.1,941.4v16.8c0,1.2-0.9,2.1-2.1,2.1c-1.2,0-2.1-0.9-2.1-2.1v-16.8c0-1.2,0.9-2.1,2.1-2.1
				C1091.1,939.3,1092.1,940.2,1092.1,941.4z"/>
		</g>
		<g>
			<path class="st0" d="M1142.4,941.4v16.8c0,1.2-0.9,2.1-2.1,2.1c-1.2,0-2.1-0.9-2.1-2.1v-16.8c0-1.2,0.9-2.1,2.1-2.1
				C1141.4,939.3,1142.4,940.2,1142.4,941.4z"/>
		</g>
		<g>
			<path class="st0" d="M1159.2,941.4v16.8c0,1.2-0.9,2.1-2.1,2.1c-1.2,0-2.1-0.9-2.1-2.1v-16.8c0-1.2,0.9-2.1,2.1-2.1
				C1158.2,939.3,1159.2,940.2,1159.2,941.4z"/>
		</g>
		<g>
			<path class="st0" d="M1259.8,941.4v16.8c0,1.2-0.9,2.1-2.1,2.1c-1.1,0-2.1-0.9-2.1-2.1v-16.8c0-1.2,0.9-2.1,2.1-2.1
				C1258.9,939.3,1259.8,940.2,1259.8,941.4z"/>
		</g>
		<g>
			<path class="st0" d="M1243,941.4v16.8c0,1.2-0.9,2.1-2.1,2.1c-1.1,0-2.1-0.9-2.1-2.1v-16.8c0-1.2,0.9-2.1,2.1-2.1
				C1242.1,939.3,1243,940.2,1243,941.4z"/>
		</g>
		<g>
			<path class="st0" d="M1310.1,941.4v16.8c0,1.2-0.9,2.1-2.1,2.1c-1.2,0-2.1-0.9-2.1-2.1v-16.8c0-1.2,0.9-2.1,2.1-2.1
				C1309.2,939.3,1310.1,940.2,1310.1,941.4z"/>
		</g>
		<g>
			<path class="st0" d="M1326.9,941.4v16.8c0,1.2-0.9,2.1-2.1,2.1c-1.1,0-2.1-0.9-2.1-2.1v-16.8c0-1.2,0.9-2.1,2.1-2.1
				C1326,939.3,1326.9,940.2,1326.9,941.4z"/>
		</g>
		<g>
			<path class="st0" d="M1343.7,941.4v16.8c0,1.2-0.9,2.1-2.1,2.1c-1.2,0-2.1-0.9-2.1-2.1v-16.8c0-1.2,0.9-2.1,2.1-2.1
				C1342.7,939.3,1343.7,940.2,1343.7,941.4z"/>
		</g>
		<g>
			<path class="st0" d="M1360.4,941.4v16.8c0,1.2-0.9,2.1-2.1,2.1s-2.1-0.9-2.1-2.1v-16.8c0-1.2,0.9-2.1,2.1-2.1
				S1360.4,940.2,1360.4,941.4z"/>
		</g>
		<g>
			<path class="st0" d="M1410.8,941.4v16.8c0,1.2-0.9,2.1-2.1,2.1c-1.1,0-2.1-0.9-2.1-2.1v-16.8c0-1.2,0.9-2.1,2.1-2.1
				C1409.8,939.3,1410.8,940.2,1410.8,941.4z"/>
		</g>
		<g>
			<path class="st0" d="M1427.5,941.4v16.8c0,1.2-0.9,2.1-2.1,2.1s-2.1-0.9-2.1-2.1v-16.8c0-1.2,0.9-2.1,2.1-2.1
				S1427.5,940.2,1427.5,941.4z"/>
		</g>
		<g>
			<path class="st0" d="M1578.5,941.4v16.8c0,1.2-0.9,2.1-2.1,2.1c-1.2,0-2.1-0.9-2.1-2.1v-16.8c0-1.2,0.9-2.1,2.1-2.1
				C1577.6,939.3,1578.5,940.2,1578.5,941.4z"/>
		</g>
		<g>
			<path class="st0" d="M1595.3,941.4v16.8c0,1.2-0.9,2.1-2.1,2.1c-1.1,0-2.1-0.9-2.1-2.1v-16.8c0-1.2,0.9-2.1,2.1-2.1
				C1594.3,939.3,1595.3,940.2,1595.3,941.4z"/>
		</g>
		<g>
			<path class="st0" d="M1612.1,941.4v16.8c0,1.2-0.9,2.1-2.1,2.1c-1.2,0-2.1-0.9-2.1-2.1v-16.8c0-1.2,0.9-2.1,2.1-2.1
				C1611.1,939.3,1612.1,940.2,1612.1,941.4z"/>
		</g>
		<g>
			<path class="st0" d="M1628.8,941.4v16.8c0,1.2-0.9,2.1-2.1,2.1c-1.2,0-2.1-0.9-2.1-2.1v-16.8c0-1.2,0.9-2.1,2.1-2.1
				C1627.9,939.3,1628.8,940.2,1628.8,941.4z"/>
		</g>
		<g>
			<path class="st0" d="M1813.3,941.4v16.8c0,1.2-0.9,2.1-2.1,2.1s-2.1-0.9-2.1-2.1v-16.8c0-1.2,0.9-2.1,2.1-2.1
				S1813.3,940.2,1813.3,941.4z"/>
		</g>
		<g>
			<path class="st0" d="M1830.1,941.4v16.8c0,1.2-0.9,2.1-2.1,2.1c-1.1,0-2.1-0.9-2.1-2.1v-16.8c0-1.2,0.9-2.1,2.1-2.1
				C1829.2,939.3,1830.1,940.2,1830.1,941.4z"/>
		</g>
		<g>
			<path class="st0" d="M1846.9,942.4v15.7c0,1.2-0.9,2.1-2.1,2.1c-1.1,0-2.1-0.9-2.1-2.1v-15.7c0-1.2,0.9-2.1,2.1-2.1
				C1845.9,940.3,1846.9,941.3,1846.9,942.4z"/>
		</g>
		<g>
			<path class="st0" d="M1863.6,942.4v15.7c0,1.2-0.9,2.1-2.1,2.1c-1.2,0-2.1-0.9-2.1-2.1v-15.7c0-1.2,0.9-2.1,2.1-2.1
				C1862.7,940.3,1863.6,941.3,1863.6,942.4z"/>
		</g>
		<g>
			<path class="st0" d="M1914,941.4c0,1.1-0.9,2.1-2.1,2.1h-16.8c-1.1,0-2.1-0.9-2.1-2.1c0-1.2,0.9-2.1,2.1-2.1h16.8
				C1913,939.3,1914,940.2,1914,941.4z"/>
		</g>
		<g>
			<path class="st0" d="M1914,924.6c0,1.1-0.9,2.1-2.1,2.1h-16.8c-1.1,0-2.1-0.9-2.1-2.1c0-1.2,0.9-2.1,2.1-2.1h16.8
				C1913,922.5,1914,923.4,1914,924.6z"/>
		</g>
		<g>
			<path class="st0" d="M1914,874.3c0,1.2-0.9,2.1-2.1,2.1h-16.8c-1.1,0-2.1-0.9-2.1-2.1c0-1.2,0.9-2.1,2.1-2.1h16.8
				C1913,872.2,1914,873.1,1914,874.3z"/>
		</g>
		<g>
			<path class="st0" d="M1914,857.5c0,1.2-0.9,2.1-2.1,2.1h-16.8c-1.1,0-2.1-0.9-2.1-2.1s0.9-2.1,2.1-2.1h16.8
				C1913,855.4,1914,856.4,1914,857.5z"/>
		</g>
		<g>
			<path class="st0" d="M1914,605.9c0,1.2-0.9,2.1-2.1,2.1h-16.8c-1.1,0-2.1-0.9-2.1-2.1c0-1.2,0.9-2.1,2.1-2.1h16.8
				C1913,603.8,1914,604.8,1914,605.9z"/>
		</g>
		<g>
			<path class="st0" d="M1914,589.1c0,1.2-0.9,2.1-2.1,2.1h-16.8c-1.1,0-2.1-0.9-2.1-2.1c0-1.1,0.9-2.1,2.1-2.1h16.8
				C1913,587,1914,588,1914,589.1z"/>
		</g>
		<g>
			<path class="st0" d="M1913.9,505.3c0,1.1-0.9,2.1-2.1,2.1h-16.8c-1.1,0-2.1-0.9-2.1-2.1c0-1.2,0.9-2.1,2.1-2.1h16.8
				C1913,503.2,1913.9,504.1,1913.9,505.3z"/>
		</g>
		<g>
			<path class="st0" d="M1914,488.5c0,1.2-0.9,2.1-2.1,2.1h-16.8c-1.1,0-2.1-0.9-2.1-2.1c0-1.1,0.9-2.1,2.1-2.1h16.8
				C1913,486.4,1914,487.3,1914,488.5z"/>
		</g>
		<g>
			<path class="st0" d="M1913.9,337.5c0,1.2-0.9,2.1-2.1,2.1h-16.8c-1.1,0-2.1-0.9-2.1-2.1c0-1.1,0.9-2.1,2.1-2.1h16.8
				C1913,335.4,1913.9,336.4,1913.9,337.5z"/>
		</g>
		<g>
			<path class="st0" d="M1913.9,320.8c0,1.2-0.9,2.1-2.1,2.1h-16.8c-1.1,0-2.1-0.9-2.1-2.1c0-1.1,0.9-2.1,2.1-2.1h16.8
				C1913,318.7,1913.9,319.6,1913.9,320.8z"/>
		</g>
		<g>
			<path class="st0" d="M1914,236.9c0,1.1-0.9,2.1-2.1,2.1h-16.8c-1.1,0-2.1-0.9-2.1-2.1c0-1.2,0.9-2.1,2.1-2.1h16.8
				C1913,234.8,1914,235.7,1914,236.9z"/>
		</g>
		<g>
			<path class="st0" d="M1914,220.1c0,1.2-0.9,2.1-2.1,2.1h-16.8c-1.1,0-2.1-0.9-2.1-2.1c0-1.2,0.9-2.1,2.1-2.1h16.8
				C1913,218,1914,219,1914,220.1z"/>
		</g>
		<g>
			<path class="st0" d="M1914,69.2c0,1.2-0.9,2.1-2.1,2.1h-16.8c-1.1,0-2.1-0.9-2.1-2.1c0-1.1,0.9-2.1,2.1-2.1h16.8
				C1913,67.1,1914,68,1914,69.2z"/>
		</g>
		<g>
			<path class="st0" d="M1914,52.4c0,1.1-0.9,2.1-2.1,2.1h-16.8c-1.1,0-2.1-0.9-2.1-2.1c0-1.2,0.9-2.1,2.1-2.1h16.8
				C1913,50.3,1914,51.2,1914,52.4z"/>
		</g>
		<g>
			<path class="st0" d="M1914,35.6c0,1.2-0.9,2.1-2.1,2.1h-16.8c-1.1,0-2.1-0.9-2.1-2.1c0-1.2,0.9-2.1,2.1-2.1h16.8
				C1913,33.5,1914,34.5,1914,35.6z"/>
		</g>
		<g>
			<path class="st0" d="M1914,18.8c0,1.1-0.9,2.1-2.1,2.1h-16.8c-1.1,0-2.1-0.9-2.1-2.1c0-1.1,0.9-2.1,2.1-2.1h16.8
				C1913,16.8,1914,17.7,1914,18.8z"/>
		</g>
		<path class="st0" d="M1138.2,455v83.9c0,1.2,0.9,2.1,2.1,2.1h16.8c1.1,0,2.1-0.9,2.1-2.1v-65h146.8V520h-65
			c-1.1,0-2.1,0.9-2.1,2.1v31.4h-31.5c-1.2,0-2.1,0.9-2.1,2.1v65h-132.1c-1.2,0-2.1,0.9-2.1,2.1V673c0,1.2,0.9,2.1,2.1,2.1h50.3
			c1.1,0,2.1-0.9,2.1-2.1v-16.8c0-1.2-0.9-2.1-2.1-2.1h-31.5v-12.6h79.7v12.6h-31.5c-1.2,0-2.1,0.9-2.1,2.1V673
			c0,1.2,0.9,2.1,2.1,2.1h31.5v79.7h-12.6v-65c0-1.1-0.9-2.1-2.1-2.1h-98.6v-98.5c0-1.1-0.9-2.1-2.1-2.1h-83.9
			c-1.2,0-2.1,0.9-2.1,2.1c0,1.2,0.9,2.1,2.1,2.1h81.8v98.5c0,1.2,0.9,2.1,2.1,2.1h98.6v65c0,1.1,0.9,2.1,2.1,2.1h16.8
			c1.2,0,2.1-0.9,2.1-2.1V673c0-1.2-0.9-2.1-2.1-2.1h-31.4v-12.6h31.4c1.2,0,2.1-0.9,2.1-2.1v-16.8c0-1.2-0.9-2.1-2.1-2.1H1090
			c-1.2,0-2.1,0.9-2.1,2.1v16.8c0,1.1,0.9,2.1,2.1,2.1h31.5v12.6h-46.1v-46.1h132.1c1.1,0,2.1-0.9,2.1-2.1v-65h31.4
			c1.2,0,2.1-0.9,2.1-2.1v-31.5h65c1.2,0,2.1-0.9,2.1-2.1v-50.3c0-1.1-0.9-2.1-2.1-2.1h-151c-1.2,0-2.1,0.9-2.1,2.1v65h-12.6V457
			h180.3v79.7h-65c-1.1,0-2.1,0.9-2.1,2.1v31.5h-31.4c-1.1,0-2.1,0.9-2.1,2.1v50.3c0,1.2,0.9,2.1,2.1,2.1h16.8
			c1.2,0,2.1-0.9,2.1-2.1v-31.4h12.6v46.1h-65c-1.1,0-2.1,0.9-2.1,2.1v132.1h-46.1v-65c0-1.2-0.9-2.1-2.1-2.1H974.7v-12.6h65
			c1.2,0,2.1-0.9,2.1-2.1v-83.9c0-1.2-0.9-2.1-2.1-2.1h-50.3c-1.2,0-2.1,0.9-2.1,2.1v50.3c0,1.1,0.9,2.1,2.1,2.1h16.8
			c1.2,0,2.1-0.9,2.1-2.1v-31.5h12.6v46.1h-46.1v-65c0-1.2-0.9-2.1-2.1-2.1c-1.2,0-2.1,0.9-2.1,2.1V673c0,1.2,0.9,2.1,2.1,2.1h50.3
			c1.2,0,2.1-0.9,2.1-2.1v-50.3c0-1.1-0.9-2.1-2.1-2.1h-16.8c-1.2,0-2.1,0.9-2.1,2.1v31.5h-12.6V608h46.1v79.7h-65
			c-1.2,0-2.1,0.9-2.1,2.1v16.8c0,1.2,0.9,2.1,2.1,2.1h165.6v65c0,1.1,0.9,2.1,2.1,2.1h50.3c1.2,0,2.1-0.9,2.1-2.1V641.5h65
			c1.2,0,2.1-0.9,2.1-2.1v-50.3c0-1.1-0.9-2.1-2.1-2.1h-16.8c-1.1,0-2.1,0.9-2.1,2.1v31.5h-12.6v-46.1h31.4c1.2,0,2.1-0.9,2.1-2.1
			v-31.5h65c1.2,0,2.1-0.9,2.1-2.1V455c0-1.2-0.9-2.1-2.1-2.1h-184.5C1139.1,452.9,1138.2,453.8,1138.2,455z"/>
		<path class="st0" d="M970.5,522v16.8c0,1.2,0.9,2.1,2.1,2.1h31.5v12.6h-31.5c-1.2,0-2.1,0.9-2.1,2.1v16.8c0,1.2,0.9,2.1,2.1,2.1
			h83.9c1.2,0,2.1-0.9,2.1-2.1v-16.8c0-1.2-0.9-2.1-2.1-2.1H1025V522c0-1.2-0.9-2.1-2.1-2.1h-50.3C971.4,520,970.5,520.9,970.5,522z
			 M1020.8,524.1v31.5c0,1.1,0.9,2.1,2.1,2.1h31.4v12.6h-79.7v-12.6h31.4c1.2,0,2.1-0.9,2.1-2.1v-16.8c0-1.1-0.9-2.1-2.1-2.1h-31.4
			v-12.6H1020.8z"/>
		<g>
			<path class="st0" d="M1041.8,2.1v16.8c0,1.1-0.9,2.1-2.1,2.1c-1.2,0-2.1-0.9-2.1-2.1V2.1c0-1.2,0.9-2.1,2.1-2.1
				C1040.8,0,1041.8,0.9,1041.8,2.1z"/>
		</g>
		<g>
			<path class="st0" d="M1058.5,2.1v16.8c0,1.1-0.9,2.1-2.1,2.1s-2.1-0.9-2.1-2.1V2.1c0-1.2,0.9-2.1,2.1-2.1
				C1057.6,0,1058.5,0.9,1058.5,2.1z"/>
		</g>
		<g>
			<path class="st0" d="M1075.3,2.1v16.8c0,1.1-0.9,2.1-2.1,2.1c-1.2,0-2.1-0.9-2.1-2.1V2.1c0-1.2,0.9-2.1,2.1-2.1
				C1074.4,0,1075.3,0.9,1075.3,2.1z"/>
		</g>
		<g>
			<path class="st0" d="M1092.1,2.1v16.8c0,1.1-0.9,2.1-2.1,2.1c-1.2,0-2.1-0.9-2.1-2.1V2.1c0-1.2,0.9-2.1,2.1-2.1
				C1091.1,0,1092.1,0.9,1092.1,2.1z"/>
		</g>
		<g>
			<path class="st0" d="M1142.4,2.1v16.8c0,1.1-0.9,2.1-2.1,2.1c-1.2,0-2.1-0.9-2.1-2.1V2.1c0-1.2,0.9-2.1,2.1-2.1
				C1141.4,0,1142.4,0.9,1142.4,2.1z"/>
		</g>
		<g>
			<path class="st0" d="M1159.2,2.1v16.8c0,1.1-0.9,2.1-2.1,2.1c-1.2,0-2.1-0.9-2.1-2.1V2.1c0-1.2,0.9-2.1,2.1-2.1
				C1158.2,0,1159.2,0.9,1159.2,2.1z"/>
		</g>
		<g>
			<path class="st0" d="M1226.3,18.8c0,1.1-0.9,2.1-2.1,2.1h-16.8c-1.2,0-2.1-0.9-2.1-2.1c0-1.1,0.9-2.1,2.1-2.1h16.8
				C1225.3,16.8,1226.3,17.7,1226.3,18.8z"/>
		</g>
		<g>
			<path class="st0" d="M1243,2.1v16.8c0,1.1-0.9,2.1-2.1,2.1c-1.1,0-2.1-0.9-2.1-2.1V2.1c0-1.2,0.9-2.1,2.1-2.1
				C1242.1,0,1243,0.9,1243,2.1z"/>
		</g>
		<g>
			<path class="st0" d="M1259.8,2.1v16.8c0,1.1-0.9,2.1-2.1,2.1s-2.1-0.9-2.1-2.1V2.1c0-1.2,0.9-2.1,2.1-2.1
				C1258.9,0,1259.8,0.9,1259.8,2.1z"/>
		</g>
		<g>
			<path class="st0" d="M1310.1,2.1v16.8c0,1.1-0.9,2.1-2.1,2.1c-1.2,0-2.1-0.9-2.1-2.1V2.1c0-1.2,0.9-2.1,2.1-2.1
				C1309.2,0,1310.1,0.9,1310.1,2.1z"/>
		</g>
		<g>
			<path class="st0" d="M1326.9,2.1v16.8c0,1.1-0.9,2.1-2.1,2.1c-1.1,0-2.1-0.9-2.1-2.1V2.1c0-1.2,0.9-2.1,2.1-2.1
				C1326,0,1326.9,0.9,1326.9,2.1z"/>
		</g>
		<g>
			<path class="st0" d="M1343.7,2.1v16.8c0,1.1-0.9,2.1-2.1,2.1c-1.2,0-2.1-0.9-2.1-2.1V2.1c0-1.2,0.9-2.1,2.1-2.1
				C1342.7,0,1343.7,0.9,1343.7,2.1z"/>
		</g>
		<g>
			<path class="st0" d="M1360.4,2.1v16.8c0,1.1-0.9,2.1-2.1,2.1s-2.1-0.9-2.1-2.1V2.1c0-1.2,0.9-2.1,2.1-2.1S1360.4,0.9,1360.4,2.1z
				"/>
		</g>
		<g>
			<path class="st0" d="M1410.8,2.1v16.8c0,1.1-0.9,2.1-2.1,2.1c-1.1,0-2.1-0.9-2.1-2.1V2.1c0-1.2,0.9-2.1,2.1-2.1
				C1409.8,0,1410.8,0.9,1410.8,2.1z"/>
		</g>
		<g>
			<path class="st0" d="M1427.5,2.1v16.8c0,1.1-0.9,2.1-2.1,2.1s-2.1-0.9-2.1-2.1V2.1c0-1.2,0.9-2.1,2.1-2.1
				C1426.6,0,1427.5,0.9,1427.5,2.1z"/>
		</g>
		<g>
			<path class="st0" d="M1578.5,2.1v16.8c0,1.1-0.9,2.1-2.1,2.1c-1.2,0-2.1-0.9-2.1-2.1V2.1c0-1.2,0.9-2.1,2.1-2.1
				C1577.6,0,1578.5,0.9,1578.5,2.1z"/>
		</g>
		<g>
			<path class="st0" d="M1595.3,2.1v16.8c0,1.1-0.9,2.1-2.1,2.1c-1.1,0-2.1-0.9-2.1-2.1V2.1c0-1.2,0.9-2.1,2.1-2.1
				C1594.3,0,1595.3,0.9,1595.3,2.1z"/>
		</g>
		<g>
			<path class="st0" d="M1612.1,2.1v16.8c0,1.1-0.9,2.1-2.1,2.1c-1.2,0-2.1-0.9-2.1-2.1V2.1c0-1.2,0.9-2.1,2.1-2.1
				C1611.1,0,1612.1,0.9,1612.1,2.1z"/>
		</g>
		<g>
			<path class="st0" d="M1628.8,2.1v16.8c0,1.1-0.9,2.1-2.1,2.1c-1.2,0-2.1-0.9-2.1-2.1V2.1c0-1.2,0.9-2.1,2.1-2.1
				C1627.9,0,1628.8,0.9,1628.8,2.1z"/>
		</g>
		<g>
			<path class="st0" d="M1813.3,2.1v16.8c0,1.1-0.9,2.1-2.1,2.1s-2.1-0.9-2.1-2.1V2.1c0-1.2,0.9-2.1,2.1-2.1
				C1812.4,0,1813.3,0.9,1813.3,2.1z"/>
		</g>
		<g>
			<path class="st0" d="M1830.1,2.1v16.8c0,1.1-0.9,2.1-2.1,2.1c-1.2,0-2.1-0.9-2.1-2.1V2.1c0-1.2,0.9-2.1,2.1-2.1
				C1829.1,0,1830.1,0.9,1830.1,2.1z"/>
		</g>
		<g>
			<path class="st0" d="M1846.9,3.1v15.7c0,1.1-0.9,2.1-2.1,2.1c-1.1,0-2.1-0.9-2.1-2.1V3.1c0-1.2,0.9-2.1,2.1-2.1
				C1845.9,1,1846.9,2,1846.9,3.1z"/>
		</g>
		<g>
			<path class="st0" d="M1863.6,3.1v15.7c0,1.1-0.9,2.1-2.1,2.1c-1.2,0-2.1-0.9-2.1-2.1V3.1c0-1.2,0.9-2.1,2.1-2.1
				C1862.7,1,1863.6,2,1863.6,3.1z"/>
		</g>
	</g>
</g>
<g>
	<g>
		<g>
			<path class="st0" d="M949.5,35.6c0,1.2-0.9,2.1-2.1,2.1H916v31.4c0,1.2-0.9,2.1-2.1,2.1h-16.8c-1.1,0-2.1-0.9-2.1-2.1V18.8
				c0-1.1,0.9-2.1,2.1-2.1c1.2,0,2.1,0.9,2.1,2.1v48.2h12.6V35.6c0-1.2,0.9-2.1,2.1-2.1h33.5C948.5,33.5,949.5,34.5,949.5,35.6z"/>
		</g>
		<g>
			<path class="st0" d="M949.5,18.8c0,1.1-0.9,2.1-2.1,2.1h-33.5c-1.2,0-2.1-0.9-2.1-2.1c0-1.1,0.9-2.1,2.1-2.1h33.5
				C948.5,16.8,949.5,17.7,949.5,18.8z"/>
		</g>
		<g>
			<path class="st0" d="M949.5,85.9v117.4c0,1.2-0.9,2.1-2.1,2.1h-16.8c-1.1,0-2.1-0.9-2.1-2.1v-98.5h-46.1l0,98.5
				c0,1.2-0.9,2.1-2.1,2.1h-16.8c-1.2,0-2.1-0.9-2.1-2.1V18.8c0-1.1,0.9-2.1,2.1-2.1c1.1,0,2.1,0.9,2.1,2.1v182.4h12.6l0-98.6
				c0-1.2,0.9-2.1,2.1-2.1h50.3c1.2,0,2.1,0.9,2.1,2.1v98.6h12.6V88h-65c-1.2,0-2.1-0.9-2.1-2.1V18.8c0-1.1,0.9-2.1,2.1-2.1
				c1.2,0,2.1,0.9,2.1,2.1v65h65C948.5,83.9,949.5,84.8,949.5,85.9z"/>
		</g>
		<g>
			<path class="st0" d="M714.7,18.8v50.3c0,1.2-0.9,2.1-2.1,2.1h-50.3c-1.2,0-2.1-0.9-2.1-2.1V18.8c0-1.1,0.9-2.1,2.1-2.1
				c1.2,0,2.1,0.9,2.1,2.1v48.2h46.1V21l-12.6,0v31.4c0,1.1-0.9,2.1-2.1,2.1H679c-1.2,0-2.1-0.9-2.1-2.1V18.8c0-1.1,0.9-2.1,2.1-2.1
				c1.2,0,2.1,0.9,2.1,2.1v31.4h12.6V18.9c0-1.1,0.9-2.1,2.1-2.1l16.8-0.1c0.6,0,1.1,0.2,1.5,0.6C714.4,17.7,714.7,18.3,714.7,18.8z
				"/>
		</g>
		<g>
			<path class="st0" d="M479.8,18.8v16.8c0,1.2-0.9,2.1-2.1,2.1H461c-1.1,0-2.1-0.9-2.1-2.1V18.8c0-1.1,0.9-2.1,2.1-2.1
				c1.2,0,2.1,0.9,2.1,2.1v14.7h12.6V18.8c0-1.1,0.9-2.1,2.1-2.1C478.9,16.8,479.8,17.7,479.8,18.8z"/>
		</g>
		<g>
			<path class="st0" d="M379.2,18.8v50.3c0,1.2-0.9,2.1-2.1,2.1h-16.8c-1.1,0-2.1-0.9-2.1-2.1V37.7h-14.7c-1.2,0-2.1-0.9-2.1-2.1
				V18.8c0-1.1,0.9-2.1,2.1-2.1h16.8c1.2,0,2.1,0.9,2.1,2.1c0,1.1-0.9,2.1-2.1,2.1h-14.7v12.6h14.7c1.2,0,2.1,0.9,2.1,2.1v31.4H375
				V18.8c0-1.1,0.9-2.1,2.1-2.1C378.3,16.8,379.2,17.7,379.2,18.8z"/>
		</g>
		<g>
			<path class="st0" d="M328.9,18.8v16.8c0,1.2-0.9,2.1-2.1,2.1h-33.5c-1.1,0-2.1-0.9-2.1-2.1V18.8c0-1.1,0.9-2.1,2.1-2.1
				c1.2,0,2.1,0.9,2.1,2.1v14.7h29.4V20.9H310c-1.1,0-2.1-0.9-2.1-2.1c0-1.1,0.9-2.1,2.1-2.1h16.8C327.9,16.8,328.9,17.7,328.9,18.8
				z"/>
		</g>
		<g>
			<path class="st0" d="M463.1,69.2v50.3c0,1.2-0.9,2.1-2.1,2.1h-50.3c-1.2,0-2.1-0.9-2.1-2.1v-65H396v31.5c0,1.1-0.9,2.1-2.1,2.1
				h-50.3c-1.2,0-2.1-0.9-2.1-2.1V54.5h-65c-1.1,0-2.1-0.9-2.1-2.1V18.8c0-1.1,0.9-2.1,2.1-2.1c1.2,0,2.1,0.9,2.1,2.1v31.4h65
				c1.2,0,2.1,0.9,2.1,2.1v31.4h46.1V52.4c0-1.2,0.9-2.1,2.1-2.1h16.8c1.1,0,2.1,0.9,2.1,2.1v65h46.1V71.3h-12.6v31.4
				c0,1.2-0.9,2.1-2.1,2.1h-16.8c-1.2,0-2.1-0.9-2.1-2.1v-65h-31.4c-1.2,0-2.1-0.9-2.1-2.1V18.8c0-1.1,0.9-2.1,2.1-2.1
				c1.1,0,2.1,0.9,2.1,2.1v14.7h31.5c1.1,0,2.1,0.9,2.1,2.1v65h12.6V69.2c0-1.1,0.9-2.1,2.1-2.1H461C462.1,67.1,463.1,68,463.1,69.2
				z"/>
		</g>
		<g>
			<path class="st0" d="M630.8,18.8c0,1.1-0.9,2.1-2.1,2.1H496.6v12.6h65c1.1,0,2.1,0.9,2.1,2.1v16.8c0,1.1-0.9,2.1-2.1,2.1H444.2
				c-1.1,0-2.1-0.9-2.1-2.1V20.9h-31.5c-1.2,0-2.1-0.9-2.1-2.1c0-1.1,0.9-2.1,2.1-2.1h33.5c1.2,0,2.1,0.9,2.1,2.1v31.4h113.2V37.7
				h-65c-1.2,0-2.1-0.9-2.1-2.1V18.8c0-1.1,0.9-2.1,2.1-2.1h134.2C629.9,16.8,630.8,17.7,630.8,18.8z"/>
		</g>
		<g>
			<path class="st0" d="M211.5,18.8v16.8c0,1.2-0.9,2.1-2.1,2.1H159c-1.1,0-2.1-0.9-2.1-2.1V18.8c0-1.1,0.9-2.1,2.1-2.1h33.5
				c1.2,0,2.1,0.9,2.1,2.1c0,1.1-0.9,2.1-2.1,2.1h-31.4v12.6h46.1V18.8c0-1.1,0.9-2.1,2.1-2.1C210.5,16.8,211.5,17.7,211.5,18.8z"/>
		</g>
		<g>
			<path class="st0" d="M211.5,52.4v184.5c0,1.1-0.9,2.1-2.1,2.1h-16.8c-1.1,0-2.1-0.9-2.1-2.1V104.8h-65c-1.2,0-2.1-0.9-2.1-2.1
				V85.9c0-1.2,0.9-2.1,2.1-2.1h65V71.3h-79.7v46.1h65c1.2,0,2.1,0.9,2.1,2.1v117.4c0,1.1-0.9,2.1-2.1,2.1h-50.3
				c-1.2,0-2.1-0.9-2.1-2.1V153c0-1.2,0.9-2.1,2.1-2.1h16.8c1.1,0,2.1,0.9,2.1,2.1v65H157v-79.7h-46.1v98.5c0,1.1-0.9,2.1-2.1,2.1
				h-65v65c0,1.1-0.9,2.1-2.1,2.1H24.9c-1.1,0-2.1-0.9-2.1-2.1v-67.1c0-1.2,0.9-2.1,2.1-2.1c1.2,0,2.1,0.9,2.1,2.1v65h12.6v-65
				c0-1.2,0.9-2.1,2.1-2.1h65v-98.5c0-1.2,0.9-2.1,2.1-2.1H159c1.2,0,2.1,0.9,2.1,2.1v83.9c0,1.2-0.9,2.1-2.1,2.1h-16.8
				c-1.2,0-2.1-0.9-2.1-2.1v-65h-12.6v79.7h46.1V121.6h-65c-1.1,0-2.1-0.9-2.1-2.1V69.2c0-1.1,0.9-2.1,2.1-2.1h83.9
				c1.2,0,2.1,0.9,2.1,2.1v16.8c0,1.1-0.9,2.1-2.1,2.1h-65v12.6h65c1.2,0,2.1,0.9,2.1,2.1v132.1h12.6V54.5h-65
				c-1.2,0-2.1-0.9-2.1-2.1V18.8c0-1.1,0.9-2.1,2.1-2.1c1.1,0,2.1,0.9,2.1,2.1v31.4h65C210.5,50.3,211.5,51.2,211.5,52.4z"/>
		</g>
		<g>
			<path class="st0" d="M27,69.2v151c0,1.2-0.9,2.1-2.1,2.1c-1.1,0-2.1-0.9-2.1-2.1v-151c0-1.1,0.9-2.1,2.1-2.1
				C26,67.1,27,68,27,69.2z"/>
		</g>
		<g>
			<path class="st0" d="M127.6,18.8v33.6c0,1.1-0.9,2.1-2.1,2.1H94.1v165.6c0,1.2-0.9,2.1-2.1,2.1H41.6c-1.2,0-2.1-0.9-2.1-2.1V54.5
				H24.9c-1.1,0-2.1-0.9-2.1-2.1c0-1.2,0.9-2.1,2.1-2.1h16.8c1.2,0,2.1,0.9,2.1,2.1V218h46.1V52.4c0-1.2,0.9-2.1,2.1-2.1h31.5V18.8
				c0-1.1,0.9-2.1,2.1-2.1C126.7,16.8,127.6,17.7,127.6,18.8z"/>
		</g>
		<g>
			<path class="st0" d="M94.1,18.8c0,1.1-0.9,2.1-2.1,2.1H24.9c-1.1,0-2.1-0.9-2.1-2.1c0-1.1,0.9-2.1,2.1-2.1H92
				C93.1,16.8,94.1,17.7,94.1,18.8z"/>
		</g>
		<g>
			<path class="st0" d="M110.8,18.8v16.8c0,1.2-0.9,2.1-2.1,2.1H77.3v165.6c0,1.2-0.9,2.1-2.1,2.1H58.4c-1.2,0-2.1-0.9-2.1-2.1V37.7
				H24.9c-1.1,0-2.1-0.9-2.1-2.1c0-1.2,0.9-2.1,2.1-2.1h33.6c1.1,0,2.1,0.9,2.1,2.1v165.6h12.6V35.6c0-1.2,0.9-2.1,2.1-2.1h31.4
				V18.8c0-1.1,0.9-2.1,2.1-2.1C109.9,16.8,110.8,17.7,110.8,18.8z"/>
		</g>
		<g>
			<path class="st0" d="M43.7,320.8v16.8c0,1.2-0.9,2.1-2.1,2.1H24.9c-1.2,0-2.1-0.9-2.1-2.1c0-1.1,0.9-2.1,2.1-2.1h14.7v-12.6H24.9
				c-1.2,0-2.1-0.9-2.1-2.1c0-1.1,0.9-2.1,2.1-2.1h16.8C42.8,318.7,43.7,319.6,43.7,320.8z"/>
		</g>
		<g>
			<path class="st0" d="M43.7,354.3v151c0,1.1-0.9,2.1-2.1,2.1H24.9c-1.2,0-2.1-0.9-2.1-2.1c0-1.2,0.9-2.1,2.1-2.1h14.7V356.4H27
				v132.1c0,1.2-0.9,2.1-2.1,2.1c-1.1,0-2.1-0.9-2.1-2.1V354.3c0-1.2,0.9-2.1,2.1-2.1h16.8C42.8,352.2,43.7,353.2,43.7,354.3z"/>
		</g>
		<g>
			<path class="st0" d="M177.9,824v50.3c0,1.2-0.9,2.1-2.1,2.1h-151c-1.1,0-2.1-0.9-2.1-2.1c0-1.2,0.9-2.1,2.1-2.1h148.9v-46.1H94.1
				v12.6h65c1.2,0,2.1,0.9,2.1,2.1v16.8c0,1.2-0.9,2.1-2.1,2.1H75.2c-1.2,0-2.1-0.9-2.1-2.1v-50.3c0-1.2,0.9-2.1,2.1-2.1h31.4V759
				H60.5v12.6H92c1.2,0,2.1,0.9,2.1,2.1v16.8c0,1.1-0.9,2.1-2.1,2.1H41.6c-1.2,0-2.1-0.9-2.1-2.1v-50.3c0-1.2,0.9-2.1,2.1-2.1h65
				v-12.6H27v113.2h12.6v-31.4c0-1.2,0.9-2.1,2.1-2.1h16.8c1.1,0,2.1,0.9,2.1,2.1v50.3c0,1.2-0.9,2.1-2.1,2.1H24.9
				c-1.1,0-2.1-0.9-2.1-2.1s0.9-2.1,2.1-2.1h31.5v-46.1H43.7v31.4c0,1.2-0.9,2.1-2.1,2.1H24.9c-1.1,0-2.1-0.9-2.1-2.1V723.3
				c0-1.2,0.9-2.1,2.1-2.1h83.9c1.2,0,2.1,0.9,2.1,2.1v16.8c0,1.2-0.9,2.1-2.1,2.1h-65v46.1h46.1v-12.6H58.4c-1.2,0-2.1-0.9-2.1-2.1
				v-16.8c0-1.2,0.9-2.1,2.1-2.1h50.3c1.2,0,2.1,0.9,2.1,2.1v50.3c0,1.1-0.9,2.1-2.1,2.1H77.3v46.1H157v-12.6H92
				c-1.1,0-2.1-0.9-2.1-2.1V824c0-1.1,0.9-2.1,2.1-2.1h83.9C177,821.9,177.9,822.8,177.9,824z"/>
		</g>
		<g>
			<path class="st0" d="M60.5,907.8v33.5c0,1.1-0.9,2.1-2.1,2.1c-1.2,0-2.1-0.9-2.1-2.1v-31.5H43.7v31.5c0,1.1-0.9,2.1-2.1,2.1H24.9
				c-1.1,0-2.1-0.9-2.1-2.1c0-1.2,0.9-2.1,2.1-2.1h14.7v-31.5c0-1.2,0.9-2.1,2.1-2.1h16.8C59.6,905.7,60.5,906.7,60.5,907.8z"/>
		</g>
		<g>
			<path class="st0" d="M77.3,891.1v50.3c0,1.1-0.9,2.1-2.1,2.1c-1.2,0-2.1-0.9-2.1-2.1v-48.2H27v31.5c0,1.1-0.9,2.1-2.1,2.1
				c-1.1,0-2.1-0.9-2.1-2.1v-33.6c0-1.1,0.9-2.1,2.1-2.1h50.3C76.3,889,77.3,889.9,77.3,891.1z"/>
		</g>
		<g>
			<path class="st0" d="M110.8,891.1v50.3c0,1.1-0.9,2.1-2.1,2.1c-1.1,0-2.1-0.9-2.1-2.1v-48.2H94.1v48.2c0,1.1-0.9,2.1-2.1,2.1
				c-1.1,0-2.1-0.9-2.1-2.1v-50.3c0-1.1,0.9-2.1,2.1-2.1h16.8C109.9,889,110.8,889.9,110.8,891.1z"/>
		</g>
		<g>
			<path class="st0" d="M463.1,740.1V824c0,1.2-0.9,2.1-2.1,2.1h-65v12.6h31.5c1.1,0,2.1,0.9,2.1,2.1v83.9c0,1.1-0.9,2.1-2.1,2.1
				h-16.8c-1.2,0-2.1-0.9-2.1-2.1v-31.5h-46.1v12.6h31.5c1.1,0,2.1,0.9,2.1,2.1v33.5c0,1.1-0.9,2.1-2.1,2.1c-1.2,0-2.1-0.9-2.1-2.1
				v-31.5h-31.5c-1.1,0-2.1-0.9-2.1-2.1v-16.8c0-1.1,0.9-2.1,2.1-2.1h50.3c1.1,0,2.1,0.9,2.1,2.1v31.5h12.6v-79.7h-31.4
				c-1.2,0-2.1-0.9-2.1-2.1V824c0-1.1,0.9-2.1,2.1-2.1h65v-79.7h-98.5c-1.1,0-2.1-0.9-2.1-2.1v-16.8c0-1.2,0.9-2.1,2.1-2.1h65v-46.1
				H278.6v79.7h46.1v-46.1h-12.6v31.4c0,1.2-0.9,2.1-2.1,2.1h-16.8c-1.1,0-2.1-0.9-2.1-2.1v-50.3c0-1.1,0.9-2.1,2.1-2.1h117.4
				c1.1,0,2.1,0.9,2.1,2.1v16.8c0,1.2-0.9,2.1-2.1,2.1h-65v46.1h31.4c1.2,0,2.1,0.9,2.1,2.1v16.8c0,1.1-0.9,2.1-2.1,2.1h-31.4v65
				c0,1.2-0.9,2.1-2.1,2.1h-65v12.6H310c1.2,0,2.1,0.9,2.1,2.1v50.3c0,1.2-0.9,2.1-2.1,2.1H144.4v12.6h31.5c1.2,0,2.1,0.9,2.1,2.1
				v16.8c0,1.1-0.9,2.1-2.1,2.1h-33.5c-1.2,0-2.1-0.9-2.1-2.1c0-1.2,0.9-2.1,2.1-2.1h31.5v-12.6h-31.5c-1.2,0-2.1-0.9-2.1-2.1v-16.8
				c0-1.2,0.9-2.1,2.1-2.1h165.6v-46.1h-31.4c-1.1,0-2.1-0.9-2.1-2.1v-16.8c0-1.2,0.9-2.1,2.1-2.1h65v-65c0-1.2,0.9-2.1,2.1-2.1H375
				V759h-31.4c-1.2,0-2.1-0.9-2.1-2.1v-50.3c0-1.2,0.9-2.1,2.1-2.1h65v-12.6H295.3V738h12.6v-31.5c0-1.2,0.9-2.1,2.1-2.1h16.8
				c1.2,0,2.1,0.9,2.1,2.1v50.3c0,1.1-0.9,2.1-2.1,2.1h-50.3c-1.1,0-2.1-0.9-2.1-2.1V673c0-1.2,0.9-2.1,2.1-2.1h151
				c1.1,0,2.1,0.9,2.1,2.1v50.3c0,1.2-0.9,2.1-2.1,2.1h-65V738H461C462.1,738,463.1,738.9,463.1,740.1z"/>
		</g>
		<g>
			<path class="st0" d="M714.7,287.2v251.6c0,1.2-0.9,2.1-2.1,2.1h-16.8c-1.2,0-2.1-0.9-2.1-2.1V373.2h-31.4c-1.2,0-2.1-0.9-2.1-2.1
				v-50.3c0-1.1,0.9-2.1,2.1-2.1H679c1.2,0,2.1,0.9,2.1,2.1v31.5h12.6v-46.1h-46.1v79.7H679c1.2,0,2.1,0.9,2.1,2.1v151
				c0,1.2-0.9,2.1-2.1,2.1H561.6c-1.2,0-2.1-0.9-2.1-2.1V373.2h-79.7v199.2c0,1.2-0.9,2.1-2.1,2.1h-31.5v79.7h65
				c1.2,0,2.1,0.9,2.1,2.1v65h113.2v-65c0-1.2,0.9-2.1,2.1-2.1h16.8c1.2,0,2.1,0.9,2.1,2.1v83.9c0,1.2-0.9,2.1-2.1,2.1H513.4v46.1
				h65c1.1,0,2.1,0.9,2.1,2.1v16.8c0,1.1-0.9,2.1-2.1,2.1h-83.9c-1.2,0-2.1-0.9-2.1-2.1V675.1h-46.1v46.1h12.6v-31.5
				c0-1.1,0.9-2.1,2.1-2.1h16.8c1.1,0,2.1,0.9,2.1,2.1v132.1h113.2v-31.5c0-1.2,0.9-2.1,2.1-2.1h31.4v-12.6h-98.5
				c-1.2,0-2.1-0.9-2.1-2.1v-16.8c0-1.2,0.9-2.1,2.1-2.1h117.4c1.2,0,2.1,0.9,2.1,2.1v50.3c0,1.1-0.9,2.1-2.1,2.1H614v31.4
				c0,1.2-0.9,2.1-2.1,2.1H446.3v98.5c0,1.1-0.9,2.1-2.1,2.1h-33.5c-1.2,0-2.1-0.9-2.1-2.1c0-1.2,0.9-2.1,2.1-2.1h31.5v-98.6
				c0-1.2,0.9-2.1,2.1-2.1h165.6v-31.4c0-1.2,0.9-2.1,2.1-2.1h31.5V759H530.2v12.6h98.5c1.1,0,2.1,0.9,2.1,2.1v16.8
				c0,1.1-0.9,2.1-2.1,2.1h-31.5V824c0,1.2-0.9,2.1-2.1,2.1H477.7c-1.2,0-2.1-0.9-2.1-2.1V691.9h-12.6v31.5c0,1.2-0.9,2.1-2.1,2.1
				h-16.8c-1.1,0-2.1-0.9-2.1-2.1V673c0-1.2,0.9-2.1,2.1-2.1h50.3c1.1,0,2.1,0.9,2.1,2.1v132.1h79.7v-12.6h-65
				c-1.2,0-2.1-0.9-2.1-2.1v-50.3c0-1.2,0.9-2.1,2.1-2.1h132.1v-79.7h-12.6v65c0,1.2-0.9,2.1-2.1,2.1H511.3c-1.2,0-2.1-0.9-2.1-2.1
				v-65h-65c-1.1,0-2.1-0.9-2.1-2.1v-83.9c0-1.2,0.9-2.1,2.1-2.1h31.5V371.1c0-1.2,0.9-2.1,2.1-2.1h83.9c1.1,0,2.1,0.9,2.1,2.1
				v165.6h113.2V390h-31.5c-1.2,0-2.1-0.9-2.1-2.1V304c0-1.2,0.9-2.1,2.1-2.1h50.3c1.2,0,2.1,0.9,2.1,2.1v50.3
				c0,1.1-0.9,2.1-2.1,2.1H679c-1.2,0-2.1-0.9-2.1-2.1v-31.5h-12.6V369h31.4c1.2,0,2.1,0.9,2.1,2.1v165.6h12.6V289.3h-79.7v180.3
				h12.6v-65c0-1.2,0.9-2.1,2.1-2.1h16.8c1.2,0,2.1,0.9,2.1,2.1v83.9c0,1.2-0.9,2.1-2.1,2.1h-50.3c-1.2,0-2.1-0.9-2.1-2.1V289.3
				h-46.1v31.4c0,1.2-0.9,2.1-2.1,2.1h-50.3c-1.2,0-2.1-0.9-2.1-2.1v-98.5h-12.6v31.4c0,1.2-0.9,2.1-2.1,2.1h-16.8
				c-1.2,0-2.1-0.9-2.1-2.1v-50.3c0-1.1,0.9-2.1,2.1-2.1h132.1v-79.7h-79.7v46.1h46.1v-12.6h-31.5c-1.2,0-2.1-0.9-2.1-2.1v-16.8
				c0-1.2,0.9-2.1,2.1-2.1h50.3c1.1,0,2.1,0.9,2.1,2.1v50.3c0,1.2-0.9,2.1-2.1,2.1h-83.9c-1.2,0-2.1-0.9-2.1-2.1v-83.9
				c0-1.1,0.9-2.1,2.1-2.1h98.5V54.5h-12.6v31.5c0,1.1-0.9,2.1-2.1,2.1h-98.6v98.5c0,1.2-0.9,2.1-2.1,2.1h-65v12.6H461
				c1.2,0,2.1,0.9,2.1,2.1v65h31.5c1.1,0,2.1,0.9,2.1,2.1v65h79.7V304c0-1.2,0.9-2.1,2.1-2.1h16.8c1.1,0,2.1,0.9,2.1,2.1v199.2h65
				c1.2,0,2.1,0.9,2.1,2.1V522c0,1.1-0.9,2.1-2.1,2.1h-83.9c-1.2,0-2.1-0.9-2.1-2.1V356.4h-98.5c-1.2,0-2.1-0.9-2.1-2.1v-65h-31.5
				c-1.1,0-2.1-0.9-2.1-2.1v-65h-31.5c-1.2,0-2.1-0.9-2.1-2.1v-50.3c0-1.1,0.9-2.1,2.1-2.1h65v-12.6H396v232.7
				c0,1.1-0.9,2.1-2.1,2.1H310c-1.1,0-2.1-0.9-2.1-2.1V255.8h-79.7v46.1h46.1v-12.6h-31.5c-1.2,0-2.1-0.9-2.1-2.1v-16.8
				c0-1.1,0.9-2.1,2.1-2.1h50.3c1.2,0,2.1,0.9,2.1,2.1v50.3c0,1.2-0.9,2.1-2.1,2.1h-83.9c-1.2,0-2.1-0.9-2.1-2.1v-65h-79.7v12.6H159
				c1.2,0,2.1,0.9,2.1,2.1v65h12.6v-65c0-1.1,0.9-2.1,2.1-2.1h16.8c1.2,0,2.1,0.9,2.1,2.1v83.9c0,1.1-0.9,2.1-2.1,2.1h-50.3
				c-1.2,0-2.1-0.9-2.1-2.1v-65h-65c-1.2,0-2.1-0.9-2.1-2.1v-16.8c0-1.1,0.9-2.1,2.1-2.1h31.4v-12.6H60.5v46.1h65
				c1.1,0,2.1,0.9,2.1,2.1v65h146.8v-12.6h-65c-1.2,0-2.1-0.9-2.1-2.1v-16.8c0-1.1,0.9-2.1,2.1-2.1h83.9c1.2,0,2.1,0.9,2.1,2.1v50.3
				c0,1.1-0.9,2.1-2.1,2.1h-65v31.4c0,1.2-0.9,2.1-2.1,2.1h-65V522c0,1.1-0.9,2.1-2.1,2.1h-50.3c-1.1,0-2.1-0.9-2.1-2.1v-31.4H60.5
				v12.6H92c1.2,0,2.1,0.9,2.1,2.1v31.4h31.5c1.1,0,2.1,0.9,2.1,2.1v65h113.2v-65c0-1.1,0.9-2.1,2.1-2.1h31.5v-12.6h-31.5
				c-1.2,0-2.1-0.9-2.1-2.1v-16.8c0-1.2,0.9-2.1,2.1-2.1h98.6v-12.6H228.2v98.5c0,1.2-0.9,2.1-2.1,2.1h-83.9c-1.2,0-2.1-0.9-2.1-2.1
				v-50.3c0-1.1,0.9-2.1,2.1-2.1H159c1.2,0,2.1,0.9,2.1,2.1v31.5h46.1v-12.6h-31.5c-1.2,0-2.1-0.9-2.1-2.1V438.2
				c0-1.1,0.9-2.1,2.1-2.1h65v-31.4c0-1.2,0.9-2.1,2.1-2.1h165.6v-65c0-1.1,0.9-2.1,2.1-2.1h31.5v-12.6h-31.5
				c-1.2,0-2.1-0.9-2.1-2.1v-83.9c0-1.2,0.9-2.1,2.1-2.1h16.8c1.1,0,2.1,0.9,2.1,2.1v65H461c1.2,0,2.1,0.9,2.1,2.1v50.3
				c0,1.1-0.9,2.1-2.1,2.1h-31.4v65c0,1.2-0.9,2.1-2.1,2.1H261.8v12.6h180.3v-65c0-1.2,0.9-2.1,2.1-2.1H461c1.2,0,2.1,0.9,2.1,2.1
				V455c0,1.2-0.9,2.1-2.1,2.1h-65v165.6c0,1.2-0.9,2.1-2.1,2.1h-50.3c-1.2,0-2.1-0.9-2.1-2.1v-50.3c0-1.2,0.9-2.1,2.1-2.1h16.8
				c1.2,0,2.1,0.9,2.1,2.1v31.4H375v-46.1h-46.1v79.7h79.7V471.7c0-1.1,0.9-2.1,2.1-2.1H461c1.2,0,2.1,0.9,2.1,2.1v83.9
				c0,1.1-0.9,2.1-2.1,2.1h-16.8c-1.1,0-2.1-0.9-2.1-2.1v-65h-12.6v165.6c0,1.1-0.9,2.1-2.1,2.1H261.8v113.2h65
				c1.2,0,2.1,0.9,2.1,2.1V824c0,1.2-0.9,2.1-2.1,2.1h-65v31.5c0,1.2-0.9,2.1-2.1,2.1h-31.5v12.6h65c1.2,0,2.1,0.9,2.1,2.1v16.8
				c0,1.2-0.9,2.1-2.1,2.1h-83.9c-1.2,0-2.1-0.9-2.1-2.1v-83.9c0-1.2,0.9-2.1,2.1-2.1h16.8c1.2,0,2.1,0.9,2.1,2.1v31.4h12.6v-31.4
				c0-1.2,0.9-2.1,2.1-2.1h65v-12.6H142.3c-1.2,0-2.1-0.9-2.1-2.1v-50.3c0-1.2,0.9-2.1,2.1-2.1H159c1.2,0,2.1,0.9,2.1,2.1v31.4h12.6
				v-46.1h-46.1v79.7h65c1.2,0,2.1,0.9,2.1,2.1v83.9c0,1.2-0.9,2.1-2.1,2.1h-65v48.2c0,1.1-0.9,2.1-2.1,2.1c-1.2,0-2.1-0.9-2.1-2.1
				v-50.3c0-1.1,0.9-2.1,2.1-2.1h65v-79.7h-65c-1.2,0-2.1-0.9-2.1-2.1v-83.9c0-1.2,0.9-2.1,2.1-2.1h50.3c1.2,0,2.1,0.9,2.1,2.1v50.3
				c0,1.1-0.9,2.1-2.1,2.1H159c-1.1,0-2.1-0.9-2.1-2.1v-31.5h-12.6v46.1H310c1.2,0,2.1,0.9,2.1,2.1v16.8c0,1.1-0.9,2.1-2.1,2.1h-65
				v31.4c0,1.2-0.9,2.1-2.1,2.1h-16.8c-1.2,0-2.1-0.9-2.1-2.1v-31.4h-12.6V889h79.7v-12.6h-65c-1.2,0-2.1-0.9-2.1-2.1v-16.8
				c0-1.2,0.9-2.1,2.1-2.1h31.5V824c0-1.1,0.9-2.1,2.1-2.1h65v-46.1h-65c-1.2,0-2.1-0.9-2.1-2.1V656.2c0-1.2,0.9-2.1,2.1-2.1h165.6
				V488.5c0-1.1,0.9-2.1,2.1-2.1h16.8c1.2,0,2.1,0.9,2.1,2.1v65h12.6v-79.7h-46.1v165.6c0,1.2-0.9,2.1-2.1,2.1h-83.9
				c-1.2,0-2.1-0.9-2.1-2.1v-83.9c0-1.2,0.9-2.1,2.1-2.1h50.3c1.2,0,2.1,0.9,2.1,2.1v50.3c0,1.2-0.9,2.1-2.1,2.1h-16.8
				c-1.1,0-2.1-0.9-2.1-2.1v-31.4h-12.6v46.1h46.1V455c0-1.2,0.9-2.1,2.1-2.1h65v-79.7h-12.6v65c0,1.1-0.9,2.1-2.1,2.1H259.7
				c-1.2,0-2.1-0.9-2.1-2.1v-16.8c0-1.1,0.9-2.1,2.1-2.1h165.6v-65c0-1.2,0.9-2.1,2.1-2.1h31.4v-46.1h-31.4c-1.2,0-2.1-0.9-2.1-2.1
				v-65h-12.6v79.7h31.4c1.2,0,2.1,0.9,2.1,2.1v16.8c0,1.2-0.9,2.1-2.1,2.1h-31.4v65c0,1.1-0.9,2.1-2.1,2.1H245v31.5
				c0,1.1-0.9,2.1-2.1,2.1h-65v113.2h31.5c1.2,0,2.1,0.9,2.1,2.1v16.8c0,1.2-0.9,2.1-2.1,2.1H159c-1.1,0-2.1-0.9-2.1-2.1v-31.5
				h-12.6V587h79.7v-98.6c0-1.1,0.9-2.1,2.1-2.1h117.4c1.2,0,2.1,0.9,2.1,2.1v16.8c0,1.1-0.9,2.1-2.1,2.1H245V520h31.5
				c1.2,0,2.1,0.9,2.1,2.1v16.8c0,1.2-0.9,2.1-2.1,2.1H245v65c0,1.2-0.9,2.1-2.1,2.1H125.5c-1.2,0-2.1-0.9-2.1-2.1v-65H92
				c-1.1,0-2.1-0.9-2.1-2.1v-31.4H58.4c-1.2,0-2.1-0.9-2.1-2.1v-16.8c0-1.1,0.9-2.1,2.1-2.1h50.3c1.2,0,2.1,0.9,2.1,2.1V520H157
				v-98.6c0-1.1,0.9-2.1,2.1-2.1h65v-31.4c0-1.1,0.9-2.1,2.1-2.1h65v-46.1h-79.7v12.6h65c1.2,0,2.1,0.9,2.1,2.1v16.8
				c0,1.1-0.9,2.1-2.1,2.1h-151c-1.2,0-2.1-0.9-2.1-2.1v-65h-65c-1.2,0-2.1-0.9-2.1-2.1v-50.3c0-1.2,0.9-2.1,2.1-2.1h50.3
				c1.2,0,2.1,0.9,2.1,2.1v16.8c0,1.2-0.9,2.1-2.1,2.1H77.3v12.6h65c1.1,0,2.1,0.9,2.1,2.1v65h46.1v-79.7h-12.6v65
				c0,1.2-0.9,2.1-2.1,2.1H159c-1.1,0-2.1-0.9-2.1-2.1v-65h-31.4c-1.2,0-2.1-0.9-2.1-2.1v-16.8c0-1.2,0.9-2.1,2.1-2.1h83.9
				c1.2,0,2.1,0.9,2.1,2.1v65h79.7v-46.1H245v12.6h31.5c1.2,0,2.1,0.9,2.1,2.1V304c0,1.1-0.9,2.1-2.1,2.1h-50.3
				c-1.2,0-2.1-0.9-2.1-2.1v-50.3c0-1.2,0.9-2.1,2.1-2.1H310c1.2,0,2.1,0.9,2.1,2.1v132.1h79.7V153c0-1.2,0.9-2.1,2.1-2.1h83.9
				c1.1,0,2.1,0.9,2.1,2.1v16.8c0,1.1-0.9,2.1-2.1,2.1h-65V218h31.4c1.2,0,2.1,0.9,2.1,2.1v65h31.5c1.1,0,2.1,0.9,2.1,2.1v65h98.5
				c1.1,0,2.1,0.9,2.1,2.1V520h79.7v-12.6h-65c-1.2,0-2.1-0.9-2.1-2.1V306.1h-12.6v31.4c0,1.2-0.9,2.1-2.1,2.1h-83.9
				c-1.2,0-2.1-0.9-2.1-2.1v-65H461c-1.1,0-2.1-0.9-2.1-2.1v-65h-31.4c-1.2,0-2.1-0.9-2.1-2.1v-16.8c0-1.1,0.9-2.1,2.1-2.1h65V85.9
				c0-1.2,0.9-2.1,2.1-2.1h98.5V52.4c0-1.2,0.9-2.1,2.1-2.1h16.8c1.2,0,2.1,0.9,2.1,2.1v50.3c0,1.2-0.9,2.1-2.1,2.1h-98.5v79.7h79.7
				v-46.1h-46.1v12.6h31.4c1.1,0,2.1,0.9,2.1,2.1v16.8c0,1.1-0.9,2.1-2.1,2.1h-50.3c-1.2,0-2.1-0.9-2.1-2.1v-50.3
				c0-1.1,0.9-2.1,2.1-2.1h83.9c1.2,0,2.1,0.9,2.1,2.1v83.9c0,1.2-0.9,2.1-2.1,2.1H479.8v46.1h12.6v-31.4c0-1.2,0.9-2.1,2.1-2.1
				h16.8c1.2,0,2.1,0.9,2.1,2.1v98.6h46.1v-31.5c0-1.1,0.9-2.1,2.1-2.1h50.3c1.2,0,2.1,0.9,2.1,2.1v199.2h46.2v-79.7h-12.6v65
				c0,1.2-0.9,2.1-2.1,2.1h-16.8c-1.2,0-2.1-0.9-2.1-2.1V287.2c0-1.1,0.9-2.1,2.1-2.1h83.9C713.7,285.1,714.7,286.1,714.7,287.2z"/>
		</g>
		<g>
			<path class="st0" d="M848.8,756.9v16.8c0,1.1-0.9,2.1-2.1,2.1H681.1v46.1h113.2v-12.6h-98.5c-1.2,0-2.1-0.9-2.1-2.1v-16.8
				c0-1.2,0.9-2.1,2.1-2.1h151c1.2,0,2.1,0.9,2.1,2.1v16.8c0,1.1-0.9,2.1-2.1,2.1h-31.4l0,31.4c0,1.2-0.9,2.1-2.1,2.1H647.6v31.5
				c0,1.2-0.9,2.1-2.1,2.1H479.8v65c0,1.1-0.9,2.1-2.1,2.1c-1.2,0-2.1-0.9-2.1-2.1v-67.1c0-1.2,0.9-2.1,2.1-2.1h165.6v-31.5
				c0-1.2,0.9-2.1,2.1-2.1h165.6l0-31.4c0-1.2,0.9-2.1,2.1-2.1h31.4v-12.6H697.9v12.6h98.6c1.2,0,2.1,0.9,2.1,2.1V824
				c0,1.2-0.9,2.1-2.1,2.1H679c-1.2,0-2.1-0.9-2.1-2.1v-50.3c0-1.2,0.9-2.1,2.1-2.1h165.6V759H679c-1.2,0-2.1-0.9-2.1-2.1v-65h-12.6
				V824c0,1.2-0.9,2.1-2.1,2.1h-31.5v31.5c0,1.2-0.9,2.1-2.1,2.1H463.1v81.8c0,1.1-0.9,2.1-2.1,2.1c-1.1,0-2.1-0.9-2.1-2.1v-83.9
				c0-1.2,0.9-2.1,2.1-2.1h165.6V824c0-1.1,0.9-2.1,2.1-2.1h31.5V689.8c0-1.1,0.9-2.1,2.1-2.1H679c1.2,0,2.1,0.9,2.1,2.1v65h165.6
				C847.9,754.8,848.8,755.7,848.8,756.9z"/>
		</g>
		<g>
			<path class="st0" d="M882.4,924.6v16.8c0,1.1-0.9,2.1-2.1,2.1c-1.2,0-2.1-0.9-2.1-2.1v-14.7H712.6c-1.2,0-2.1-0.9-2.1-2.1l0-31.5
				H496.6v46.1h113.2v-12.6h-98.5c-1.2,0-2.1-0.9-2.1-2.1v-16.8c0-1.2,0.9-2.1,2.1-2.1h117.4c1.1,0,2.1,0.9,2.1,2.1v33.5
				c0,1.1-0.9,2.1-2.1,2.1c-1.2,0-2.1-0.9-2.1-2.1v-31.5H513.4v12.6h98.5c1.2,0,2.1,0.9,2.1,2.1v16.8c0,1.1-0.9,2.1-2.1,2.1H494.5
				c-1.2,0-2.1-0.9-2.1-2.1v-50.3c0-1.1,0.9-2.1,2.1-2.1h218.1c1.2,0,2.1,0.9,2.1,2.1l0,31.5h165.6
				C881.4,922.5,882.4,923.4,882.4,924.6z"/>
		</g>
		<g>
			<path class="st0" d="M865.6,941.4c0,1.1-0.9,2.1-2.1,2.1H679c-1.2,0-2.1-0.9-2.1-2.1c0-1.2,0.9-2.1,2.1-2.1h184.5
				C864.7,939.3,865.6,940.2,865.6,941.4z"/>
		</g>
		<g>
			<path class="st0" d="M697.9,907.8v16.8c0,1.1-0.9,2.1-2.1,2.1h-31.4v14.7c0,1.1-0.9,2.1-2.1,2.1c-1.2,0-2.1-0.9-2.1-2.1v-16.8
				c0-1.2,0.9-2.1,2.1-2.1h31.4v-12.6h-46.1v31.5c0,1.1-0.9,2.1-2.1,2.1c-1.2,0-2.1-0.9-2.1-2.1v-33.5c0-1.2,0.9-2.1,2.1-2.1h50.3
				C696.9,905.7,697.9,906.7,697.9,907.8z"/>
		</g>
		<g>
			<path class="st0" d="M949.5,622.7v218.1c0,1.2-0.9,2.1-2.1,2.1H916V889h31.4c1.2,0,2.1,0.9,2.1,2.1v16.8c0,1.2-0.9,2.1-2.1,2.1
				H916v32.5c0,1.1-0.9,2.1-2.1,2.1c-1.2,0-2.1-0.9-2.1-2.1v-34.6c0-1.2,0.9-2.1,2.1-2.1h31.4v-12.6h-31.4c-1.2,0-2.1-0.9-2.1-2.1
				v-50.3c0-1.2,0.9-2.1,2.1-2.1h31.4V624.8h-12.6V824c0,1.2-0.9,2.1-2.1,2.1h-31.5v65c0,1.2-0.9,2.1-2.1,2.1H731.4v12.6h165.6
				c1.2,0,2.1,0.9,2.1,2.1v34.6c0,1.1-0.9,2.1-2.1,2.1c-1.1,0-2.1-0.9-2.1-2.1v-32.5H729.3c-1.1,0-2.1-0.9-2.1-2.1v-16.8
				c0-1.1,0.9-2.1,2.1-2.1H895v-65c0-1.1,0.9-2.1,2.1-2.1h31.5V622.7c0-1.1,0.9-2.1,2.1-2.1h16.8
				C948.5,620.6,949.5,621.5,949.5,622.7z"/>
		</g>
		<g>
			<path class="st0" d="M949.5,924.6c0,1.1-0.9,2.1-2.1,2.1h-14.7v12.6h14.7c1.2,0,2.1,0.9,2.1,2.1c0,1.1-0.9,2.1-2.1,2.1h-16.8
				c-1.1,0-2.1-0.9-2.1-2.1v-16.8c0-1.2,0.9-2.1,2.1-2.1h16.8C948.5,922.5,949.5,923.4,949.5,924.6z"/>
		</g>
		<g>
			<path class="st0" d="M949.5,857.5c0,1.2-0.9,2.1-2.1,2.1h-14.7v12.6h14.7c1.2,0,2.1,0.9,2.1,2.1c0,1.2-0.9,2.1-2.1,2.1h-16.8
				c-1.1,0-2.1-0.9-2.1-2.1v-16.8c0-1.2,0.9-2.1,2.1-2.1h16.8C948.5,855.4,949.5,856.4,949.5,857.5z"/>
		</g>
		<g>
			<path class="st0" d="M949.5,320.8c0,1.2-0.9,2.1-2.1,2.1H798.5v12.6h132.1c1.2,0,2.1,0.9,2.1,2.1v151c0,1.2-0.9,2.1-2.1,2.1
				H798.5v46.1h65c1.1,0,2.1,0.9,2.1,2.1l0,83.9c0,0.6-0.2,1.1-0.6,1.5c-0.4,0.4-0.9,0.6-1.5,0.6H765v12.6h132.1
				c1.2,0,2.1,0.9,2.1,2.1v165.6h12.6V624.8h-31.4c-1.2,0-2.1-0.9-2.1-2.1v-16.8c0-1.2,0.9-2.1,2.1-2.1h67.1c1.2,0,2.1,0.9,2.1,2.1
				c0,1.2-0.9,2.1-2.1,2.1h-65v12.6h31.4c1.1,0,2.1,0.9,2.1,2.1v184.5c0,1.1-0.9,2.1-2.1,2.1h-16.8c-1.1,0-2.1-0.9-2.1-2.1V641.5
				H762.9c-1.2,0-2.1-0.9-2.1-2.1v-16.8c0-1.1,0.9-2.1,2.1-2.1h98.6l0-79.7h-65c-1.2,0-2.1-0.9-2.1-2.1v-50.3c0-1.1,0.9-2.1,2.1-2.1
				h132.1V339.6H796.4c-1.2,0-2.1-0.9-2.1-2.1v-16.8c0-1.1,0.9-2.1,2.1-2.1h151C948.5,318.7,949.5,319.6,949.5,320.8z"/>
		</g>
		<g>
			<path class="st0" d="M949.5,337.5v151c0,1.2-0.9,2.1-2.1,2.1c-1.2,0-2.1-0.9-2.1-2.1v-151c0-1.1,0.9-2.1,2.1-2.1
				C948.5,335.4,949.5,336.4,949.5,337.5z"/>
		</g>
		<g>
			<path class="st0" d="M949.5,505.3v67.1c0,1.2-0.9,2.1-2.1,2.1h-50.3c-1.1,0-2.1-0.9-2.1-2.1V522c0-1.2,0.9-2.1,2.1-2.1h16.8
				c1.1,0,2.1,0.9,2.1,2.1v31.4h12.6v-46.1H815.3V520h65c1.1,0,2.1,0.9,2.1,2.1l0,65h65c1.2,0,2.1,0.9,2.1,2.1
				c0,1.2-0.9,2.1-2.1,2.1h-67.1c-1.2,0-2.1-0.9-2.1-2.1l0-65h-65c-1.2,0-2.1-0.9-2.1-2.1v-16.8c0-1.2,0.9-2.1,2.1-2.1h117.4
				c1.2,0,2.1,0.9,2.1,2.1v50.3c0,1.1-0.9,2.1-2.1,2.1h-16.8c-1.2,0-2.1-0.9-2.1-2.1v-31.5h-12.6v46.1h46.1v-65
				c0-1.2,0.9-2.1,2.1-2.1C948.5,503.2,949.5,504.1,949.5,505.3z"/>
		</g>
		<g>
			<path class="st0" d="M949.5,220.1c0,1.2-0.9,2.1-2.1,2.1h-33.5c-1.2,0-2.1-0.9-2.1-2.1v-98.5h-12.6v132.1c0,1.2-0.9,2.1-2.1,2.1
				h-83.8c-1.2,0-2.1-0.9-2.1-2.1l0-199.2h-65c-1.2,0-2.1-0.9-2.1-2.1V35.6c0-1.2,0.9-2.1,2.1-2.1H830c1.2,0,2.1,0.9,2.1,2.1v199.2
				h46.1v-12.6h-31.4c-1.1,0-2.1-0.9-2.1-2.1l0-199.2H731.4v46.1h65c1.2,0,2.1,0.9,2.1,2.1l0,83.9c0,0.6-0.2,1.1-0.6,1.5
				c-0.4,0.4-0.9,0.6-1.5,0.6h-98.6v12.6h98.6c1.2,0,2.1,0.9,2.1,2.1v132.1h146.8v-46.1h-12.6v31.5c0,1.1-0.9,2.1-2.1,2.1H813.2
				c-1.2,0-2.1-0.9-2.1-2.1v-16.8c0-1.1,0.9-2.1,2.1-2.1h98.5v-31.4c0-1.2,0.9-2.1,2.1-2.1h33.5c1.2,0,2.1,0.9,2.1,2.1
				c0,1.1-0.9,2.1-2.1,2.1H916v31.4c0,1.2-0.9,2.1-2.1,2.1h-98.5v12.6h113.2v-31.5c0-1.2,0.9-2.1,2.1-2.1h16.8
				c1.2,0,2.1,0.9,2.1,2.1V304c0,1.1-0.9,2.1-2.1,2.1h-151c-1.2,0-2.1-0.9-2.1-2.1V171.9h-98.5c-1.2,0-2.1-0.9-2.1-2.1V153
				c0-1.2,0.9-2.1,2.1-2.1h98.6l0-79.7h-65c-1.1,0-2.1-0.9-2.1-2.1V18.8c0-1.1,0.9-2.1,2.1-2.1h117.4c1.2,0,2.1,0.9,2.1,2.1l0,199.2
				h31.4c1.1,0,2.1,0.9,2.1,2.1v16.8c0,1.1-0.9,2.1-2.1,2.1H830c-1.1,0-2.1-0.9-2.1-2.1V37.7h-79.7v12.6h65c1.2,0,2.1,0.9,2.1,2.1
				l0,199.2H895V119.5c0-1.1,0.9-2.1,2.1-2.1h16.8c1.1,0,2.1,0.9,2.1,2.1V218h31.4C948.5,218,949.5,219,949.5,220.1z"/>
		</g>
		<g>
			<path class="st0" d="M949.5,52.4c0,1.1-0.9,2.1-2.1,2.1h-14.7v12.6h14.7c1.2,0,2.1,0.9,2.1,2.1c0,1.2-0.9,2.1-2.1,2.1h-16.8
				c-1.1,0-2.1-0.9-2.1-2.1V52.4c0-1.2,0.9-2.1,2.1-2.1h16.8C948.5,50.3,949.5,51.2,949.5,52.4z"/>
		</g>
		<g>
			<path class="st0" d="M211.5,387.9v16.8c0,1.1-0.9,2.1-2.1,2.1h-65v98.6c0,1.1-0.9,2.1-2.1,2.1h-16.8c-1.2,0-2.1-0.9-2.1-2.1
				v-31.5h-65c-1.2,0-2.1-0.9-2.1-2.1V354.3c0-1.2,0.9-2.1,2.1-2.1h16.8c1.1,0,2.1,0.9,2.1,2.1v98.5h46.1v-46.1h-12.6v31.5
				c0,1.1-0.9,2.1-2.1,2.1H92c-1.1,0-2.1-0.9-2.1-2.1v-98.5H58.4c-1.2,0-2.1-0.9-2.1-2.1v-16.8c0-1.1,0.9-2.1,2.1-2.1h50.3
				c1.2,0,2.1,0.9,2.1,2.1v65h98.6C210.5,385.8,211.5,386.7,211.5,387.9z M207.3,402.5V390h-98.6c-1.1,0-2.1-0.9-2.1-2.1v-65H60.5
				v12.6H92c1.2,0,2.1,0.9,2.1,2.1v98.6h12.6v-31.4c0-1.2,0.9-2.1,2.1-2.1h16.8c1.1,0,2.1,0.9,2.1,2.1V455c0,1.2-0.9,2.1-2.1,2.1
				H75.2c-1.2,0-2.1-0.9-2.1-2.1v-98.5H60.5v113.2h65c1.1,0,2.1,0.9,2.1,2.1v31.5h12.6v-98.5c0-1.2,0.9-2.1,2.1-2.1H207.3z"/>
		</g>
		<g>
			<path class="st0" d="M379.2,924.6v16.8c0,1.1-0.9,2.1-2.1,2.1c-1.2,0-2.1-0.9-2.1-2.1v-14.7h-31.4c-1.2,0-2.1-0.9-2.1-2.1v-31.5
				h-12.6v31.5c0,1.1-0.9,2.1-2.1,2.1H194.7v14.7c0,1.1-0.9,2.1-2.1,2.1c-1.1,0-2.1-0.9-2.1-2.1v-16.8c0-1.2,0.9-2.1,2.1-2.1h132.1
				v-31.5c0-1.1,0.9-2.1,2.1-2.1h16.8c1.2,0,2.1,0.9,2.1,2.1v31.5h31.4C378.3,922.5,379.2,923.4,379.2,924.6z"/>
		</g>
		<g>
			<path class="st0" d="M362.4,941.4c0,1.1-0.9,2.1-2.1,2.1H310c-1.2,0-2.1-0.9-2.1-2.1c0-1.2,0.9-2.1,2.1-2.1h50.3
				C361.5,939.3,362.4,940.2,362.4,941.4z"/>
		</g>
		<g>
			<path class="st0" d="M295.3,941.4c0,1.1-0.9,2.1-2.1,2.1h-83.9c-1.2,0-2.1-0.9-2.1-2.1c0-1.2,0.9-2.1,2.1-2.1h83.9
				C294.4,939.3,295.3,940.2,295.3,941.4z"/>
		</g>
		<g>
			<path class="st0" d="M446.3,756.9v50.3c0,1.1-0.9,2.1-2.1,2.1h-65v46.1h31.5c1.1,0,2.1,0.9,2.1,2.1v16.8c0,1.2-0.9,2.1-2.1,2.1
				h-83.9c-1.2,0-2.1-0.9-2.1-2.1v-16.8c0-1.2,0.9-2.1,2.1-2.1h31.5v-65c0-1.2,0.9-2.1,2.1-2.1h65v-12.6h-31.4
				c-1.2,0-2.1-0.9-2.1-2.1v-16.8c0-1.2,0.9-2.1,2.1-2.1h50.3C445.4,754.8,446.3,755.7,446.3,756.9z M442.1,805.1V759H396v12.6h31.5
				c1.1,0,2.1,0.9,2.1,2.1v16.8c0,1.1-0.9,2.1-2.1,2.1h-65v65c0,1.2-0.9,2.1-2.1,2.1h-31.5v12.6h79.7v-12.6h-31.5
				c-1.2,0-2.1-0.9-2.1-2.1v-50.3c0-1.2,0.9-2.1,2.1-2.1H442.1z"/>
		</g>
	</g>
	<g>
		<g>
			<path class="st0" d="M77.3,941.4c0,1.1-0.9,2.1-2.1,2.1H58.4c-1.2,0-2.1-0.9-2.1-2.1c0-1.2,0.9-2.1,2.1-2.1h16.8
				C76.3,939.3,77.3,940.2,77.3,941.4z"/>
		</g>
		<g>
			<path class="st0" d="M27,941.4c0,1.1-0.9,2.1-2.1,2.1H8.1c-1.1,0-2.1-0.9-2.1-2.1c0-1.2,0.9-2.1,2.1-2.1h16.8
				C26,939.3,27,940.2,27,941.4z"/>
		</g>
		<g>
			<path class="st0" d="M27,924.6c0,1.1-0.9,2.1-2.1,2.1H8.1c-1.1,0-2.1-0.9-2.1-2.1c0-1.2,0.9-2.1,2.1-2.1h16.8
				C26,922.5,27,923.4,27,924.6z"/>
		</g>
		<g>
			<path class="st0" d="M27,874.3c0,1.2-0.9,2.1-2.1,2.1H8.1c-1.1,0-2.1-0.9-2.1-2.1c0-1.2,0.9-2.1,2.1-2.1h16.8
				C26,872.2,27,873.1,27,874.3z"/>
		</g>
		<g>
			<path class="st0" d="M27,857.5c0,1.2-0.9,2.1-2.1,2.1H8.1c-1.1,0-2.1-0.9-2.1-2.1s0.9-2.1,2.1-2.1h16.8
				C26,855.4,27,856.4,27,857.5z"/>
		</g>
		<g>
			<path class="st0" d="M27,605.9c0,1.2-0.9,2.1-2.1,2.1H8.1c-1.1,0-2.1-0.9-2.1-2.1c0-1.2,0.9-2.1,2.1-2.1h16.8
				C26,603.8,27,604.8,27,605.9z"/>
		</g>
		<g>
			<path class="st0" d="M27,589.1c0,1.2-0.9,2.1-2.1,2.1H8.1c-1.1,0-2.1-0.9-2.1-2.1c0-1.1,0.9-2.1,2.1-2.1h16.8
				C26,587,27,588,27,589.1z"/>
		</g>
		<g>
			<path class="st0" d="M27,505.3c0,1.1-0.9,2.1-2.1,2.1H8.1c-1.1,0-2.1-0.9-2.1-2.1c0-1.2,0.9-2.1,2.1-2.1h16.8
				C26,503.2,27,504.1,27,505.3z"/>
		</g>
		<g>
			<path class="st0" d="M27,488.5c0,1.2-0.9,2.1-2.1,2.1H8.1c-1.1,0-2.1-0.9-2.1-2.1c0-1.1,0.9-2.1,2.1-2.1h16.8
				C26,486.4,27,487.3,27,488.5z"/>
		</g>
		<g>
			<path class="st0" d="M27,337.5c0,1.2-0.9,2.1-2.1,2.1H8.1c-1.1,0-2.1-0.9-2.1-2.1c0-1.1,0.9-2.1,2.1-2.1h16.8
				C26,335.4,27,336.4,27,337.5z"/>
		</g>
		<g>
			<path class="st0" d="M27,320.8c0,1.2-0.9,2.1-2.1,2.1H8.1c-1.1,0-2.1-0.9-2.1-2.1c0-1.1,0.9-2.1,2.1-2.1h16.8
				C26,318.7,27,319.6,27,320.8z"/>
		</g>
		<g>
			<path class="st0" d="M94.1,941.4v16.8c0,1.2-0.9,2.1-2.1,2.1c-1.1,0-2.1-0.9-2.1-2.1v-16.8c0-1.2,0.9-2.1,2.1-2.1
				C93.1,939.3,94.1,940.2,94.1,941.4z"/>
		</g>
		<g>
			<path class="st0" d="M110.8,941.4v16.8c0,1.2-0.9,2.1-2.1,2.1c-1.1,0-2.1-0.9-2.1-2.1v-16.8c0-1.2,0.9-2.1,2.1-2.1
				C109.9,939.3,110.8,940.2,110.8,941.4z"/>
		</g>
		<g>
			<path class="st0" d="M127.6,941.4v16.8c0,1.2-0.9,2.1-2.1,2.1c-1.2,0-2.1-0.9-2.1-2.1v-16.8c0-1.2,0.9-2.1,2.1-2.1
				C126.7,939.3,127.6,940.2,127.6,941.4z"/>
		</g>
		<g>
			<path class="st0" d="M144.4,941.4v16.8c0,1.2-0.9,2.1-2.1,2.1c-1.2,0-2.1-0.9-2.1-2.1v-16.8c0-1.2,0.9-2.1,2.1-2.1
				C143.4,939.3,144.4,940.2,144.4,941.4z"/>
		</g>
		<g>
			<path class="st0" d="M194.7,941.4v16.8c0,1.2-0.9,2.1-2.1,2.1c-1.1,0-2.1-0.9-2.1-2.1v-16.8c0-1.2,0.9-2.1,2.1-2.1
				C193.8,939.3,194.7,940.2,194.7,941.4z"/>
		</g>
		<g>
			<path class="st0" d="M211.5,941.4v16.8c0,1.2-0.9,2.1-2.1,2.1c-1.2,0-2.1-0.9-2.1-2.1v-16.8c0-1.2,0.9-2.1,2.1-2.1
				C210.5,939.3,211.5,940.2,211.5,941.4z"/>
		</g>
		<g>
			<path class="st0" d="M312.1,941.4v16.8c0,1.2-0.9,2.1-2.1,2.1c-1.1,0-2.1-0.9-2.1-2.1v-16.8c0-1.2,0.9-2.1,2.1-2.1
				C311.2,939.3,312.1,940.2,312.1,941.4z"/>
		</g>
		<g>
			<path class="st0" d="M295.3,941.4v16.8c0,1.2-0.9,2.1-2.1,2.1c-1.1,0-2.1-0.9-2.1-2.1v-16.8c0-1.2,0.9-2.1,2.1-2.1
				C294.4,939.3,295.3,940.2,295.3,941.4z"/>
		</g>
		<g>
			<path class="st0" d="M362.4,941.4v16.8c0,1.2-0.9,2.1-2.1,2.1c-1.1,0-2.1-0.9-2.1-2.1v-16.8c0-1.2,0.9-2.1,2.1-2.1
				C361.5,939.3,362.4,940.2,362.4,941.4z"/>
		</g>
		<g>
			<path class="st0" d="M379.2,941.4v16.8c0,1.2-0.9,2.1-2.1,2.1c-1.2,0-2.1-0.9-2.1-2.1v-16.8c0-1.2,0.9-2.1,2.1-2.1
				C378.3,939.3,379.2,940.2,379.2,941.4z"/>
		</g>
		<g>
			<path class="st0" d="M396,941.4v16.8c0,1.2-0.9,2.1-2.1,2.1c-1.2,0-2.1-0.9-2.1-2.1v-16.8c0-1.2,0.9-2.1,2.1-2.1
				C395,939.3,396,940.2,396,941.4z"/>
		</g>
		<g>
			<path class="st0" d="M412.7,941.4v16.8c0,1.2-0.9,2.1-2.1,2.1c-1.2,0-2.1-0.9-2.1-2.1v-16.8c0-1.2,0.9-2.1,2.1-2.1
				C411.8,939.3,412.7,940.2,412.7,941.4z"/>
		</g>
		<g>
			<path class="st0" d="M463.1,941.4v16.8c0,1.2-0.9,2.1-2.1,2.1c-1.1,0-2.1-0.9-2.1-2.1v-16.8c0-1.2,0.9-2.1,2.1-2.1
				C462.1,939.3,463.1,940.2,463.1,941.4z"/>
		</g>
		<g>
			<path class="st0" d="M479.8,941.4v16.8c0,1.2-0.9,2.1-2.1,2.1c-1.2,0-2.1-0.9-2.1-2.1v-16.8c0-1.2,0.9-2.1,2.1-2.1
				C478.9,939.3,479.8,940.2,479.8,941.4z"/>
		</g>
		<g>
			<path class="st0" d="M630.8,941.4v16.8c0,1.2-0.9,2.1-2.1,2.1c-1.2,0-2.1-0.9-2.1-2.1v-16.8c0-1.2,0.9-2.1,2.1-2.1
				C629.9,939.3,630.8,940.2,630.8,941.4z"/>
		</g>
		<g>
			<path class="st0" d="M647.6,941.4v16.8c0,1.2-0.9,2.1-2.1,2.1c-1.2,0-2.1-0.9-2.1-2.1v-16.8c0-1.2,0.9-2.1,2.1-2.1
				C646.6,939.3,647.6,940.2,647.6,941.4z"/>
		</g>
		<g>
			<path class="st0" d="M664.3,941.4v16.8c0,1.2-0.9,2.1-2.1,2.1c-1.2,0-2.1-0.9-2.1-2.1v-16.8c0-1.2,0.9-2.1,2.1-2.1
				C663.4,939.3,664.3,940.2,664.3,941.4z"/>
		</g>
		<g>
			<path class="st0" d="M681.1,941.4v16.8c0,1.2-0.9,2.1-2.1,2.1c-1.2,0-2.1-0.9-2.1-2.1v-16.8c0-1.2,0.9-2.1,2.1-2.1
				C680.2,939.3,681.1,940.2,681.1,941.4z"/>
		</g>
		<g>
			<path class="st0" d="M865.6,941.4v16.8c0,1.2-0.9,2.1-2.1,2.1c-1.2,0-2.1-0.9-2.1-2.1v-16.8c0-1.2,0.9-2.1,2.1-2.1
				C864.7,939.3,865.6,940.2,865.6,941.4z"/>
		</g>
		<g>
			<path class="st0" d="M882.4,941.4v16.8c0,1.2-0.9,2.1-2.1,2.1c-1.2,0-2.1-0.9-2.1-2.1v-16.8c0-1.2,0.9-2.1,2.1-2.1
				C881.5,939.3,882.4,940.2,882.4,941.4z"/>
		</g>
		<g>
			<path class="st0" d="M899.2,942.4v15.7c0,1.2-0.9,2.1-2.1,2.1c-1.1,0-2.1-0.9-2.1-2.1v-15.7c0-1.2,0.9-2.1,2.1-2.1
				C898.2,940.3,899.2,941.3,899.2,942.4z"/>
		</g>
		<g>
			<path class="st0" d="M916,942.4v15.7c0,1.2-0.9,2.1-2.1,2.1c-1.2,0-2.1-0.9-2.1-2.1v-15.7c0-1.2,0.9-2.1,2.1-2.1
				C915,940.3,916,941.3,916,942.4z"/>
		</g>
		<path class="st0" d="M190.5,455v83.9c0,1.2,0.9,2.1,2.1,2.1h16.8c1.2,0,2.1-0.9,2.1-2.1v-65h146.8V520h-65c-1.1,0-2.1,0.9-2.1,2.1
			v31.4h-31.5c-1.2,0-2.1,0.9-2.1,2.1v65H125.5c-1.2,0-2.1,0.9-2.1,2.1V673c0,1.2,0.9,2.1,2.1,2.1h50.3c1.2,0,2.1-0.9,2.1-2.1v-16.8
			c0-1.2-0.9-2.1-2.1-2.1h-31.5v-12.6h79.7v12.6h-31.5c-1.1,0-2.1,0.9-2.1,2.1V673c0,1.2,0.9,2.1,2.1,2.1h31.5v79.7h-12.6v-65
			c0-1.1-0.9-2.1-2.1-2.1h-98.6v-98.5c0-1.1-0.9-2.1-2.1-2.1H24.9c-1.1,0-2.1,0.9-2.1,2.1c0,1.2,0.9,2.1,2.1,2.1h81.8v98.5
			c0,1.2,0.9,2.1,2.1,2.1h98.6v65c0,1.1,0.9,2.1,2.1,2.1h16.8c1.2,0,2.1-0.9,2.1-2.1V673c0-1.2-0.9-2.1-2.1-2.1h-31.5v-12.6h31.5
			c1.2,0,2.1-0.9,2.1-2.1v-16.8c0-1.2-0.9-2.1-2.1-2.1h-83.9c-1.2,0-2.1,0.9-2.1,2.1v16.8c0,1.1,0.9,2.1,2.1,2.1h31.5v12.6h-46.1
			v-46.1h132.1c1.2,0,2.1-0.9,2.1-2.1v-65h31.4c1.2,0,2.1-0.9,2.1-2.1v-31.5h65c1.2,0,2.1-0.9,2.1-2.1v-50.3c0-1.1-0.9-2.1-2.1-2.1
			h-151c-1.2,0-2.1,0.9-2.1,2.1v65h-12.6V457H375v79.7h-65c-1.1,0-2.1,0.9-2.1,2.1v31.5h-31.4c-1.1,0-2.1,0.9-2.1,2.1v50.3
			c0,1.2,0.9,2.1,2.1,2.1h16.8c1.2,0,2.1-0.9,2.1-2.1v-31.4h12.6v46.1h-65c-1.2,0-2.1,0.9-2.1,2.1v132.1h-46.1v-65
			c0-1.2-0.9-2.1-2.1-2.1H27v-12.6h65c1.2,0,2.1-0.9,2.1-2.1v-83.9c0-1.2-0.9-2.1-2.1-2.1H41.6c-1.2,0-2.1,0.9-2.1,2.1v50.3
			c0,1.1,0.9,2.1,2.1,2.1h16.8c1.1,0,2.1-0.9,2.1-2.1v-31.5h12.6v46.1H27v-65c0-1.2-0.9-2.1-2.1-2.1c-1.1,0-2.1,0.9-2.1,2.1V673
			c0,1.2,0.9,2.1,2.1,2.1h50.3c1.1,0,2.1-0.9,2.1-2.1v-50.3c0-1.1-0.9-2.1-2.1-2.1H58.4c-1.2,0-2.1,0.9-2.1,2.1v31.5H43.7V608h46.1
			v79.7h-65c-1.1,0-2.1,0.9-2.1,2.1v16.8c0,1.2,0.9,2.1,2.1,2.1h165.6v65c0,1.1,0.9,2.1,2.1,2.1h50.3c1.2,0,2.1-0.9,2.1-2.1V641.5
			h65c1.2,0,2.1-0.9,2.1-2.1v-50.3c0-1.1-0.9-2.1-2.1-2.1h-16.8c-1.1,0-2.1,0.9-2.1,2.1v31.5h-12.6v-46.1H310c1.2,0,2.1-0.9,2.1-2.1
			v-31.5h65c1.2,0,2.1-0.9,2.1-2.1V455c0-1.2-0.9-2.1-2.1-2.1H192.6C191.4,452.9,190.5,453.8,190.5,455z"/>
		<path class="st0" d="M22.8,522v16.8c0,1.2,0.9,2.1,2.1,2.1h31.5v12.6H24.9c-1.1,0-2.1,0.9-2.1,2.1v16.8c0,1.2,0.9,2.1,2.1,2.1
			h83.9c1.2,0,2.1-0.9,2.1-2.1v-16.8c0-1.2-0.9-2.1-2.1-2.1H77.3V522c0-1.2-0.9-2.1-2.1-2.1H24.9C23.7,520,22.8,520.9,22.8,522z
			 M73.1,524.1v31.5c0,1.1,0.9,2.1,2.1,2.1h31.4v12.6H27v-12.6h31.4c1.1,0,2.1-0.9,2.1-2.1v-16.8c0-1.1-0.9-2.1-2.1-2.1H27v-12.6
			H73.1z"/>
		<g>
			<path class="st0" d="M27,236.9c0,1.1-0.9,2.1-2.1,2.1H8.1C6.9,239,6,238,6,236.9c0-1.2,0.9-2.1,2.1-2.1h16.8
				C26,234.8,27,235.7,27,236.9z"/>
		</g>
		<g>
			<path class="st0" d="M27,220.1c0,1.2-0.9,2.1-2.1,2.1H8.1c-1.1,0-2.1-0.9-2.1-2.1c0-1.2,0.9-2.1,2.1-2.1h16.8
				C26,218,27,219,27,220.1z"/>
		</g>
		<g>
			<path class="st0" d="M27,69.2c0,1.2-0.9,2.1-2.1,2.1H8.1c-1.1,0-2.1-0.9-2.1-2.1c0-1.1,0.9-2.1,2.1-2.1h16.8
				C26,67.1,27,68,27,69.2z"/>
		</g>
		<g>
			<path class="st0" d="M27,52.4c0,1.1-0.9,2.1-2.1,2.1H8.1c-1.1,0-2.1-0.9-2.1-2.1c0-1.2,0.9-2.1,2.1-2.1h16.8
				C26,50.3,27,51.2,27,52.4z"/>
		</g>
		<g>
			<path class="st0" d="M27,35.6c0,1.2-0.9,2.1-2.1,2.1H8.1c-1.1,0-2.1-0.9-2.1-2.1c0-1.2,0.9-2.1,2.1-2.1h16.8
				C26,33.5,27,34.5,27,35.6z"/>
		</g>
		<g>
			<path class="st0" d="M27,18.8c0,1.1-0.9,2.1-2.1,2.1H8.1C6.9,20.9,6,20,6,18.8c0-1.1,0.9-2.1,2.1-2.1h16.8
				C26,16.8,27,17.7,27,18.8z"/>
		</g>
		<g>
			<path class="st0" d="M94.1,2.1v16.8c0,1.1-0.9,2.1-2.1,2.1c-1.1,0-2.1-0.9-2.1-2.1V2.1C89.9,0.9,90.8,0,92,0
				C93.1,0,94.1,0.9,94.1,2.1z"/>
		</g>
		<g>
			<path class="st0" d="M110.8,2.1v16.8c0,1.1-0.9,2.1-2.1,2.1c-1.1,0-2.1-0.9-2.1-2.1V2.1c0-1.2,0.9-2.1,2.1-2.1
				C109.9,0,110.8,0.9,110.8,2.1z"/>
		</g>
		<g>
			<path class="st0" d="M127.6,2.1v16.8c0,1.1-0.9,2.1-2.1,2.1c-1.2,0-2.1-0.9-2.1-2.1V2.1c0-1.2,0.9-2.1,2.1-2.1
				C126.7,0,127.6,0.9,127.6,2.1z"/>
		</g>
		<g>
			<path class="st0" d="M144.4,2.1v16.8c0,1.1-0.9,2.1-2.1,2.1c-1.2,0-2.1-0.9-2.1-2.1V2.1c0-1.2,0.9-2.1,2.1-2.1
				C143.4,0,144.4,0.9,144.4,2.1z"/>
		</g>
		<g>
			<path class="st0" d="M194.7,2.1v16.8c0,1.1-0.9,2.1-2.1,2.1c-1.1,0-2.1-0.9-2.1-2.1V2.1c0-1.2,0.9-2.1,2.1-2.1
				C193.8,0,194.7,0.9,194.7,2.1z"/>
		</g>
		<g>
			<path class="st0" d="M211.5,2.1v16.8c0,1.1-0.9,2.1-2.1,2.1c-1.2,0-2.1-0.9-2.1-2.1V2.1c0-1.2,0.9-2.1,2.1-2.1
				C210.5,0,211.5,0.9,211.5,2.1z"/>
		</g>
		<path class="st0" d="M278.6,102.7V85.9c0-1.2-0.9-2.1-2.1-2.1H245v-65c0-1.1-0.9-2.1-2.1-2.1h-16.8c-1.2,0-2.1,0.9-2.1,2.1v117.4
			c0,1.1,0.9,2.1,2.1,2.1h31.5v12.6h-31.5c-1.2,0-2.1,0.9-2.1,2.1v83.9c0,1.1,0.9,2.1,2.1,2.1h98.5v132.1c0,1.1,0.9,2.1,2.1,2.1
			h50.3c1.2,0,2.1-0.9,2.1-2.1v-16.8c0-1.2-0.9-2.1-2.1-2.1h-31.4v-12.6h31.4c1.2,0,2.1-0.9,2.1-2.1V153c0-1.2-0.9-2.1-2.1-2.1H310
			c-1.1,0-2.1,0.9-2.1,2.1v16.8c0,1.1,0.9,2.1,2.1,2.1h48.2v146.8h-12.6v-98.6c0-1.2-0.9-2.1-2.1-2.1H245v-46.1h12.6v31.4
			c0,1.2,0.9,2.1,2.1,2.1h83.9c1.2,0,2.1-0.9,2.1-2.1v-16.8c0-1.1-0.9-2.1-2.1-2.1h-65v-12.6h14.7c1.2,0,2.1-0.9,2.1-2.1V153
			c0-1.2-0.9-2.1-2.1-2.1h-14.7v-12.6h199.2c1.1,0,2.1-0.9,2.1-2.1v-65h98.5c1.1,0,2.1-0.9,2.1-2.1V37.7h46.1V218h-98.5
			c-1.2,0-2.1,0.9-2.1,2.1V304c0,1.1,0.9,2.1,2.1,2.1h16.8c1.2,0,2.1-0.9,2.1-2.1v-31.4h31.4c1.1,0,2.1-0.9,2.1-2.1v-16.8
			c0-1.2-0.9-2.1-2.1-2.1h-31.4V239h79.7v12.6h-31.4c-1.2,0-2.1,0.9-2.1,2.1v16.8c0,1.2,0.9,2.1,2.1,2.1h132.1l0,348h-12.6l0-31.5
			c0-1.1-0.9-2.1-2.1-2.1h-31.5v-12.6h31.5c1.2,0,2.1-0.9,2.1-2.1v-16.8c0-1.2-0.9-2.1-2.1-2.1H546.9V387.9c0-1.1-0.9-2.1-2.1-2.1
			h-50.3c-1.2,0-2.1,0.9-2.1,2.1V587H461c-1.1,0-2.1,0.9-2.1,2.1v50.3c0,1.2,0.9,2.1,2.1,2.1h65v65c0,1.2,0.9,2.1,2.1,2.1h83.9
			c1.2,0,2.1-0.9,2.1-2.1v-65h46.2V673c0,1.2,0.9,2.1,2.1,2.1h31.4v65c0,1.2,0.9,2.1,2.1,2.1h165.6l0,79.7H830
			c-0.6,0-1.1,0.2-1.5,0.6c-0.4,0.4-0.6,0.9-0.6,1.5l0,31.5H662.3c-1.2,0-2.1,0.9-2.1,2.1v16.8c0,1.2,0.9,2.1,2.1,2.1h218
			c1.1,0,2.1-0.9,2.1-2.1v-16.8c0-1.2-0.9-2.1-2.1-2.1h-31.4v-12.6h31.4c1.1,0,2.1-0.9,2.1-2.1v-151c0-1.1-0.9-2.1-2.1-2.1h-151
			c-1.1,0-2.1,0.9-2.1,2.1v16.8c0,1.2,0.9,2.1,2.1,2.1h132.1l0,12.6H714.7v-46.1h165.6c1.1,0,2.1-0.9,2.1-2.1v-16.8
			c0-1.2-0.9-2.1-2.1-2.1H681.1v-31.5c0-1.1-0.9-2.1-2.1-2.1h-83.9c-1.2,0-2.1,0.9-2.1,2.1v65h-46.1v-98.5c0-1.1-0.9-2.1-2.1-2.1
			h-16.8c-1.2,0-2.1,0.9-2.1,2.1v31.5h-46.1V608h31.4c1.2,0,2.1-0.9,2.1-2.1V406.7H526v165.6c0,1.2,0.9,2.1,2.1,2.1h31.4V673
			c0,1.2,0.9,2.1,2.1,2.1h16.8c1.1,0,2.1-0.9,2.1-2.1v-98.5h79.7V587h-65c-1.2,0-2.1,0.9-2.1,2.1v16.8c0,1.2,0.9,2.1,2.1,2.1h98.5
			v31.5c0,1.2,0.9,2.1,2.1,2.1h50.3c1.2,0,2.1-0.9,2.1-2.1l0-31.5h98.5c1.2,0,2.1-0.9,2.1-2.1v-50.3c0-1.2-0.9-2.1-2.1-2.1h-65
			v-79.7h132.1c1.1,0,2.1-0.9,2.1-2.1V455c0-1.2-0.9-2.1-2.1-2.1h-151c-1.2,0-2.1,0.9-2.1,2.1v117.4c0,1.2,0.9,2.1,2.1,2.1h65
			l0,12.6h-79.7V440.3h165.6c1.1,0,2.1-0.9,2.1-2.1v-16.8c0-1.1-0.9-2.1-2.1-2.1H748.2V272.5h12.6l0,132.1c0,0.5,0.2,1.1,0.6,1.5
			c0.4,0.4,0.9,0.6,1.5,0.6h83.9c1.2,0,2.1-0.9,2.1-2.1v-16.8c0-1.1-0.9-2.1-2.1-2.1h-65v-12.6H895v12.6h-31.4
			c-1.2,0-2.1,0.9-2.1,2.1v16.8c0,1.1,0.9,2.1,2.1,2.1h50.3c1.1,0,2.1-0.9,2.1-2.1v-50.3c0-1.2-0.9-2.1-2.1-2.1H781.8v-98.6
			c0-1.2-0.9-2.1-2.1-2.1H647.6V104.8h113.2l0,12.6h-98.6c-1.2,0-2.1,0.9-2.1,2.1v117.4c0,1.1,0.9,2.1,2.1,2.1h117.4
			c1.1,0,2.1-0.9,2.1-2.1v-50.3c0-1.1-0.9-2.1-2.1-2.1h-33.5c-1.2,0-2.1,0.9-2.1,2.1v16.8c0,1.2,0.9,2.1,2.1,2.1h14.7V218h-79.7
			v-12.6h48.2c1.2,0,2.1-0.9,2.1-2.1v-16.8c0-1.1-0.9-2.1-2.1-2.1h-48.2v-46.1h98.6c1.1,0,2.1-0.9,2.1-2.1V85.9
			c0-1.2-0.9-2.1-2.1-2.1H647.6v-65c0-1.1-0.9-2.1-2.1-2.1c-1.2,0-2.1,0.9-2.1,2.1v67.1c0,1.1,0.9,2.1,2.1,2.1h132.1v46.1H679
			c-1.2,0-2.1,0.9-2.1,2.1v50.3c0,1.2,0.9,2.1,2.1,2.1h48.2v12.6H679c-1.2,0-2.1,0.9-2.1,2.1v16.8c0,1.2,0.9,2.1,2.1,2.1h83.9
			c1.2,0,2.1-0.9,2.1-2.1v-16.8c0-1.1-0.9-2.1-2.1-2.1h-14.7v-12.6h29.3v46.1H664.3V121.6h98.6c0.6,0,1.1-0.2,1.5-0.6
			c0.4-0.4,0.6-0.9,0.6-1.5l0,0l0-16.8c0-1.2-0.9-2.1-2.1-2.1H645.5c-1.2,0-2.1,0.9-2.1,2.1v151c0,1.2,0.9,2.1,2.1,2.1h132.1v98.6
			c0,1.1,0.9,2.1,2.1,2.1h132.1v46.1h-46.2V390h31.4c1.2,0,2.1-0.9,2.1-2.1v-16.8c0-1.2-0.9-2.1-2.1-2.1H779.7
			c-1.1,0-2.1,0.9-2.1,2.1v16.8c0,1.1,0.9,2.1,2.1,2.1h65v12.6H765l0-132.1c0-0.5-0.2-1.1-0.6-1.5c-0.4-0.4-0.9-0.6-1.5-0.6h-16.8
			c-1.2,0-2.1,0.9-2.1,2.1v151c0,1.2,0.9,2.1,2.1,2.1h165.6v12.6H746.1c-1.2,0-2.1,0.9-2.1,2.1v151c0,1.2,0.9,2.1,2.1,2.1H830
			c0.6,0,1.1-0.2,1.5-0.6c0.4-0.4,0.6-0.9,0.6-1.5l0,0l0-16.8c0-1.1-0.9-2.1-2.1-2.1h-65V457h146.8v12.6H779.7
			c-1.1,0-2.1,0.9-2.1,2.1v83.9c0,1.1,0.9,2.1,2.1,2.1h65v46.1h-98.5c-1.2,0-2.1,0.9-2.1,2.1l0,31.5h-46.1v-31.5
			c0-1.2-0.9-2.1-2.1-2.1h-98.5v-12.6h65c1.2,0,2.1-0.9,2.1-2.1v-16.8c0-1.2-0.9-2.1-2.1-2.1h-83.9c-1.2,0-2.1,0.9-2.1,2.1v98.5
			h-12.6v-98.5c0-1.2-0.9-2.1-2.1-2.1h-31.4V404.6c0-1.2-0.9-2.1-2.1-2.1h-16.8c-1.2,0-2.1,0.9-2.1,2.1v199.2h-31.4
			c-1.2,0-2.1,0.9-2.1,2.1v16.8c0,1.2,0.9,2.1,2.1,2.1h50.3c1.2,0,2.1-0.9,2.1-2.1v-31.4h12.6v98.5c0,1.2,0.9,2.1,2.1,2.1h50.3
			c1.1,0,2.1-0.9,2.1-2.1v-65h79.7v31.5c0,1.1,0.9,2.1,2.1,2.1h199.2v12.6H712.6c-1.2,0-2.1,0.9-2.1,2.1v50.3c0,1.2,0.9,2.1,2.1,2.1
			h151c0.6,0,1.1-0.2,1.5-0.6c0.4-0.4,0.6-0.9,0.6-1.5l0,0l0-16.8c0-1.1-0.9-2.1-2.1-2.1H731.4v-12.6h146.8v146.8h-31.4
			c-1.1,0-2.1,0.9-2.1,2.1v16.8c0,1.2,0.9,2.1,2.1,2.1h31.4v12.6H664.3v-12.6H830c0.6,0,1.1-0.2,1.5-0.6c0.4-0.4,0.6-0.9,0.6-1.5
			l0-31.5h31.5c0.6,0,1.1-0.2,1.5-0.6c0.4-0.4,0.6-0.9,0.6-1.5l0-83.9c0-1.2-0.9-2.1-2.1-2.1H697.9v-65c0-1.2-0.9-2.1-2.1-2.1h-31.4
			v-31.5c0-1.2-0.9-2.1-2.1-2.1h-50.3c-1.2,0-2.1,0.9-2.1,2.1v65h-79.7v-65c0-1.2-0.9-2.1-2.1-2.1h-65v-46.1h31.5
			c1.1,0,2.1-0.9,2.1-2.1V390h46.1v165.6c0,1.1,0.9,2.1,2.1,2.1h165.6v12.6H679c-1.2,0-2.1,0.9-2.1,2.1v16.8c0,1.2,0.9,2.1,2.1,2.1
			h31.5l0,31.4c0,1.2,0.9,2.1,2.1,2.1h16.8c0.6,0,1.1-0.2,1.5-0.6c0.4-0.4,0.6-0.9,0.6-1.5l0-352.2c0-1.1-0.9-2.1-2.1-2.1H597.2
			v-12.6h31.5c1.1,0,2.1-0.9,2.1-2.1v-16.8c0-1.2-0.9-2.1-2.1-2.1h-83.9c-1.2,0-2.1,0.9-2.1,2.1v16.8c0,1.2,0.9,2.1,2.1,2.1h31.5
			v12.6h-31.5c-1.2,0-2.1,0.9-2.1,2.1v31.5h-12.6v-79.7h98.5c1.1,0,2.1-0.9,2.1-2.1V35.6c0-1.2-0.9-2.1-2.1-2.1h-50.3
			c-1.2,0-2.1,0.9-2.1,2.1v31.4h-98.5c-1.2,0-2.1,0.9-2.1,2.1v65H276.5c-1.1,0-2.1,0.9-2.1,2.1V153c0,1.1,0.9,2.1,2.1,2.1h14.7v12.6
			h-14.7c-1.1,0-2.1,0.9-2.1,2.1v16.8c0,1.2,0.9,2.1,2.1,2.1h65v12.6h-79.7v-31.5c0-1.1-0.9-2.1-2.1-2.1h-16.8
			c-1.2,0-2.1,0.9-2.1,2.1v50.3c0,1.2,0.9,2.1,2.1,2.1h98.6v98.5c0,1.2,0.9,2.1,2.1,2.1h16.8c1.2,0,2.1-0.9,2.1-2.1v-151
			c0-1.1-0.9-2.1-2.1-2.1h-48.2v-12.6H375v180.3h-31.4c-1.2,0-2.1,0.9-2.1,2.1v16.8c0,1.1,0.9,2.1,2.1,2.1H375V369h-46.1V236.9
			c0-1.2-0.9-2.1-2.1-2.1h-98.5v-79.7h31.5c1.2,0,2.1-0.9,2.1-2.1v-16.8c0-1.2-0.9-2.1-2.1-2.1h-31.5V20.9h12.6v65
			c0,1.1,0.9,2.1,2.1,2.1h31.5v12.6h-31.5c-1.2,0-2.1,0.9-2.1,2.1v16.8c0,1.2,0.9,2.1,2.1,2.1h50.3c1.2,0,2.1-0.9,2.1-2.1V88h12.6
			v31.4c0,1.2,0.9,2.1,2.1,2.1h83.9c1.1,0,2.1-0.9,2.1-2.1v-16.8c0-1.1-0.9-2.1-2.1-2.1h-65V69.2c0-1.1-0.9-2.1-2.1-2.1h-65V20.9
			h14.7c1.2,0,2.1-0.9,2.1-2.1c0-1.1-0.9-2.1-2.1-2.1h-16.8c-1.2,0-2.1,0.9-2.1,2.1v50.3c0,1.2,0.9,2.1,2.1,2.1h65v31.4
			c0,1.2,0.9,2.1,2.1,2.1h65v12.6h-79.7V85.9c0-1.2-0.9-2.1-2.1-2.1h-16.8c-1.1,0-2.1,0.9-2.1,2.1v31.5H245v-12.6h31.5
			C277.6,104.8,278.6,103.9,278.6,102.7z"/>
		<g>
			<path class="st0" d="M295.3,2.1v16.8c0,1.1-0.9,2.1-2.1,2.1c-1.1,0-2.1-0.9-2.1-2.1V2.1c0-1.2,0.9-2.1,2.1-2.1
				C294.4,0,295.3,0.9,295.3,2.1z"/>
		</g>
		<g>
			<path class="st0" d="M312.1,2.1v16.8c0,1.1-0.9,2.1-2.1,2.1c-1.2,0-2.1-0.9-2.1-2.1V2.1c0-1.2,0.9-2.1,2.1-2.1
				C311.2,0,312.1,0.9,312.1,2.1z"/>
		</g>
		<g>
			<path class="st0" d="M362.4,2.1v16.8c0,1.1-0.9,2.1-2.1,2.1c-1.1,0-2.1-0.9-2.1-2.1V2.1c0-1.2,0.9-2.1,2.1-2.1
				C361.5,0,362.4,0.9,362.4,2.1z"/>
		</g>
		<g>
			<path class="st0" d="M379.2,2.1v16.8c0,1.1-0.9,2.1-2.1,2.1c-1.2,0-2.1-0.9-2.1-2.1V2.1c0-1.2,0.9-2.1,2.1-2.1
				C378.3,0,379.2,0.9,379.2,2.1z"/>
		</g>
		<g>
			<path class="st0" d="M396,2.1v16.8c0,1.1-0.9,2.1-2.1,2.1c-1.2,0-2.1-0.9-2.1-2.1V2.1c0-1.2,0.9-2.1,2.1-2.1
				C395,0,396,0.9,396,2.1z"/>
		</g>
		<g>
			<path class="st0" d="M412.7,2.1v16.8c0,1.1-0.9,2.1-2.1,2.1c-1.2,0-2.1-0.9-2.1-2.1V2.1c0-1.2,0.9-2.1,2.1-2.1
				C411.8,0,412.7,0.9,412.7,2.1z"/>
		</g>
		<g>
			<path class="st0" d="M463.1,2.1v16.8c0,1.1-0.9,2.1-2.1,2.1c-1.1,0-2.1-0.9-2.1-2.1V2.1c0-1.2,0.9-2.1,2.1-2.1
				C462.1,0,463.1,0.9,463.1,2.1z"/>
		</g>
		<g>
			<path class="st0" d="M479.8,2.1v16.8c0,1.1-0.9,2.1-2.1,2.1c-1.2,0-2.1-0.9-2.1-2.1V2.1c0-1.2,0.9-2.1,2.1-2.1
				C478.9,0,479.8,0.9,479.8,2.1z"/>
		</g>
		<g>
			<path class="st0" d="M630.8,2.1v16.8c0,1.1-0.9,2.1-2.1,2.1c-1.2,0-2.1-0.9-2.1-2.1V2.1c0-1.2,0.9-2.1,2.1-2.1
				C629.9,0,630.8,0.9,630.8,2.1z"/>
		</g>
		<g>
			<path class="st0" d="M647.6,2.1v16.8c0,1.1-0.9,2.1-2.1,2.1c-1.2,0-2.1-0.9-2.1-2.1V2.1c0-1.2,0.9-2.1,2.1-2.1
				C646.6,0,647.6,0.9,647.6,2.1z"/>
		</g>
		<g>
			<path class="st0" d="M664.3,2.1v16.8c0,1.1-0.9,2.1-2.1,2.1c-1.2,0-2.1-0.9-2.1-2.1V2.1c0-1.2,0.9-2.1,2.1-2.1
				C663.4,0,664.3,0.9,664.3,2.1z"/>
		</g>
		<g>
			<path class="st0" d="M681.1,2.1v16.8c0,1.1-0.9,2.1-2.1,2.1c-1.2,0-2.1-0.9-2.1-2.1V2.1c0-1.2,0.9-2.1,2.1-2.1
				C680.2,0,681.1,0.9,681.1,2.1z"/>
		</g>
		<g>
			<path class="st0" d="M865.6,2.1v16.8c0,1.1-0.9,2.1-2.1,2.1c-1.2,0-2.1-0.9-2.1-2.1V2.1c0-1.2,0.9-2.1,2.1-2.1
				C864.7,0,865.6,0.9,865.6,2.1z"/>
		</g>
		<g>
			<path class="st0" d="M882.4,2.1v16.8c0,1.1-0.9,2.1-2.1,2.1c-1.2,0-2.1-0.9-2.1-2.1V2.1c0-1.2,0.9-2.1,2.1-2.1
				C881.4,0,882.4,0.9,882.4,2.1z"/>
		</g>
		<g>
			<path class="st0" d="M899.2,3.1v15.7c0,1.1-0.9,2.1-2.1,2.1c-1.1,0-2.1-0.9-2.1-2.1V3.1c0-1.2,0.9-2.1,2.1-2.1
				C898.2,1,899.2,2,899.2,3.1z"/>
		</g>
		<g>
			<path class="st0" d="M916,3.1v15.7c0,1.1-0.9,2.1-2.1,2.1c-1.2,0-2.1-0.9-2.1-2.1V3.1c0-1.2,0.9-2.1,2.1-2.1C915,1,916,2,916,3.1
				z"/>
		</g>
	</g>
</g>
</svg>
