<?xml version="1.0" encoding="utf-8"?>
<!-- Generator: Adobe Illustrator 21.1.0, SVG Export Plug-In . SVG Version: 6.00 Build 0)  -->
<svg version="1.1" id="Layer_1" xmlns="http://www.w3.org/2000/svg" xmlns:xlink="http://www.w3.org/1999/xlink" x="0px" y="0px"
	 viewBox="0 0 691.5 679.5" style="enable-background:new 0 0 691.5 679.5;" xml:space="preserve">
<style type="text/css">
	.st0{fill:#00AEEF;}
	.st1{fill:#8BDB00;}
</style>
<g>
	<g>
		<g>
			<path class="st0" d="M665.9,679.5c-0.8,0-1.5-0.7-1.5-1.5v-22.6h-22.7c-0.8,0-1.5-0.7-1.5-1.5v-12.1c0-0.8,0.7-1.5,1.5-1.5h36.2
				c0.8,0,1.5,0.7,1.5,1.5c0,0.8-0.7,1.5-1.5,1.5h-34.7v9.1h22.7c0.8,0,1.5,0.7,1.5,1.5v24.1C667.4,678.8,666.7,679.5,665.9,679.5z"
				/>
		</g>
		<g>
			<path class="st1" d="M677.9,679.5c-0.8,0-1.5-0.7-1.5-1.5v-24.1c0-0.8,0.7-1.5,1.5-1.5c0.8,0,1.5,0.7,1.5,1.5v24.1
				C679.5,678.8,678.8,679.5,677.9,679.5z"/>
		</g>
		<g>
			<path class="st1" d="M629.6,679.5h-84.6c-0.8,0-1.5-0.7-1.5-1.5v-12.1c0-0.8,0.7-1.5,1.5-1.5h71v-33.2l-71,0
				c-0.8,0-1.5-0.7-1.5-1.5v-12.1c0-0.8,0.7-1.5,1.5-1.5h132.9c0.8,0,1.5,0.7,1.5,1.5c0,0.8-0.7,1.5-1.5,1.5H546.6v9.1l71,0
				c0.8,0,1.5,0.7,1.5,1.5v36.2c0,0.8-0.7,1.5-1.5,1.5h-71v9.1h81.5v-46.8c0-0.8,0.7-1.5,1.5-1.5h48.3c0.8,0,1.5,0.7,1.5,1.5
				c0,0.8-0.7,1.5-1.5,1.5h-46.8v46.8C631.1,678.8,630.5,679.5,629.6,679.5z"/>
		</g>
		<g>
			<path class="st1" d="M677.9,510.3h-36.2c-0.8,0-1.5-0.7-1.5-1.5v-36.2c0-0.8,0.7-1.5,1.5-1.5h36.2c0.8,0,1.5,0.7,1.5,1.5
				c0,0.8-0.7,1.5-1.5,1.5h-34.7v33.2h33.2l0-9.1h-22.6c-0.8,0-1.5-0.7-1.5-1.5v-12.1c0-0.8,0.7-1.5,1.5-1.5h24.2
				c0.8,0,1.5,0.7,1.5,1.5c0,0.8-0.7,1.5-1.5,1.5h-22.7v9.1h22.6c0.8,0,1.5,0.7,1.5,1.5l0,12.1c0,0.4-0.1,0.8-0.4,1.1
				C678.7,510.2,678.4,510.3,677.9,510.3z"/>
		</g>
		<g>
			<path class="st0" d="M677.9,341.2h-12.1c-0.8,0-1.5-0.7-1.5-1.5v-12.1c0-0.8,0.7-1.5,1.5-1.5h12.1c0.8,0,1.5,0.7,1.5,1.5
				c0,0.8-0.7,1.5-1.5,1.5h-10.6v9.1h10.6c0.8,0,1.5,0.7,1.5,1.5C679.5,340.6,678.8,341.2,677.9,341.2z"/>
		</g>
		<g>
			<path class="st1" d="M677.9,268.8h-36.2c-0.8,0-1.5-0.7-1.5-1.5v-12.1c0-0.8,0.7-1.5,1.5-1.5h22.7v-10.6c0-0.8,0.7-1.5,1.5-1.5
				h12.1c0.8,0,1.5,0.7,1.5,1.5v12.1c0,0.8-0.7,1.5-1.5,1.5c-0.8,0-1.5-0.7-1.5-1.5v-10.6h-9.1v10.6c0,0.8-0.7,1.5-1.5,1.5h-22.7
				v9.1h34.7c0.8,0,1.5,0.7,1.5,1.5C679.5,268.1,678.8,268.8,677.9,268.8z"/>
		</g>
		<g>
			<path class="st1" d="M677.9,232.5h-12.1c-0.8,0-1.5-0.7-1.5-1.5v-24.2c0-0.8,0.7-1.5,1.5-1.5h12.1c0.8,0,1.5,0.7,1.5,1.5
				c0,0.8-0.7,1.5-1.5,1.5h-10.6v21.1h9.1v-10.6c0-0.8,0.7-1.5,1.5-1.5c0.8,0,1.5,0.7,1.5,1.5V231
				C679.5,231.8,678.8,232.5,677.9,232.5z"/>
		</g>
		<g>
			<path class="st0" d="M641.7,329.2h-36.2c-0.8,0-1.5-0.7-1.5-1.5v-36.2c0-0.8,0.7-1.5,1.5-1.5h46.8v-9.1h-22.7
				c-0.8,0-1.5-0.7-1.5-1.5v-36.2c0-0.8,0.7-1.5,1.5-1.5h22.7v-46.8c0-0.8,0.7-1.5,1.5-1.5h24.2c0.8,0,1.5,0.7,1.5,1.5
				c0,0.8-0.7,1.5-1.5,1.5h-22.7v46.8c0,0.8-0.7,1.5-1.5,1.5h-22.7v33.2h22.7c0.8,0,1.5,0.7,1.5,1.5v12.1c0,0.8-0.7,1.5-1.5,1.5H607
				v33.2h33.2v-9.1h-22.7c-0.8,0-1.5-0.7-1.5-1.5v-12.1c0-0.8,0.7-1.5,1.5-1.5h46.8v-22.7c0-0.8,0.7-1.5,1.5-1.5h12.1
				c0.8,0,1.5,0.7,1.5,1.5c0,0.8-0.7,1.5-1.5,1.5h-10.6v22.6c0,0.8-0.7,1.5-1.5,1.5h-46.8v9.1h22.7c0.8,0,1.5,0.7,1.5,1.5v12.1
				C643.2,328.5,642.5,329.2,641.7,329.2z"/>
		</g>
		<g>
			<path class="st1" d="M677.9,449.9c-0.8,0-1.5-0.7-1.5-1.5v-95.1h-9.1v46.8c0,0.8-0.7,1.5-1.5,1.5h-12.1c-0.8,0-1.5-0.7-1.5-1.5
				v-84.6c0-0.8,0.7-1.5,1.5-1.5h22.7v-22.7c0-0.8,0.7-1.5,1.5-1.5c0.8,0,1.5,0.7,1.5,1.5v24.2c0,0.8-0.7,1.5-1.5,1.5h-22.7v81.5
				h9.1v-46.8c0-0.8,0.7-1.5,1.5-1.5h12.1c0.8,0,1.5,0.7,1.5,1.5v96.6C679.5,449.3,678.8,449.9,677.9,449.9z"/>
		</g>
		<path class="st0" d="M436.4,655.3h-36.2c-0.8,0-1.5-0.7-1.5-1.5v-36.2c0-0.8,0.7-1.5,1.5-1.5h12.1c0.8,0,1.5,0.7,1.5,1.5v22.7h9.1
			v-81.5h-9.1v46.8c0,0.8-0.7,1.5-1.5,1.5h-12.1c-0.8,0-1.5-0.7-1.5-1.5v-60.4c0-0.4,0.2-0.8,0.4-1.1c0.3-0.3,0.7-0.4,1.1-0.4
			l95.1,0v-9.1H389.6v119.3c0,0.8-0.7,1.5-1.5,1.5H376c-0.8,0-1.5-0.7-1.5-1.5V534.5H268.8v57.4l9.1,0v-46.8c0-0.8,0.7-1.5,1.5-1.5
			h84.6c0.8,0,1.5,0.7,1.5,1.5v108.7c0,0.8-0.7,1.5-1.5,1.5h-12.1c-0.8,0-1.5-0.7-1.5-1.5v-95.1h-57.4v46.8c0,0.8-0.7,1.5-1.5,1.5
			h-36.2c-0.8,0-1.5-0.7-1.5-1.5v-71l-22.7,0c-0.8,0-1.5-0.7-1.5-1.5v-36.2c0-0.8,0.7-1.5,1.5-1.5h22.7v-71c0-0.8,0.7-1.5,1.5-1.5
			h12.1c0.8,0,1.5,0.7,1.5,1.5v46.8h9.1v-57.4h-71c-0.8,0-1.5-0.7-1.5-1.5v-12.1c0-0.8,0.7-1.5,1.5-1.5h71V376
			c0-0.8,0.7-1.5,1.5-1.5h119.3v-9.1H255.2c-0.8,0-1.5-0.7-1.5-1.5v-22.7h-9.1v33.2h22.7c0.8,0,1.5,0.7,1.5,1.5V388
			c0,0.8-0.7,1.5-1.5,1.5h-71v33.2h46.8c0.8,0,1.5,0.7,1.5,1.5v60.4c0,0.8-0.7,1.5-1.5,1.5h-22.7v143.4c0,0.8-0.7,1.5-1.5,1.5h-12.1
			c-0.8,0-1.5-0.7-1.5-1.5V510.4h-33.2v105.7l9.1,0v-95.1c0-0.8,0.7-1.5,1.5-1.5h12.1c0.8,0,1.5,0.7,1.5,1.5v108.7
			c0,0.8-0.7,1.5-1.5,1.5H86.1c-0.8,0-1.5-0.7-1.5-1.5V607h-9.1v22.6c0,0.8-0.7,1.5-1.5,1.5H61.9c-0.8,0-1.5-0.7-1.5-1.5v-157
			c0-0.8,0.7-1.5,1.5-1.5H74c0.8,0,1.5,0.7,1.5,1.5v119.3l22.7,0c0.4,0,0.8,0.2,1.1,0.4c0.3,0.3,0.4,0.7,0.4,1.1v22.7l57.4,0V496.8
			c0-0.8,0.7-1.5,1.5-1.5h46.8v-22.6c0-0.8,0.7-1.5,1.5-1.5h22.7v-33.2h-46.8c-0.8,0-1.5-0.7-1.5-1.5V376c0-0.8,0.7-1.5,1.5-1.5
			h46.8v-46.8c0-0.8,0.7-1.5,1.5-1.5h36.2c0.8,0,1.5,0.7,1.5,1.5v22.7h143.4c0.8,0,1.5,0.7,1.5,1.5V388c0,0.8-0.7,1.5-1.5,1.5H292.9
			v119.3c0,0.8-0.7,1.5-1.5,1.5h-12.1c-0.8,0-1.5-0.7-1.5-1.5v-22.7h-9.1v22.7c0,0.8-0.7,1.5-1.5,1.5l-22.7,0v9.1l250.7,0v-95.1
			c0-0.8,0.7-1.5,1.5-1.5h12.1c0.8,0,1.5,0.7,1.5,1.5v22.7h9.1v-57.4h-9.1v22.7c0,0.8-0.7,1.5-1.5,1.5h-12.1c-0.8,0-1.5-0.7-1.5-1.5
			v-22.7h-22.7c-0.8,0-1.5-0.7-1.5-1.5V376c0-0.8,0.7-1.5,1.5-1.5H533c0.8,0,1.5,0.7,1.5,1.5v71h129.9v-33.2h-22.7
			c-0.8,0-1.5-0.7-1.5-1.5v-71h-46.8c-0.8,0-1.5-0.7-1.5-1.5V196.3h-9.1v10.6c0,0.8-0.7,1.5-1.5,1.5h-12.1c-0.8,0-1.5-0.7-1.5-1.5
			v-10.6h-9.1v46.8c0,0.8-0.7,1.5-1.5,1.5h-12.1c-0.8,0-1.5-0.7-1.5-1.5v-60.4c0-0.8,0.7-1.5,1.5-1.5h22.7v-9.1h-33.2v71
			c0,0.8-0.7,1.5-1.5,1.5h-71v9.1h105.7v-34.7c0-0.8,0.7-1.5,1.5-1.5h12.1c0.8,0,1.5,0.7,1.5,1.5v48.3c0,0.8-0.7,1.5-1.5,1.5H448.4
			c-0.8,0-1.5-0.7-1.5-1.5v-22.7h-9.1v22.7c0,0.8-0.7,1.5-1.5,1.5h-12.1c-0.8,0-1.5-0.7-1.5-1.5V231c0-0.8,0.7-1.5,1.5-1.5h95.1v-71
			c0-0.8,0.7-1.5,1.5-1.5h60.4c0.8,0,1.5,0.7,1.5,1.5v22.7h9.1v-22.7c0-0.8,0.7-1.5,1.5-1.5h84.6c0.8,0,1.5,0.7,1.5,1.5v12.1
			c0,0.8-0.7,1.5-1.5,1.5h-46.8v22.7c0,0.8-0.7,1.5-1.5,1.5h-12.1c-0.8,0-1.5-0.7-1.5-1.5v-22.7H607v33.2h22.7
			c0.8,0,1.5,0.7,1.5,1.5v12.1c0,0.8-0.7,1.5-1.5,1.5H607v57.4h9.1V231c0-0.8,0.7-1.5,1.5-1.5h22.7v-46.8c0-0.8,0.7-1.5,1.5-1.5
			h36.2c0.8,0,1.5,0.7,1.5,1.5c0,0.8-0.7,1.5-1.5,1.5h-34.7V231c0,0.8-0.7,1.5-1.5,1.5h-22.7v46.8c0,0.8-0.7,1.5-1.5,1.5h-12.1
			c-0.8,0-1.5-0.7-1.5-1.5v-60.4c0-0.8,0.7-1.5,1.5-1.5h22.7v-9.1h-22.7c-0.8,0-1.5-0.7-1.5-1.5v-36.2c0-0.8,0.7-1.5,1.5-1.5h12.1
			c0.8,0,1.5,0.7,1.5,1.5v22.7h9.1v-22.7c0-0.8,0.7-1.5,1.5-1.5h46.8V160h-81.5v22.7c0,0.8-0.7,1.5-1.5,1.5h-12.1
			c-0.8,0-1.5-0.7-1.5-1.5V160h-57.4v71c0,0.8-0.7,1.5-1.5,1.5h-95.1v33.2h9.1v-22.7c0-0.8,0.7-1.5,1.5-1.5h12.1
			c0.8,0,1.5,0.7,1.5,1.5v22.7h129.9v-45.3h-9.1v34.7c0,0.8-0.7,1.5-1.5,1.5H460.5c-0.8,0-1.5-0.7-1.5-1.5v-12.1
			c0-0.8,0.7-1.5,1.5-1.5h71v-71c0-0.8,0.7-1.5,1.5-1.5h36.2c0.8,0,1.5,0.7,1.5,1.5v12.1c0,0.8-0.7,1.5-1.5,1.5h-22.7v57.4h9.1
			v-46.8c0-0.8,0.7-1.5,1.5-1.5h12.1c0.8,0,1.5,0.7,1.5,1.5v10.6h9.1v-10.6c0-0.8,0.7-1.5,1.5-1.5h12.1c0.8,0,1.5,0.7,1.5,1.5v143.4
			h46.8c0.8,0,1.5,0.7,1.5,1.5v71h22.7c0.8,0,1.5,0.7,1.5,1.5v36.2c0,0.8-0.7,1.5-1.5,1.5H533c-0.8,0-1.5-0.7-1.5-1.5v-71h-57.4v9.1
			h22.7c0.8,0,1.5,0.7,1.5,1.5v22.7h9.1V388c0-0.8,0.7-1.5,1.5-1.5h12.1c0.8,0,1.5,0.7,1.5,1.5v60.4c0,0.8-0.7,1.5-1.5,1.5h-12.1
			c-0.8,0-1.5-0.7-1.5-1.5v-22.6h-9.1v95.1c0,0.8-0.7,1.5-1.5,1.5l-253.7,0c-0.4,0-0.8-0.2-1.1-0.4c-0.3-0.3-0.4-0.7-0.4-1.1v-12.1
			c0-0.8,0.7-1.5,1.5-1.5l22.7,0v-22.7c0-0.8,0.7-1.5,1.5-1.5h12.1c0.8,0,1.5,0.7,1.5,1.5v22.7h9.1V388c0-0.8,0.7-1.5,1.5-1.5h119.3
			v-33.2H267.2c-0.8,0-1.5-0.7-1.5-1.5v-22.7h-33.2V376c0,0.8-0.7,1.5-1.5,1.5h-46.8v57.4H231c0.8,0,1.5,0.7,1.5,1.5v36.2
			c0,0.8-0.7,1.5-1.5,1.5h-22.7v22.6c0,0.8-0.7,1.5-1.5,1.5H160v119.3c0,0.8-0.7,1.5-1.5,1.5l-60.4,0c-0.4,0-0.8-0.2-1.1-0.4
			c-0.3-0.3-0.4-0.7-0.4-1.1v-22.7l-22.7,0l0,0c-0.4,0-0.8-0.2-1.1-0.4c-0.3-0.3-0.4-0.7-0.4-1.1V474.1h-9.1v154h9.1v-22.6
			c0-0.8,0.7-1.5,1.5-1.5h12.1c0.8,0,1.5,0.7,1.5,1.5v22.6h105.7V522.4h-9.1v95.1c0,0.8-0.7,1.5-1.5,1.5l-12.1,0h0
			c-0.4,0-0.8-0.2-1.1-0.4c-0.3-0.3-0.4-0.7-0.4-1.1V508.9c0-0.8,0.7-1.5,1.5-1.5h36.2c0.8,0,1.5,0.7,1.5,1.5v119.3h9.1V484.7
			c0-0.8,0.7-1.5,1.5-1.5h22.7v-57.4h-46.8c-0.8,0-1.5-0.7-1.5-1.5V388c0-0.8,0.7-1.5,1.5-1.5h71v-9.1h-22.7c-0.8,0-1.5-0.7-1.5-1.5
			v-36.2c0-0.8,0.7-1.5,1.5-1.5h12.1c0.8,0,1.5,0.7,1.5,1.5v22.7h143.4c0.8,0,1.5,0.7,1.5,1.5V376c0,0.8-0.7,1.5-1.5,1.5H280.8v22.7
			c0,0.8-0.7,1.5-1.5,1.5h-71v9.1h71c0.8,0,1.5,0.7,1.5,1.5v60.4c0,0.8-0.7,1.5-1.5,1.5h-12.1c-0.8,0-1.5-0.7-1.5-1.5v-46.8h-9.1v71
			c0,0.8-0.7,1.5-1.5,1.5h-22.7v33.2l22.7,0c0.8,0,1.5,0.7,1.5,1.5v71h33.2v-46.8c0-0.8,0.7-1.5,1.5-1.5h60.4c0.8,0,1.5,0.7,1.5,1.5
			v95.1h9.1V546.6h-81.5v46.8c0,0.8-0.7,1.5-1.5,1.5l-12.1,0c0,0,0,0,0,0c-0.4,0-0.8-0.2-1.1-0.4c-0.3-0.3-0.4-0.7-0.4-1.1V533
			c0-0.8,0.7-1.5,1.5-1.5H376c0.8,0,1.5,0.7,1.5,1.5v119.3h9.1V533c0-0.8,0.7-1.5,1.5-1.5h108.7c0.8,0,1.5,0.7,1.5,1.5v12.1
			c0,0.4-0.2,0.8-0.4,1.1c-0.3,0.3-0.7,0.4-1.1,0.4l-95.1,0V604h9.1v-46.8c0-0.8,0.7-1.5,1.5-1.5h12.1c0.8,0,1.5,0.7,1.5,1.5v84.6
			c0,0.8-0.7,1.5-1.5,1.5h-12.1c-0.8,0-1.5-0.7-1.5-1.5v-22.7h-9.1v33.2h33.2v-95.1c0-0.8,0.7-1.5,1.5-1.5h71v-95.1
			c0-0.8,0.7-1.5,1.5-1.5h108.7c0.8,0,1.5,0.7,1.5,1.5v84.6c0,0.8-0.7,1.5-1.5,1.5l-12.1,0h0c-0.4,0-0.8-0.2-1.1-0.4
			c-0.3-0.3-0.4-0.7-0.4-1.1v-71h-81.5v81.5h33.2v-21.1h-9.1v10.6c0,0.8-0.7,1.5-1.5,1.5H533c-0.8,0-1.5-0.7-1.5-1.5v-60.4
			c0-0.8,0.7-1.5,1.5-1.5h12.1c0.8,0,1.5,0.7,1.5,1.5v34.7h9.1v-34.7c0-0.8,0.7-1.5,1.5-1.5h36.2c0.8,0,1.5,0.7,1.5,1.5v71h33.2
			v-95.1c0-0.8,0.7-1.5,1.5-1.5h48.3c0.8,0,1.5,0.7,1.5,1.5c0,0.8-0.7,1.5-1.5,1.5h-46.8v95.1c0,0.8-0.7,1.5-1.5,1.5h-36.2
			c-0.8,0-1.5-0.7-1.5-1.5v-71h-33.2v34.7c0,0.8-0.7,1.5-1.5,1.5h-12.1c-0.8,0-1.5-0.7-1.5-1.5v-34.7h-9.1v57.4h9.1V533
			c0-0.8,0.7-1.5,1.5-1.5h12.1c0.8,0,1.5,0.7,1.5,1.5v24.1c0,0.8-0.7,1.5-1.5,1.5h-36.2c-0.8,0-1.5-0.7-1.5-1.5v-84.6
			c0-0.8,0.7-1.5,1.5-1.5h84.5c0.8,0,1.5,0.7,1.5,1.5v71l9.1,0V462H510.3v95.1c0,0.8-0.7,1.5-1.5,1.5h-71v95.1
			C437.9,654.6,437.2,655.3,436.4,655.3z"/>
		<g>
			<path class="st1" d="M677.9,148h-12.1c-0.8,0-1.5-0.7-1.5-1.5v-36.2c0-0.8,0.7-1.5,1.5-1.5h12.1c0.8,0,1.5,0.7,1.5,1.5v24.2
				c0,0.8-0.7,1.5-1.5,1.5c-0.8,0-1.5-0.7-1.5-1.5v-22.7h-9.1V145h10.6c0.8,0,1.5,0.7,1.5,1.5C679.5,147.3,678.8,148,677.9,148z"/>
		</g>
		<g>
			<path class="st0" d="M653.8,148H520.9c-0.8,0-1.5-0.7-1.5-1.5v-12.1c0-0.8,0.7-1.5,1.5-1.5H616V86.1c0-0.8,0.7-1.5,1.5-1.5h12.1
				c0.8,0,1.5,0.7,1.5,1.5v46.8h9.1V75.5H607v46.8c0,0.8-0.7,1.5-1.5,1.5h-84.5c-0.8,0-1.5-0.7-1.5-1.5V86.1c0-0.8,0.7-1.5,1.5-1.5
				h60.4c0.8,0,1.5,0.7,1.5,1.5v12.1c0,0.8-0.7,1.5-1.5,1.5h-46.8v9.1h57.4V75.5h-71c-0.8,0-1.5-0.7-1.5-1.5V27.2h-46.8
				c-0.8,0-1.5-0.7-1.5-1.5V13.6c0-0.8,0.7-1.5,1.5-1.5h48.3c0.8,0,1.5,0.7,1.5,1.5c0,0.8-0.7,1.5-1.5,1.5h-46.8v9.1h46.8
				c0.8,0,1.5,0.7,1.5,1.5v46.8h71c0.8,0,1.5,0.7,1.5,1.5v36.2c0,0.8-0.7,1.5-1.5,1.5H533c-0.8,0-1.5-0.7-1.5-1.5V98.1
				c0-0.8,0.7-1.5,1.5-1.5h46.8v-9.1h-57.4v33.2H604V74c0-0.8,0.7-1.5,1.5-1.5h36.2c0.8,0,1.5,0.7,1.5,1.5v60.4
				c0,0.8-0.7,1.5-1.5,1.5h-12.1c-0.8,0-1.5-0.7-1.5-1.5V87.6h-9.1v46.8c0,0.8-0.7,1.5-1.5,1.5h-95.1v9.1h129.9V98.1
				c0-0.8,0.7-1.5,1.5-1.5h24.2c0.8,0,1.5,0.7,1.5,1.5s-0.7,1.5-1.5,1.5h-22.7v46.8C655.3,147.3,654.6,148,653.8,148z"/>
		</g>
		<g>
			<path class="st1" d="M641.7,15.1H533c-0.8,0-1.5-0.7-1.5-1.5c0-0.8,0.7-1.5,1.5-1.5h108.7c0.8,0,1.5,0.7,1.5,1.5
				C643.2,14.4,642.5,15.1,641.7,15.1z"/>
		</g>
		<g>
			<path class="st1" d="M677.9,87.6h-24.2c-0.8,0-1.5-0.7-1.5-1.5V63.4H533c-0.8,0-1.5-0.7-1.5-1.5V25.7c0-0.8,0.7-1.5,1.5-1.5
				h119.3V13.6c0-0.8,0.7-1.5,1.5-1.5c0.8,0,1.5,0.7,1.5,1.5v12.1c0,0.8-0.7,1.5-1.5,1.5H534.5v33.2h119.3c0.8,0,1.5,0.7,1.5,1.5
				v22.7h22.7c0.8,0,1.5,0.7,1.5,1.5C679.5,86.9,678.8,87.6,677.9,87.6z"/>
		</g>
		<g>
			<path class="st1" d="M677.9,63.4c-0.8,0-1.5-0.7-1.5-1.5V13.6c0-0.8,0.7-1.5,1.5-1.5c0.8,0,1.5,0.7,1.5,1.5v48.3
				C679.5,62.7,678.8,63.4,677.9,63.4z"/>
		</g>
		<g>
			<path class="st0" d="M677.9,75.5h-12.1c-0.8,0-1.5-0.7-1.5-1.5V51.3H545.1c-0.8,0-1.5-0.7-1.5-1.5V37.7c0-0.8,0.7-1.5,1.5-1.5
				h119.3V13.6c0-0.8,0.7-1.5,1.5-1.5c0.8,0,1.5,0.7,1.5,1.5v24.2c0,0.8-0.7,1.5-1.5,1.5H546.6v9.1h119.3c0.8,0,1.5,0.7,1.5,1.5
				v22.7h10.6c0.8,0,1.5,0.7,1.5,1.5C679.5,74.8,678.8,75.5,677.9,75.5z"/>
		</g>
		<g>
			<path class="st0" d="M460.5,27.2h-12.1c-0.8,0-1.5-0.7-1.5-1.5V13.6c0-0.8,0.7-1.5,1.5-1.5c0.8,0,1.5,0.7,1.5,1.5v10.6h9.1V13.6
				c0-0.8,0.7-1.5,1.5-1.5c0.8,0,1.5,0.7,1.5,1.5v12.1C462,26.5,461.4,27.2,460.5,27.2z"/>
		</g>
		<g>
			<path class="st1" d="M436.4,27.2H327.6c-0.8,0-1.5-0.7-1.5-1.5V13.6c0-0.8,0.7-1.5,1.5-1.5s1.5,0.7,1.5,1.5v10.6h105.7v-9.1
				h-95.1c-0.8,0-1.5-0.7-1.5-1.5c0-0.8,0.7-1.5,1.5-1.5h96.6c0.8,0,1.5,0.7,1.5,1.5v12.1C437.9,26.5,437.2,27.2,436.4,27.2z"/>
		</g>
		<g>
			<path class="st0" d="M98.1,123.8H61.9c-0.8,0-1.5-0.7-1.5-1.5V13.6c0-0.8,0.7-1.5,1.5-1.5c0.8,0,1.5,0.7,1.5,1.5v107.2h33.2V63.4
				h-9.1v46.8c0,0.8-0.7,1.5-1.5,1.5H74c-0.8,0-1.5-0.7-1.5-1.5V49.8c0-0.8,0.7-1.5,1.5-1.5h36.2c0.8,0,1.5,0.7,1.5,1.5v22.7h33.2
				V39.3h-9.1v22.7c0,0.8-0.7,1.5-1.5,1.5h-12.1c-0.8,0-1.5-0.7-1.5-1.5V25.7c0-0.8,0.7-1.5,1.5-1.5h36.2c0.8,0,1.5,0.7,1.5,1.5
				v46.8h9.1V15.1H87.6v9.1h22.7c0.8,0,1.5,0.7,1.5,1.5v12.1c0,0.8-0.7,1.5-1.5,1.5H74c-0.8,0-1.5-0.7-1.5-1.5V13.6
				c0-0.8,0.7-1.5,1.5-1.5c0.8,0,1.5,0.7,1.5,1.5v22.7h33.2v-9.1H86.1c-0.8,0-1.5-0.7-1.5-1.5V13.6c0-0.8,0.7-1.5,1.5-1.5h84.6
				c0.8,0,1.5,0.7,1.5,1.5V74c0,0.8-0.7,1.5-1.5,1.5h-12.1c-0.8,0-1.5-0.7-1.5-1.5V27.2h-33.2v33.2h9.1V37.7c0-0.8,0.7-1.5,1.5-1.5
				h12.1c0.8,0,1.5,0.7,1.5,1.5V74c0,0.8-0.7,1.5-1.5,1.5h-36.2c-0.8,0-1.5-0.7-1.5-1.5V51.3H75.5v57.4h9.1V61.9
				c0-0.8,0.7-1.5,1.5-1.5h12.1c0.8,0,1.5,0.7,1.5,1.5v60.4C99.6,123.1,99,123.8,98.1,123.8z"/>
		</g>
		<g>
			<path class="st1" d="M37.7,39.3H13.6c-0.8,0-1.5-0.7-1.5-1.5s0.7-1.5,1.5-1.5h22.7v-9.1H13.6c-0.8,0-1.5-0.7-1.5-1.5V13.6
				c0-0.8,0.7-1.5,1.5-1.5c0.8,0,1.5,0.7,1.5,1.5v10.6h22.7c0.8,0,1.5,0.7,1.5,1.5v12.1C39.2,38.6,38.6,39.3,37.7,39.3z"/>
		</g>
		<g>
			<path class="st1" d="M49.8,51.3H13.6c-0.8,0-1.5-0.7-1.5-1.5c0-0.8,0.7-1.5,1.5-1.5h34.7V15.1H25.7c-0.8,0-1.5-0.7-1.5-1.5
				c0-0.8,0.7-1.5,1.5-1.5h24.2c0.8,0,1.5,0.7,1.5,1.5v36.2C51.3,50.7,50.7,51.3,49.8,51.3z"/>
		</g>
		<g>
			<path class="st0" d="M49.8,75.5H13.6c-0.8,0-1.5-0.7-1.5-1.5c0-0.8,0.7-1.5,1.5-1.5h34.7v-9.1H13.6c-0.8,0-1.5-0.7-1.5-1.5
				c0-0.8,0.7-1.5,1.5-1.5h36.2c0.8,0,1.5,0.7,1.5,1.5V74C51.3,74.8,50.7,75.5,49.8,75.5z"/>
		</g>
		<g>
			<path class="st0" d="M158.5,329.2H98.1c-0.8,0-1.5-0.7-1.5-1.5v-46.8h-9.1v22.6c0,0.8-0.7,1.5-1.5,1.5H25.7
				c-0.8,0-1.5-0.7-1.5-1.5v-12.1c0-0.8,0.7-1.5,1.5-1.5h22.7v-33.2h-9.1v22.7c0,0.8-0.7,1.5-1.5,1.5H13.6c-0.8,0-1.5-0.7-1.5-1.5
				c0-0.8,0.7-1.5,1.5-1.5h22.7v-22.7c0-0.8,0.7-1.5,1.5-1.5h12.1c0.8,0,1.5,0.7,1.5,1.5v36.2c0,0.8-0.7,1.5-1.5,1.5H27.2v9.1h57.4
				v-22.7c0-0.8,0.7-1.5,1.5-1.5h12.1c0.8,0,1.5,0.7,1.5,1.5v46.8H157v-71c0-0.8,0.7-1.5,1.5-1.5h12.1c0.8,0,1.5,0.7,1.5,1.5V302
				h33.2V196.3H148v33.2h33.2v-9.1h-22.7c-0.8,0-1.5-0.7-1.5-1.5v-12.1c0-0.8,0.7-1.5,1.5-1.5h36.2c0.8,0,1.5,0.7,1.5,1.5v84.6
				c0,0.8-0.7,1.5-1.5,1.5h-12.1c-0.8,0-1.5-0.7-1.5-1.5v-46.8H148v22.7c0,0.8-0.7,1.5-1.5,1.5h-12.1c-0.8,0-1.5-0.7-1.5-1.5v-22.7
				H86.1c-0.8,0-1.5-0.7-1.5-1.5v-46.8h-9.1v22.7c0,0.8-0.7,1.5-1.5,1.5H37.7c-0.8,0-1.5-0.7-1.5-1.5V99.6h-9.1v22.7
				c0,0.8-0.7,1.5-1.5,1.5H13.6c-0.8,0-1.5-0.7-1.5-1.5V98.1c0-0.8,0.7-1.5,1.5-1.5c0.8,0,1.5,0.7,1.5,1.5v22.7h9.1V98.1
				c0-0.8,0.7-1.5,1.5-1.5h12.1c0.8,0,1.5,0.7,1.5,1.5v119.3h33.2v-22.6c0-0.8,0.7-1.5,1.5-1.5h12.1c0.8,0,1.5,0.7,1.5,1.5v46.8
				h46.8c0.8,0,1.5,0.7,1.5,1.5v22.7h9.1v-22.7c0-0.8,0.7-1.5,1.5-1.5h36.2c0.8,0,1.5,0.7,1.5,1.5v46.8h9.1v-81.5H160v9.1h22.7
				c0.8,0,1.5,0.7,1.5,1.5V231c0,0.8-0.7,1.5-1.5,1.5h-36.2c-0.8,0-1.5-0.7-1.5-1.5v-36.2c0-0.8,0.7-1.5,1.5-1.5h60.4
				c0.8,0,1.5,0.7,1.5,1.5v108.7c0,0.8-0.7,1.5-1.5,1.5h-36.2c-0.8,0-1.5-0.7-1.5-1.5v-46.8H160v71
				C160,328.5,159.4,329.2,158.5,329.2z"/>
		</g>
		<g>
			<path class="st1" d="M484.7,510.3H303.5c-0.8,0-1.5-0.7-1.5-1.5v-12.1c0-0.8,0.7-1.5,1.5-1.5h119.3v-22.6c0-0.8,0.7-1.5,1.5-1.5
				h36.2c0.8,0,1.5,0.7,1.5,1.5v12.1c0,0.8-0.7,1.5-1.5,1.5h-22.7v9.1h33.2V462h-57.4v22.7c0,0.8-0.7,1.5-1.5,1.5H303.5
				c-0.8,0-1.5-0.7-1.5-1.5v-84.6c0-0.8,0.7-1.5,1.5-1.5h119.3v-57.4H279.3c-0.8,0-1.5-0.7-1.5-1.5v-22.7h-57.4v46.8
				c0,0.8-0.7,1.5-1.5,1.5h-46.8v81.5h46.8c0.8,0,1.5,0.7,1.5,1.5v12.1c0,0.8-0.7,1.5-1.5,1.5h-60.4c-0.8,0-1.5-0.7-1.5-1.5v-95.1
				h-33.2v46.8c0,0.8-0.7,1.5-1.5,1.5h-12.1c-0.8,0-1.5-0.7-1.5-1.5v-60.4c0-0.8,0.7-1.5,1.5-1.5h95.1v-33.2h-33.2v9.1h22.7
				c0.8,0,1.5,0.7,1.5,1.5v12.1c0,0.8-0.7,1.5-1.5,1.5H99.6v81.5h22.7c0.8,0,1.5,0.7,1.5,1.5v22.7h9.1v-71c0-0.8,0.7-1.5,1.5-1.5
				h12.1c0.8,0,1.5,0.7,1.5,1.5v84.6c0,0.8-0.7,1.5-1.5,1.5h-36.2c-0.8,0-1.5-0.7-1.5-1.5v-22.7H86.1c-0.8,0-1.5-0.7-1.5-1.5V317.1
				h-71c-0.8,0-1.5-0.7-1.5-1.5v-24.2c0-0.8,0.7-1.5,1.5-1.5c0.8,0,1.5,0.7,1.5,1.5v22.7h71c0.8,0,1.5,0.7,1.5,1.5v119.3h22.7
				c0.8,0,1.5,0.7,1.5,1.5V459h33.2v-81.5h-9.1v71c0,0.8-0.7,1.5-1.5,1.5h-12.1c-0.8,0-1.5-0.7-1.5-1.5v-22.6H98.1
				c-0.8,0-1.5-0.7-1.5-1.5v-84.6c0-0.8,0.7-1.5,1.5-1.5h95.1v-9.1h-22.7c-0.8,0-1.5-0.7-1.5-1.5v-12.1c0-0.8,0.7-1.5,1.5-1.5h36.2
				c0.8,0,1.5,0.7,1.5,1.5v36.2c0,0.8-0.7,1.5-1.5,1.5h-95.1v57.4h9.1v-46.8c0-0.8,0.7-1.5,1.5-1.5h36.2c0.8,0,1.5,0.7,1.5,1.5V459
				h57.4v-9.1h-46.8c-0.8,0-1.5-0.7-1.5-1.5v-84.6c0-0.8,0.7-1.5,1.5-1.5h46.8v-46.8c0-0.8,0.7-1.5,1.5-1.5h60.4
				c0.8,0,1.5,0.7,1.5,1.5v22.7h143.4c0.8,0,1.5,0.7,1.5,1.5v60.4c0,0.8-0.7,1.5-1.5,1.5H305v81.5h105.7v-22.7
				c0-0.8,0.7-1.5,1.5-1.5h60.4c0.8,0,1.5,0.7,1.5,1.5v36.2c0,0.8-0.7,1.5-1.5,1.5h-36.2c-0.8,0-1.5-0.7-1.5-1.5v-12.1
				c0-0.8,0.7-1.5,1.5-1.5H459v-9.1h-33.2v22.6c0,0.8-0.7,1.5-1.5,1.5H305v9.1h178.2v-57.4H353.3v9.1h46.8c0.8,0,1.5,0.7,1.5,1.5
				v12.1c0,0.8-0.7,1.5-1.5,1.5h-60.4c-0.8,0-1.5-0.7-1.5-1.5v-36.2c0-0.8,0.7-1.5,1.5-1.5h143.4v-33.2h-22.7
				c-0.8,0-1.5-0.7-1.5-1.5v-36.2c0-0.8,0.7-1.5,1.5-1.5h71v-9.1h-22.7c-0.8,0-1.5-0.7-1.5-1.5v-12.1c0-0.8,0.7-1.5,1.5-1.5h36.2
				c0.8,0,1.5,0.7,1.5,1.5v95.1H604v-57.4h-33.2v33.2h9.1V388c0-0.8,0.7-1.5,1.5-1.5h12.1c0.8,0,1.5,0.7,1.5,1.5v36.2
				c0,0.8-0.7,1.5-1.5,1.5h-36.2c-0.8,0-1.5-0.7-1.5-1.5v-60.4c0-0.8,0.7-1.5,1.5-1.5h60.4c0.8,0,1.5,0.7,1.5,1.5v71h33.2v-9.1
				h-22.7c-0.8,0-1.5-0.7-1.5-1.5v-71h-71c-0.8,0-1.5-0.7-1.5-1.5V305h-9.1v22.7c0,0.8-0.7,1.5-1.5,1.5h-46.8v22.7
				c0,0.8-0.7,1.5-1.5,1.5H450v57.4h22.7c0.8,0,1.5,0.7,1.5,1.5v12.1c0,0.8-0.7,1.5-1.5,1.5H329.2v46.8c0,0.8-0.7,1.5-1.5,1.5h-12.1
				c-0.8,0-1.5-0.7-1.5-1.5v-60.4c0-0.8,0.7-1.5,1.5-1.5h119.3v-71c0-0.8,0.7-1.5,1.5-1.5h46.8v-22.7c0-0.8,0.7-1.5,1.5-1.5h46.8
				v-22.7c0-0.8,0.7-1.5,1.5-1.5h36.2c0.8,0,1.5,0.7,1.5,1.5v46.8h9.1v-57.4H412.2c-0.8,0-1.5-0.7-1.5-1.5v-60.4
				c0-0.8,0.7-1.5,1.5-1.5h95.1V160h-33.2v33.2h9.1v-22.7c0-0.8,0.7-1.5,1.5-1.5h12.1c0.8,0,1.5,0.7,1.5,1.5v36.2
				c0,0.8-0.7,1.5-1.5,1.5h-36.2c-0.8,0-1.5-0.7-1.5-1.5v-60.4c0-0.8,0.7-1.5,1.5-1.5h46.8V87.6h-9.1v22.7c0,0.8-0.7,1.5-1.5,1.5
				H450v9.1h46.8c0.8,0,1.5,0.7,1.5,1.5v12.1c0,0.8-0.7,1.5-1.5,1.5h-60.4c-0.8,0-1.5-0.7-1.5-1.5V98.1c0-0.8,0.7-1.5,1.5-1.5h46.8
				V49.8c0-0.8,0.7-1.5,1.5-1.5h12.1c0.8,0,1.5,0.7,1.5,1.5v22.7h9.1V39.3h-33.2v46.8c0,0.8-0.7,1.5-1.5,1.5h-46.8v105.7h9.1v-46.8
				c0-0.8,0.7-1.5,1.5-1.5h12.1c0.8,0,1.5,0.7,1.5,1.5v60.4c0,0.8-0.7,1.5-1.5,1.5h-36.2c-0.8,0-1.5-0.7-1.5-1.5V160H388
				c-0.8,0-1.5-0.7-1.5-1.5v-46.8h-71c-0.8,0-1.5-0.7-1.5-1.5V74c0-0.8,0.7-1.5,1.5-1.5h22.7V39.3h-9.1v22.7c0,0.8-0.7,1.5-1.5,1.5
				H305v22.7c0,0.8-0.7,1.5-1.5,1.5h-46.8v81.5h46.8c0.8,0,1.5,0.7,1.5,1.5v22.7h9.1v-22.7c0-0.8,0.7-1.5,1.5-1.5h12.1
				c0.8,0,1.5,0.7,1.5,1.5v71h9.1V160h-71c-0.8,0-1.5-0.7-1.5-1.5V98.1c0-0.8,0.7-1.5,1.5-1.5h36.2c0.8,0,1.5,0.7,1.5,1.5v12.1
				c0,0.8-0.7,1.5-1.5,1.5h-22.7V145h9.1v-22.7c0-0.8,0.7-1.5,1.5-1.5H376c0.8,0,1.5,0.7,1.5,1.5v46.8h22.7c0.8,0,1.5,0.7,1.5,1.5
				v119.3h46.8c0.8,0,1.5,0.7,1.5,1.5v22.7h9.1v-22.7c0-0.8,0.7-1.5,1.5-1.5h60.4c0.8,0,1.5,0.7,1.5,1.5v12.1c0,0.8-0.7,1.5-1.5,1.5
				h-46.8v22.7c0,0.8-0.7,1.5-1.5,1.5h-36.2c-0.8,0-1.5-0.7-1.5-1.5V305H388c-0.8,0-1.5-0.7-1.5-1.5V184.2h-9.1v129.9h46.8
				c0.8,0,1.5,0.7,1.5,1.5v12.1c0,0.8-0.7,1.5-1.5,1.5h-60.4c-0.8,0-1.5-0.7-1.5-1.5v-46.8H243.1c-0.8,0-1.5-0.7-1.5-1.5v-36.2
				c0-0.8,0.7-1.5,1.5-1.5h36.2c0.8,0,1.5,0.7,1.5,1.5v12.1c0,0.8-0.7,1.5-1.5,1.5h-22.7v9.1h33.2v-33.2h-57.4v57.4h119.3
				c0.8,0,1.5,0.7,1.5,1.5v36.2c0,0.8-0.7,1.5-1.5,1.5h-60.4c-0.8,0-1.5-0.7-1.5-1.5v-12.1c0-0.8,0.7-1.5,1.5-1.5h46.8V305H218.9
				c-0.8,0-1.5-0.7-1.5-1.5V184.2h-81.5V231c0,0.8-0.7,1.5-1.5,1.5H98.1c-0.8,0-1.5-0.7-1.5-1.5v-46.8H74c-0.8,0-1.5-0.7-1.5-1.5
				V160h-9.1v46.8c0,0.8-0.7,1.5-1.5,1.5H49.8c-0.8,0-1.5-0.7-1.5-1.5v-60.4c0-0.8,0.7-1.5,1.5-1.5h60.4c0.8,0,1.5,0.7,1.5,1.5v12.1
				c0,0.8-0.7,1.5-1.5,1.5H87.6v9.1h22.7c0.8,0,1.5,0.7,1.5,1.5v46.8h9.1V98.1c0-0.8,0.7-1.5,1.5-1.5h36.2c0.8,0,1.5,0.7,1.5,1.5
				v12.1c0,0.8-0.7,1.5-1.5,1.5h-22.7v9.1h33.2V87.6h-57.4v46.8c0,0.8-0.7,1.5-1.5,1.5H49.8c-0.8,0-1.5-0.7-1.5-1.5V87.6H13.6
				c-0.8,0-1.5-0.7-1.5-1.5c0-0.8,0.7-1.5,1.5-1.5h36.2c0.8,0,1.5,0.7,1.5,1.5v46.8h57.4V86.1c0-0.8,0.7-1.5,1.5-1.5h60.4
				c0.8,0,1.5,0.7,1.5,1.5v36.2c0,0.8-0.7,1.5-1.5,1.5h-36.2c-0.8,0-1.5-0.7-1.5-1.5v-12.1c0-0.8,0.7-1.5,1.5-1.5H157v-9.1h-33.2
				v119.3c0,0.8-0.7,1.5-1.5,1.5h-12.1c-0.8,0-1.5-0.7-1.5-1.5v-46.8H86.1c-0.8,0-1.5-0.7-1.5-1.5v-12.1c0-0.8,0.7-1.5,1.5-1.5h22.7
				V148H51.3v57.4h9.1v-46.8c0-0.8,0.7-1.5,1.5-1.5H74c0.8,0,1.5,0.7,1.5,1.5v22.7h22.7c0.8,0,1.5,0.7,1.5,1.5v46.8h33.2v-46.8
				c0-0.8,0.7-1.5,1.5-1.5h84.6c0.8,0,1.5,0.7,1.5,1.5V302h119.3c0.8,0,1.5,0.7,1.5,1.5v12.1c0,0.8-0.7,1.5-1.5,1.5h-46.8v9.1h57.4
				v-33.2H231c-0.8,0-1.5-0.7-1.5-1.5V231c0-0.8,0.7-1.5,1.5-1.5h60.4c0.8,0,1.5,0.7,1.5,1.5v36.2c0,0.8-0.7,1.5-1.5,1.5h-36.2
				c-0.8,0-1.5-0.7-1.5-1.5v-12.1c0-0.8,0.7-1.5,1.5-1.5h22.7v-9.1h-33.2v33.2h119.3c0.8,0,1.5,0.7,1.5,1.5v46.8h57.4v-9.1H376
				c-0.8,0-1.5-0.7-1.5-1.5V182.7c0-0.8,0.7-1.5,1.5-1.5H388c0.8,0,1.5,0.7,1.5,1.5V302h46.8c0.8,0,1.5,0.7,1.5,1.5v22.7h33.2v-22.7
				c0-0.8,0.7-1.5,1.5-1.5h46.8v-9.1H462v22.6c0,0.8-0.7,1.5-1.5,1.5h-12.1c-0.8,0-1.5-0.7-1.5-1.5v-22.6h-46.8
				c-0.8,0-1.5-0.7-1.5-1.5V172.1H376c-0.8,0-1.5-0.7-1.5-1.5v-46.8h-81.5v22.7c0,0.8-0.7,1.5-1.5,1.5h-12.1c-0.8,0-1.5-0.7-1.5-1.5
				v-36.2c0-0.8,0.7-1.5,1.5-1.5H302v-9.1h-33.2V157h71c0.8,0,1.5,0.7,1.5,1.5v84.6c0,0.8-0.7,1.5-1.5,1.5h-12.1
				c-0.8,0-1.5-0.7-1.5-1.5v-71h-9.1v22.7c0,0.8-0.7,1.5-1.5,1.5h-12.1c-0.8,0-1.5-0.7-1.5-1.5v-22.7h-46.8c-0.8,0-1.5-0.7-1.5-1.5
				V86.1c0-0.8,0.7-1.5,1.5-1.5H302V61.9c0-0.8,0.7-1.5,1.5-1.5h22.7V37.7c0-0.8,0.7-1.5,1.5-1.5h12.1c0.8,0,1.5,0.7,1.5,1.5V74
				c0,0.8-0.7,1.5-1.5,1.5h-22.7v33.2h71c0.8,0,1.5,0.7,1.5,1.5V157h22.7c0.8,0,1.5,0.7,1.5,1.5v46.8h33.2V148h-9.1v46.8
				c0,0.8-0.7,1.5-1.5,1.5h-12.1c-0.8,0-1.5-0.7-1.5-1.5V86.1c0-0.8,0.7-1.5,1.5-1.5h46.8V37.7c0-0.8,0.7-1.5,1.5-1.5h36.2
				c0.8,0,1.5,0.7,1.5,1.5V74c0,0.8-0.7,1.5-1.5,1.5h-12.1c-0.8,0-1.5-0.7-1.5-1.5V51.3h-9.1v46.8c0,0.8-0.7,1.5-1.5,1.5h-46.8v33.2
				h57.4v-9.1h-46.8c-0.8,0-1.5-0.7-1.5-1.5v-12.1c0-0.8,0.7-1.5,1.5-1.5h46.8V86.1c0-0.8,0.7-1.5,1.5-1.5h12.1
				c0.8,0,1.5,0.7,1.5,1.5v60.4c0,0.8-0.7,1.5-1.5,1.5H462v57.4h33.2v-33.2h-9.1v22.7c0,0.8-0.7,1.5-1.5,1.5h-12.1
				c-0.8,0-1.5-0.7-1.5-1.5v-36.2c0-0.8,0.7-1.5,1.5-1.5h36.2c0.8,0,1.5,0.7,1.5,1.5v60.4c0,0.8-0.7,1.5-1.5,1.5h-95.1v57.4h167.6
				c0.8,0,1.5,0.7,1.5,1.5v60.4c0,0.8-0.7,1.5-1.5,1.5h-12.1c-0.8,0-1.5-0.7-1.5-1.5v-46.8h-33.2v22.6c0,0.8-0.7,1.5-1.5,1.5h-46.8
				v22.7c0,0.8-0.7,1.5-1.5,1.5h-46.8v71c0,0.8-0.7,1.5-1.5,1.5H317.1v57.4h9.1v-46.8c0-0.8,0.7-1.5,1.5-1.5h143.4v-9.1h-22.7
				c-0.8,0-1.5-0.7-1.5-1.5v-60.4c0-0.8,0.7-1.5,1.5-1.5h46.8v-22.7c0-0.8,0.7-1.5,1.5-1.5h46.8v-22.7c0-0.8,0.7-1.5,1.5-1.5h12.1
				c0.8,0,1.5,0.7,1.5,1.5v46.8h71c0.8,0,1.5,0.7,1.5,1.5v71h22.7c0.8,0,1.5,0.7,1.5,1.5v12.1c0,0.8-0.7,1.5-1.5,1.5h-36.2
				c-0.8,0-1.5-0.7-1.5-1.5v-71h-57.4v57.4h33.2v-33.2h-9.1v22.7c0,0.8-0.7,1.5-1.5,1.5h-12.1c-0.8,0-1.5-0.7-1.5-1.5V376
				c0-0.8,0.7-1.5,1.5-1.5h36.2c0.8,0,1.5,0.7,1.5,1.5v60.4c0,0.8-0.7,1.5-1.5,1.5h-60.4c-0.8,0-1.5-0.7-1.5-1.5v-95.1h-33.2v9.1
				H533c0.8,0,1.5,0.7,1.5,1.5v12.1c0,0.8-0.7,1.5-1.5,1.5h-71v33.2h22.7c0.8,0,1.5,0.7,1.5,1.5v36.2c0,0.8-0.7,1.5-1.5,1.5H341.2
				v33.2h57.4V462h-46.8c-0.8,0-1.5-0.7-1.5-1.5v-12.1c0-0.8,0.7-1.5,1.5-1.5h132.9c0.8,0,1.5,0.7,1.5,1.5v60.4
				C486.2,509.7,485.5,510.3,484.7,510.3z"/>
		</g>
		<g>
			<path class="st0" d="M146.5,607h-12.1c-0.8,0-1.5-0.7-1.5-1.5V486.2H99.6v81.5h9.1v-71c0-0.8,0.7-1.5,1.5-1.5h12.1
				c0.8,0,1.5,0.7,1.5,1.5v108.7c0,0.8-0.7,1.5-1.5,1.5h-12.1c-0.8,0-1.5-0.7-1.5-1.5v-22.6l-22.7,0c-0.8,0-1.5-0.7-1.5-1.5V462
				H61.9c-0.8,0-1.5-0.7-1.5-1.5V341.2H13.6c-0.8,0-1.5-0.7-1.5-1.5c0-0.8,0.7-1.5,1.5-1.5h48.3c0.8,0,1.5,0.7,1.5,1.5V459h22.7
				c0.8,0,1.5,0.7,1.5,1.5v119.3l22.7,0c0.8,0,1.5,0.7,1.5,1.5V604h9.1V498.3h-9.1v71c0,0.8-0.7,1.5-1.5,1.5H98.1
				c-0.8,0-1.5-0.7-1.5-1.5v-84.6c0-0.8,0.7-1.5,1.5-1.5h36.2c0.8,0,1.5,0.7,1.5,1.5V604h9.1V484.7c0-0.8,0.7-1.5,1.5-1.5h46.8v-9.1
				H98.1c-0.8,0-1.5-0.7-1.5-1.5v-22.7H74c-0.8,0-1.5-0.7-1.5-1.5V329.2H13.6c-0.8,0-1.5-0.7-1.5-1.5c0-0.8,0.7-1.5,1.5-1.5H74
				c0.8,0,1.5,0.7,1.5,1.5v119.3h22.7c0.8,0,1.5,0.7,1.5,1.5v22.7h95.1c0.8,0,1.5,0.7,1.5,1.5v12.1c0,0.8-0.7,1.5-1.5,1.5H148v119.3
				C148,606.3,147.3,607,146.5,607z"/>
		</g>
		<g>
			<path class="st1" d="M25.7,631.1H13.6c-0.8,0-1.5-0.7-1.5-1.5c0-0.8,0.7-1.5,1.5-1.5h10.6V508.9c0-0.8,0.7-1.5,1.5-1.5l22.7,0
				v-154H15.1v81.5h9.1v-71c0-0.8,0.7-1.5,1.5-1.5h12.1c0.8,0,1.5,0.7,1.5,1.5v84.6c0,0.8-0.7,1.5-1.5,1.5H13.6
				c-0.8,0-1.5-0.7-1.5-1.5c0-0.8,0.7-1.5,1.5-1.5h22.7v-81.5h-9.1v71c0,0.8-0.7,1.5-1.5,1.5H13.6c-0.8,0-1.5-0.7-1.5-1.5v-84.6
				c0-0.8,0.7-1.5,1.5-1.5h36.2c0.8,0,1.5,0.7,1.5,1.5v157c0,0.8-0.7,1.5-1.5,1.5l-22.7,0v119.3C27.2,630.5,26.5,631.1,25.7,631.1z"
				/>
		</g>
		<g>
			<path class="st0" d="M13.6,619.1c-0.8,0-1.5-0.7-1.5-1.5V484.7c0-0.8,0.7-1.5,1.5-1.5c0.8,0,1.5,0.7,1.5,1.5v132.9
				C15.1,618.4,14.4,619.1,13.6,619.1z"/>
		</g>
		<g>
			<path class="st0" d="M37.7,498.3H25.7c-0.8,0-1.5-0.7-1.5-1.5v-22.6H13.6c-0.8,0-1.5-0.7-1.5-1.5c0-0.8,0.7-1.5,1.5-1.5h12.1
				c0.8,0,1.5,0.7,1.5,1.5v22.6h9.1V462H13.6c-0.8,0-1.5-0.7-1.5-1.5c0-0.8,0.7-1.5,1.5-1.5h24.2c0.8,0,1.5,0.7,1.5,1.5v36.2
				C39.2,497.6,38.6,498.3,37.7,498.3z"/>
		</g>
		<g>
			<path class="st0" d="M243.1,679.5h-157c-0.8,0-1.5-0.7-1.5-1.5v-22.6H51.3v22.6c0,0.8-0.7,1.5-1.5,1.5H37.7
				c-0.8,0-1.5-0.7-1.5-1.5v-22.6H12.8c-0.8,0-1.5-0.7-1.5-1.5c0-0.8,0.7-1.5,1.5-1.5h24.9c0.8,0,1.5,0.7,1.5,1.5v22.6h9.1v-22.6
				c0-0.8,0.7-1.5,1.5-1.5h36.2c0.8,0,1.5,0.7,1.5,1.5v22.6h154v-9.1H98.1c-0.8,0-1.5-0.7-1.5-1.5v-22.7H49.8
				c-0.8,0-1.5-0.7-1.5-1.5V522.4h-9.1v119.3c0,0.8-0.7,1.5-1.5,1.5H12.8c-0.8,0-1.5-0.7-1.5-1.5c0-0.8,0.7-1.5,1.5-1.5h23.4V520.9
				c0-0.8,0.7-1.5,1.5-1.5h12.1c0.8,0,1.5,0.7,1.5,1.5v119.3h46.8c0.8,0,1.5,0.7,1.5,1.5v22.7h143.4c0.8,0,1.5,0.7,1.5,1.5v12.1
				C244.6,678.8,243.9,679.5,243.1,679.5z"/>
		</g>
		<g>
			<path class="st1" d="M25.7,679.5c-0.8,0-1.5-0.7-1.5-1.5v-10.6h-9.1v10.6c0,0.8-0.7,1.5-1.5,1.5c-0.8,0-1.5-0.7-1.5-1.5v-12.1
				c0-0.8,0.7-1.5,1.5-1.5h12.1c0.8,0,1.5,0.7,1.5,1.5v12.1C27.2,678.8,26.5,679.5,25.7,679.5z"/>
		</g>
		<g>
			<path class="st1" d="M74,679.5c-0.8,0-1.5-0.7-1.5-1.5v-10.6h-9.1v10.6c0,0.8-0.7,1.5-1.5,1.5c-0.8,0-1.5-0.7-1.5-1.5v-12.1
				c0-0.8,0.7-1.5,1.5-1.5H74c0.8,0,1.5,0.7,1.5,1.5v12.1C75.5,678.8,74.8,679.5,74,679.5z"/>
		</g>
		<g>
			<path class="st1" d="M460.5,679.5c-0.8,0-1.5-0.7-1.5-1.5V570.7H450v95.1c0,0.8-0.7,1.5-1.5,1.5H339.7c-0.8,0-1.5-0.7-1.5-1.5
				v-95.1H305v46.8c0,0.8-0.7,1.5-1.5,1.5l-60.4,0c-0.4,0-0.8-0.2-1.1-0.4c-0.3-0.3-0.4-0.7-0.4-1.1v-71h-9.1v95.1
				c0,0.8-0.7,1.5-1.5,1.5H111.7v9.1h129.9v-22.7c0-0.8,0.7-1.5,1.5-1.5h12.1c0.8,0,1.5,0.7,1.5,1.5v48.3c0,0.8-0.7,1.5-1.5,1.5
				c-0.8,0-1.5-0.7-1.5-1.5v-46.8h-9.1v22.6c0,0.8-0.7,1.5-1.5,1.5H110.2c-0.8,0-1.5-0.7-1.5-1.5v-12.1c0-0.8,0.7-1.5,1.5-1.5h119.3
				v-95.1c0-0.8,0.7-1.5,1.5-1.5h12.1c0.8,0,1.5,0.7,1.5,1.5v71l57.4,0v-46.8c0-0.8,0.7-1.5,1.5-1.5h36.2c0.8,0,1.5,0.7,1.5,1.5
				v95.1h105.7v-95.1c0-0.8,0.7-1.5,1.5-1.5h12.1c0.8,0,1.5,0.7,1.5,1.5v108.7C462,678.8,461.4,679.5,460.5,679.5z"/>
		</g>
		<g>
			<path class="st1" d="M448.4,679.5H339.7c-0.8,0-1.5-0.7-1.5-1.5c0-0.8,0.7-1.5,1.5-1.5h108.7c0.8,0,1.5,0.7,1.5,1.5
				C450,678.8,449.3,679.5,448.4,679.5z"/>
		</g>
		<g>
			<path class="st0" d="M327.6,679.5h-48.3c-0.8,0-1.5-0.7-1.5-1.5v-36.2c0-0.8,0.7-1.5,1.5-1.5h36.2c0.8,0,1.5,0.7,1.5,1.5v12.1
				c0,0.8-0.7,1.5-1.5,1.5h-22.7v9.1h33.2v-81.5h-9.1v46.8c0,0.8-0.7,1.5-1.5,1.5l-46.8,0v46.8c0,0.8-0.7,1.5-1.5,1.5
				c-0.8,0-1.5-0.7-1.5-1.5v-48.3c0-0.8,0.7-1.5,1.5-1.5l46.8,0v-46.8c0-0.8,0.7-1.5,1.5-1.5h12.1c0.8,0,1.5,0.7,1.5,1.5v84.5
				c0,0.8-0.7,1.5-1.5,1.5h-36.2c-0.8,0-1.5-0.7-1.5-1.5v-12.1c0-0.8,0.7-1.5,1.5-1.5h22.7v-9.1h-33.2v33.2h46.8
				c0.8,0,1.5,0.7,1.5,1.5C329.2,678.8,328.5,679.5,327.6,679.5z"/>
		</g>
		<g>
			<path class="st0" d="M533,679.5c-0.8,0-1.5-0.7-1.5-1.5v-24.1c0-0.8,0.7-1.5,1.5-1.5h71v-9.1h-95.1c-0.8,0-1.5-0.7-1.5-1.5v-60.4
				c0-0.8,0.7-1.5,1.5-1.5l143.4,0V533c0-0.8,0.7-1.5,1.5-1.5h12.1c0.8,0,1.5,0.7,1.5,1.5v60.4c0,0.8-0.7,1.5-1.5,1.5H522.4v33.2
				h9.1v-22.6c0-0.8,0.7-1.5,1.5-1.5l143.4,0v-81.5h-33.2v46.8c0,0.8-0.7,1.5-1.5,1.5l-60.4,0c-0.4,0-0.8-0.2-1.1-0.4
				s-0.4-0.7-0.4-1.1v-71h-9.1v71c0,0.8-0.7,1.5-1.5,1.5h-95.1v105.7h33.2v-9.1h-22.7c-0.8,0-1.5-0.7-1.5-1.5v-84.5
				c0-0.8,0.7-1.5,1.5-1.5h12.1c0.8,0,1.5,0.7,1.5,1.5v71h22.7c0.8,0,1.5,0.7,1.5,1.5v24.1c0,0.8-0.7,1.5-1.5,1.5
				c-0.8,0-1.5-0.7-1.5-1.5v-22.6h-22.7c-0.8,0-1.5-0.7-1.5-1.5v-71h-9.1v81.5h22.7c0.8,0,1.5,0.7,1.5,1.5v12.1
				c0,0.8-0.7,1.5-1.5,1.5h-36.2c-0.8,0-1.5-0.7-1.5-1.5V569.2c0-0.8,0.7-1.5,1.5-1.5h95.1v-71c0-0.8,0.7-1.5,1.5-1.5h12.1
				c0.8,0,1.5,0.7,1.5,1.5v71l57.4,0v-46.8c0-0.8,0.7-1.5,1.5-1.5h36.2c0.8,0,1.5,0.7,1.5,1.5v84.5c0,0.8-0.7,1.5-1.5,1.5l-143.4,0
				v22.6c0,0.8-0.7,1.5-1.5,1.5h-12.1c-0.8,0-1.5-0.7-1.5-1.5v-36.2c0-0.8,0.7-1.5,1.5-1.5h143.4v-57.4h-9.1v46.8
				c0,0.8-0.7,1.5-1.5,1.5l-143.4,0v57.4h95.1c0.8,0,1.5,0.7,1.5,1.5v12.1c0,0.8-0.7,1.5-1.5,1.5h-71v22.6
				C534.5,678.8,533.8,679.5,533,679.5z"/>
		</g>
		<g>
			<path class="st1" d="M653.8,679.5c-0.8,0-1.5-0.7-1.5-1.5v-10.6h-9.1v10.6c0,0.8-0.7,1.5-1.5,1.5s-1.5-0.7-1.5-1.5v-12.1
				c0-0.8,0.7-1.5,1.5-1.5h12.1c0.8,0,1.5,0.7,1.5,1.5v12.1C655.3,678.8,654.6,679.5,653.8,679.5z"/>
		</g>
		<g>
			<path class="st0" d="M412.2,148h-12.1c-0.8,0-1.5-0.7-1.5-1.5V99.6h-71c-0.8,0-1.5-0.7-1.5-1.5V86.1c0-0.8,0.7-1.5,1.5-1.5h22.7
				V37.7c0-0.8,0.7-1.5,1.5-1.5h84.6c0.8,0,1.5,0.7,1.5,1.5v12.1c0,0.8-0.7,1.5-1.5,1.5h-71v33.2h33.2v-9.1H376
				c-0.8,0-1.5-0.7-1.5-1.5V61.9c0-0.8,0.7-1.5,1.5-1.5h71V37.7c0-0.8,0.7-1.5,1.5-1.5h12.1c0.8,0,1.5,0.7,1.5,1.5V74
				c0,0.8-0.7,1.5-1.5,1.5h-46.8v71C413.7,147.3,413,148,412.2,148z M401.6,145h9.1V74c0-0.8,0.7-1.5,1.5-1.5H459V39.3H450v22.7
				c0,0.8-0.7,1.5-1.5,1.5h-71v9.1h22.7c0.8,0,1.5,0.7,1.5,1.5v12.1c0,0.8-0.7,1.5-1.5,1.5h-36.2c-0.8,0-1.5-0.7-1.5-1.5V49.8
				c0-0.8,0.7-1.5,1.5-1.5h71v-9.1h-81.5v46.8c0,0.8-0.7,1.5-1.5,1.5h-22.7v9.1h71c0.8,0,1.5,0.7,1.5,1.5V145z"/>
		</g>
		<g>
			<path class="st1" d="M25.7,268.8H13.6c-0.8,0-1.5-0.7-1.5-1.5c0-0.8,0.7-1.5,1.5-1.5h10.6v-22.7c0-0.8,0.7-1.5,1.5-1.5h22.7v-9.1
				H25.7c-0.8,0-1.5-0.7-1.5-1.5v-95.1H13.6c-0.8,0-1.5-0.7-1.5-1.5c0-0.8,0.7-1.5,1.5-1.5h12.1c0.8,0,1.5,0.7,1.5,1.5v95.1h22.7
				c0.8,0,1.5,0.7,1.5,1.5v12.1c0,0.8-0.7,1.5-1.5,1.5H27.2v22.7C27.2,268.1,26.5,268.8,25.7,268.8z"/>
		</g>
		<g>
			<path class="st0" d="M13.6,256.7c-0.8,0-1.5-0.7-1.5-1.5v-36.2c0-0.8,0.7-1.5,1.5-1.5c0.8,0,1.5,0.7,1.5,1.5v36.2
				C15.1,256,14.4,256.7,13.6,256.7z"/>
		</g>
		<g>
			<path class="st0" d="M13.6,208.4c-0.8,0-1.5-0.7-1.5-1.5v-60.4c0-0.8,0.7-1.5,1.5-1.5c0.8,0,1.5,0.7,1.5,1.5v60.4
				C15.1,207.7,14.4,208.4,13.6,208.4z"/>
		</g>
		<g>
			<path class="st1" d="M146.5,317.1h-36.2c-0.8,0-1.5-0.7-1.5-1.5v-46.8H75.5v22.7c0,0.8-0.7,1.5-1.5,1.5H61.9
				c-0.8,0-1.5-0.7-1.5-1.5V231c0-0.8,0.7-1.5,1.5-1.5H74c0.8,0,1.5,0.7,1.5,1.5v22.7h46.8c0.8,0,1.5,0.7,1.5,1.5V302h9.1v-22.7
				c0-0.8,0.7-1.5,1.5-1.5h12.1c0.8,0,1.5,0.7,1.5,1.5v36.2C148,316.4,147.3,317.1,146.5,317.1z M111.7,314.1h33.2v-33.2h-9.1v22.6
				c0,0.8-0.7,1.5-1.5,1.5h-12.1c-0.8,0-1.5-0.7-1.5-1.5v-46.8H74c-0.8,0-1.5-0.7-1.5-1.5v-22.7h-9.1v57.4h9.1v-22.7
				c0-0.8,0.7-1.5,1.5-1.5h36.2c0.8,0,1.5,0.7,1.5,1.5V314.1z"/>
		</g>
	</g>
	<g>
		<g>
			<path class="st1" d="M13.6,51.3c-0.8,0-1.5-0.7-1.5-1.5V37.7c0-0.8,0.7-1.5,1.5-1.5c0.8,0,1.5,0.7,1.5,1.5v12.1
				C15.1,50.7,14.4,51.3,13.6,51.3z"/>
		</g>
		<g>
			<path class="st1" d="M13.6,15.1c-0.8,0-1.5-0.7-1.5-1.5V1.5c0-0.8,0.7-1.5,1.5-1.5c0.8,0,1.5,0.7,1.5,1.5v12.1
				C15.1,14.4,14.4,15.1,13.6,15.1z"/>
		</g>
		<g>
			<path class="st1" d="M25.7,15.1c-0.8,0-1.5-0.7-1.5-1.5V1.5c0-0.8,0.7-1.5,1.5-1.5c0.8,0,1.5,0.7,1.5,1.5v12.1
				C27.2,14.4,26.5,15.1,25.7,15.1z"/>
		</g>
		<g>
			<path class="st0" d="M61.9,15.1c-0.8,0-1.5-0.7-1.5-1.5V1.5c0-0.8,0.7-1.5,1.5-1.5c0.8,0,1.5,0.7,1.5,1.5v12.1
				C63.4,14.4,62.7,15.1,61.9,15.1z"/>
		</g>
		<g>
			<path class="st0" d="M74,15.1c-0.8,0-1.5-0.7-1.5-1.5V1.5C72.5,0.7,73.2,0,74,0c0.8,0,1.5,0.7,1.5,1.5v12.1
				C75.5,14.4,74.8,15.1,74,15.1z"/>
		</g>
		<g>
			<path class="st1" d="M255.2,15.1c-0.8,0-1.5-0.7-1.5-1.5V1.5c0-0.8,0.7-1.5,1.5-1.5c0.8,0,1.5,0.7,1.5,1.5v12.1
				C256.7,14.4,256,15.1,255.2,15.1z"/>
		</g>
		<g>
			<path class="st1" d="M267.2,15.1c-0.8,0-1.5-0.7-1.5-1.5V1.5c0-0.8,0.7-1.5,1.5-1.5c0.8,0,1.5,0.7,1.5,1.5v12.1
				C268.8,14.4,268.1,15.1,267.2,15.1z"/>
		</g>
		<g>
			<path class="st1" d="M327.6,15.1c-0.8,0-1.5-0.7-1.5-1.5V1.5c0-0.8,0.7-1.5,1.5-1.5s1.5,0.7,1.5,1.5v12.1
				C329.2,14.4,328.5,15.1,327.6,15.1z"/>
		</g>
		<g>
			<path class="st1" d="M339.7,15.1c-0.8,0-1.5-0.7-1.5-1.5V1.5c0-0.8,0.7-1.5,1.5-1.5c0.8,0,1.5,0.7,1.5,1.5v12.1
				C341.2,14.4,340.6,15.1,339.7,15.1z"/>
		</g>
		<g>
			<path class="st0" d="M448.4,15.1c-0.8,0-1.5-0.7-1.5-1.5V1.5c0-0.8,0.7-1.5,1.5-1.5c0.8,0,1.5,0.7,1.5,1.5v12.1
				C450,14.4,449.3,15.1,448.4,15.1z"/>
		</g>
		<g>
			<path class="st0" d="M460.5,15.1c-0.8,0-1.5-0.7-1.5-1.5V1.5c0-0.8,0.7-1.5,1.5-1.5c0.8,0,1.5,0.7,1.5,1.5v12.1
				C462,14.4,461.4,15.1,460.5,15.1z"/>
		</g>
		<g>
			<path class="st0" d="M13.6,63.4H1.5c-0.8,0-1.5-0.7-1.5-1.5c0-0.8,0.7-1.5,1.5-1.5h12.1c0.8,0,1.5,0.7,1.5,1.5
				C15.1,62.7,14.4,63.4,13.6,63.4z"/>
		</g>
		<g>
			<path class="st0" d="M13.6,75.5H1.5C0.7,75.5,0,74.8,0,74c0-0.8,0.7-1.5,1.5-1.5h12.1c0.8,0,1.5,0.7,1.5,1.5
				C15.1,74.8,14.4,75.5,13.6,75.5z"/>
		</g>
		<g>
			<path class="st1" d="M13.6,87.6H1.5c-0.8,0-1.5-0.7-1.5-1.5c0-0.8,0.7-1.5,1.5-1.5h12.1c0.8,0,1.5,0.7,1.5,1.5
				C15.1,86.9,14.4,87.6,13.6,87.6z"/>
		</g>
		<g>
			<path class="st0" d="M13.6,99.6H1.5C0.7,99.6,0,99,0,98.1s0.7-1.5,1.5-1.5h12.1c0.8,0,1.5,0.7,1.5,1.5S14.4,99.6,13.6,99.6z"/>
		</g>
		<g>
			<path class="st1" d="M13.6,135.9H1.5c-0.8,0-1.5-0.7-1.5-1.5c0-0.8,0.7-1.5,1.5-1.5h12.1c0.8,0,1.5,0.7,1.5,1.5
				C15.1,135.2,14.4,135.9,13.6,135.9z"/>
		</g>
		<g>
			<path class="st0" d="M13.6,148H1.5c-0.8,0-1.5-0.7-1.5-1.5c0-0.8,0.7-1.5,1.5-1.5h12.1c0.8,0,1.5,0.7,1.5,1.5
				C15.1,147.3,14.4,148,13.6,148z"/>
		</g>
		<g>
			<path class="st0" d="M13.6,220.4H1.5c-0.8,0-1.5-0.7-1.5-1.5c0-0.8,0.7-1.5,1.5-1.5h12.1c0.8,0,1.5,0.7,1.5,1.5
				C15.1,219.8,14.4,220.4,13.6,220.4z"/>
		</g>
		<g>
			<path class="st0" d="M13.6,208.4H1.5c-0.8,0-1.5-0.7-1.5-1.5c0-0.8,0.7-1.5,1.5-1.5h12.1c0.8,0,1.5,0.7,1.5,1.5
				C15.1,207.7,14.4,208.4,13.6,208.4z"/>
		</g>
		<g>
			<path class="st0" d="M13.6,256.7H1.5c-0.8,0-1.5-0.7-1.5-1.5c0-0.8,0.7-1.5,1.5-1.5h12.1c0.8,0,1.5,0.7,1.5,1.5
				C15.1,256,14.4,256.7,13.6,256.7z"/>
		</g>
		<g>
			<path class="st1" d="M13.6,268.8H1.5c-0.8,0-1.5-0.7-1.5-1.5c0-0.8,0.7-1.5,1.5-1.5h12.1c0.8,0,1.5,0.7,1.5,1.5
				C15.1,268.1,14.4,268.8,13.6,268.8z"/>
		</g>
		<g>
			<path class="st0" d="M13.6,280.8H1.5c-0.8,0-1.5-0.7-1.5-1.5c0-0.8,0.7-1.5,1.5-1.5h12.1c0.8,0,1.5,0.7,1.5,1.5
				C15.1,280.2,14.4,280.8,13.6,280.8z"/>
		</g>
		<g>
			<path class="st1" d="M13.6,292.9H1.5c-0.8,0-1.5-0.7-1.5-1.5c0-0.8,0.7-1.5,1.5-1.5h12.1c0.8,0,1.5,0.7,1.5,1.5
				C15.1,292.2,14.4,292.9,13.6,292.9z"/>
		</g>
		<g>
			<path class="st0" d="M13.6,329.2H1.5c-0.8,0-1.5-0.7-1.5-1.5c0-0.8,0.7-1.5,1.5-1.5h12.1c0.8,0,1.5,0.7,1.5,1.5
				C15.1,328.5,14.4,329.2,13.6,329.2z"/>
		</g>
		<g>
			<path class="st0" d="M13.6,341.2H1.5c-0.8,0-1.5-0.7-1.5-1.5c0-0.8,0.7-1.5,1.5-1.5h12.1c0.8,0,1.5,0.7,1.5,1.5
				C15.1,340.6,14.4,341.2,13.6,341.2z"/>
		</g>
		<g>
			<path class="st1" d="M13.6,449.9H1.5c-0.8,0-1.5-0.7-1.5-1.5c0-0.8,0.7-1.5,1.5-1.5h12.1c0.8,0,1.5,0.7,1.5,1.5
				C15.1,449.3,14.4,449.9,13.6,449.9z"/>
		</g>
		<g>
			<path class="st0" d="M13.6,462H1.5c-0.8,0-1.5-0.7-1.5-1.5c0-0.8,0.7-1.5,1.5-1.5h12.1c0.8,0,1.5,0.7,1.5,1.5
				C15.1,461.4,14.4,462,13.6,462z"/>
		</g>
		<g>
			<path class="st0" d="M13.6,474.1H1.5c-0.8,0-1.5-0.7-1.5-1.5c0-0.8,0.7-1.5,1.5-1.5h12.1c0.8,0,1.5,0.7,1.5,1.5
				C15.1,473.4,14.4,474.1,13.6,474.1z"/>
		</g>
		<g>
			<path class="st0" d="M13.6,486.2H1.5c-0.8,0-1.5-0.7-1.5-1.5c0-0.8,0.7-1.5,1.5-1.5h12.1c0.8,0,1.5,0.7,1.5,1.5
				C15.1,485.5,14.4,486.2,13.6,486.2z"/>
		</g>
		<g>
			<path class="st0" d="M13.6,619.1H1.5c-0.8,0-1.5-0.7-1.5-1.5c0-0.8,0.7-1.5,1.5-1.5h12.1c0.8,0,1.5,0.7,1.5,1.5
				C15.1,618.4,14.4,619.1,13.6,619.1z"/>
		</g>
		<g>
			<path class="st1" d="M13.6,631.2H1.5c-0.8,0-1.5-0.7-1.5-1.5c0-0.8,0.7-1.5,1.5-1.5h12.1c0.8,0,1.5,0.7,1.5,1.5
				C15.1,630.5,14.4,631.2,13.6,631.2z"/>
		</g>
		<g>
			<path class="st0" d="M12.8,643.2H1.5c-0.8,0-1.5-0.7-1.5-1.5c0-0.8,0.7-1.5,1.5-1.5h11.3c0.8,0,1.5,0.7,1.5,1.5
				C14.3,642.5,13.7,643.2,12.8,643.2z"/>
		</g>
		<g>
			<path class="st0" d="M12.8,655.3H1.5c-0.8,0-1.5-0.7-1.5-1.5c0-0.8,0.7-1.5,1.5-1.5h11.3c0.8,0,1.5,0.7,1.5,1.5
				C14.3,654.6,13.7,655.3,12.8,655.3z"/>
		</g>
		<path class="st1" d="M363.9,132.9h-60.4c-0.8,0-1.5,0.7-1.5,1.5v12.1c0,0.8,0.7,1.5,1.5,1.5h46.8v105.7h-33.2v-46.8
			c0-0.8-0.7-1.5-1.5-1.5h-22.7v-22.7c0-0.8-0.7-1.5-1.5-1.5h-46.8V86.1c0-0.8-0.7-1.5-1.5-1.5h-36.2c-0.8,0-1.5,0.7-1.5,1.5v36.2
			c0,0.8,0.7,1.5,1.5,1.5h12.1c0.8,0,1.5-0.7,1.5-1.5V99.6h9.1V157h-9.1v-22.7c0-0.8-0.7-1.5-1.5-1.5h-12.1c-0.8,0-1.5,0.7-1.5,1.5
			V157H148V148h46.8c0.8,0,1.5-0.7,1.5-1.5v-71h71c0.8,0,1.5-0.7,1.5-1.5V13.6c0-0.8-0.7-1.5-1.5-1.5c-0.8,0-1.5,0.7-1.5,1.5v58.9
			h-71c-0.8,0-1.5,0.7-1.5,1.5v71h-46.8c-0.8,0-1.5,0.7-1.5,1.5v12.1c0,0.8,0.7,1.5,1.5,1.5h60.4c0.8,0,1.5-0.7,1.5-1.5v-22.7h9.1
			v22.7c0,0.8,0.7,1.5,1.5,1.5H231c0.8,0,1.5-0.7,1.5-1.5V98.1c0-0.8-0.7-1.5-1.5-1.5h-12.1c-0.8,0-1.5,0.7-1.5,1.5v22.7h-9.1V87.6
			h33.2v95.1c0,0.8,0.7,1.5,1.5,1.5h46.8v22.7c0,0.8,0.7,1.5,1.5,1.5h22.7v46.8c0,0.8,0.7,1.5,1.5,1.5h36.2c0.8,0,1.5-0.7,1.5-1.5
			V146.5c0-0.8-0.7-1.5-1.5-1.5H305v-9.1h57.4v129.9H305v-46.8c0-0.8-0.7-1.5-1.5-1.5h-22.7v-22.6c0-0.8-0.7-1.5-1.5-1.5h-36.2
			c-0.8,0-1.5,0.7-1.5,1.5v12.1c0,0.8,0.7,1.5,1.5,1.5h22.7v9.1h-33.2v-46.8c0-0.8-0.7-1.5-1.5-1.5h-95.1v-33.2h46.8
			c0.8,0,1.5-0.7,1.5-1.5V15.1h9.1v46.8c0,0.8,0.7,1.5,1.5,1.5h60.4c0.8,0,1.5-0.7,1.5-1.5V25.7c0-0.8-0.7-1.5-1.5-1.5h-36.2
			c-0.8,0-1.5,0.7-1.5,1.5v12.1c0,0.8,0.7,1.5,1.5,1.5h22.7v9.1h-33.2V15.1h46.8c0.8,0,1.5-0.7,1.5-1.5c0-0.8-0.7-1.5-1.5-1.5h-48.3
			c-0.8,0-1.5,0.7-1.5,1.5v36.2c0,0.8,0.7,1.5,1.5,1.5h36.2c0.8,0,1.5-0.7,1.5-1.5V37.7c0-0.8-0.7-1.5-1.5-1.5h-22.7v-9.1h33.2v33.2
			h-57.4V13.6c0-0.8-0.7-1.5-1.5-1.5h-12.1c-0.8,0-1.5,0.7-1.5,1.5v119.3h-46.8c-0.8,0-1.5,0.7-1.5,1.5v36.2c0,0.8,0.7,1.5,1.5,1.5
			h95.1v46.8c0,0.8,0.7,1.5,1.5,1.5h36.2c0.8,0,1.5-0.7,1.5-1.5v-12.1c0-0.8-0.7-1.5-1.5-1.5h-22.7v-9.1h33.2v22.7
			c0,0.8,0.7,1.5,1.5,1.5H302v46.8c0,0.8,0.7,1.5,1.5,1.5h60.4c0.8,0,1.5-0.7,1.5-1.5V134.4C365.4,133.5,364.7,132.9,363.9,132.9z"
			/>
		<path class="st0" d="M315.6,12.1h-12.1c-0.8,0-1.5,0.7-1.5,1.5v22.7h-9.1V13.6c0-0.8-0.7-1.5-1.5-1.5h-12.1
			c-0.8,0-1.5,0.7-1.5,1.5V74c0,0.8,0.7,1.5,1.5,1.5h12.1c0.8,0,1.5-0.7,1.5-1.5V51.3h22.7c0.8,0,1.5-0.7,1.5-1.5V13.6
			C317.1,12.8,316.4,12.1,315.6,12.1z M314.1,48.3h-22.7c-0.8,0-1.5,0.7-1.5,1.5v22.7h-9.1V15.1h9.1v22.7c0,0.8,0.7,1.5,1.5,1.5
			h12.1c0.8,0,1.5-0.7,1.5-1.5V15.1h9.1V48.3z"/>
		<g>
			<path class="st0" d="M520.9,15.1c-0.8,0-1.5-0.7-1.5-1.5V1.5c0-0.8,0.7-1.5,1.5-1.5c0.8,0,1.5,0.7,1.5,1.5v12.1
				C522.4,14.4,521.8,15.1,520.9,15.1z"/>
		</g>
		<g>
			<path class="st1" d="M533,15.1c-0.8,0-1.5-0.7-1.5-1.5V1.5c0-0.8,0.7-1.5,1.5-1.5c0.8,0,1.5,0.7,1.5,1.5v12.1
				C534.5,14.4,533.8,15.1,533,15.1z"/>
		</g>
		<g>
			<path class="st1" d="M641.7,15.1c-0.8,0-1.5-0.7-1.5-1.5V1.5c0-0.8,0.7-1.5,1.5-1.5s1.5,0.7,1.5,1.5v12.1
				C643.2,14.4,642.5,15.1,641.7,15.1z"/>
		</g>
		<g>
			<path class="st1" d="M653.8,15.1c-0.8,0-1.5-0.7-1.5-1.5V1.5c0-0.8,0.7-1.5,1.5-1.5c0.8,0,1.5,0.7,1.5,1.5v12.1
				C655.3,14.4,654.6,15.1,653.8,15.1z"/>
		</g>
		<g>
			<path class="st0" d="M665.9,15.1c-0.8,0-1.5-0.7-1.5-1.5V1.5c0-0.8,0.7-1.5,1.5-1.5c0.8,0,1.5,0.7,1.5,1.5v12.1
				C667.4,14.4,666.7,15.1,665.9,15.1z"/>
		</g>
		<g>
			<path class="st1" d="M677.9,15.1c-0.8,0-1.5-0.7-1.5-1.5V1.5c0-0.8,0.7-1.5,1.5-1.5c0.8,0,1.5,0.7,1.5,1.5v12.1
				C679.5,14.4,678.8,15.1,677.9,15.1z"/>
		</g>
		<g>
			<path class="st1" d="M690,63.4h-12.1c-0.8,0-1.5-0.7-1.5-1.5c0-0.8,0.7-1.5,1.5-1.5H690c0.8,0,1.5,0.7,1.5,1.5
				C691.5,62.7,690.9,63.4,690,63.4z"/>
		</g>
		<g>
			<path class="st0" d="M690,75.5h-12.1c-0.8,0-1.5-0.7-1.5-1.5c0-0.8,0.7-1.5,1.5-1.5H690c0.8,0,1.5,0.7,1.5,1.5
				C691.5,74.8,690.9,75.5,690,75.5z"/>
		</g>
		<g>
			<path class="st1" d="M690,87.6h-12.1c-0.8,0-1.5-0.7-1.5-1.5c0-0.8,0.7-1.5,1.5-1.5H690c0.8,0,1.5,0.7,1.5,1.5
				C691.5,86.9,690.9,87.6,690,87.6z"/>
		</g>
		<g>
			<path class="st0" d="M690,99.6h-12.1c-0.8,0-1.5-0.7-1.5-1.5s0.7-1.5,1.5-1.5H690c0.8,0,1.5,0.7,1.5,1.5S690.9,99.6,690,99.6z"/>
		</g>
		<g>
			<path class="st1" d="M690,135.9h-12.1c-0.8,0-1.5-0.7-1.5-1.5c0-0.8,0.7-1.5,1.5-1.5H690c0.8,0,1.5,0.7,1.5,1.5
				C691.5,135.2,690.9,135.9,690,135.9z"/>
		</g>
		<g>
			<path class="st1" d="M690,148h-12.1c-0.8,0-1.5-0.7-1.5-1.5c0-0.8,0.7-1.5,1.5-1.5H690c0.8,0,1.5,0.7,1.5,1.5
				C691.5,147.3,690.9,148,690,148z"/>
		</g>
		<g>
			<path class="st0" d="M677.9,196.3c-0.8,0-1.5-0.7-1.5-1.5v-12.1c0-0.8,0.7-1.5,1.5-1.5c0.8,0,1.5,0.7,1.5,1.5v12.1
				C679.5,195.6,678.8,196.3,677.9,196.3z"/>
		</g>
		<g>
			<path class="st1" d="M690,208.4h-12.1c-0.8,0-1.5-0.7-1.5-1.5c0-0.8,0.7-1.5,1.5-1.5H690c0.8,0,1.5,0.7,1.5,1.5
				C691.5,207.7,690.9,208.4,690,208.4z"/>
		</g>
		<g>
			<path class="st1" d="M690,220.4h-12.1c-0.8,0-1.5-0.7-1.5-1.5c0-0.8,0.7-1.5,1.5-1.5H690c0.8,0,1.5,0.7,1.5,1.5
				C691.5,219.8,690.9,220.4,690,220.4z"/>
		</g>
		<g>
			<path class="st1" d="M690,256.7h-12.1c-0.8,0-1.5-0.7-1.5-1.5c0-0.8,0.7-1.5,1.5-1.5H690c0.8,0,1.5,0.7,1.5,1.5
				C691.5,256,690.9,256.7,690,256.7z"/>
		</g>
		<g>
			<path class="st1" d="M690,268.8h-12.1c-0.8,0-1.5-0.7-1.5-1.5c0-0.8,0.7-1.5,1.5-1.5H690c0.8,0,1.5,0.7,1.5,1.5
				C691.5,268.1,690.9,268.8,690,268.8z"/>
		</g>
		<g>
			<path class="st0" d="M690,280.8h-12.1c-0.8,0-1.5-0.7-1.5-1.5c0-0.8,0.7-1.5,1.5-1.5H690c0.8,0,1.5,0.7,1.5,1.5
				C691.5,280.2,690.9,280.8,690,280.8z"/>
		</g>
		<g>
			<path class="st1" d="M690,292.9h-12.1c-0.8,0-1.5-0.7-1.5-1.5c0-0.8,0.7-1.5,1.5-1.5H690c0.8,0,1.5,0.7,1.5,1.5
				C691.5,292.2,690.9,292.9,690,292.9z"/>
		</g>
		<g>
			<path class="st0" d="M690,329.2h-12.1c-0.8,0-1.5-0.7-1.5-1.5c0-0.8,0.7-1.5,1.5-1.5H690c0.8,0,1.5,0.7,1.5,1.5
				C691.5,328.5,690.9,329.2,690,329.2z"/>
		</g>
		<g>
			<path class="st0" d="M690,341.2h-12.1c-0.8,0-1.5-0.7-1.5-1.5c0-0.8,0.7-1.5,1.5-1.5H690c0.8,0,1.5,0.7,1.5,1.5
				C691.5,340.6,690.9,341.2,690,341.2z"/>
		</g>
		<g>
			<path class="st1" d="M690,449.9h-12.1c-0.8,0-1.5-0.7-1.5-1.5c0-0.8,0.7-1.5,1.5-1.5H690c0.8,0,1.5,0.7,1.5,1.5
				C691.5,449.3,690.9,449.9,690,449.9z"/>
		</g>
		<g>
			<path class="st0" d="M690,462h-12.1c-0.8,0-1.5-0.7-1.5-1.5c0-0.8,0.7-1.5,1.5-1.5H690c0.8,0,1.5,0.7,1.5,1.5
				C691.5,461.4,690.9,462,690,462z"/>
		</g>
		<g>
			<path class="st1" d="M690,474.1h-12.1c-0.8,0-1.5-0.7-1.5-1.5c0-0.8,0.7-1.5,1.5-1.5H690c0.8,0,1.5,0.7,1.5,1.5
				C691.5,473.4,690.9,474.1,690,474.1z"/>
		</g>
		<g>
			<path class="st1" d="M690,486.2h-12.1c-0.8,0-1.5-0.7-1.5-1.5c0-0.8,0.7-1.5,1.5-1.5H690c0.8,0,1.5,0.7,1.5,1.5
				C691.5,485.5,690.9,486.2,690,486.2z"/>
		</g>
		<g>
			<path class="st1" d="M690,619.1h-12.1c-0.8,0-1.5-0.7-1.5-1.5c0-0.8,0.7-1.5,1.5-1.5H690c0.8,0,1.5,0.7,1.5,1.5
				C691.5,618.4,690.9,619.1,690,619.1z"/>
		</g>
		<g>
			<path class="st1" d="M690,631.1h-12.1c-0.8,0-1.5-0.7-1.5-1.5c0-0.8,0.7-1.5,1.5-1.5H690c0.8,0,1.5,0.7,1.5,1.5
				C691.5,630.5,690.9,631.1,690,631.1z"/>
		</g>
		<g>
			<path class="st0" d="M689.3,643.2h-11.3c-0.8,0-1.5-0.7-1.5-1.5c0-0.8,0.7-1.5,1.5-1.5h11.3c0.8,0,1.5,0.7,1.5,1.5
				C690.8,642.5,690.1,643.2,689.3,643.2z"/>
		</g>
		<g>
			<path class="st1" d="M689.3,655.3h-11.3c-0.8,0-1.5-0.7-1.5-1.5c0-0.8,0.7-1.5,1.5-1.5h11.3c0.8,0,1.5,0.7,1.5,1.5
				C690.8,654.6,690.1,655.3,689.3,655.3z"/>
		</g>
	</g>
</g>
</svg>
